<?xml version='1.0'?>
<svg xmlns="http://www.w3.org/2000/svg" xmlns:xlink="http://www.w3.org/1999/xlink" width="7000" height="111">
<defs>
  <filter id="ds" x="0" y="0">
    <feOffset in="SourceAlpha" dx="2" dy="2" />
    <feComponentTransfer><feFuncA type="linear" slope="0.2"/></feComponentTransfer>
    <feGaussianBlur result="blurOut" stdDeviation="1" />
    <feBlend in="SourceGraphic" in2="blurOut" mode="normal" />
  </filter>
  <pattern id="disordered-hatch" patternUnits="userSpaceOnUse" width="4" height="4">
    <path d="M-1,1 l2,-2 M0,4 l4,-4 M3,5 l2,-2" stroke="#000000" opacity="0.3" />
  </pattern>
</defs>
<line x1="1571.407767" x2="1571.407767" y1="19" y2="47" stroke="#BABDB6" stroke-width="2"/><a xlink:title="LLPL23L"><circle cx="1571.407767" cy="19" r="4.000000" fill="#ff0000" /></a><a xlink:title="B1AKR3_HUMAN, Transmembrane protein 52 (Fragment) (103aa)"><rect fill="#BABDB6" x="15" y="47" width="6970" height="14"/></a><a xlink:title="disorder"><rect fill="url(#disordered-hatch)" x="3195.485437" y="47" width="203.009709" height="14"/></a>
<a xlink:title="sig_p"><rect fill="#FFD27F" x="82.669903" y="45" width="2097.766990" height="18" filter="url(#ds)"/></a>
<a xlink:title="transmembrane"><rect fill="#7FFFFF" x="5631.601942" y="45" width="1285.728155" height="18" filter="url(#ds)"/></a>
<a xlink:title="low_complexity"><rect fill="#7FFFFF" x="150.339806" y="45" width="1691.747573" height="18" filter="url(#ds)"/></a>
<a xlink:title="low_complexity"><rect fill="#7FFFFF" x="6037.621359" y="45" width="676.699029" height="18" filter="url(#ds)"/></a>
<g transform="translate(4481.213592,42)"><a xlink:href="http://pfam.xfam.org/family/PF14979" xlink:title="Transmembrane 52"><rect fill="#2dcf00" x="0" y="0" width="2503.786408" height="24" filter="url(#ds)"/><text style="font-size:12px;font-family:sans-serif;fill:#ffffff;" text-anchor="middle" x="1251.893204" y="16">Transmembrane 52</text></a></g>
<g class="axis">
<line x1="15" x2="6985" y1="76" y2="76" stroke="#AAAAAA" /><line x1="15" x2="15" y1="76" y2="81" stroke="#AAAAAA" /><line x1="15.000000" x2="15.000000" y1="76" y2="81" stroke="#AAAAAA" /><text style="font-size:10px;font-family:sans-serif;fill:#000000;" text-anchor="middle" x="15.000000" y="91">0</text><line x1="82.669903" x2="82.669903" y1="76" y2="81" stroke="#AAAAAA" /><text style="font-size:10px;font-family:sans-serif;fill:#000000;" text-anchor="middle" x="82.669903" y="91">1</text><line x1="150.339806" x2="150.339806" y1="76" y2="81" stroke="#AAAAAA" /><text style="font-size:10px;font-family:sans-serif;fill:#000000;" text-anchor="middle" x="150.339806" y="91">2</text><line x1="1571.407767" x2="1571.407767" y1="76" y2="81" stroke="#AAAAAA" /><text style="font-size:10px;font-family:sans-serif;fill:#000000;" text-anchor="middle" x="1571.407767" y="91">23</text><line x1="1842.087379" x2="1842.087379" y1="76" y2="81" stroke="#AAAAAA" /><text style="font-size:10px;font-family:sans-serif;fill:#000000;" text-anchor="middle" x="1842.087379" y="91">27</text><line x1="2180.436893" x2="2180.436893" y1="76" y2="81" stroke="#AAAAAA" /><text style="font-size:10px;font-family:sans-serif;fill:#000000;" text-anchor="middle" x="2180.436893" y="91">32</text><line x1="4481.213592" x2="4481.213592" y1="76" y2="81" stroke="#AAAAAA" /><text style="font-size:10px;font-family:sans-serif;fill:#000000;" text-anchor="middle" x="4481.213592" y="91">66</text><line x1="5631.601942" x2="5631.601942" y1="76" y2="81" stroke="#AAAAAA" /><text style="font-size:10px;font-family:sans-serif;fill:#000000;" text-anchor="middle" x="5631.601942" y="91">83</text><line x1="6037.621359" x2="6037.621359" y1="76" y2="81" stroke="#AAAAAA" /><text style="font-size:10px;font-family:sans-serif;fill:#000000;" text-anchor="middle" x="6037.621359" y="91">89</text><line x1="6714.320388" x2="6714.320388" y1="76" y2="81" stroke="#AAAAAA" /><text style="font-size:10px;font-family:sans-serif;fill:#000000;" text-anchor="middle" x="6714.320388" y="91">99</text><line x1="6917.330097" x2="6917.330097" y1="76" y2="81" stroke="#AAAAAA" /><text style="font-size:10px;font-family:sans-serif;fill:#000000;" text-anchor="middle" x="6917.330097" y="91">102</text><line x1="6985.000000" x2="6985.000000" y1="76" y2="81" stroke="#AAAAAA" /><text style="font-size:10px;font-family:sans-serif;fill:#000000;" text-anchor="middle" x="6985.000000" y="91">103</text><line x1="6985.000000" x2="6985.000000" y1="76" y2="81" stroke="#AAAAAA" /><text style="font-size:10px;font-family:sans-serif;fill:#000000;" text-anchor="middle" x="6985.000000" y="91">103</text></g>
</svg>
