<?xml version='1.0'?>
<svg xmlns="http://www.w3.org/2000/svg" xmlns:xlink="http://www.w3.org/1999/xlink" width="7000" height="111">
<defs>
  <filter id="ds" x="0" y="0">
    <feOffset in="SourceAlpha" dx="2" dy="2" />
    <feComponentTransfer><feFuncA type="linear" slope="0.2"/></feComponentTransfer>
    <feGaussianBlur result="blurOut" stdDeviation="1" />
    <feBlend in="SourceGraphic" in2="blurOut" mode="normal" />
  </filter>
  <pattern id="disordered-hatch" patternUnits="userSpaceOnUse" width="4" height="4">
    <path d="M-1,1 l2,-2 M0,4 l4,-4 M3,5 l2,-2" stroke="#000000" opacity="0.3" />
  </pattern>
</defs>
<line x1="3177.507463" x2="3177.507463" y1="19" y2="47" stroke="#BABDB6" stroke-width="2"/><a xlink:title="H152P"><circle cx="3177.507463" cy="19" r="4.000000" fill="#ff0000" /></a><a xlink:title="B4DLN5_HUMAN, cDNA FLJ59336, highly similar to Homo sapiens SH2-B homolog (SH2B), mRNA (335aa)"><rect fill="#BABDB6" x="15" y="47" width="6970" height="14"/></a><a xlink:title="disorder"><rect fill="url(#disordered-hatch)" x="56.611940" y="47" width="228.865672" height="14"/></a>
<a xlink:title="disorder"><rect fill="url(#disordered-hatch)" x="868.044776" y="47" width="457.731343" height="14"/></a>
<a xlink:title="disorder"><rect fill="url(#disordered-hatch)" x="1409.000000" y="47" width="62.417910" height="14"/></a>
<a xlink:title="disorder"><rect fill="url(#disordered-hatch)" x="1533.835821" y="47" width="83.223881" height="14"/></a>
<a xlink:title="disorder"><rect fill="url(#disordered-hatch)" x="1721.089552" y="47" width="561.761194" height="14"/></a>
<a xlink:title="disorder"><rect fill="url(#disordered-hatch)" x="2366.074627" y="47" width="20.805970" height="14"/></a>
<a xlink:title="disorder"><rect fill="url(#disordered-hatch)" x="2428.492537" y="47" width="62.417910" height="14"/></a>
<a xlink:title="disorder"><rect fill="url(#disordered-hatch)" x="2615.746269" y="47" width="62.417910" height="14"/></a>
<a xlink:title="disorder"><rect fill="url(#disordered-hatch)" x="3094.283582" y="47" width="270.477612" height="14"/></a>
<a xlink:title="disorder"><rect fill="url(#disordered-hatch)" x="3447.985075" y="47" width="187.253731" height="14"/></a>
<a xlink:title="disorder"><rect fill="url(#disordered-hatch)" x="3822.492537" y="47" width="83.223881" height="14"/></a>
<a xlink:title="disorder"><rect fill="url(#disordered-hatch)" x="4509.089552" y="47" width="20.805970" height="14"/></a>
<a xlink:title="disorder"><rect fill="url(#disordered-hatch)" x="6152.761194" y="47" width="20.805970" height="14"/></a>
<a xlink:title="disorder"><rect fill="url(#disordered-hatch)" x="6235.985075" y="47" width="166.447761" height="14"/></a>
<a xlink:title="low_complexity"><rect fill="#C2DDFF" x="2303.656716" y="45" width="291.283582" height="18" filter="url(#ds)"/></a>
<a xlink:title="low_complexity"><rect fill="#C2DDFF" x="2719.776119" y="45" width="353.701493" height="18" filter="url(#ds)"/></a>
<a xlink:title="low_complexity"><rect fill="#C2DDFF" x="3656.044776" y="45" width="145.641791" height="18" filter="url(#ds)"/></a>
<g transform="translate(35.805970,42)"><a xlink:href="http://pfam.xfam.org/family/PF00169" xlink:title="PH domain"><rect fill="#2dcf00" x="0" y="0" width="811.432836" height="24" filter="url(#ds)"/><text style="font-size:12px;font-family:sans-serif;fill:#ffffff;" text-anchor="middle" x="405.716418" y="16">PH domain</text></a></g>
<g transform="translate(3988.940299,42)"><a xlink:href="http://pfam.xfam.org/family/PF00017" xlink:title="SH2 domain"><rect fill="#ff5353" x="0" y="0" width="1602.059701" height="24" filter="url(#ds)"/><text style="font-size:12px;font-family:sans-serif;fill:#ffffff;" text-anchor="middle" x="801.029851" y="16">SH2 domain</text></a></g>
<g class="axis">
<line x1="15" x2="6985" y1="76" y2="76" stroke="#AAAAAA" /><line x1="15" x2="15" y1="76" y2="81" stroke="#AAAAAA" /><line x1="15.000000" x2="15.000000" y1="76" y2="81" stroke="#AAAAAA" /><text style="font-size:10px;font-family:sans-serif;fill:#000000;" text-anchor="middle" x="15.000000" y="91">0</text><line x1="35.805970" x2="35.805970" y1="76" y2="81" stroke="#AAAAAA" /><text style="font-size:10px;font-family:sans-serif;fill:#000000;" text-anchor="middle" x="35.805970" y="91">1</text><line x1="847.238806" x2="847.238806" y1="76" y2="81" stroke="#AAAAAA" /><text style="font-size:10px;font-family:sans-serif;fill:#000000;" text-anchor="middle" x="847.238806" y="91">40</text><line x1="2303.656716" x2="2303.656716" y1="76" y2="81" stroke="#AAAAAA" /><text style="font-size:10px;font-family:sans-serif;fill:#000000;" text-anchor="middle" x="2303.656716" y="91">110</text><line x1="2594.940299" x2="2594.940299" y1="76" y2="81" stroke="#AAAAAA" /><text style="font-size:10px;font-family:sans-serif;fill:#000000;" text-anchor="middle" x="2594.940299" y="91">124</text><line x1="2719.776119" x2="2719.776119" y1="76" y2="81" stroke="#AAAAAA" /><text style="font-size:10px;font-family:sans-serif;fill:#000000;" text-anchor="middle" x="2719.776119" y="91">130</text><line x1="3073.477612" x2="3073.477612" y1="76" y2="81" stroke="#AAAAAA" /><text style="font-size:10px;font-family:sans-serif;fill:#000000;" text-anchor="middle" x="3073.477612" y="91">147</text><line x1="3177.507463" x2="3177.507463" y1="76" y2="81" stroke="#AAAAAA" /><text style="font-size:10px;font-family:sans-serif;fill:#000000;" text-anchor="middle" x="3177.507463" y="91">152</text><line x1="3656.044776" x2="3656.044776" y1="76" y2="81" stroke="#AAAAAA" /><text style="font-size:10px;font-family:sans-serif;fill:#000000;" text-anchor="middle" x="3656.044776" y="91">175</text><line x1="3801.686567" x2="3801.686567" y1="76" y2="81" stroke="#AAAAAA" /><text style="font-size:10px;font-family:sans-serif;fill:#000000;" text-anchor="middle" x="3801.686567" y="91">182</text><line x1="3988.940299" x2="3988.940299" y1="76" y2="81" stroke="#AAAAAA" /><text style="font-size:10px;font-family:sans-serif;fill:#000000;" text-anchor="middle" x="3988.940299" y="91">191</text><line x1="5591.000000" x2="5591.000000" y1="76" y2="81" stroke="#AAAAAA" /><text style="font-size:10px;font-family:sans-serif;fill:#000000;" text-anchor="middle" x="5591.000000" y="91">268</text><line x1="6985.000000" x2="6985.000000" y1="76" y2="81" stroke="#AAAAAA" /><text style="font-size:10px;font-family:sans-serif;fill:#000000;" text-anchor="middle" x="6985.000000" y="91">335</text></g>
</svg>
