<?xml version='1.0'?>
<svg xmlns="http://www.w3.org/2000/svg" xmlns:xlink="http://www.w3.org/1999/xlink" width="7000" height="111">
<defs>
  <filter id="ds" x="0" y="0">
    <feOffset in="SourceAlpha" dx="2" dy="2" />
    <feComponentTransfer><feFuncA type="linear" slope="0.2"/></feComponentTransfer>
    <feGaussianBlur result="blurOut" stdDeviation="1" />
    <feBlend in="SourceGraphic" in2="blurOut" mode="normal" />
  </filter>
  <pattern id="disordered-hatch" patternUnits="userSpaceOnUse" width="4" height="4">
    <path d="M-1,1 l2,-2 M0,4 l4,-4 M3,5 l2,-2" stroke="#000000" opacity="0.3" />
  </pattern>
</defs>
<line x1="6127.153846" x2="6127.153846" y1="19" y2="47" stroke="#BABDB6" stroke-width="2"/><a xlink:title="A1140T"><circle cx="6127.153846" cy="19" r="4.000000" fill="#ff0000" /></a><a xlink:title="B7WPH3_HUMAN, Cat eye syndrome critical region protein 2 (1300aa)"><rect fill="#BABDB6" x="15" y="47" width="6970" height="14"/></a><a xlink:title="disorder"><rect fill="url(#disordered-hatch)" x="20.361538" y="47" width="412.838462" height="14"/></a>
<a xlink:title="disorder"><rect fill="url(#disordered-hatch)" x="524.346154" y="47" width="5.361538" height="14"/></a>
<a xlink:title="disorder"><rect fill="url(#disordered-hatch)" x="669.107692" y="47" width="155.484615" height="14"/></a>
<a xlink:title="disorder"><rect fill="url(#disordered-hatch)" x="910.376923" y="47" width="0.000000" height="14"/></a>
<a xlink:title="disorder"><rect fill="url(#disordered-hatch)" x="947.907692" y="47" width="21.446154" height="14"/></a>
<a xlink:title="disorder"><rect fill="url(#disordered-hatch)" x="1028.330769" y="47" width="48.253846" height="14"/></a>
<a xlink:title="disorder"><rect fill="url(#disordered-hatch)" x="1087.307692" y="47" width="10.723077" height="14"/></a>
<a xlink:title="disorder"><rect fill="url(#disordered-hatch)" x="1119.476923" y="47" width="5.361538" height="14"/></a>
<a xlink:title="disorder"><rect fill="url(#disordered-hatch)" x="1285.684615" y="47" width="58.976923" height="14"/></a>
<a xlink:title="disorder"><rect fill="url(#disordered-hatch)" x="1891.538462" y="47" width="32.169231" height="14"/></a>
<a xlink:title="disorder"><rect fill="url(#disordered-hatch)" x="3146.138462" y="47" width="53.615385" height="14"/></a>
<a xlink:title="disorder"><rect fill="url(#disordered-hatch)" x="3210.476923" y="47" width="10.723077" height="14"/></a>
<a xlink:title="disorder"><rect fill="url(#disordered-hatch)" x="4931.530769" y="47" width="214.461538" height="14"/></a>
<a xlink:title="disorder"><rect fill="url(#disordered-hatch)" x="5194.246154" y="47" width="284.161538" height="14"/></a>
<a xlink:title="disorder"><rect fill="url(#disordered-hatch)" x="5564.192308" y="47" width="5.361538" height="14"/></a>
<a xlink:title="disorder"><rect fill="url(#disordered-hatch)" x="5751.846154" y="47" width="482.538462" height="14"/></a>
<a xlink:title="disorder"><rect fill="url(#disordered-hatch)" x="6245.107692" y="47" width="375.307692" height="14"/></a>
<a xlink:title="disorder"><rect fill="url(#disordered-hatch)" x="6641.861538" y="47" width="343.138462" height="14"/></a>
<a xlink:title="coiled_coil"><rect fill="#7FFFFF" x="910.376923" y="45" width="0.000000" height="18" filter="url(#ds)"/></a>
<a xlink:title="low_complexity"><rect fill="#7FFFFF" x="181.207692" y="45" width="80.423077" height="18" filter="url(#ds)"/></a>
<a xlink:title="low_complexity"><rect fill="#7FFFFF" x="910.376923" y="45" width="0.000000" height="18" filter="url(#ds)"/></a>
<a xlink:title="low_complexity"><rect fill="#7FFFFF" x="996.161538" y="45" width="123.315385" height="18" filter="url(#ds)"/></a>
<a xlink:title="low_complexity"><rect fill="#7FFFFF" x="1130.200000" y="45" width="80.423077" height="18" filter="url(#ds)"/></a>
<a xlink:title="low_complexity"><rect fill="#C2DDFF" x="1998.769231" y="45" width="96.507692" height="18" filter="url(#ds)"/></a>
<a xlink:title="low_complexity"><rect fill="#C2DDFF" x="2277.569231" y="45" width="48.253846" height="18" filter="url(#ds)"/></a>
<a xlink:title="low_complexity"><rect fill="#C2DDFF" x="3081.800000" y="45" width="58.976923" height="18" filter="url(#ds)"/></a>
<a xlink:title="low_complexity"><rect fill="#C2DDFF" x="4255.976923" y="45" width="58.976923" height="18" filter="url(#ds)"/></a>
<a xlink:title="low_complexity"><rect fill="#C2DDFF" x="4363.207692" y="45" width="64.338462" height="18" filter="url(#ds)"/></a>
<a xlink:title="low_complexity"><rect fill="#C2DDFF" x="4845.746154" y="45" width="80.423077" height="18" filter="url(#ds)"/></a>
<a xlink:title="low_complexity"><rect fill="#C2DDFF" x="5483.769231" y="45" width="75.061538" height="18" filter="url(#ds)"/></a>
<a xlink:title="low_complexity"><rect fill="#C2DDFF" x="5666.061538" y="45" width="80.423077" height="18" filter="url(#ds)"/></a>
<a xlink:title="disorder"><rect fill="url(#disordered-hatch)" x="3274.815385" y="47" width="42.892308" height="14"/></a>
<a xlink:title="disorder"><rect fill="url(#disordered-hatch)" x="1939.792308" y="47" width="53.615385" height="14"/></a>
<a xlink:title="disorder"><rect fill="url(#disordered-hatch)" x="2100.638462" y="47" width="171.569231" height="14"/></a>
<a xlink:title="disorder"><rect fill="url(#disordered-hatch)" x="2331.184615" y="47" width="745.253846" height="14"/></a>
<a xlink:title="disorder"><rect fill="url(#disordered-hatch)" x="4229.169231" y="47" width="21.446154" height="14"/></a>
<a xlink:title="disorder"><rect fill="url(#disordered-hatch)" x="4320.315385" y="47" width="37.530769" height="14"/></a>
<a xlink:title="disorder"><rect fill="url(#disordered-hatch)" x="4432.907692" y="47" width="407.476923" height="14"/></a>
<a xlink:title="disorder"><rect fill="url(#disordered-hatch)" x="5612.446154" y="47" width="48.253846" height="14"/></a>
<g transform="translate(1409.000000,42)"><a xlink:href="http://pfam.xfam.org/family/PF00439" xlink:title="Bromodomain"><rect fill="#2dcf00" x="0" y="0" width="445.007692" height="24" filter="url(#ds)"/><text style="font-size:12px;font-family:sans-serif;fill:#ffffff;" text-anchor="middle" x="222.503846" y="16">Bromodomain</text></a></g>
<g class="axis">
<line x1="15" x2="6985" y1="76" y2="76" stroke="#AAAAAA" /><line x1="15" x2="15" y1="76" y2="81" stroke="#AAAAAA" /><line x1="15.000000" x2="15.000000" y1="76" y2="81" stroke="#AAAAAA" /><text style="font-size:10px;font-family:sans-serif;fill:#000000;" text-anchor="middle" x="15.000000" y="91">0</text><line x1="181.207692" x2="181.207692" y1="76" y2="81" stroke="#AAAAAA" /><text style="font-size:10px;font-family:sans-serif;fill:#000000;" text-anchor="middle" x="181.207692" y="91">31</text><line x1="261.630769" x2="261.630769" y1="76" y2="81" stroke="#AAAAAA" /><text style="font-size:10px;font-family:sans-serif;fill:#000000;" text-anchor="middle" x="261.630769" y="91">46</text><line x1="910.376923" x2="910.376923" y1="76" y2="81" stroke="#AAAAAA" /><text style="font-size:10px;font-family:sans-serif;fill:#000000;" text-anchor="middle" x="910.376923" y="91">167</text><line x1="996.161538" x2="996.161538" y1="76" y2="81" stroke="#AAAAAA" /><text style="font-size:10px;font-family:sans-serif;fill:#000000;" text-anchor="middle" x="996.161538" y="91">183</text><line x1="1119.476923" x2="1119.476923" y1="76" y2="81" stroke="#AAAAAA" /><text style="font-size:10px;font-family:sans-serif;fill:#000000;" text-anchor="middle" x="1119.476923" y="91">206</text><line x1="1210.623077" x2="1210.623077" y1="76" y2="81" stroke="#AAAAAA" /><text style="font-size:10px;font-family:sans-serif;fill:#000000;" text-anchor="middle" x="1210.623077" y="91">223</text><line x1="1409.000000" x2="1409.000000" y1="76" y2="81" stroke="#AAAAAA" /><text style="font-size:10px;font-family:sans-serif;fill:#000000;" text-anchor="middle" x="1409.000000" y="91">260</text><line x1="1854.007692" x2="1854.007692" y1="76" y2="81" stroke="#AAAAAA" /><text style="font-size:10px;font-family:sans-serif;fill:#000000;" text-anchor="middle" x="1854.007692" y="91">343</text><line x1="1998.769231" x2="1998.769231" y1="76" y2="81" stroke="#AAAAAA" /><text style="font-size:10px;font-family:sans-serif;fill:#000000;" text-anchor="middle" x="1998.769231" y="91">370</text><line x1="2095.276923" x2="2095.276923" y1="76" y2="81" stroke="#AAAAAA" /><text style="font-size:10px;font-family:sans-serif;fill:#000000;" text-anchor="middle" x="2095.276923" y="91">388</text><line x1="2277.569231" x2="2277.569231" y1="76" y2="81" stroke="#AAAAAA" /><text style="font-size:10px;font-family:sans-serif;fill:#000000;" text-anchor="middle" x="2277.569231" y="91">422</text><line x1="2325.823077" x2="2325.823077" y1="76" y2="81" stroke="#AAAAAA" /><text style="font-size:10px;font-family:sans-serif;fill:#000000;" text-anchor="middle" x="2325.823077" y="91">431</text><line x1="3081.800000" x2="3081.800000" y1="76" y2="81" stroke="#AAAAAA" /><text style="font-size:10px;font-family:sans-serif;fill:#000000;" text-anchor="middle" x="3081.800000" y="91">572</text><line x1="3140.776923" x2="3140.776923" y1="76" y2="81" stroke="#AAAAAA" /><text style="font-size:10px;font-family:sans-serif;fill:#000000;" text-anchor="middle" x="3140.776923" y="91">583</text><line x1="4255.976923" x2="4255.976923" y1="76" y2="81" stroke="#AAAAAA" /><text style="font-size:10px;font-family:sans-serif;fill:#000000;" text-anchor="middle" x="4255.976923" y="91">791</text><line x1="4314.953846" x2="4314.953846" y1="76" y2="81" stroke="#AAAAAA" /><text style="font-size:10px;font-family:sans-serif;fill:#000000;" text-anchor="middle" x="4314.953846" y="91">802</text><line x1="4363.207692" x2="4363.207692" y1="76" y2="81" stroke="#AAAAAA" /><text style="font-size:10px;font-family:sans-serif;fill:#000000;" text-anchor="middle" x="4363.207692" y="91">811</text><line x1="4427.546154" x2="4427.546154" y1="76" y2="81" stroke="#AAAAAA" /><text style="font-size:10px;font-family:sans-serif;fill:#000000;" text-anchor="middle" x="4427.546154" y="91">823</text><line x1="4845.746154" x2="4845.746154" y1="76" y2="81" stroke="#AAAAAA" /><text style="font-size:10px;font-family:sans-serif;fill:#000000;" text-anchor="middle" x="4845.746154" y="91">901</text><line x1="4926.169231" x2="4926.169231" y1="76" y2="81" stroke="#AAAAAA" /><text style="font-size:10px;font-family:sans-serif;fill:#000000;" text-anchor="middle" x="4926.169231" y="91">916</text><line x1="5483.769231" x2="5483.769231" y1="76" y2="81" stroke="#AAAAAA" /><text style="font-size:10px;font-family:sans-serif;fill:#000000;" text-anchor="middle" x="5483.769231" y="91">1020</text><line x1="5558.830769" x2="5558.830769" y1="76" y2="81" stroke="#AAAAAA" /><text style="font-size:10px;font-family:sans-serif;fill:#000000;" text-anchor="middle" x="5558.830769" y="91">1034</text><line x1="5666.061538" x2="5666.061538" y1="76" y2="81" stroke="#AAAAAA" /><text style="font-size:10px;font-family:sans-serif;fill:#000000;" text-anchor="middle" x="5666.061538" y="91">1054</text><line x1="5746.484615" x2="5746.484615" y1="76" y2="81" stroke="#AAAAAA" /><text style="font-size:10px;font-family:sans-serif;fill:#000000;" text-anchor="middle" x="5746.484615" y="91">1069</text><line x1="6127.153846" x2="6127.153846" y1="76" y2="81" stroke="#AAAAAA" /><text style="font-size:10px;font-family:sans-serif;fill:#000000;" text-anchor="middle" x="6127.153846" y="91">1140</text><line x1="6985.000000" x2="6985.000000" y1="76" y2="81" stroke="#AAAAAA" /><text style="font-size:10px;font-family:sans-serif;fill:#000000;" text-anchor="middle" x="6985.000000" y="91">1300</text></g>
</svg>
