<?xml version='1.0'?>
<svg xmlns="http://www.w3.org/2000/svg" xmlns:xlink="http://www.w3.org/1999/xlink" width="7000" height="111">
<defs>
  <filter id="ds" x="0" y="0">
    <feOffset in="SourceAlpha" dx="2" dy="2" />
    <feComponentTransfer><feFuncA type="linear" slope="0.2"/></feComponentTransfer>
    <feGaussianBlur result="blurOut" stdDeviation="1" />
    <feBlend in="SourceGraphic" in2="blurOut" mode="normal" />
  </filter>
  <pattern id="disordered-hatch" patternUnits="userSpaceOnUse" width="4" height="4">
    <path d="M-1,1 l2,-2 M0,4 l4,-4 M3,5 l2,-2" stroke="#000000" opacity="0.3" />
  </pattern>
</defs>
<line x1="1022.857143" x2="1022.857143" y1="19" y2="47" stroke="#BABDB6" stroke-width="2"/><a xlink:title="E83D"><circle cx="1022.857143" cy="19" r="4.000000" fill="#ff0000" /></a><a xlink:title="C9J3D7_HUMAN, Peroxisomal carnitine O-octanoyltransferase (574aa)"><rect fill="#BABDB6" x="15" y="47" width="6970" height="14"/></a><a xlink:title="disorder"><rect fill="url(#disordered-hatch)" x="27.142857" y="47" width="12.142857" height="14"/></a>
<a xlink:title="disorder"><rect fill="url(#disordered-hatch)" x="2868.571429" y="47" width="12.142857" height="14"/></a>
<a xlink:title="coiled_coil"><rect fill="#7FFFFF" x="4592.857143" y="45" width="242.857143" height="18" filter="url(#ds)"/></a>
<g transform="translate(245.714286,42)"><a xlink:href="http://pfam.xfam.org/family/PF00755" xlink:title="Choline/Carnitine o-acyltransferase"><rect fill="#2dcf00" x="0" y="0" width="6739.285714" height="24" filter="url(#ds)"/><text style="font-size:12px;font-family:sans-serif;fill:#ffffff;" text-anchor="middle" x="3369.642857" y="16">Choline/Carnitine o-acyltransferase</text></a></g>
<g class="axis">
<line x1="15" x2="6985" y1="76" y2="76" stroke="#AAAAAA" /><line x1="15" x2="15" y1="76" y2="81" stroke="#AAAAAA" /><line x1="15.000000" x2="15.000000" y1="76" y2="81" stroke="#AAAAAA" /><text style="font-size:10px;font-family:sans-serif;fill:#000000;" text-anchor="middle" x="15.000000" y="91">0</text><line x1="245.714286" x2="245.714286" y1="76" y2="81" stroke="#AAAAAA" /><text style="font-size:10px;font-family:sans-serif;fill:#000000;" text-anchor="middle" x="245.714286" y="91">19</text><line x1="1022.857143" x2="1022.857143" y1="76" y2="81" stroke="#AAAAAA" /><text style="font-size:10px;font-family:sans-serif;fill:#000000;" text-anchor="middle" x="1022.857143" y="91">83</text><line x1="4592.857143" x2="4592.857143" y1="76" y2="81" stroke="#AAAAAA" /><text style="font-size:10px;font-family:sans-serif;fill:#000000;" text-anchor="middle" x="4592.857143" y="91">377</text><line x1="4835.714286" x2="4835.714286" y1="76" y2="81" stroke="#AAAAAA" /><text style="font-size:10px;font-family:sans-serif;fill:#000000;" text-anchor="middle" x="4835.714286" y="91">397</text><line x1="6985.000000" x2="6985.000000" y1="76" y2="81" stroke="#AAAAAA" /><text style="font-size:10px;font-family:sans-serif;fill:#000000;" text-anchor="middle" x="6985.000000" y="91">574</text></g>
</svg>
