<?xml version='1.0'?>
<svg xmlns="http://www.w3.org/2000/svg" xmlns:xlink="http://www.w3.org/1999/xlink" width="7000" height="111">
<defs>
  <filter id="ds" x="0" y="0">
    <feOffset in="SourceAlpha" dx="2" dy="2" />
    <feComponentTransfer><feFuncA type="linear" slope="0.2"/></feComponentTransfer>
    <feGaussianBlur result="blurOut" stdDeviation="1" />
    <feBlend in="SourceGraphic" in2="blurOut" mode="normal" />
  </filter>
  <pattern id="disordered-hatch" patternUnits="userSpaceOnUse" width="4" height="4">
    <path d="M-1,1 l2,-2 M0,4 l4,-4 M3,5 l2,-2" stroke="#000000" opacity="0.3" />
  </pattern>
</defs>
<line x1="5305.481928" x2="5305.481928" y1="19" y2="47" stroke="#BABDB6" stroke-width="2"/><a xlink:title="S1575L"><circle cx="5305.481928" cy="19" r="4.000000" fill="#ff0000" /></a><a xlink:title="C9J7T7_HUMAN, Nuclear receptor corepressor 2 (2075aa)"><rect fill="#BABDB6" x="15" y="47" width="6970" height="14"/></a><a xlink:title="disorder"><rect fill="url(#disordered-hatch)" x="35.154217" y="47" width="33.590361" height="14"/></a>
<a xlink:title="disorder"><rect fill="url(#disordered-hatch)" x="431.520482" y="47" width="191.465060" height="14"/></a>
<a xlink:title="disorder"><rect fill="url(#disordered-hatch)" x="2000.190361" y="47" width="23.513253" height="14"/></a>
<a xlink:title="disorder"><rect fill="url(#disordered-hatch)" x="2201.732530" y="47" width="90.693976" height="14"/></a>
<a xlink:title="disorder"><rect fill="url(#disordered-hatch)" x="2299.144578" y="47" width="13.436145" height="14"/></a>
<a xlink:title="disorder"><rect fill="url(#disordered-hatch)" x="2352.889157" y="47" width="10.077108" height="14"/></a>
<a xlink:title="disorder"><rect fill="url(#disordered-hatch)" x="2383.120482" y="47" width="188.106024" height="14"/></a>
<a xlink:title="disorder"><rect fill="url(#disordered-hatch)" x="2577.944578" y="47" width="87.334940" height="14"/></a>
<a xlink:title="disorder"><rect fill="url(#disordered-hatch)" x="2705.587952" y="47" width="10.077108" height="14"/></a>
<a xlink:title="disorder"><rect fill="url(#disordered-hatch)" x="2732.460241" y="47" width="77.257831" height="14"/></a>
<a xlink:title="disorder"><rect fill="url(#disordered-hatch)" x="2839.949398" y="47" width="131.002410" height="14"/></a>
<a xlink:title="disorder"><rect fill="url(#disordered-hatch)" x="2981.028916" y="47" width="3.359036" height="14"/></a>
<a xlink:title="disorder"><rect fill="url(#disordered-hatch)" x="2991.106024" y="47" width="141.079518" height="14"/></a>
<a xlink:title="disorder"><rect fill="url(#disordered-hatch)" x="3209.443373" y="47" width="53.744578" height="14"/></a>
<a xlink:title="disorder"><rect fill="url(#disordered-hatch)" x="3269.906024" y="47" width="282.159036" height="14"/></a>
<a xlink:title="disorder"><rect fill="url(#disordered-hatch)" x="3562.142169" y="47" width="3.359036" height="14"/></a>
<a xlink:title="disorder"><rect fill="url(#disordered-hatch)" x="3572.219277" y="47" width="3.359036" height="14"/></a>
<a xlink:title="disorder"><rect fill="url(#disordered-hatch)" x="3669.631325" y="47" width="285.518072" height="14"/></a>
<a xlink:title="disorder"><rect fill="url(#disordered-hatch)" x="4197.000000" y="47" width="23.513253" height="14"/></a>
<a xlink:title="disorder"><rect fill="url(#disordered-hatch)" x="4237.308434" y="47" width="6.718072" height="14"/></a>
<a xlink:title="disorder"><rect fill="url(#disordered-hatch)" x="4250.744578" y="47" width="40.308434" height="14"/></a>
<a xlink:title="disorder"><rect fill="url(#disordered-hatch)" x="4311.207229" y="47" width="3.359036" height="14"/></a>
<a xlink:title="disorder"><rect fill="url(#disordered-hatch)" x="5654.821687" y="47" width="100.771084" height="14"/></a>
<a xlink:title="disorder"><rect fill="url(#disordered-hatch)" x="5812.696386" y="47" width="13.436145" height="14"/></a>
<a xlink:title="disorder"><rect fill="url(#disordered-hatch)" x="5836.209639" y="47" width="470.265060" height="14"/></a>
<a xlink:title="disorder"><rect fill="url(#disordered-hatch)" x="6313.192771" y="47" width="10.077108" height="14"/></a>
<a xlink:title="disorder"><rect fill="url(#disordered-hatch)" x="6336.706024" y="47" width="70.539759" height="14"/></a>
<a xlink:title="disorder"><rect fill="url(#disordered-hatch)" x="6440.836145" y="47" width="57.103614" height="14"/></a>
<a xlink:title="disorder"><rect fill="url(#disordered-hatch)" x="6921.178313" y="47" width="53.744578" height="14"/></a>
<a xlink:title="disorder"><rect fill="url(#disordered-hatch)" x="6981.640964" y="47" width="3.359036" height="14"/></a>
<a xlink:title="coiled_coil"><rect fill="#98E698" x="300.518072" y="45" width="110.848193" height="18" filter="url(#ds)"/></a>
<a xlink:title="coiled_coil"><rect fill="#98E698" x="784.219277" y="45" width="90.693976" height="18" filter="url(#ds)"/></a>
<a xlink:title="low_complexity"><rect fill="#C2DDFF" x="229.978313" y="45" width="53.744578" height="18" filter="url(#ds)"/></a>
<a xlink:title="low_complexity"><rect fill="#C2DDFF" x="414.725301" y="45" width="13.436145" height="18" filter="url(#ds)"/></a>
<a xlink:title="low_complexity"><rect fill="#C2DDFF" x="878.272289" y="45" width="26.872289" height="18" filter="url(#ds)"/></a>
<a xlink:title="low_complexity"><rect fill="#C2DDFF" x="968.966265" y="45" width="30.231325" height="18" filter="url(#ds)"/></a>
<a xlink:title="low_complexity"><rect fill="#C2DDFF" x="1096.609639" y="45" width="245.209639" height="18" filter="url(#ds)"/></a>
<a xlink:title="low_complexity"><rect fill="#C2DDFF" x="1429.154217" y="45" width="104.130120" height="18" filter="url(#ds)"/></a>
<a xlink:title="low_complexity"><rect fill="#C2DDFF" x="1657.568675" y="45" width="40.308434" height="18" filter="url(#ds)"/></a>
<a xlink:title="low_complexity"><rect fill="#C2DDFF" x="1835.597590" y="45" width="43.667470" height="18" filter="url(#ds)"/></a>
<a xlink:title="low_complexity"><rect fill="#C2DDFF" x="1922.932530" y="45" width="73.898795" height="18" filter="url(#ds)"/></a>
<a xlink:title="low_complexity"><rect fill="#C2DDFF" x="2164.783133" y="45" width="33.590361" height="18" filter="url(#ds)"/></a>
<a xlink:title="low_complexity"><rect fill="#C2DDFF" x="3189.289157" y="45" width="16.795181" height="18" filter="url(#ds)"/></a>
<a xlink:title="low_complexity"><rect fill="#C2DDFF" x="3622.604819" y="45" width="43.667470" height="18" filter="url(#ds)"/></a>
<a xlink:title="low_complexity"><rect fill="#C2DDFF" x="4375.028916" y="45" width="57.103614" height="18" filter="url(#ds)"/></a>
<a xlink:title="low_complexity"><rect fill="#C2DDFF" x="4469.081928" y="45" width="57.103614" height="18" filter="url(#ds)"/></a>
<a xlink:title="low_complexity"><rect fill="#C2DDFF" x="4569.853012" y="45" width="53.744578" height="18" filter="url(#ds)"/></a>
<a xlink:title="low_complexity"><rect fill="#C2DDFF" x="4700.855422" y="45" width="40.308434" height="18" filter="url(#ds)"/></a>
<a xlink:title="low_complexity"><rect fill="#C2DDFF" x="4747.881928" y="45" width="47.026506" height="18" filter="url(#ds)"/></a>
<a xlink:title="low_complexity"><rect fill="#C2DDFF" x="5043.477108" y="45" width="47.026506" height="18" filter="url(#ds)"/></a>
<a xlink:title="low_complexity"><rect fill="#C2DDFF" x="5258.455422" y="45" width="63.821687" height="18" filter="url(#ds)"/></a>
<a xlink:title="low_complexity"><rect fill="#C2DDFF" x="5402.893976" y="45" width="57.103614" height="18" filter="url(#ds)"/></a>
<a xlink:title="low_complexity"><rect fill="#C2DDFF" x="5604.436145" y="45" width="47.026506" height="18" filter="url(#ds)"/></a>
<a xlink:title="low_complexity"><rect fill="#C2DDFF" x="5758.951807" y="45" width="50.385542" height="18" filter="url(#ds)"/></a>
<a xlink:title="low_complexity"><rect fill="#C2DDFF" x="6850.638554" y="45" width="67.180723" height="18" filter="url(#ds)"/></a>
<a xlink:title="disorder"><rect fill="url(#disordered-hatch)" x="287.081928" y="47" width="10.077108" height="14"/></a>
<a xlink:title="disorder"><rect fill="url(#disordered-hatch)" x="186.310843" y="47" width="40.308434" height="14"/></a>
<a xlink:title="disorder"><rect fill="url(#disordered-hatch)" x="414.725301" y="47" width="-3.359036" height="14"/></a>
<a xlink:title="disorder"><rect fill="url(#disordered-hatch)" x="878.272289" y="47" width="-3.359036" height="14"/></a>
<a xlink:title="disorder"><rect fill="url(#disordered-hatch)" x="908.503614" y="47" width="57.103614" height="14"/></a>
<a xlink:title="disorder"><rect fill="url(#disordered-hatch)" x="1002.556627" y="47" width="90.693976" height="14"/></a>
<a xlink:title="disorder"><rect fill="url(#disordered-hatch)" x="1345.178313" y="47" width="80.616867" height="14"/></a>
<a xlink:title="disorder"><rect fill="url(#disordered-hatch)" x="1536.643373" y="47" width="117.566265" height="14"/></a>
<a xlink:title="disorder"><rect fill="url(#disordered-hatch)" x="1701.236145" y="47" width="131.002410" height="14"/></a>
<a xlink:title="disorder"><rect fill="url(#disordered-hatch)" x="1882.624096" y="47" width="36.949398" height="14"/></a>
<a xlink:title="disorder"><rect fill="url(#disordered-hatch)" x="2037.139759" y="47" width="124.284337" height="14"/></a>
<a xlink:title="disorder"><rect fill="url(#disordered-hatch)" x="3142.262651" y="47" width="43.667470" height="14"/></a>
<a xlink:title="disorder"><rect fill="url(#disordered-hatch)" x="3582.296386" y="47" width="36.949398" height="14"/></a>
<a xlink:title="disorder"><rect fill="url(#disordered-hatch)" x="4368.310843" y="47" width="3.359036" height="14"/></a>
<a xlink:title="disorder"><rect fill="url(#disordered-hatch)" x="4435.491566" y="47" width="30.231325" height="14"/></a>
<a xlink:title="disorder"><rect fill="url(#disordered-hatch)" x="4529.544578" y="47" width="36.949398" height="14"/></a>
<a xlink:title="disorder"><rect fill="url(#disordered-hatch)" x="4626.956627" y="47" width="70.539759" height="14"/></a>
<a xlink:title="disorder"><rect fill="url(#disordered-hatch)" x="4744.522892" y="47" width="0.000000" height="14"/></a>
<a xlink:title="disorder"><rect fill="url(#disordered-hatch)" x="4798.267470" y="47" width="241.850602" height="14"/></a>
<a xlink:title="disorder"><rect fill="url(#disordered-hatch)" x="5093.862651" y="47" width="161.233735" height="14"/></a>
<a xlink:title="disorder"><rect fill="url(#disordered-hatch)" x="5325.636145" y="47" width="73.898795" height="14"/></a>
<a xlink:title="disorder"><rect fill="url(#disordered-hatch)" x="5463.356627" y="47" width="137.720482" height="14"/></a>
<a xlink:title="disorder"><rect fill="url(#disordered-hatch)" x="6504.657831" y="47" width="342.621687" height="14"/></a>
<g transform="translate(626.344578,42)"><a xlink:href="http://pfam.xfam.org/family/PF00249" xlink:title="Myb-like DNA-binding domain"><rect fill="#2dcf00" x="0" y="0" width="151.156627" height="24" filter="url(#ds)"/><text style="font-size:12px;font-family:sans-serif;fill:#ffffff;" text-anchor="middle" x="75.578313" y="16">..binding</text></a></g>
<g class="axis">
<line x1="15" x2="6985" y1="76" y2="76" stroke="#AAAAAA" /><line x1="15" x2="15" y1="76" y2="81" stroke="#AAAAAA" /><line x1="15.000000" x2="15.000000" y1="76" y2="81" stroke="#AAAAAA" /><text style="font-size:10px;font-family:sans-serif;fill:#000000;" text-anchor="middle" x="15.000000" y="91">0</text><line x1="229.978313" x2="229.978313" y1="76" y2="81" stroke="#AAAAAA" /><text style="font-size:10px;font-family:sans-serif;fill:#000000;" text-anchor="middle" x="229.978313" y="91">64</text><line x1="283.722892" x2="283.722892" y1="76" y2="81" stroke="#AAAAAA" /><text style="font-size:10px;font-family:sans-serif;fill:#000000;" text-anchor="middle" x="283.722892" y="91">80</text><line x1="300.518072" x2="300.518072" y1="76" y2="81" stroke="#AAAAAA" /><text style="font-size:10px;font-family:sans-serif;fill:#000000;" text-anchor="middle" x="300.518072" y="91">85</text><line x1="411.366265" x2="411.366265" y1="76" y2="81" stroke="#AAAAAA" /><text style="font-size:10px;font-family:sans-serif;fill:#000000;" text-anchor="middle" x="411.366265" y="91">118</text><line x1="428.161446" x2="428.161446" y1="76" y2="81" stroke="#AAAAAA" /><text style="font-size:10px;font-family:sans-serif;fill:#000000;" text-anchor="middle" x="428.161446" y="91">123</text><line x1="626.344578" x2="626.344578" y1="76" y2="81" stroke="#AAAAAA" /><text style="font-size:10px;font-family:sans-serif;fill:#000000;" text-anchor="middle" x="626.344578" y="91">182</text><line x1="777.501205" x2="777.501205" y1="76" y2="81" stroke="#AAAAAA" /><text style="font-size:10px;font-family:sans-serif;fill:#000000;" text-anchor="middle" x="777.501205" y="91">227</text><line x1="874.913253" x2="874.913253" y1="76" y2="81" stroke="#AAAAAA" /><text style="font-size:10px;font-family:sans-serif;fill:#000000;" text-anchor="middle" x="874.913253" y="91">256</text><line x1="905.144578" x2="905.144578" y1="76" y2="81" stroke="#AAAAAA" /><text style="font-size:10px;font-family:sans-serif;fill:#000000;" text-anchor="middle" x="905.144578" y="91">265</text><line x1="968.966265" x2="968.966265" y1="76" y2="81" stroke="#AAAAAA" /><text style="font-size:10px;font-family:sans-serif;fill:#000000;" text-anchor="middle" x="968.966265" y="91">284</text><line x1="999.197590" x2="999.197590" y1="76" y2="81" stroke="#AAAAAA" /><text style="font-size:10px;font-family:sans-serif;fill:#000000;" text-anchor="middle" x="999.197590" y="91">293</text><line x1="1096.609639" x2="1096.609639" y1="76" y2="81" stroke="#AAAAAA" /><text style="font-size:10px;font-family:sans-serif;fill:#000000;" text-anchor="middle" x="1096.609639" y="91">322</text><line x1="1341.819277" x2="1341.819277" y1="76" y2="81" stroke="#AAAAAA" /><text style="font-size:10px;font-family:sans-serif;fill:#000000;" text-anchor="middle" x="1341.819277" y="91">395</text><line x1="1429.154217" x2="1429.154217" y1="76" y2="81" stroke="#AAAAAA" /><text style="font-size:10px;font-family:sans-serif;fill:#000000;" text-anchor="middle" x="1429.154217" y="91">421</text><line x1="1533.284337" x2="1533.284337" y1="76" y2="81" stroke="#AAAAAA" /><text style="font-size:10px;font-family:sans-serif;fill:#000000;" text-anchor="middle" x="1533.284337" y="91">452</text><line x1="1657.568675" x2="1657.568675" y1="76" y2="81" stroke="#AAAAAA" /><text style="font-size:10px;font-family:sans-serif;fill:#000000;" text-anchor="middle" x="1657.568675" y="91">489</text><line x1="1697.877108" x2="1697.877108" y1="76" y2="81" stroke="#AAAAAA" /><text style="font-size:10px;font-family:sans-serif;fill:#000000;" text-anchor="middle" x="1697.877108" y="91">501</text><line x1="1835.597590" x2="1835.597590" y1="76" y2="81" stroke="#AAAAAA" /><text style="font-size:10px;font-family:sans-serif;fill:#000000;" text-anchor="middle" x="1835.597590" y="91">542</text><line x1="1879.265060" x2="1879.265060" y1="76" y2="81" stroke="#AAAAAA" /><text style="font-size:10px;font-family:sans-serif;fill:#000000;" text-anchor="middle" x="1879.265060" y="91">555</text><line x1="1922.932530" x2="1922.932530" y1="76" y2="81" stroke="#AAAAAA" /><text style="font-size:10px;font-family:sans-serif;fill:#000000;" text-anchor="middle" x="1922.932530" y="91">568</text><line x1="1996.831325" x2="1996.831325" y1="76" y2="81" stroke="#AAAAAA" /><text style="font-size:10px;font-family:sans-serif;fill:#000000;" text-anchor="middle" x="1996.831325" y="91">590</text><line x1="2164.783133" x2="2164.783133" y1="76" y2="81" stroke="#AAAAAA" /><text style="font-size:10px;font-family:sans-serif;fill:#000000;" text-anchor="middle" x="2164.783133" y="91">640</text><line x1="2198.373494" x2="2198.373494" y1="76" y2="81" stroke="#AAAAAA" /><text style="font-size:10px;font-family:sans-serif;fill:#000000;" text-anchor="middle" x="2198.373494" y="91">650</text><line x1="3189.289157" x2="3189.289157" y1="76" y2="81" stroke="#AAAAAA" /><text style="font-size:10px;font-family:sans-serif;fill:#000000;" text-anchor="middle" x="3189.289157" y="91">945</text><line x1="3206.084337" x2="3206.084337" y1="76" y2="81" stroke="#AAAAAA" /><text style="font-size:10px;font-family:sans-serif;fill:#000000;" text-anchor="middle" x="3206.084337" y="91">950</text><line x1="3622.604819" x2="3622.604819" y1="76" y2="81" stroke="#AAAAAA" /><text style="font-size:10px;font-family:sans-serif;fill:#000000;" text-anchor="middle" x="3622.604819" y="91">1074</text><line x1="3666.272289" x2="3666.272289" y1="76" y2="81" stroke="#AAAAAA" /><text style="font-size:10px;font-family:sans-serif;fill:#000000;" text-anchor="middle" x="3666.272289" y="91">1087</text><line x1="4375.028916" x2="4375.028916" y1="76" y2="81" stroke="#AAAAAA" /><text style="font-size:10px;font-family:sans-serif;fill:#000000;" text-anchor="middle" x="4375.028916" y="91">1298</text><line x1="4432.132530" x2="4432.132530" y1="76" y2="81" stroke="#AAAAAA" /><text style="font-size:10px;font-family:sans-serif;fill:#000000;" text-anchor="middle" x="4432.132530" y="91">1315</text><line x1="4469.081928" x2="4469.081928" y1="76" y2="81" stroke="#AAAAAA" /><text style="font-size:10px;font-family:sans-serif;fill:#000000;" text-anchor="middle" x="4469.081928" y="91">1326</text><line x1="4526.185542" x2="4526.185542" y1="76" y2="81" stroke="#AAAAAA" /><text style="font-size:10px;font-family:sans-serif;fill:#000000;" text-anchor="middle" x="4526.185542" y="91">1343</text><line x1="4569.853012" x2="4569.853012" y1="76" y2="81" stroke="#AAAAAA" /><text style="font-size:10px;font-family:sans-serif;fill:#000000;" text-anchor="middle" x="4569.853012" y="91">1356</text><line x1="4623.597590" x2="4623.597590" y1="76" y2="81" stroke="#AAAAAA" /><text style="font-size:10px;font-family:sans-serif;fill:#000000;" text-anchor="middle" x="4623.597590" y="91">1372</text><line x1="4700.855422" x2="4700.855422" y1="76" y2="81" stroke="#AAAAAA" /><text style="font-size:10px;font-family:sans-serif;fill:#000000;" text-anchor="middle" x="4700.855422" y="91">1395</text><line x1="4741.163855" x2="4741.163855" y1="76" y2="81" stroke="#AAAAAA" /><text style="font-size:10px;font-family:sans-serif;fill:#000000;" text-anchor="middle" x="4741.163855" y="91">1407</text><line x1="4794.908434" x2="4794.908434" y1="76" y2="81" stroke="#AAAAAA" /><text style="font-size:10px;font-family:sans-serif;fill:#000000;" text-anchor="middle" x="4794.908434" y="91">1423</text><line x1="5043.477108" x2="5043.477108" y1="76" y2="81" stroke="#AAAAAA" /><text style="font-size:10px;font-family:sans-serif;fill:#000000;" text-anchor="middle" x="5043.477108" y="91">1497</text><line x1="5090.503614" x2="5090.503614" y1="76" y2="81" stroke="#AAAAAA" /><text style="font-size:10px;font-family:sans-serif;fill:#000000;" text-anchor="middle" x="5090.503614" y="91">1511</text><line x1="5258.455422" x2="5258.455422" y1="76" y2="81" stroke="#AAAAAA" /><text style="font-size:10px;font-family:sans-serif;fill:#000000;" text-anchor="middle" x="5258.455422" y="91">1561</text><line x1="5305.481928" x2="5305.481928" y1="76" y2="81" stroke="#AAAAAA" /><text style="font-size:10px;font-family:sans-serif;fill:#000000;" text-anchor="middle" x="5305.481928" y="91">1575</text><line x1="5322.277108" x2="5322.277108" y1="76" y2="81" stroke="#AAAAAA" /><text style="font-size:10px;font-family:sans-serif;fill:#000000;" text-anchor="middle" x="5322.277108" y="91">1580</text><line x1="5402.893976" x2="5402.893976" y1="76" y2="81" stroke="#AAAAAA" /><text style="font-size:10px;font-family:sans-serif;fill:#000000;" text-anchor="middle" x="5402.893976" y="91">1604</text><line x1="5459.997590" x2="5459.997590" y1="76" y2="81" stroke="#AAAAAA" /><text style="font-size:10px;font-family:sans-serif;fill:#000000;" text-anchor="middle" x="5459.997590" y="91">1621</text><line x1="5604.436145" x2="5604.436145" y1="76" y2="81" stroke="#AAAAAA" /><text style="font-size:10px;font-family:sans-serif;fill:#000000;" text-anchor="middle" x="5604.436145" y="91">1664</text><line x1="5651.462651" x2="5651.462651" y1="76" y2="81" stroke="#AAAAAA" /><text style="font-size:10px;font-family:sans-serif;fill:#000000;" text-anchor="middle" x="5651.462651" y="91">1678</text><line x1="5758.951807" x2="5758.951807" y1="76" y2="81" stroke="#AAAAAA" /><text style="font-size:10px;font-family:sans-serif;fill:#000000;" text-anchor="middle" x="5758.951807" y="91">1710</text><line x1="5809.337349" x2="5809.337349" y1="76" y2="81" stroke="#AAAAAA" /><text style="font-size:10px;font-family:sans-serif;fill:#000000;" text-anchor="middle" x="5809.337349" y="91">1725</text><line x1="6850.638554" x2="6850.638554" y1="76" y2="81" stroke="#AAAAAA" /><text style="font-size:10px;font-family:sans-serif;fill:#000000;" text-anchor="middle" x="6850.638554" y="91">2035</text><line x1="6917.819277" x2="6917.819277" y1="76" y2="81" stroke="#AAAAAA" /><text style="font-size:10px;font-family:sans-serif;fill:#000000;" text-anchor="middle" x="6917.819277" y="91">2055</text><line x1="6985.000000" x2="6985.000000" y1="76" y2="81" stroke="#AAAAAA" /><text style="font-size:10px;font-family:sans-serif;fill:#000000;" text-anchor="middle" x="6985.000000" y="91">2075</text></g>
</svg>
