<?xml version='1.0'?>
<svg xmlns="http://www.w3.org/2000/svg" xmlns:xlink="http://www.w3.org/1999/xlink" width="7000" height="111">
<defs>
  <filter id="ds" x="0" y="0">
    <feOffset in="SourceAlpha" dx="2" dy="2" />
    <feComponentTransfer><feFuncA type="linear" slope="0.2"/></feComponentTransfer>
    <feGaussianBlur result="blurOut" stdDeviation="1" />
    <feBlend in="SourceGraphic" in2="blurOut" mode="normal" />
  </filter>
  <pattern id="disordered-hatch" patternUnits="userSpaceOnUse" width="4" height="4">
    <path d="M-1,1 l2,-2 M0,4 l4,-4 M3,5 l2,-2" stroke="#000000" opacity="0.3" />
  </pattern>
</defs>
<line x1="174.444444" x2="174.444444" y1="19" y2="47" stroke="#BABDB6" stroke-width="2"/><a xlink:title="ACV7A"><circle cx="174.444444" cy="19" r="4.000000" fill="#ff0000" /></a><a xlink:title="C9J8G2_HUMAN, Calcium-binding protein 1 (306aa)"><rect fill="#BABDB6" x="15" y="47" width="6970" height="14"/></a><a xlink:title="disorder"><rect fill="url(#disordered-hatch)" x="3522.777778" y="47" width="22.777778" height="14"/></a>
<a xlink:title="disorder"><rect fill="url(#disordered-hatch)" x="5800.555556" y="47" width="22.777778" height="14"/></a>
<a xlink:title="sig_p"><rect fill="#7FFFFF" x="37.777778" y="45" width="592.222222" height="18" filter="url(#ds)"/></a>
<a xlink:title="low_complexity"><rect fill="#7FFFFF" x="60.555556" y="45" width="432.777778" height="18" filter="url(#ds)"/></a>
<a xlink:title="low_complexity"><rect fill="#C2DDFF" x="3568.333333" y="45" width="182.222222" height="18" filter="url(#ds)"/></a>
<g transform="translate(3773.333333,42)"><a xlink:href="http://pfam.xfam.org/family/PF00036" xlink:title="EF hand"><rect fill="#2dcf00" x="0" y="0" width="637.777778" height="24" filter="url(#ds)"/><text style="font-size:12px;font-family:sans-serif;fill:#ffffff;" text-anchor="middle" x="318.888889" y="16">EF hand</text></a></g>
<g transform="translate(5527.222222,42)"><a xlink:href="http://pfam.xfam.org/family/PF13499" xlink:title="EF-hand domain pair"><rect fill="#ff5353" x="0" y="0" width="1412.222222" height="24" filter="url(#ds)"/><text style="font-size:12px;font-family:sans-serif;fill:#ffffff;" text-anchor="middle" x="706.111111" y="16">EF-hand domain pair</text></a></g>
<g class="axis">
<line x1="15" x2="6985" y1="76" y2="76" stroke="#AAAAAA" /><line x1="15" x2="15" y1="76" y2="81" stroke="#AAAAAA" /><line x1="15.000000" x2="15.000000" y1="76" y2="81" stroke="#AAAAAA" /><text style="font-size:10px;font-family:sans-serif;fill:#000000;" text-anchor="middle" x="15.000000" y="91">0</text><line x1="37.777778" x2="37.777778" y1="76" y2="81" stroke="#AAAAAA" /><text style="font-size:10px;font-family:sans-serif;fill:#000000;" text-anchor="middle" x="37.777778" y="91">1</text><line x1="60.555556" x2="60.555556" y1="76" y2="81" stroke="#AAAAAA" /><text style="font-size:10px;font-family:sans-serif;fill:#000000;" text-anchor="middle" x="60.555556" y="91">2</text><line x1="174.444444" x2="174.444444" y1="76" y2="81" stroke="#AAAAAA" /><text style="font-size:10px;font-family:sans-serif;fill:#000000;" text-anchor="middle" x="174.444444" y="91">7</text><line x1="493.333333" x2="493.333333" y1="76" y2="81" stroke="#AAAAAA" /><text style="font-size:10px;font-family:sans-serif;fill:#000000;" text-anchor="middle" x="493.333333" y="91">21</text><line x1="630.000000" x2="630.000000" y1="76" y2="81" stroke="#AAAAAA" /><text style="font-size:10px;font-family:sans-serif;fill:#000000;" text-anchor="middle" x="630.000000" y="91">27</text><line x1="3568.333333" x2="3568.333333" y1="76" y2="81" stroke="#AAAAAA" /><text style="font-size:10px;font-family:sans-serif;fill:#000000;" text-anchor="middle" x="3568.333333" y="91">156</text><line x1="3750.555556" x2="3750.555556" y1="76" y2="81" stroke="#AAAAAA" /><text style="font-size:10px;font-family:sans-serif;fill:#000000;" text-anchor="middle" x="3750.555556" y="91">164</text><line x1="3773.333333" x2="3773.333333" y1="76" y2="81" stroke="#AAAAAA" /><text style="font-size:10px;font-family:sans-serif;fill:#000000;" text-anchor="middle" x="3773.333333" y="91">165</text><line x1="4411.111111" x2="4411.111111" y1="76" y2="81" stroke="#AAAAAA" /><text style="font-size:10px;font-family:sans-serif;fill:#000000;" text-anchor="middle" x="4411.111111" y="91">193</text><line x1="5527.222222" x2="5527.222222" y1="76" y2="81" stroke="#AAAAAA" /><text style="font-size:10px;font-family:sans-serif;fill:#000000;" text-anchor="middle" x="5527.222222" y="91">242</text><line x1="6939.444444" x2="6939.444444" y1="76" y2="81" stroke="#AAAAAA" /><text style="font-size:10px;font-family:sans-serif;fill:#000000;" text-anchor="middle" x="6939.444444" y="91">304</text><line x1="6985.000000" x2="6985.000000" y1="76" y2="81" stroke="#AAAAAA" /><text style="font-size:10px;font-family:sans-serif;fill:#000000;" text-anchor="middle" x="6985.000000" y="91">306</text></g>
</svg>
