<?xml version='1.0'?>
<svg xmlns="http://www.w3.org/2000/svg" xmlns:xlink="http://www.w3.org/1999/xlink" width="7000" height="111">
<defs>
  <filter id="ds" x="0" y="0">
    <feOffset in="SourceAlpha" dx="2" dy="2" />
    <feComponentTransfer><feFuncA type="linear" slope="0.2"/></feComponentTransfer>
    <feGaussianBlur result="blurOut" stdDeviation="1" />
    <feBlend in="SourceGraphic" in2="blurOut" mode="normal" />
  </filter>
  <pattern id="disordered-hatch" patternUnits="userSpaceOnUse" width="4" height="4">
    <path d="M-1,1 l2,-2 M0,4 l4,-4 M3,5 l2,-2" stroke="#000000" opacity="0.3" />
  </pattern>
</defs>
<line x1="5598.762928" x2="5598.762928" y1="19" y2="47" stroke="#BABDB6" stroke-width="2"/><a xlink:title="S2014L"><circle cx="5598.762928" cy="19" r="4.000000" fill="#ff0000" /></a><a xlink:title="C9JFD3_HUMAN, Nuclear receptor corepressor 2 (2514aa)"><rect fill="#BABDB6" x="15" y="47" width="6970" height="14"/></a><a xlink:title="disorder"><rect fill="url(#disordered-hatch)" x="17.772474" y="47" width="47.132060" height="14"/></a>
<a xlink:title="disorder"><rect fill="url(#disordered-hatch)" x="78.766905" y="47" width="13.862371" height="14"/></a>
<a xlink:title="disorder"><rect fill="url(#disordered-hatch)" x="123.126492" y="47" width="19.407319" height="14"/></a>
<a xlink:title="disorder"><rect fill="url(#disordered-hatch)" x="153.623707" y="47" width="113.671440" height="14"/></a>
<a xlink:title="disorder"><rect fill="url(#disordered-hatch)" x="272.840095" y="47" width="19.407319" height="14"/></a>
<a xlink:title="disorder"><rect fill="url(#disordered-hatch)" x="444.733492" y="47" width="36.042164" height="14"/></a>
<a xlink:title="disorder"><rect fill="url(#disordered-hatch)" x="633.261734" y="47" width="13.862371" height="14"/></a>
<a xlink:title="disorder"><rect fill="url(#disordered-hatch)" x="652.669053" y="47" width="5.544948" height="14"/></a>
<a xlink:title="disorder"><rect fill="url(#disordered-hatch)" x="680.393795" y="47" width="11.089897" height="14"/></a>
<a xlink:title="disorder"><rect fill="url(#disordered-hatch)" x="710.891010" y="47" width="52.677009" height="14"/></a>
<a xlink:title="disorder"><rect fill="url(#disordered-hatch)" x="882.784407" y="47" width="33.269690" height="14"/></a>
<a xlink:title="disorder"><rect fill="url(#disordered-hatch)" x="921.599045" y="47" width="2.772474" height="14"/></a>
<a xlink:title="disorder"><rect fill="url(#disordered-hatch)" x="968.731106" y="47" width="55.449483" height="14"/></a>
<a xlink:title="disorder"><rect fill="url(#disordered-hatch)" x="1196.073986" y="47" width="5.544948" height="14"/></a>
<a xlink:title="disorder"><rect fill="url(#disordered-hatch)" x="1221.026253" y="47" width="16.634845" height="14"/></a>
<a xlink:title="disorder"><rect fill="url(#disordered-hatch)" x="1243.206046" y="47" width="5.544948" height="14"/></a>
<a xlink:title="disorder"><rect fill="url(#disordered-hatch)" x="1550.950676" y="47" width="158.031026" height="14"/></a>
<a xlink:title="disorder"><rect fill="url(#disordered-hatch)" x="3036.996818" y="47" width="97.036595" height="14"/></a>
<a xlink:title="disorder"><rect fill="url(#disordered-hatch)" x="3145.123309" y="47" width="2.772474" height="14"/></a>
<a xlink:title="disorder"><rect fill="url(#disordered-hatch)" x="3161.758154" y="47" width="13.862371" height="14"/></a>
<a xlink:title="disorder"><rect fill="url(#disordered-hatch)" x="3186.710422" y="47" width="155.258552" height="14"/></a>
<a xlink:title="disorder"><rect fill="url(#disordered-hatch)" x="3347.513922" y="47" width="72.084328" height="14"/></a>
<a xlink:title="disorder"><rect fill="url(#disordered-hatch)" x="3452.867940" y="47" width="8.317422" height="14"/></a>
<a xlink:title="disorder"><rect fill="url(#disordered-hatch)" x="3475.047733" y="47" width="63.766905" height="14"/></a>
<a xlink:title="disorder"><rect fill="url(#disordered-hatch)" x="3563.766905" y="47" width="108.126492" height="14"/></a>
<a xlink:title="disorder"><rect fill="url(#disordered-hatch)" x="3680.210819" y="47" width="2.772474" height="14"/></a>
<a xlink:title="disorder"><rect fill="url(#disordered-hatch)" x="3688.528242" y="47" width="116.443914" height="14"/></a>
<a xlink:title="disorder"><rect fill="url(#disordered-hatch)" x="3868.739061" y="47" width="44.359586" height="14"/></a>
<a xlink:title="disorder"><rect fill="url(#disordered-hatch)" x="3918.643596" y="47" width="232.887828" height="14"/></a>
<a xlink:title="disorder"><rect fill="url(#disordered-hatch)" x="4159.848846" y="47" width="2.772474" height="14"/></a>
<a xlink:title="disorder"><rect fill="url(#disordered-hatch)" x="4168.166269" y="47" width="2.772474" height="14"/></a>
<a xlink:title="disorder"><rect fill="url(#disordered-hatch)" x="4248.568019" y="47" width="235.660302" height="14"/></a>
<a xlink:title="disorder"><rect fill="url(#disordered-hatch)" x="4683.846460" y="47" width="19.407319" height="14"/></a>
<a xlink:title="disorder"><rect fill="url(#disordered-hatch)" x="4717.116150" y="47" width="5.544948" height="14"/></a>
<a xlink:title="disorder"><rect fill="url(#disordered-hatch)" x="4728.206046" y="47" width="33.269690" height="14"/></a>
<a xlink:title="disorder"><rect fill="url(#disordered-hatch)" x="4778.110581" y="47" width="2.772474" height="14"/></a>
<a xlink:title="disorder"><rect fill="url(#disordered-hatch)" x="5887.100239" y="47" width="83.174224" height="14"/></a>
<a xlink:title="disorder"><rect fill="url(#disordered-hatch)" x="6017.406523" y="47" width="11.089897" height="14"/></a>
<a xlink:title="disorder"><rect fill="url(#disordered-hatch)" x="6036.813842" y="47" width="388.146380" height="14"/></a>
<a xlink:title="disorder"><rect fill="url(#disordered-hatch)" x="6430.505171" y="47" width="8.317422" height="14"/></a>
<a xlink:title="disorder"><rect fill="url(#disordered-hatch)" x="6449.912490" y="47" width="58.221957" height="14"/></a>
<a xlink:title="disorder"><rect fill="url(#disordered-hatch)" x="6535.859189" y="47" width="47.132060" height="14"/></a>
<a xlink:title="disorder"><rect fill="url(#disordered-hatch)" x="6932.322991" y="47" width="44.359586" height="14"/></a>
<a xlink:title="disorder"><rect fill="url(#disordered-hatch)" x="6982.227526" y="47" width="2.772474" height="14"/></a>
<a xlink:title="coiled_coil"><rect fill="#98E698" x="483.548130" y="45" width="102.581543" height="18" filter="url(#ds)"/></a>
<a xlink:title="coiled_coil"><rect fill="#7FFFFF" x="843.969769" y="45" width="55.449483" height="18" filter="url(#ds)"/></a>
<a xlink:title="coiled_coil"><rect fill="#98E698" x="1442.824185" y="45" width="91.491647" height="18" filter="url(#ds)"/></a>
<a xlink:title="coiled_coil"><rect fill="#98E698" x="1842.060461" y="45" width="74.856802" height="18" filter="url(#ds)"/></a>
<a xlink:title="low_complexity"><rect fill="#C2DDFF" x="311.654733" y="45" width="47.132060" height="18" filter="url(#ds)"/></a>
<a xlink:title="low_complexity"><rect fill="#C2DDFF" x="422.553699" y="45" width="19.407319" height="18" filter="url(#ds)"/></a>
<a xlink:title="low_complexity"><rect fill="#C2DDFF" x="588.902148" y="45" width="41.587112" height="18" filter="url(#ds)"/></a>
<a xlink:title="low_complexity"><rect fill="#C2DDFF" x="1384.602228" y="45" width="44.359586" height="18" filter="url(#ds)"/></a>
<a xlink:title="low_complexity"><rect fill="#C2DDFF" x="1537.088305" y="45" width="11.089897" height="18" filter="url(#ds)"/></a>
<a xlink:title="low_complexity"><rect fill="#C2DDFF" x="1919.689737" y="45" width="22.179793" height="18" filter="url(#ds)"/></a>
<a xlink:title="low_complexity"><rect fill="#C2DDFF" x="1994.546539" y="45" width="24.952267" height="18" filter="url(#ds)"/></a>
<a xlink:title="low_complexity"><rect fill="#C2DDFF" x="2147.032617" y="45" width="202.390613" height="18" filter="url(#ds)"/></a>
<a xlink:title="low_complexity"><rect fill="#C2DDFF" x="2421.507558" y="45" width="85.946698" height="18" filter="url(#ds)"/></a>
<a xlink:title="low_complexity"><rect fill="#C2DDFF" x="2610.035800" y="45" width="33.269690" height="18" filter="url(#ds)"/></a>
<a xlink:title="low_complexity"><rect fill="#C2DDFF" x="2756.976929" y="45" width="36.042164" height="18" filter="url(#ds)"/></a>
<a xlink:title="low_complexity"><rect fill="#C2DDFF" x="2829.061257" y="45" width="41.587112" height="18" filter="url(#ds)"/></a>
<a xlink:title="low_complexity"><rect fill="#C2DDFF" x="3006.499602" y="45" width="27.724741" height="18" filter="url(#ds)"/></a>
<a xlink:title="low_complexity"><rect fill="#C2DDFF" x="3852.104216" y="45" width="13.862371" height="18" filter="url(#ds)"/></a>
<a xlink:title="low_complexity"><rect fill="#C2DDFF" x="4209.753381" y="45" width="36.042164" height="18" filter="url(#ds)"/></a>
<a xlink:title="low_complexity"><rect fill="#C2DDFF" x="4830.787589" y="45" width="47.132060" height="18" filter="url(#ds)"/></a>
<a xlink:title="low_complexity"><rect fill="#C2DDFF" x="4908.416866" y="45" width="47.132060" height="18" filter="url(#ds)"/></a>
<a xlink:title="low_complexity"><rect fill="#C2DDFF" x="4991.591090" y="45" width="44.359586" height="18" filter="url(#ds)"/></a>
<a xlink:title="low_complexity"><rect fill="#C2DDFF" x="5099.717582" y="45" width="33.269690" height="18" filter="url(#ds)"/></a>
<a xlink:title="low_complexity"><rect fill="#C2DDFF" x="5138.532220" y="45" width="38.814638" height="18" filter="url(#ds)"/></a>
<a xlink:title="low_complexity"><rect fill="#C2DDFF" x="5382.509944" y="45" width="38.814638" height="18" filter="url(#ds)"/></a>
<a xlink:title="low_complexity"><rect fill="#C2DDFF" x="5559.948290" y="45" width="52.677009" height="18" filter="url(#ds)"/></a>
<a xlink:title="low_complexity"><rect fill="#C2DDFF" x="5679.164678" y="45" width="47.132060" height="18" filter="url(#ds)"/></a>
<a xlink:title="low_complexity"><rect fill="#C2DDFF" x="5845.513126" y="45" width="38.814638" height="18" filter="url(#ds)"/></a>
<a xlink:title="low_complexity"><rect fill="#C2DDFF" x="5973.046937" y="45" width="41.587112" height="18" filter="url(#ds)"/></a>
<a xlink:title="low_complexity"><rect fill="#C2DDFF" x="6874.101034" y="45" width="55.449483" height="18" filter="url(#ds)"/></a>
<a xlink:title="disorder"><rect fill="url(#disordered-hatch)" x="1431.734288" y="47" width="8.317422" height="14"/></a>
<a xlink:title="disorder"><rect fill="url(#disordered-hatch)" x="300.564837" y="47" width="8.317422" height="14"/></a>
<a xlink:title="disorder"><rect fill="url(#disordered-hatch)" x="361.559268" y="47" width="58.221957" height="14"/></a>
<a xlink:title="disorder"><rect fill="url(#disordered-hatch)" x="588.902148" y="47" width="-2.772474" height="14"/></a>
<a xlink:title="disorder"><rect fill="url(#disordered-hatch)" x="1351.332538" y="47" width="30.497216" height="14"/></a>
<a xlink:title="disorder"><rect fill="url(#disordered-hatch)" x="1537.088305" y="47" width="-2.772474" height="14"/></a>
<a xlink:title="disorder"><rect fill="url(#disordered-hatch)" x="1919.689737" y="47" width="-2.772474" height="14"/></a>
<a xlink:title="disorder"><rect fill="url(#disordered-hatch)" x="1944.642005" y="47" width="47.132060" height="14"/></a>
<a xlink:title="disorder"><rect fill="url(#disordered-hatch)" x="2022.271281" y="47" width="121.988862" height="14"/></a>
<a xlink:title="disorder"><rect fill="url(#disordered-hatch)" x="2352.195704" y="47" width="66.539379" height="14"/></a>
<a xlink:title="disorder"><rect fill="url(#disordered-hatch)" x="2510.226730" y="47" width="97.036595" height="14"/></a>
<a xlink:title="disorder"><rect fill="url(#disordered-hatch)" x="2646.077963" y="47" width="108.126492" height="14"/></a>
<a xlink:title="disorder"><rect fill="url(#disordered-hatch)" x="2795.791567" y="47" width="30.497216" height="14"/></a>
<a xlink:title="disorder"><rect fill="url(#disordered-hatch)" x="2873.420843" y="47" width="130.306285" height="14"/></a>
<a xlink:title="disorder"><rect fill="url(#disordered-hatch)" x="3813.289578" y="47" width="36.042164" height="14"/></a>
<a xlink:title="disorder"><rect fill="url(#disordered-hatch)" x="4176.483691" y="47" width="30.497216" height="14"/></a>
<a xlink:title="disorder"><rect fill="url(#disordered-hatch)" x="4825.242641" y="47" width="2.772474" height="14"/></a>
<a xlink:title="disorder"><rect fill="url(#disordered-hatch)" x="4880.692124" y="47" width="24.952267" height="14"/></a>
<a xlink:title="disorder"><rect fill="url(#disordered-hatch)" x="4958.321400" y="47" width="30.497216" height="14"/></a>
<a xlink:title="disorder"><rect fill="url(#disordered-hatch)" x="5038.723150" y="47" width="58.221957" height="14"/></a>
<a xlink:title="disorder"><rect fill="url(#disordered-hatch)" x="5135.759745" y="47" width="0.000000" height="14"/></a>
<a xlink:title="disorder"><rect fill="url(#disordered-hatch)" x="5180.119332" y="47" width="199.618138" height="14"/></a>
<a xlink:title="disorder"><rect fill="url(#disordered-hatch)" x="5424.097056" y="47" width="133.078759" height="14"/></a>
<a xlink:title="disorder"><rect fill="url(#disordered-hatch)" x="5615.397772" y="47" width="60.994431" height="14"/></a>
<a xlink:title="disorder"><rect fill="url(#disordered-hatch)" x="5729.069212" y="47" width="113.671440" height="14"/></a>
<a xlink:title="disorder"><rect fill="url(#disordered-hatch)" x="6588.536197" y="47" width="282.792363" height="14"/></a>
<g transform="translate(1711.754177,42)"><a xlink:href="http://pfam.xfam.org/family/PF00249" xlink:title="Myb-like DNA-binding domain"><rect fill="#2dcf00" x="0" y="0" width="124.761337" height="24" filter="url(#ds)"/><text style="font-size:12px;font-family:sans-serif;fill:#ffffff;" text-anchor="middle" x="62.380668" y="16">..binding</text></a></g>
<g class="axis">
<line x1="15" x2="6985" y1="76" y2="76" stroke="#AAAAAA" /><line x1="15" x2="15" y1="76" y2="81" stroke="#AAAAAA" /><line x1="15.000000" x2="15.000000" y1="76" y2="81" stroke="#AAAAAA" /><text style="font-size:10px;font-family:sans-serif;fill:#000000;" text-anchor="middle" x="15.000000" y="91">0</text><line x1="311.654733" x2="311.654733" y1="76" y2="81" stroke="#AAAAAA" /><text style="font-size:10px;font-family:sans-serif;fill:#000000;" text-anchor="middle" x="311.654733" y="91">107</text><line x1="358.786794" x2="358.786794" y1="76" y2="81" stroke="#AAAAAA" /><text style="font-size:10px;font-family:sans-serif;fill:#000000;" text-anchor="middle" x="358.786794" y="91">124</text><line x1="422.553699" x2="422.553699" y1="76" y2="81" stroke="#AAAAAA" /><text style="font-size:10px;font-family:sans-serif;fill:#000000;" text-anchor="middle" x="422.553699" y="91">147</text><line x1="441.961018" x2="441.961018" y1="76" y2="81" stroke="#AAAAAA" /><text style="font-size:10px;font-family:sans-serif;fill:#000000;" text-anchor="middle" x="441.961018" y="91">154</text><line x1="483.548130" x2="483.548130" y1="76" y2="81" stroke="#AAAAAA" /><text style="font-size:10px;font-family:sans-serif;fill:#000000;" text-anchor="middle" x="483.548130" y="91">169</text><line x1="586.129674" x2="586.129674" y1="76" y2="81" stroke="#AAAAAA" /><text style="font-size:10px;font-family:sans-serif;fill:#000000;" text-anchor="middle" x="586.129674" y="91">206</text><line x1="630.489260" x2="630.489260" y1="76" y2="81" stroke="#AAAAAA" /><text style="font-size:10px;font-family:sans-serif;fill:#000000;" text-anchor="middle" x="630.489260" y="91">222</text><line x1="843.969769" x2="843.969769" y1="76" y2="81" stroke="#AAAAAA" /><text style="font-size:10px;font-family:sans-serif;fill:#000000;" text-anchor="middle" x="843.969769" y="91">299</text><line x1="899.419252" x2="899.419252" y1="76" y2="81" stroke="#AAAAAA" /><text style="font-size:10px;font-family:sans-serif;fill:#000000;" text-anchor="middle" x="899.419252" y="91">319</text><line x1="1384.602228" x2="1384.602228" y1="76" y2="81" stroke="#AAAAAA" /><text style="font-size:10px;font-family:sans-serif;fill:#000000;" text-anchor="middle" x="1384.602228" y="91">494</text><line x1="1428.961814" x2="1428.961814" y1="76" y2="81" stroke="#AAAAAA" /><text style="font-size:10px;font-family:sans-serif;fill:#000000;" text-anchor="middle" x="1428.961814" y="91">510</text><line x1="1534.315831" x2="1534.315831" y1="76" y2="81" stroke="#AAAAAA" /><text style="font-size:10px;font-family:sans-serif;fill:#000000;" text-anchor="middle" x="1534.315831" y="91">548</text><line x1="1711.754177" x2="1711.754177" y1="76" y2="81" stroke="#AAAAAA" /><text style="font-size:10px;font-family:sans-serif;fill:#000000;" text-anchor="middle" x="1711.754177" y="91">612</text><line x1="1836.515513" x2="1836.515513" y1="76" y2="81" stroke="#AAAAAA" /><text style="font-size:10px;font-family:sans-serif;fill:#000000;" text-anchor="middle" x="1836.515513" y="91">657</text><line x1="1916.917263" x2="1916.917263" y1="76" y2="81" stroke="#AAAAAA" /><text style="font-size:10px;font-family:sans-serif;fill:#000000;" text-anchor="middle" x="1916.917263" y="91">686</text><line x1="1941.869531" x2="1941.869531" y1="76" y2="81" stroke="#AAAAAA" /><text style="font-size:10px;font-family:sans-serif;fill:#000000;" text-anchor="middle" x="1941.869531" y="91">695</text><line x1="1994.546539" x2="1994.546539" y1="76" y2="81" stroke="#AAAAAA" /><text style="font-size:10px;font-family:sans-serif;fill:#000000;" text-anchor="middle" x="1994.546539" y="91">714</text><line x1="2019.498807" x2="2019.498807" y1="76" y2="81" stroke="#AAAAAA" /><text style="font-size:10px;font-family:sans-serif;fill:#000000;" text-anchor="middle" x="2019.498807" y="91">723</text><line x1="2147.032617" x2="2147.032617" y1="76" y2="81" stroke="#AAAAAA" /><text style="font-size:10px;font-family:sans-serif;fill:#000000;" text-anchor="middle" x="2147.032617" y="91">769</text><line x1="2349.423230" x2="2349.423230" y1="76" y2="81" stroke="#AAAAAA" /><text style="font-size:10px;font-family:sans-serif;fill:#000000;" text-anchor="middle" x="2349.423230" y="91">842</text><line x1="2421.507558" x2="2421.507558" y1="76" y2="81" stroke="#AAAAAA" /><text style="font-size:10px;font-family:sans-serif;fill:#000000;" text-anchor="middle" x="2421.507558" y="91">868</text><line x1="2507.454256" x2="2507.454256" y1="76" y2="81" stroke="#AAAAAA" /><text style="font-size:10px;font-family:sans-serif;fill:#000000;" text-anchor="middle" x="2507.454256" y="91">899</text><line x1="2610.035800" x2="2610.035800" y1="76" y2="81" stroke="#AAAAAA" /><text style="font-size:10px;font-family:sans-serif;fill:#000000;" text-anchor="middle" x="2610.035800" y="91">936</text><line x1="2643.305489" x2="2643.305489" y1="76" y2="81" stroke="#AAAAAA" /><text style="font-size:10px;font-family:sans-serif;fill:#000000;" text-anchor="middle" x="2643.305489" y="91">948</text><line x1="2756.976929" x2="2756.976929" y1="76" y2="81" stroke="#AAAAAA" /><text style="font-size:10px;font-family:sans-serif;fill:#000000;" text-anchor="middle" x="2756.976929" y="91">989</text><line x1="2793.019093" x2="2793.019093" y1="76" y2="81" stroke="#AAAAAA" /><text style="font-size:10px;font-family:sans-serif;fill:#000000;" text-anchor="middle" x="2793.019093" y="91">1002</text><line x1="2829.061257" x2="2829.061257" y1="76" y2="81" stroke="#AAAAAA" /><text style="font-size:10px;font-family:sans-serif;fill:#000000;" text-anchor="middle" x="2829.061257" y="91">1015</text><line x1="2870.648369" x2="2870.648369" y1="76" y2="81" stroke="#AAAAAA" /><text style="font-size:10px;font-family:sans-serif;fill:#000000;" text-anchor="middle" x="2870.648369" y="91">1030</text><line x1="3006.499602" x2="3006.499602" y1="76" y2="81" stroke="#AAAAAA" /><text style="font-size:10px;font-family:sans-serif;fill:#000000;" text-anchor="middle" x="3006.499602" y="91">1079</text><line x1="3034.224344" x2="3034.224344" y1="76" y2="81" stroke="#AAAAAA" /><text style="font-size:10px;font-family:sans-serif;fill:#000000;" text-anchor="middle" x="3034.224344" y="91">1089</text><line x1="3852.104216" x2="3852.104216" y1="76" y2="81" stroke="#AAAAAA" /><text style="font-size:10px;font-family:sans-serif;fill:#000000;" text-anchor="middle" x="3852.104216" y="91">1384</text><line x1="4209.753381" x2="4209.753381" y1="76" y2="81" stroke="#AAAAAA" /><text style="font-size:10px;font-family:sans-serif;fill:#000000;" text-anchor="middle" x="4209.753381" y="91">1513</text><line x1="4245.795545" x2="4245.795545" y1="76" y2="81" stroke="#AAAAAA" /><text style="font-size:10px;font-family:sans-serif;fill:#000000;" text-anchor="middle" x="4245.795545" y="91">1526</text><line x1="4830.787589" x2="4830.787589" y1="76" y2="81" stroke="#AAAAAA" /><text style="font-size:10px;font-family:sans-serif;fill:#000000;" text-anchor="middle" x="4830.787589" y="91">1737</text><line x1="4877.919650" x2="4877.919650" y1="76" y2="81" stroke="#AAAAAA" /><text style="font-size:10px;font-family:sans-serif;fill:#000000;" text-anchor="middle" x="4877.919650" y="91">1754</text><line x1="4908.416866" x2="4908.416866" y1="76" y2="81" stroke="#AAAAAA" /><text style="font-size:10px;font-family:sans-serif;fill:#000000;" text-anchor="middle" x="4908.416866" y="91">1765</text><line x1="4955.548926" x2="4955.548926" y1="76" y2="81" stroke="#AAAAAA" /><text style="font-size:10px;font-family:sans-serif;fill:#000000;" text-anchor="middle" x="4955.548926" y="91">1782</text><line x1="4991.591090" x2="4991.591090" y1="76" y2="81" stroke="#AAAAAA" /><text style="font-size:10px;font-family:sans-serif;fill:#000000;" text-anchor="middle" x="4991.591090" y="91">1795</text><line x1="5035.950676" x2="5035.950676" y1="76" y2="81" stroke="#AAAAAA" /><text style="font-size:10px;font-family:sans-serif;fill:#000000;" text-anchor="middle" x="5035.950676" y="91">1811</text><line x1="5099.717582" x2="5099.717582" y1="76" y2="81" stroke="#AAAAAA" /><text style="font-size:10px;font-family:sans-serif;fill:#000000;" text-anchor="middle" x="5099.717582" y="91">1834</text><line x1="5132.987271" x2="5132.987271" y1="76" y2="81" stroke="#AAAAAA" /><text style="font-size:10px;font-family:sans-serif;fill:#000000;" text-anchor="middle" x="5132.987271" y="91">1846</text><line x1="5177.346858" x2="5177.346858" y1="76" y2="81" stroke="#AAAAAA" /><text style="font-size:10px;font-family:sans-serif;fill:#000000;" text-anchor="middle" x="5177.346858" y="91">1862</text><line x1="5382.509944" x2="5382.509944" y1="76" y2="81" stroke="#AAAAAA" /><text style="font-size:10px;font-family:sans-serif;fill:#000000;" text-anchor="middle" x="5382.509944" y="91">1936</text><line x1="5421.324582" x2="5421.324582" y1="76" y2="81" stroke="#AAAAAA" /><text style="font-size:10px;font-family:sans-serif;fill:#000000;" text-anchor="middle" x="5421.324582" y="91">1950</text><line x1="5559.948290" x2="5559.948290" y1="76" y2="81" stroke="#AAAAAA" /><text style="font-size:10px;font-family:sans-serif;fill:#000000;" text-anchor="middle" x="5559.948290" y="91">2000</text><line x1="5598.762928" x2="5598.762928" y1="76" y2="81" stroke="#AAAAAA" /><text style="font-size:10px;font-family:sans-serif;fill:#000000;" text-anchor="middle" x="5598.762928" y="91">2014</text><line x1="5679.164678" x2="5679.164678" y1="76" y2="81" stroke="#AAAAAA" /><text style="font-size:10px;font-family:sans-serif;fill:#000000;" text-anchor="middle" x="5679.164678" y="91">2043</text><line x1="5726.296738" x2="5726.296738" y1="76" y2="81" stroke="#AAAAAA" /><text style="font-size:10px;font-family:sans-serif;fill:#000000;" text-anchor="middle" x="5726.296738" y="91">2060</text><line x1="5845.513126" x2="5845.513126" y1="76" y2="81" stroke="#AAAAAA" /><text style="font-size:10px;font-family:sans-serif;fill:#000000;" text-anchor="middle" x="5845.513126" y="91">2103</text><line x1="5884.327765" x2="5884.327765" y1="76" y2="81" stroke="#AAAAAA" /><text style="font-size:10px;font-family:sans-serif;fill:#000000;" text-anchor="middle" x="5884.327765" y="91">2117</text><line x1="5973.046937" x2="5973.046937" y1="76" y2="81" stroke="#AAAAAA" /><text style="font-size:10px;font-family:sans-serif;fill:#000000;" text-anchor="middle" x="5973.046937" y="91">2149</text><line x1="6014.634049" x2="6014.634049" y1="76" y2="81" stroke="#AAAAAA" /><text style="font-size:10px;font-family:sans-serif;fill:#000000;" text-anchor="middle" x="6014.634049" y="91">2164</text><line x1="6874.101034" x2="6874.101034" y1="76" y2="81" stroke="#AAAAAA" /><text style="font-size:10px;font-family:sans-serif;fill:#000000;" text-anchor="middle" x="6874.101034" y="91">2474</text><line x1="6929.550517" x2="6929.550517" y1="76" y2="81" stroke="#AAAAAA" /><text style="font-size:10px;font-family:sans-serif;fill:#000000;" text-anchor="middle" x="6929.550517" y="91">2494</text><line x1="6985.000000" x2="6985.000000" y1="76" y2="81" stroke="#AAAAAA" /><text style="font-size:10px;font-family:sans-serif;fill:#000000;" text-anchor="middle" x="6985.000000" y="91">2514</text></g>
</svg>
