<?xml version='1.0'?>
<svg xmlns="http://www.w3.org/2000/svg" xmlns:xlink="http://www.w3.org/1999/xlink" width="7000" height="111">
<defs>
  <filter id="ds" x="0" y="0">
    <feOffset in="SourceAlpha" dx="2" dy="2" />
    <feComponentTransfer><feFuncA type="linear" slope="0.2"/></feComponentTransfer>
    <feGaussianBlur result="blurOut" stdDeviation="1" />
    <feBlend in="SourceGraphic" in2="blurOut" mode="normal" />
  </filter>
  <pattern id="disordered-hatch" patternUnits="userSpaceOnUse" width="4" height="4">
    <path d="M-1,1 l2,-2 M0,4 l4,-4 M3,5 l2,-2" stroke="#000000" opacity="0.3" />
  </pattern>
</defs>
<line x1="519.407895" x2="519.407895" y1="19" y2="47" stroke="#BABDB6" stroke-width="2"/><a xlink:title="R11C"><circle cx="519.407895" cy="19" r="4.000000" fill="#ff0000" /></a><a xlink:title="C9JHB3_HUMAN, Kelch-like protein 10 (Fragment) (152aa)"><rect fill="#BABDB6" x="15" y="47" width="6970" height="14"/></a><a xlink:title="low_complexity"><rect fill="#7FFFFF" x="2216.052632" y="45" width="641.973684" height="18" filter="url(#ds)"/></a>
<g transform="translate(1344.802632,42)"><a xlink:href="http://pfam.xfam.org/family/PF00651" xlink:title="BTB/POZ domain"><rect fill="#2dcf00" x="0" y="0" width="4631.381579" height="24" filter="url(#ds)"/><text style="font-size:12px;font-family:sans-serif;fill:#ffffff;" text-anchor="middle" x="2315.690789" y="16">BTB/POZ domain</text></a></g>
<g class="axis">
<line x1="15" x2="6985" y1="76" y2="76" stroke="#AAAAAA" /><line x1="15" x2="15" y1="76" y2="81" stroke="#AAAAAA" /><line x1="15.000000" x2="15.000000" y1="76" y2="81" stroke="#AAAAAA" /><text style="font-size:10px;font-family:sans-serif;fill:#000000;" text-anchor="middle" x="15.000000" y="91">0</text><line x1="519.407895" x2="519.407895" y1="76" y2="81" stroke="#AAAAAA" /><text style="font-size:10px;font-family:sans-serif;fill:#000000;" text-anchor="middle" x="519.407895" y="91">11</text><line x1="1344.802632" x2="1344.802632" y1="76" y2="81" stroke="#AAAAAA" /><text style="font-size:10px;font-family:sans-serif;fill:#000000;" text-anchor="middle" x="1344.802632" y="91">29</text><line x1="2216.052632" x2="2216.052632" y1="76" y2="81" stroke="#AAAAAA" /><text style="font-size:10px;font-family:sans-serif;fill:#000000;" text-anchor="middle" x="2216.052632" y="91">48</text><line x1="2858.026316" x2="2858.026316" y1="76" y2="81" stroke="#AAAAAA" /><text style="font-size:10px;font-family:sans-serif;fill:#000000;" text-anchor="middle" x="2858.026316" y="91">62</text><line x1="5976.184211" x2="5976.184211" y1="76" y2="81" stroke="#AAAAAA" /><text style="font-size:10px;font-family:sans-serif;fill:#000000;" text-anchor="middle" x="5976.184211" y="91">130</text><line x1="6985.000000" x2="6985.000000" y1="76" y2="81" stroke="#AAAAAA" /><text style="font-size:10px;font-family:sans-serif;fill:#000000;" text-anchor="middle" x="6985.000000" y="91">152</text></g>
</svg>
