<?xml version='1.0'?>
<svg xmlns="http://www.w3.org/2000/svg" xmlns:xlink="http://www.w3.org/1999/xlink" width="7000" height="111">
<defs>
  <filter id="ds" x="0" y="0">
    <feOffset in="SourceAlpha" dx="2" dy="2" />
    <feComponentTransfer><feFuncA type="linear" slope="0.2"/></feComponentTransfer>
    <feGaussianBlur result="blurOut" stdDeviation="1" />
    <feBlend in="SourceGraphic" in2="blurOut" mode="normal" />
  </filter>
  <pattern id="disordered-hatch" patternUnits="userSpaceOnUse" width="4" height="4">
    <path d="M-1,1 l2,-2 M0,4 l4,-4 M3,5 l2,-2" stroke="#000000" opacity="0.3" />
  </pattern>
</defs>
<line x1="242.777778" x2="242.777778" y1="19" y2="47" stroke="#BABDB6" stroke-width="2"/><a xlink:title="L5R"><circle cx="242.777778" cy="19" r="4.000000" fill="#ff0000" /></a><a xlink:title="C9JUI2_HUMAN, Protein Wnt (Fragment) (153aa)"><rect fill="#BABDB6" x="15" y="47" width="6970" height="14"/></a><a xlink:title="disorder"><rect fill="url(#disordered-hatch)" x="6620.555556" y="47" width="45.555556" height="14"/></a>
<a xlink:title="sig_p"><rect fill="#FFD27F" x="60.555556" y="45" width="1093.333333" height="18" filter="url(#ds)"/></a>
<a xlink:title="low_complexity"><rect fill="#7FFFFF" x="197.222222" y="45" width="774.444444" height="18" filter="url(#ds)"/></a>
<g transform="translate(1837.222222,42)"><a xlink:href="http://pfam.xfam.org/family/PF00110" xlink:title="wnt family"><rect fill="#2dcf00" x="0" y="0" width="3234.444444" height="24" filter="url(#ds)"/><text style="font-size:12px;font-family:sans-serif;fill:#ffffff;" text-anchor="middle" x="1617.222222" y="16">wnt family</text></a></g>
<g class="axis">
<line x1="15" x2="6985" y1="76" y2="76" stroke="#AAAAAA" /><line x1="15" x2="15" y1="76" y2="81" stroke="#AAAAAA" /><line x1="15.000000" x2="15.000000" y1="76" y2="81" stroke="#AAAAAA" /><text style="font-size:10px;font-family:sans-serif;fill:#000000;" text-anchor="middle" x="15.000000" y="91">0</text><line x1="60.555556" x2="60.555556" y1="76" y2="81" stroke="#AAAAAA" /><text style="font-size:10px;font-family:sans-serif;fill:#000000;" text-anchor="middle" x="60.555556" y="91">1</text><line x1="197.222222" x2="197.222222" y1="76" y2="81" stroke="#AAAAAA" /><text style="font-size:10px;font-family:sans-serif;fill:#000000;" text-anchor="middle" x="197.222222" y="91">4</text><line x1="242.777778" x2="242.777778" y1="76" y2="81" stroke="#AAAAAA" /><text style="font-size:10px;font-family:sans-serif;fill:#000000;" text-anchor="middle" x="242.777778" y="91">5</text><line x1="971.666667" x2="971.666667" y1="76" y2="81" stroke="#AAAAAA" /><text style="font-size:10px;font-family:sans-serif;fill:#000000;" text-anchor="middle" x="971.666667" y="91">21</text><line x1="1153.888889" x2="1153.888889" y1="76" y2="81" stroke="#AAAAAA" /><text style="font-size:10px;font-family:sans-serif;fill:#000000;" text-anchor="middle" x="1153.888889" y="91">25</text><line x1="1837.222222" x2="1837.222222" y1="76" y2="81" stroke="#AAAAAA" /><text style="font-size:10px;font-family:sans-serif;fill:#000000;" text-anchor="middle" x="1837.222222" y="91">40</text><line x1="5071.666667" x2="5071.666667" y1="76" y2="81" stroke="#AAAAAA" /><text style="font-size:10px;font-family:sans-serif;fill:#000000;" text-anchor="middle" x="5071.666667" y="91">111</text><line x1="6985.000000" x2="6985.000000" y1="76" y2="81" stroke="#AAAAAA" /><text style="font-size:10px;font-family:sans-serif;fill:#000000;" text-anchor="middle" x="6985.000000" y="91">153</text></g>
</svg>
