<?xml version='1.0'?>
<svg xmlns="http://www.w3.org/2000/svg" xmlns:xlink="http://www.w3.org/1999/xlink" width="7000" height="111">
<defs>
  <filter id="ds" x="0" y="0">
    <feOffset in="SourceAlpha" dx="2" dy="2" />
    <feComponentTransfer><feFuncA type="linear" slope="0.2"/></feComponentTransfer>
    <feGaussianBlur result="blurOut" stdDeviation="1" />
    <feBlend in="SourceGraphic" in2="blurOut" mode="normal" />
  </filter>
  <pattern id="disordered-hatch" patternUnits="userSpaceOnUse" width="4" height="4">
    <path d="M-1,1 l2,-2 M0,4 l4,-4 M3,5 l2,-2" stroke="#000000" opacity="0.3" />
  </pattern>
</defs>
<line x1="618.173077" x2="618.173077" y1="19" y2="47" stroke="#BABDB6" stroke-width="2"/><a xlink:title="H27R"><circle cx="618.173077" cy="19" r="4.000000" fill="#ff0000" /></a><a xlink:title="C9JVB6_HUMAN, Mitochondrial ribonuclease P protein 1 (Fragment) (312aa)"><rect fill="#BABDB6" x="15" y="47" width="6970" height="14"/></a><a xlink:title="disorder"><rect fill="url(#disordered-hatch)" x="1064.967949" y="47" width="156.378205" height="14"/></a>
<a xlink:title="disorder"><rect fill="url(#disordered-hatch)" x="1310.705128" y="47" width="178.717949" height="14"/></a>
<a xlink:title="disorder"><rect fill="url(#disordered-hatch)" x="1735.160256" y="47" width="44.679487" height="14"/></a>
<a xlink:title="disorder"><rect fill="url(#disordered-hatch)" x="3656.378205" y="47" width="44.679487" height="14"/></a>
<a xlink:title="coiled_coil"><rect fill="#98E698" x="3187.243590" y="45" width="603.173077" height="18" filter="url(#ds)"/></a>
<a xlink:title="low_complexity"><rect fill="#C2DDFF" x="2896.826923" y="45" width="268.076923" height="18" filter="url(#ds)"/></a>
<a xlink:title="low_complexity"><rect fill="#7FFFFF" x="3343.621795" y="45" width="268.076923" height="18" filter="url(#ds)"/></a>
<g transform="translate(4751.025641,42)"><a xlink:href="http://pfam.xfam.org/family/PF01746" xlink:title="tRNA (Guanine-1)-methyltransferase"><rect fill="#2dcf00" x="0" y="0" width="2233.974359" height="24" filter="url(#ds)"/><text style="font-size:12px;font-family:sans-serif;fill:#ffffff;" text-anchor="middle" x="1116.987179" y="16">tRNA (Guanine-1)-methyltransferase</text></a></g>
<g class="axis">
<line x1="15" x2="6985" y1="76" y2="76" stroke="#AAAAAA" /><line x1="15" x2="15" y1="76" y2="81" stroke="#AAAAAA" /><line x1="15.000000" x2="15.000000" y1="76" y2="81" stroke="#AAAAAA" /><text style="font-size:10px;font-family:sans-serif;fill:#000000;" text-anchor="middle" x="15.000000" y="91">0</text><line x1="618.173077" x2="618.173077" y1="76" y2="81" stroke="#AAAAAA" /><text style="font-size:10px;font-family:sans-serif;fill:#000000;" text-anchor="middle" x="618.173077" y="91">27</text><line x1="2896.826923" x2="2896.826923" y1="76" y2="81" stroke="#AAAAAA" /><text style="font-size:10px;font-family:sans-serif;fill:#000000;" text-anchor="middle" x="2896.826923" y="91">129</text><line x1="3164.903846" x2="3164.903846" y1="76" y2="81" stroke="#AAAAAA" /><text style="font-size:10px;font-family:sans-serif;fill:#000000;" text-anchor="middle" x="3164.903846" y="91">141</text><line x1="3187.243590" x2="3187.243590" y1="76" y2="81" stroke="#AAAAAA" /><text style="font-size:10px;font-family:sans-serif;fill:#000000;" text-anchor="middle" x="3187.243590" y="91">142</text><line x1="3343.621795" x2="3343.621795" y1="76" y2="81" stroke="#AAAAAA" /><text style="font-size:10px;font-family:sans-serif;fill:#000000;" text-anchor="middle" x="3343.621795" y="91">149</text><line x1="3611.698718" x2="3611.698718" y1="76" y2="81" stroke="#AAAAAA" /><text style="font-size:10px;font-family:sans-serif;fill:#000000;" text-anchor="middle" x="3611.698718" y="91">161</text><line x1="3790.416667" x2="3790.416667" y1="76" y2="81" stroke="#AAAAAA" /><text style="font-size:10px;font-family:sans-serif;fill:#000000;" text-anchor="middle" x="3790.416667" y="91">169</text><line x1="4751.025641" x2="4751.025641" y1="76" y2="81" stroke="#AAAAAA" /><text style="font-size:10px;font-family:sans-serif;fill:#000000;" text-anchor="middle" x="4751.025641" y="91">212</text><line x1="6985.000000" x2="6985.000000" y1="76" y2="81" stroke="#AAAAAA" /><text style="font-size:10px;font-family:sans-serif;fill:#000000;" text-anchor="middle" x="6985.000000" y="91">312</text><line x1="6985.000000" x2="6985.000000" y1="76" y2="81" stroke="#AAAAAA" /><text style="font-size:10px;font-family:sans-serif;fill:#000000;" text-anchor="middle" x="6985.000000" y="91">312</text></g>
</svg>
