<?xml version='1.0'?>
<svg xmlns="http://www.w3.org/2000/svg" xmlns:xlink="http://www.w3.org/1999/xlink" width="7000" height="111">
<defs>
  <filter id="ds" x="0" y="0">
    <feOffset in="SourceAlpha" dx="2" dy="2" />
    <feComponentTransfer><feFuncA type="linear" slope="0.2"/></feComponentTransfer>
    <feGaussianBlur result="blurOut" stdDeviation="1" />
    <feBlend in="SourceGraphic" in2="blurOut" mode="normal" />
  </filter>
  <pattern id="disordered-hatch" patternUnits="userSpaceOnUse" width="4" height="4">
    <path d="M-1,1 l2,-2 M0,4 l4,-4 M3,5 l2,-2" stroke="#000000" opacity="0.3" />
  </pattern>
</defs>
<line x1="2087.162162" x2="2087.162162" y1="19" y2="47" stroke="#BABDB6" stroke-width="2"/><a xlink:title="A55T"><circle cx="2087.162162" cy="19" r="4.000000" fill="#ff0000" /></a><a xlink:title="D6R9Q3_HUMAN, Spermatogenesis-associated protein 24 (185aa)"><rect fill="#BABDB6" x="15" y="47" width="6970" height="14"/></a><a xlink:title="disorder"><rect fill="url(#disordered-hatch)" x="4573.756757" y="47" width="150.702703" height="14"/></a>
<a xlink:title="disorder"><rect fill="url(#disordered-hatch)" x="5628.675676" y="47" width="37.675676" height="14"/></a>
<a xlink:title="disorder"><rect fill="url(#disordered-hatch)" x="5741.702703" y="47" width="113.027027" height="14"/></a>
<a xlink:title="disorder"><rect fill="url(#disordered-hatch)" x="6608.243243" y="47" width="376.756757" height="14"/></a>
<a xlink:title="coiled_coil"><rect fill="#98E698" x="730.837838" y="45" width="753.513514" height="18" filter="url(#ds)"/></a>
<a xlink:title="coiled_coil"><rect fill="#7FFFFF" x="2803.000000" y="45" width="753.513514" height="18" filter="url(#ds)"/></a>
<g transform="translate(1861.108108,42)"><a xlink:href="http://pfam.xfam.org/family/PF15175" xlink:title="Spermatogenesis-associated protein 24"><rect fill="#2dcf00" x="0" y="0" width="4709.459459" height="24" filter="url(#ds)"/><text style="font-size:12px;font-family:sans-serif;fill:#ffffff;" text-anchor="middle" x="2354.729730" y="16">Spermatogenesis-associated protein 24</text></a></g>
<g class="axis">
<line x1="15" x2="6985" y1="76" y2="76" stroke="#AAAAAA" /><line x1="15" x2="15" y1="76" y2="81" stroke="#AAAAAA" /><line x1="15.000000" x2="15.000000" y1="76" y2="81" stroke="#AAAAAA" /><text style="font-size:10px;font-family:sans-serif;fill:#000000;" text-anchor="middle" x="15.000000" y="91">0</text><line x1="730.837838" x2="730.837838" y1="76" y2="81" stroke="#AAAAAA" /><text style="font-size:10px;font-family:sans-serif;fill:#000000;" text-anchor="middle" x="730.837838" y="91">19</text><line x1="1484.351351" x2="1484.351351" y1="76" y2="81" stroke="#AAAAAA" /><text style="font-size:10px;font-family:sans-serif;fill:#000000;" text-anchor="middle" x="1484.351351" y="91">39</text><line x1="1861.108108" x2="1861.108108" y1="76" y2="81" stroke="#AAAAAA" /><text style="font-size:10px;font-family:sans-serif;fill:#000000;" text-anchor="middle" x="1861.108108" y="91">49</text><line x1="2087.162162" x2="2087.162162" y1="76" y2="81" stroke="#AAAAAA" /><text style="font-size:10px;font-family:sans-serif;fill:#000000;" text-anchor="middle" x="2087.162162" y="91">55</text><line x1="2803.000000" x2="2803.000000" y1="76" y2="81" stroke="#AAAAAA" /><text style="font-size:10px;font-family:sans-serif;fill:#000000;" text-anchor="middle" x="2803.000000" y="91">74</text><line x1="3556.513514" x2="3556.513514" y1="76" y2="81" stroke="#AAAAAA" /><text style="font-size:10px;font-family:sans-serif;fill:#000000;" text-anchor="middle" x="3556.513514" y="91">94</text><line x1="6570.567568" x2="6570.567568" y1="76" y2="81" stroke="#AAAAAA" /><text style="font-size:10px;font-family:sans-serif;fill:#000000;" text-anchor="middle" x="6570.567568" y="91">174</text><line x1="6985.000000" x2="6985.000000" y1="76" y2="81" stroke="#AAAAAA" /><text style="font-size:10px;font-family:sans-serif;fill:#000000;" text-anchor="middle" x="6985.000000" y="91">185</text></g>
</svg>
