<?xml version='1.0'?>
<svg xmlns="http://www.w3.org/2000/svg" xmlns:xlink="http://www.w3.org/1999/xlink" width="7000" height="111">
<defs>
  <filter id="ds" x="0" y="0">
    <feOffset in="SourceAlpha" dx="2" dy="2" />
    <feComponentTransfer><feFuncA type="linear" slope="0.2"/></feComponentTransfer>
    <feGaussianBlur result="blurOut" stdDeviation="1" />
    <feBlend in="SourceGraphic" in2="blurOut" mode="normal" />
  </filter>
  <pattern id="disordered-hatch" patternUnits="userSpaceOnUse" width="4" height="4">
    <path d="M-1,1 l2,-2 M0,4 l4,-4 M3,5 l2,-2" stroke="#000000" opacity="0.3" />
  </pattern>
</defs>
<line x1="5919.359912" x2="5919.359912" y1="19" y2="47" stroke="#BABDB6" stroke-width="2"/><a xlink:title="R1158L"><circle cx="5919.359912" cy="19" r="4.000000" fill="#ff0000" /></a><a xlink:title="D6RA03_HUMAN, Regulating synaptic membrane exocytosis protein 2 (1367aa)"><rect fill="#BABDB6" x="15" y="47" width="6970" height="14"/></a><a xlink:title="disorder"><rect fill="url(#disordered-hatch)" x="1544.626920" y="47" width="20.395026" height="14"/></a>
<a xlink:title="disorder"><rect fill="url(#disordered-hatch)" x="1641.503292" y="47" width="5.098756" height="14"/></a>
<a xlink:title="disorder"><rect fill="url(#disordered-hatch)" x="1656.799561" y="47" width="15.296269" height="14"/></a>
<a xlink:title="disorder"><rect fill="url(#disordered-hatch)" x="1682.293343" y="47" width="15.296269" height="14"/></a>
<a xlink:title="disorder"><rect fill="url(#disordered-hatch)" x="1733.280907" y="47" width="61.185077" height="14"/></a>
<a xlink:title="disorder"><rect fill="url(#disordered-hatch)" x="1942.329920" y="47" width="20.395026" height="14"/></a>
<a xlink:title="disorder"><rect fill="url(#disordered-hatch)" x="2370.625457" y="47" width="15.296269" height="14"/></a>
<a xlink:title="disorder"><rect fill="url(#disordered-hatch)" x="2462.403072" y="47" width="66.283833" height="14"/></a>
<a xlink:title="disorder"><rect fill="url(#disordered-hatch)" x="2564.378200" y="47" width="10.197513" height="14"/></a>
<a xlink:title="disorder"><rect fill="url(#disordered-hatch)" x="2946.784931" y="47" width="30.592538" height="14"/></a>
<a xlink:title="disorder"><rect fill="url(#disordered-hatch)" x="3318.994148" y="47" width="10.197513" height="14"/></a>
<a xlink:title="disorder"><rect fill="url(#disordered-hatch)" x="3349.586686" y="47" width="137.666423" height="14"/></a>
<a xlink:title="disorder"><rect fill="url(#disordered-hatch)" x="3517.845647" y="47" width="5.098756" height="14"/></a>
<a xlink:title="disorder"><rect fill="url(#disordered-hatch)" x="3844.166057" y="47" width="785.208486" height="14"/></a>
<a xlink:title="disorder"><rect fill="url(#disordered-hatch)" x="5654.224579" y="47" width="25.493782" height="14"/></a>
<a xlink:title="disorder"><rect fill="url(#disordered-hatch)" x="5791.891002" y="47" width="56.086320" height="14"/></a>
<a xlink:title="disorder"><rect fill="url(#disordered-hatch)" x="5863.273592" y="47" width="107.073884" height="14"/></a>
<a xlink:title="disorder"><rect fill="url(#disordered-hatch)" x="5980.544989" y="47" width="5.098756" height="14"/></a>
<a xlink:title="disorder"><rect fill="url(#disordered-hatch)" x="6903.419898" y="47" width="5.098756" height="14"/></a>
<a xlink:title="disorder"><rect fill="url(#disordered-hatch)" x="6923.814923" y="47" width="61.185077" height="14"/></a>
<a xlink:title="coiled_coil"><rect fill="#7FFFFF" x="5006.682516" y="45" width="101.975128" height="18" filter="url(#ds)"/></a>
<a xlink:title="low_complexity"><rect fill="#7FFFFF" x="111.876372" y="45" width="76.481346" height="18" filter="url(#ds)"/></a>
<a xlink:title="low_complexity"><rect fill="#C2DDFF" x="489.184345" y="45" width="107.073884" height="18" filter="url(#ds)"/></a>
<a xlink:title="low_complexity"><rect fill="#C2DDFF" x="1396.762985" y="45" width="66.283833" height="18" filter="url(#ds)"/></a>
<a xlink:title="low_complexity"><rect fill="#C2DDFF" x="1488.540600" y="45" width="50.987564" height="18" filter="url(#ds)"/></a>
<a xlink:title="low_complexity"><rect fill="#C2DDFF" x="1570.120702" y="45" width="66.283833" height="18" filter="url(#ds)"/></a>
<a xlink:title="low_complexity"><rect fill="#C2DDFF" x="2416.514265" y="45" width="40.790051" height="18" filter="url(#ds)"/></a>
<a xlink:title="low_complexity"><rect fill="#C2DDFF" x="2579.674470" y="45" width="61.185077" height="18" filter="url(#ds)"/></a>
<a xlink:title="low_complexity"><rect fill="#7FFFFF" x="2931.488661" y="45" width="56.086320" height="18" filter="url(#ds)"/></a>
<a xlink:title="low_complexity"><rect fill="#7FFFFF" x="4710.954645" y="45" width="158.061448" height="18" filter="url(#ds)"/></a>
<a xlink:title="low_complexity"><rect fill="#7FFFFF" x="4920.003658" y="45" width="188.653987" height="18" filter="url(#ds)"/></a>
<a xlink:title="disorder"><rect fill="url(#disordered-hatch)" x="35.395026" y="47" width="30.592538" height="14"/></a>
<a xlink:title="disorder"><rect fill="url(#disordered-hatch)" x="341.320410" y="47" width="142.765179" height="14"/></a>
<a xlink:title="disorder"><rect fill="url(#disordered-hatch)" x="601.356986" y="47" width="790.307242" height="14"/></a>
<a xlink:title="disorder"><rect fill="url(#disordered-hatch)" x="1468.145574" y="47" width="15.296269" height="14"/></a>
<a xlink:title="disorder"><rect fill="url(#disordered-hatch)" x="2396.119239" y="47" width="15.296269" height="14"/></a>
<g transform="translate(1901.539868,42)"><a xlink:href="http://pfam.xfam.org/family/PF00595" xlink:title="PDZ domain (Also known as DHR or GLGF)"><rect fill="#2dcf00" x="0" y="0" width="423.196781" height="24" filter="url(#ds)"/><text style="font-size:12px;font-family:sans-serif;fill:#ffffff;" text-anchor="middle" x="211.598391" y="16">PDZ domain (Also known as DHR or GLGF)</text></a></g>
<g transform="translate(2758.130944,42)"><a xlink:href="http://pfam.xfam.org/family/PF00168" xlink:title="C2 domain"><rect fill="#ff5353" x="0" y="0" width="463.986832" height="24" filter="url(#ds)"/><text style="font-size:12px;font-family:sans-serif;fill:#ffffff;" text-anchor="middle" x="231.993416" y="16">C2 domain</text></a></g>
<g transform="translate(6276.272860,42)"><a xlink:href="http://pfam.xfam.org/family/PF00168" xlink:title="C2 domain"><rect fill="#ff5353" x="0" y="0" width="443.591807" height="24" filter="url(#ds)"/><text style="font-size:12px;font-family:sans-serif;fill:#ffffff;" text-anchor="middle" x="221.795903" y="16">C2 domain</text></a></g>
<g class="axis">
<line x1="15" x2="6985" y1="76" y2="76" stroke="#AAAAAA" /><line x1="15" x2="15" y1="76" y2="81" stroke="#AAAAAA" /><line x1="15.000000" x2="15.000000" y1="76" y2="81" stroke="#AAAAAA" /><text style="font-size:10px;font-family:sans-serif;fill:#000000;" text-anchor="middle" x="15.000000" y="91">0</text><line x1="111.876372" x2="111.876372" y1="76" y2="81" stroke="#AAAAAA" /><text style="font-size:10px;font-family:sans-serif;fill:#000000;" text-anchor="middle" x="111.876372" y="91">19</text><line x1="188.357718" x2="188.357718" y1="76" y2="81" stroke="#AAAAAA" /><text style="font-size:10px;font-family:sans-serif;fill:#000000;" text-anchor="middle" x="188.357718" y="91">34</text><line x1="489.184345" x2="489.184345" y1="76" y2="81" stroke="#AAAAAA" /><text style="font-size:10px;font-family:sans-serif;fill:#000000;" text-anchor="middle" x="489.184345" y="91">93</text><line x1="596.258230" x2="596.258230" y1="76" y2="81" stroke="#AAAAAA" /><text style="font-size:10px;font-family:sans-serif;fill:#000000;" text-anchor="middle" x="596.258230" y="91">114</text><line x1="1396.762985" x2="1396.762985" y1="76" y2="81" stroke="#AAAAAA" /><text style="font-size:10px;font-family:sans-serif;fill:#000000;" text-anchor="middle" x="1396.762985" y="91">271</text><line x1="1463.046818" x2="1463.046818" y1="76" y2="81" stroke="#AAAAAA" /><text style="font-size:10px;font-family:sans-serif;fill:#000000;" text-anchor="middle" x="1463.046818" y="91">284</text><line x1="1488.540600" x2="1488.540600" y1="76" y2="81" stroke="#AAAAAA" /><text style="font-size:10px;font-family:sans-serif;fill:#000000;" text-anchor="middle" x="1488.540600" y="91">289</text><line x1="1539.528164" x2="1539.528164" y1="76" y2="81" stroke="#AAAAAA" /><text style="font-size:10px;font-family:sans-serif;fill:#000000;" text-anchor="middle" x="1539.528164" y="91">299</text><line x1="1570.120702" x2="1570.120702" y1="76" y2="81" stroke="#AAAAAA" /><text style="font-size:10px;font-family:sans-serif;fill:#000000;" text-anchor="middle" x="1570.120702" y="91">305</text><line x1="1636.404535" x2="1636.404535" y1="76" y2="81" stroke="#AAAAAA" /><text style="font-size:10px;font-family:sans-serif;fill:#000000;" text-anchor="middle" x="1636.404535" y="91">318</text><line x1="1901.539868" x2="1901.539868" y1="76" y2="81" stroke="#AAAAAA" /><text style="font-size:10px;font-family:sans-serif;fill:#000000;" text-anchor="middle" x="1901.539868" y="91">370</text><line x1="2324.736650" x2="2324.736650" y1="76" y2="81" stroke="#AAAAAA" /><text style="font-size:10px;font-family:sans-serif;fill:#000000;" text-anchor="middle" x="2324.736650" y="91">453</text><line x1="2416.514265" x2="2416.514265" y1="76" y2="81" stroke="#AAAAAA" /><text style="font-size:10px;font-family:sans-serif;fill:#000000;" text-anchor="middle" x="2416.514265" y="91">471</text><line x1="2457.304316" x2="2457.304316" y1="76" y2="81" stroke="#AAAAAA" /><text style="font-size:10px;font-family:sans-serif;fill:#000000;" text-anchor="middle" x="2457.304316" y="91">479</text><line x1="2579.674470" x2="2579.674470" y1="76" y2="81" stroke="#AAAAAA" /><text style="font-size:10px;font-family:sans-serif;fill:#000000;" text-anchor="middle" x="2579.674470" y="91">503</text><line x1="2640.859546" x2="2640.859546" y1="76" y2="81" stroke="#AAAAAA" /><text style="font-size:10px;font-family:sans-serif;fill:#000000;" text-anchor="middle" x="2640.859546" y="91">515</text><line x1="2758.130944" x2="2758.130944" y1="76" y2="81" stroke="#AAAAAA" /><text style="font-size:10px;font-family:sans-serif;fill:#000000;" text-anchor="middle" x="2758.130944" y="91">538</text><line x1="2931.488661" x2="2931.488661" y1="76" y2="81" stroke="#AAAAAA" /><text style="font-size:10px;font-family:sans-serif;fill:#000000;" text-anchor="middle" x="2931.488661" y="91">572</text><line x1="2987.574982" x2="2987.574982" y1="76" y2="81" stroke="#AAAAAA" /><text style="font-size:10px;font-family:sans-serif;fill:#000000;" text-anchor="middle" x="2987.574982" y="91">583</text><line x1="3222.117776" x2="3222.117776" y1="76" y2="81" stroke="#AAAAAA" /><text style="font-size:10px;font-family:sans-serif;fill:#000000;" text-anchor="middle" x="3222.117776" y="91">629</text><line x1="4710.954645" x2="4710.954645" y1="76" y2="81" stroke="#AAAAAA" /><text style="font-size:10px;font-family:sans-serif;fill:#000000;" text-anchor="middle" x="4710.954645" y="91">921</text><line x1="4869.016094" x2="4869.016094" y1="76" y2="81" stroke="#AAAAAA" /><text style="font-size:10px;font-family:sans-serif;fill:#000000;" text-anchor="middle" x="4869.016094" y="91">952</text><line x1="4920.003658" x2="4920.003658" y1="76" y2="81" stroke="#AAAAAA" /><text style="font-size:10px;font-family:sans-serif;fill:#000000;" text-anchor="middle" x="4920.003658" y="91">962</text><line x1="5006.682516" x2="5006.682516" y1="76" y2="81" stroke="#AAAAAA" /><text style="font-size:10px;font-family:sans-serif;fill:#000000;" text-anchor="middle" x="5006.682516" y="91">979</text><line x1="5108.657644" x2="5108.657644" y1="76" y2="81" stroke="#AAAAAA" /><text style="font-size:10px;font-family:sans-serif;fill:#000000;" text-anchor="middle" x="5108.657644" y="91">999</text><line x1="5919.359912" x2="5919.359912" y1="76" y2="81" stroke="#AAAAAA" /><text style="font-size:10px;font-family:sans-serif;fill:#000000;" text-anchor="middle" x="5919.359912" y="91">1158</text><line x1="6276.272860" x2="6276.272860" y1="76" y2="81" stroke="#AAAAAA" /><text style="font-size:10px;font-family:sans-serif;fill:#000000;" text-anchor="middle" x="6276.272860" y="91">1228</text><line x1="6719.864667" x2="6719.864667" y1="76" y2="81" stroke="#AAAAAA" /><text style="font-size:10px;font-family:sans-serif;fill:#000000;" text-anchor="middle" x="6719.864667" y="91">1315</text><line x1="6985.000000" x2="6985.000000" y1="76" y2="81" stroke="#AAAAAA" /><text style="font-size:10px;font-family:sans-serif;fill:#000000;" text-anchor="middle" x="6985.000000" y="91">1367</text></g>
</svg>
