<?xml version='1.0'?>
<svg xmlns="http://www.w3.org/2000/svg" xmlns:xlink="http://www.w3.org/1999/xlink" width="7000" height="111">
<defs>
  <filter id="ds" x="0" y="0">
    <feOffset in="SourceAlpha" dx="2" dy="2" />
    <feComponentTransfer><feFuncA type="linear" slope="0.2"/></feComponentTransfer>
    <feGaussianBlur result="blurOut" stdDeviation="1" />
    <feBlend in="SourceGraphic" in2="blurOut" mode="normal" />
  </filter>
  <pattern id="disordered-hatch" patternUnits="userSpaceOnUse" width="4" height="4">
    <path d="M-1,1 l2,-2 M0,4 l4,-4 M3,5 l2,-2" stroke="#000000" opacity="0.3" />
  </pattern>
</defs>
<line x1="851.400000" x2="851.400000" y1="19" y2="47" stroke="#BABDB6" stroke-width="2"/><a xlink:title="P18S"><circle cx="851.400000" cy="19" r="4.000000" fill="#ff0000" /></a><a xlink:title="D6RBG2_HUMAN, Protocadherin-1 (Fragment) (150aa)"><rect fill="#BABDB6" x="15" y="47" width="6970" height="14"/></a><a xlink:title="disorder"><rect fill="url(#disordered-hatch)" x="61.466667" y="47" width="185.866667" height="14"/></a>
<a xlink:title="disorder"><rect fill="url(#disordered-hatch)" x="340.266667" y="47" width="92.933333" height="14"/></a>
<a xlink:title="disorder"><rect fill="url(#disordered-hatch)" x="1734.266667" y="47" width="278.800000" height="14"/></a>
<a xlink:title="disorder"><rect fill="url(#disordered-hatch)" x="2431.266667" y="47" width="46.466667" height="14"/></a>
<a xlink:title="disorder"><rect fill="url(#disordered-hatch)" x="4104.066667" y="47" width="232.333333" height="14"/></a>
<a xlink:title="disorder"><rect fill="url(#disordered-hatch)" x="4522.266667" y="47" width="139.400000" height="14"/></a>
<a xlink:title="disorder"><rect fill="url(#disordered-hatch)" x="6148.600000" y="47" width="278.800000" height="14"/></a>
<a xlink:title="disorder"><rect fill="url(#disordered-hatch)" x="6520.333333" y="47" width="139.400000" height="14"/></a>
<a xlink:title="disorder"><rect fill="url(#disordered-hatch)" x="6752.666667" y="47" width="232.333333" height="14"/></a>
<a xlink:title="sig_p"><rect fill="#FFD27F" x="61.466667" y="45" width="1579.866667" height="18" filter="url(#ds)"/></a>
<a xlink:title="low_complexity"><rect fill="#7FFFFF" x="712.000000" y="45" width="789.933333" height="18" filter="url(#ds)"/></a>
<g transform="translate(1687.800000,42)"><a xlink:href="http://pfam.xfam.org/family/PF08266" xlink:title="Cadherin-like"><rect fill="#2dcf00" x="0" y="0" width="3903.200000" height="24" filter="url(#ds)"/><text style="font-size:12px;font-family:sans-serif;fill:#ffffff;" text-anchor="middle" x="1951.600000" y="16">Cadherin-like</text></a></g>
<g class="axis">
<line x1="15" x2="6985" y1="76" y2="76" stroke="#AAAAAA" /><line x1="15" x2="15" y1="76" y2="81" stroke="#AAAAAA" /><line x1="15.000000" x2="15.000000" y1="76" y2="81" stroke="#AAAAAA" /><text style="font-size:10px;font-family:sans-serif;fill:#000000;" text-anchor="middle" x="15.000000" y="91">0</text><line x1="61.466667" x2="61.466667" y1="76" y2="81" stroke="#AAAAAA" /><text style="font-size:10px;font-family:sans-serif;fill:#000000;" text-anchor="middle" x="61.466667" y="91">1</text><line x1="712.000000" x2="712.000000" y1="76" y2="81" stroke="#AAAAAA" /><text style="font-size:10px;font-family:sans-serif;fill:#000000;" text-anchor="middle" x="712.000000" y="91">15</text><line x1="851.400000" x2="851.400000" y1="76" y2="81" stroke="#AAAAAA" /><text style="font-size:10px;font-family:sans-serif;fill:#000000;" text-anchor="middle" x="851.400000" y="91">18</text><line x1="1501.933333" x2="1501.933333" y1="76" y2="81" stroke="#AAAAAA" /><text style="font-size:10px;font-family:sans-serif;fill:#000000;" text-anchor="middle" x="1501.933333" y="91">32</text><line x1="1641.333333" x2="1641.333333" y1="76" y2="81" stroke="#AAAAAA" /><text style="font-size:10px;font-family:sans-serif;fill:#000000;" text-anchor="middle" x="1641.333333" y="91">35</text><line x1="1687.800000" x2="1687.800000" y1="76" y2="81" stroke="#AAAAAA" /><text style="font-size:10px;font-family:sans-serif;fill:#000000;" text-anchor="middle" x="1687.800000" y="91">36</text><line x1="5591.000000" x2="5591.000000" y1="76" y2="81" stroke="#AAAAAA" /><text style="font-size:10px;font-family:sans-serif;fill:#000000;" text-anchor="middle" x="5591.000000" y="91">120</text><line x1="6985.000000" x2="6985.000000" y1="76" y2="81" stroke="#AAAAAA" /><text style="font-size:10px;font-family:sans-serif;fill:#000000;" text-anchor="middle" x="6985.000000" y="91">150</text></g>
</svg>
