<?xml version='1.0'?>
<svg xmlns="http://www.w3.org/2000/svg" xmlns:xlink="http://www.w3.org/1999/xlink" width="7000" height="133">
<defs>
  <filter id="ds" x="0" y="0">
    <feOffset in="SourceAlpha" dx="2" dy="2" />
    <feComponentTransfer><feFuncA type="linear" slope="0.2"/></feComponentTransfer>
    <feGaussianBlur result="blurOut" stdDeviation="1" />
    <feBlend in="SourceGraphic" in2="blurOut" mode="normal" />
  </filter>
  <pattern id="disordered-hatch" patternUnits="userSpaceOnUse" width="4" height="4">
    <path d="M-1,1 l2,-2 M0,4 l4,-4 M3,5 l2,-2" stroke="#000000" opacity="0.3" />
  </pattern>
</defs>
<line x1="217.354839" x2="217.354839" y1="41" y2="69" stroke="#BABDB6" stroke-width="2"/><a xlink:title="D9Hfs*2"><circle cx="217.354839" cy="41" r="5.074545" fill="#00ccff" /></a><line x1="329.774194" x2="329.774194" y1="41" y2="69" stroke="#BABDB6" stroke-width="2"/><a xlink:title="R14Q"><circle cx="329.774194" cy="41" r="4.000000" fill="#00ccff" /></a><line x1="779.451613" x2="779.451613" y1="41" y2="69" stroke="#BABDB6" stroke-width="2"/><a xlink:title="A34V"><circle cx="779.451613" cy="41" r="4.000000" fill="#00ccff" /></a><line x1="1094.225806" x2="1094.225806" y1="41" y2="69" stroke="#BABDB6" stroke-width="2"/><a xlink:title="E48V"><circle cx="1094.225806" cy="41" r="4.000000" fill="#00ccff" /></a><line x1="1251.612903" x2="1251.612903" y1="41" y2="69" stroke="#BABDB6" stroke-width="2"/><a xlink:title="L55W"><circle cx="1251.612903" cy="41" r="5.074545" fill="#00ccff" /></a><line x1="1993.580645" x2="1993.580645" y1="41" y2="69" stroke="#BABDB6" stroke-width="2"/><a xlink:title="H88R"><circle cx="1993.580645" cy="41" r="8.485102" fill="#00ccff" /></a><line x1="2375.806452" x2="2375.806452" y1="41" y2="69" stroke="#BABDB6" stroke-width="2"/><a xlink:title="T105A"><circle cx="2375.806452" cy="41" r="9.683624" fill="#00ccff" /></a><line x1="2420.774194" x2="2420.774194" y1="41" y2="69" stroke="#BABDB6" stroke-width="2"/><a xlink:title="I107F"><circle cx="2420.774194" cy="41" r="4.709640" fill="#00ccff" /></a><line x1="2713.064516" x2="2713.064516" y1="41" y2="69" stroke="#BABDB6" stroke-width="2"/><a xlink:title="G120V"><circle cx="2713.064516" cy="41" r="8.917231" fill="#00ccff" /></a><line x1="3027.838710" x2="3027.838710" y1="41" y2="69" stroke="#BABDB6" stroke-width="2"/><a xlink:title="M134V"><circle cx="3027.838710" cy="41" r="4.000000" fill="#00ccff" /></a><line x1="3050.322581" x2="3050.322581" y1="41" y2="69" stroke="#BABDB6" stroke-width="2"/><a xlink:title="M135T"><circle cx="3050.322581" cy="41" r="7.082931" fill="#00ccff" /></a><line x1="3072.806452" x2="3072.806452" y1="41" y2="69" stroke="#BABDB6" stroke-width="2"/><a xlink:title="E136Q"><circle cx="3072.806452" cy="41" r="4.000000" fill="#00ccff" /></a><line x1="3095.290323" x2="3095.290323" y1="41" y2="69" stroke="#BABDB6" stroke-width="2"/><a xlink:title="G137R"><circle cx="3095.290323" cy="41" r="4.000000" fill="#00ccff" /></a><line x1="3185.225806" x2="3185.225806" y1="41" y2="69" stroke="#BABDB6" stroke-width="2"/><a xlink:title="T141A"><circle cx="3185.225806" cy="41" r="4.709640" fill="#00ccff" /></a><line x1="3230.193548" x2="3230.193548" y1="41" y2="69" stroke="#BABDB6" stroke-width="2"/><a xlink:title="A143G"><circle cx="3230.193548" cy="41" r="4.000000" fill="#00ccff" /></a><line x1="3387.580645" x2="3387.580645" y1="41" y2="69" stroke="#BABDB6" stroke-width="2"/><a xlink:title="V150I"><circle cx="3387.580645" cy="41" r="4.709640" fill="#00ccff" /></a><line x1="3522.483871" x2="3522.483871" y1="41" y2="69" stroke="#BABDB6" stroke-width="2"/><a xlink:title="S156G"><circle cx="3522.483871" cy="41" r="6.194056" fill="#00ccff" /></a><line x1="3612.419355" x2="3612.419355" y1="41" y2="69" stroke="#BABDB6" stroke-width="2"/><a xlink:title="E160K"><circle cx="3612.419355" cy="41" r="4.000000" fill="#00ccff" /></a><line x1="3972.161290" x2="3972.161290" y1="20" y2="69" stroke="#BABDB6" stroke-width="2"/><a xlink:title="R176C"><circle cx="3972.161290" cy="20" r="7.301731" fill="#00ccff" /></a><line x1="3972.161290" x2="3972.161290" y1="41" y2="69" stroke="#BABDB6" stroke-width="2"/><a xlink:title="R176H"><circle cx="3972.161290" cy="41" r="7.032544" fill="#00ccff" /></a><line x1="4826.548387" x2="4826.548387" y1="41" y2="69" stroke="#BABDB6" stroke-width="2"/><a xlink:title="E214K"><circle cx="4826.548387" cy="41" r="4.709640" fill="#00ccff" /></a><line x1="4961.451613" x2="4961.451613" y1="41" y2="69" stroke="#BABDB6" stroke-width="2"/><a xlink:title="V220G"><circle cx="4961.451613" cy="41" r="4.000000" fill="#ff0000" /></a><line x1="5208.774194" x2="5208.774194" y1="41" y2="69" stroke="#BABDB6" stroke-width="2"/><a xlink:title="G231E"><circle cx="5208.774194" cy="41" r="4.000000" fill="#ff0000" /></a><a xlink:title="D6RF84_HUMAN, Uncharacterized protein (310aa)"><rect fill="#BABDB6" x="15" y="69" width="6970" height="14"/></a><a xlink:title="disorder"><rect fill="url(#disordered-hatch)" x="37.483871" y="69" width="202.354839" height="14"/></a>
<a xlink:title="disorder"><rect fill="url(#disordered-hatch)" x="284.806452" y="69" width="22.483871" height="14"/></a>
<a xlink:title="disorder"><rect fill="url(#disordered-hatch)" x="846.903226" y="69" width="562.096774" height="14"/></a>
<a xlink:title="disorder"><rect fill="url(#disordered-hatch)" x="1903.645161" y="69" width="112.419355" height="14"/></a>
<a xlink:title="disorder"><rect fill="url(#disordered-hatch)" x="5523.548387" y="69" width="292.290323" height="14"/></a>
<a xlink:title="low_complexity"><rect fill="#C2DDFF" x="5838.322581" y="67" width="831.903226" height="18" filter="url(#ds)"/></a>
<a xlink:title="disorder"><rect fill="url(#disordered-hatch)" x="2083.516129" y="69" width="1011.774194" height="14"/></a>
<a xlink:title="disorder"><rect fill="url(#disordered-hatch)" x="4556.741935" y="69" width="202.354839" height="14"/></a>
<g class="axis">
<line x1="15" x2="6985" y1="98" y2="98" stroke="#AAAAAA" /><line x1="15" x2="15" y1="98" y2="103" stroke="#AAAAAA" /><line x1="15.000000" x2="15.000000" y1="98" y2="103" stroke="#AAAAAA" /><text style="font-size:10px;font-family:sans-serif;fill:#000000;" text-anchor="middle" x="15.000000" y="113">0</text><line x1="217.354839" x2="217.354839" y1="98" y2="103" stroke="#AAAAAA" /><text style="font-size:10px;font-family:sans-serif;fill:#000000;" text-anchor="middle" x="217.354839" y="113">9</text><line x1="329.774194" x2="329.774194" y1="98" y2="103" stroke="#AAAAAA" /><text style="font-size:10px;font-family:sans-serif;fill:#000000;" text-anchor="middle" x="329.774194" y="113">14</text><line x1="779.451613" x2="779.451613" y1="98" y2="103" stroke="#AAAAAA" /><text style="font-size:10px;font-family:sans-serif;fill:#000000;" text-anchor="middle" x="779.451613" y="113">34</text><line x1="1094.225806" x2="1094.225806" y1="98" y2="103" stroke="#AAAAAA" /><text style="font-size:10px;font-family:sans-serif;fill:#000000;" text-anchor="middle" x="1094.225806" y="113">48</text><line x1="1251.612903" x2="1251.612903" y1="98" y2="103" stroke="#AAAAAA" /><text style="font-size:10px;font-family:sans-serif;fill:#000000;" text-anchor="middle" x="1251.612903" y="113">55</text><line x1="1993.580645" x2="1993.580645" y1="98" y2="103" stroke="#AAAAAA" /><text style="font-size:10px;font-family:sans-serif;fill:#000000;" text-anchor="middle" x="1993.580645" y="113">88</text><line x1="2375.806452" x2="2375.806452" y1="98" y2="103" stroke="#AAAAAA" /><text style="font-size:10px;font-family:sans-serif;fill:#000000;" text-anchor="middle" x="2375.806452" y="113">105</text><line x1="2420.774194" x2="2420.774194" y1="98" y2="103" stroke="#AAAAAA" /><text style="font-size:10px;font-family:sans-serif;fill:#000000;" text-anchor="middle" x="2420.774194" y="113">107</text><line x1="2713.064516" x2="2713.064516" y1="98" y2="103" stroke="#AAAAAA" /><text style="font-size:10px;font-family:sans-serif;fill:#000000;" text-anchor="middle" x="2713.064516" y="113">120</text><line x1="3027.838710" x2="3027.838710" y1="98" y2="103" stroke="#AAAAAA" /><text style="font-size:10px;font-family:sans-serif;fill:#000000;" text-anchor="middle" x="3027.838710" y="113">134</text><line x1="3050.322581" x2="3050.322581" y1="98" y2="103" stroke="#AAAAAA" /><text style="font-size:10px;font-family:sans-serif;fill:#000000;" text-anchor="middle" x="3050.322581" y="113">135</text><line x1="3072.806452" x2="3072.806452" y1="98" y2="103" stroke="#AAAAAA" /><text style="font-size:10px;font-family:sans-serif;fill:#000000;" text-anchor="middle" x="3072.806452" y="113">136</text><line x1="3095.290323" x2="3095.290323" y1="98" y2="103" stroke="#AAAAAA" /><text style="font-size:10px;font-family:sans-serif;fill:#000000;" text-anchor="middle" x="3095.290323" y="113">137</text><line x1="3185.225806" x2="3185.225806" y1="98" y2="103" stroke="#AAAAAA" /><text style="font-size:10px;font-family:sans-serif;fill:#000000;" text-anchor="middle" x="3185.225806" y="113">141</text><line x1="3230.193548" x2="3230.193548" y1="98" y2="103" stroke="#AAAAAA" /><text style="font-size:10px;font-family:sans-serif;fill:#000000;" text-anchor="middle" x="3230.193548" y="113">143</text><line x1="3387.580645" x2="3387.580645" y1="98" y2="103" stroke="#AAAAAA" /><text style="font-size:10px;font-family:sans-serif;fill:#000000;" text-anchor="middle" x="3387.580645" y="113">150</text><line x1="3522.483871" x2="3522.483871" y1="98" y2="103" stroke="#AAAAAA" /><text style="font-size:10px;font-family:sans-serif;fill:#000000;" text-anchor="middle" x="3522.483871" y="113">156</text><line x1="3612.419355" x2="3612.419355" y1="98" y2="103" stroke="#AAAAAA" /><text style="font-size:10px;font-family:sans-serif;fill:#000000;" text-anchor="middle" x="3612.419355" y="113">160</text><line x1="3972.161290" x2="3972.161290" y1="98" y2="103" stroke="#AAAAAA" /><text style="font-size:10px;font-family:sans-serif;fill:#000000;" text-anchor="middle" x="3972.161290" y="113">176</text><line x1="3972.161290" x2="3972.161290" y1="98" y2="103" stroke="#AAAAAA" /><text style="font-size:10px;font-family:sans-serif;fill:#000000;" text-anchor="middle" x="3972.161290" y="113">176</text><line x1="4826.548387" x2="4826.548387" y1="98" y2="103" stroke="#AAAAAA" /><text style="font-size:10px;font-family:sans-serif;fill:#000000;" text-anchor="middle" x="4826.548387" y="113">214</text><line x1="4961.451613" x2="4961.451613" y1="98" y2="103" stroke="#AAAAAA" /><text style="font-size:10px;font-family:sans-serif;fill:#000000;" text-anchor="middle" x="4961.451613" y="113">220</text><line x1="5208.774194" x2="5208.774194" y1="98" y2="103" stroke="#AAAAAA" /><text style="font-size:10px;font-family:sans-serif;fill:#000000;" text-anchor="middle" x="5208.774194" y="113">231</text><line x1="5838.322581" x2="5838.322581" y1="98" y2="103" stroke="#AAAAAA" /><text style="font-size:10px;font-family:sans-serif;fill:#000000;" text-anchor="middle" x="5838.322581" y="113">259</text><line x1="6670.225806" x2="6670.225806" y1="98" y2="103" stroke="#AAAAAA" /><text style="font-size:10px;font-family:sans-serif;fill:#000000;" text-anchor="middle" x="6670.225806" y="113">296</text><line x1="6985.000000" x2="6985.000000" y1="98" y2="103" stroke="#AAAAAA" /><text style="font-size:10px;font-family:sans-serif;fill:#000000;" text-anchor="middle" x="6985.000000" y="113">310</text></g>
</svg>
