<?xml version='1.0'?>
<svg xmlns="http://www.w3.org/2000/svg" xmlns:xlink="http://www.w3.org/1999/xlink" width="7000" height="111">
<defs>
  <filter id="ds" x="0" y="0">
    <feOffset in="SourceAlpha" dx="2" dy="2" />
    <feComponentTransfer><feFuncA type="linear" slope="0.2"/></feComponentTransfer>
    <feGaussianBlur result="blurOut" stdDeviation="1" />
    <feBlend in="SourceGraphic" in2="blurOut" mode="normal" />
  </filter>
  <pattern id="disordered-hatch" patternUnits="userSpaceOnUse" width="4" height="4">
    <path d="M-1,1 l2,-2 M0,4 l4,-4 M3,5 l2,-2" stroke="#000000" opacity="0.3" />
  </pattern>
</defs>
<line x1="3940.721448" x2="3940.721448" y1="19" y2="47" stroke="#BABDB6" stroke-width="2"/><a xlink:title="P2022-"><circle cx="3940.721448" cy="19" r="4.000000" fill="#ff0000" /></a><a xlink:title="E7EVZ1_HUMAN, Zinc finger homeobox protein 4 (3590aa)"><rect fill="#BABDB6" x="15" y="47" width="6970" height="14"/></a><a xlink:title="disorder"><rect fill="url(#disordered-hatch)" x="16.941504" y="47" width="126.197772" height="14"/></a>
<a xlink:title="disorder"><rect fill="url(#disordered-hatch)" x="209.150418" y="47" width="54.362117" height="14"/></a>
<a xlink:title="disorder"><rect fill="url(#disordered-hatch)" x="290.693593" y="47" width="13.590529" height="14"/></a>
<a xlink:title="disorder"><rect fill="url(#disordered-hatch)" x="308.167131" y="47" width="5.824513" height="14"/></a>
<a xlink:title="disorder"><rect fill="url(#disordered-hatch)" x="688.701950" y="47" width="1.941504" height="14"/></a>
<a xlink:title="disorder"><rect fill="url(#disordered-hatch)" x="772.186630" y="47" width="25.239554" height="14"/></a>
<a xlink:title="disorder"><rect fill="url(#disordered-hatch)" x="867.320334" y="47" width="0.000000" height="14"/></a>
<a xlink:title="disorder"><rect fill="url(#disordered-hatch)" x="1051.763231" y="47" width="27.181058" height="14"/></a>
<a xlink:title="disorder"><rect fill="url(#disordered-hatch)" x="1127.481894" y="47" width="34.947075" height="14"/></a>
<a xlink:title="disorder"><rect fill="url(#disordered-hatch)" x="1230.381616" y="47" width="15.532033" height="14"/></a>
<a xlink:title="disorder"><rect fill="url(#disordered-hatch)" x="1296.392758" y="47" width="9.707521" height="14"/></a>
<a xlink:title="disorder"><rect fill="url(#disordered-hatch)" x="1449.771588" y="47" width="31.064067" height="14"/></a>
<a xlink:title="disorder"><rect fill="url(#disordered-hatch)" x="1558.495822" y="47" width="3.883008" height="14"/></a>
<a xlink:title="disorder"><rect fill="url(#disordered-hatch)" x="2047.754875" y="47" width="3.883008" height="14"/></a>
<a xlink:title="disorder"><rect fill="url(#disordered-hatch)" x="2055.520891" y="47" width="17.473538" height="14"/></a>
<a xlink:title="disorder"><rect fill="url(#disordered-hatch)" x="2119.590529" y="47" width="133.963788" height="14"/></a>
<a xlink:title="disorder"><rect fill="url(#disordered-hatch)" x="2263.261838" y="47" width="3.883008" height="14"/></a>
<a xlink:title="disorder"><rect fill="url(#disordered-hatch)" x="2276.852368" y="47" width="17.473538" height="14"/></a>
<a xlink:title="disorder"><rect fill="url(#disordered-hatch)" x="2298.208914" y="47" width="5.824513" height="14"/></a>
<a xlink:title="disorder"><rect fill="url(#disordered-hatch)" x="2358.395543" y="47" width="3.883008" height="14"/></a>
<a xlink:title="disorder"><rect fill="url(#disordered-hatch)" x="2469.061281" y="47" width="178.618384" height="14"/></a>
<a xlink:title="disorder"><rect fill="url(#disordered-hatch)" x="2661.270195" y="47" width="1.941504" height="14"/></a>
<a xlink:title="disorder"><rect fill="url(#disordered-hatch)" x="2769.994429" y="47" width="5.824513" height="14"/></a>
<a xlink:title="disorder"><rect fill="url(#disordered-hatch)" x="2820.473538" y="47" width="100.958217" height="14"/></a>
<a xlink:title="disorder"><rect fill="url(#disordered-hatch)" x="2925.314763" y="47" width="3.883008" height="14"/></a>
<a xlink:title="disorder"><rect fill="url(#disordered-hatch)" x="3014.623955" y="47" width="34.947075" height="14"/></a>
<a xlink:title="disorder"><rect fill="url(#disordered-hatch)" x="3096.167131" y="47" width="1.941504" height="14"/></a>
<a xlink:title="disorder"><rect fill="url(#disordered-hatch)" x="3105.874652" y="47" width="50.479109" height="14"/></a>
<a xlink:title="disorder"><rect fill="url(#disordered-hatch)" x="3168.002786" y="47" width="11.649025" height="14"/></a>
<a xlink:title="disorder"><rect fill="url(#disordered-hatch)" x="3189.359331" y="47" width="34.947075" height="14"/></a>
<a xlink:title="disorder"><rect fill="url(#disordered-hatch)" x="3367.977716" y="47" width="19.415042" height="14"/></a>
<a xlink:title="disorder"><rect fill="url(#disordered-hatch)" x="3391.275766" y="47" width="34.947075" height="14"/></a>
<a xlink:title="disorder"><rect fill="url(#disordered-hatch)" x="3432.047354" y="47" width="1.941504" height="14"/></a>
<a xlink:title="disorder"><rect fill="url(#disordered-hatch)" x="3437.871866" y="47" width="0.000000" height="14"/></a>
<a xlink:title="disorder"><rect fill="url(#disordered-hatch)" x="3445.637883" y="47" width="83.484680" height="14"/></a>
<a xlink:title="disorder"><rect fill="url(#disordered-hatch)" x="3546.596100" y="47" width="7.766017" height="14"/></a>
<a xlink:title="disorder"><rect fill="url(#disordered-hatch)" x="3560.186630" y="47" width="108.724234" height="14"/></a>
<a xlink:title="disorder"><rect fill="url(#disordered-hatch)" x="3705.799443" y="47" width="40.771588" height="14"/></a>
<a xlink:title="disorder"><rect fill="url(#disordered-hatch)" x="3767.927577" y="47" width="1.941504" height="14"/></a>
<a xlink:title="disorder"><rect fill="url(#disordered-hatch)" x="3791.225627" y="47" width="3.883008" height="14"/></a>
<a xlink:title="disorder"><rect fill="url(#disordered-hatch)" x="3985.376045" y="47" width="5.824513" height="14"/></a>
<a xlink:title="disorder"><rect fill="url(#disordered-hatch)" x="4053.328691" y="47" width="44.654596" height="14"/></a>
<a xlink:title="disorder"><rect fill="url(#disordered-hatch)" x="4107.690808" y="47" width="3.883008" height="14"/></a>
<a xlink:title="disorder"><rect fill="url(#disordered-hatch)" x="4146.520891" y="47" width="19.415042" height="14"/></a>
<a xlink:title="disorder"><rect fill="url(#disordered-hatch)" x="4210.590529" y="47" width="5.824513" height="14"/></a>
<a xlink:title="disorder"><rect fill="url(#disordered-hatch)" x="4222.239554" y="47" width="5.824513" height="14"/></a>
<a xlink:title="disorder"><rect fill="url(#disordered-hatch)" x="4268.835655" y="47" width="7.766017" height="14"/></a>
<a xlink:title="disorder"><rect fill="url(#disordered-hatch)" x="4344.554318" y="47" width="1.941504" height="14"/></a>
<a xlink:title="disorder"><rect fill="url(#disordered-hatch)" x="4398.916435" y="47" width="3.883008" height="14"/></a>
<a xlink:title="disorder"><rect fill="url(#disordered-hatch)" x="4736.738162" y="47" width="42.713092" height="14"/></a>
<a xlink:title="disorder"><rect fill="url(#disordered-hatch)" x="4794.983287" y="47" width="3.883008" height="14"/></a>
<a xlink:title="disorder"><rect fill="url(#disordered-hatch)" x="4855.169916" y="47" width="11.649025" height="14"/></a>
<a xlink:title="disorder"><rect fill="url(#disordered-hatch)" x="4870.701950" y="47" width="1.941504" height="14"/></a>
<a xlink:title="disorder"><rect fill="url(#disordered-hatch)" x="4884.292479" y="47" width="19.415042" height="14"/></a>
<a xlink:title="disorder"><rect fill="url(#disordered-hatch)" x="4913.415042" y="47" width="108.724234" height="14"/></a>
<a xlink:title="disorder"><rect fill="url(#disordered-hatch)" x="5082.325905" y="47" width="1.941504" height="14"/></a>
<a xlink:title="disorder"><rect fill="url(#disordered-hatch)" x="5134.746518" y="47" width="9.707521" height="14"/></a>
<a xlink:title="disorder"><rect fill="url(#disordered-hatch)" x="5206.582173" y="47" width="5.824513" height="14"/></a>
<a xlink:title="disorder"><rect fill="url(#disordered-hatch)" x="5216.289694" y="47" width="25.239554" height="14"/></a>
<a xlink:title="disorder"><rect fill="url(#disordered-hatch)" x="5290.066852" y="47" width="1.941504" height="14"/></a>
<a xlink:title="disorder"><rect fill="url(#disordered-hatch)" x="5295.891365" y="47" width="36.888579" height="14"/></a>
<a xlink:title="disorder"><rect fill="url(#disordered-hatch)" x="5338.604457" y="47" width="1.941504" height="14"/></a>
<a xlink:title="disorder"><rect fill="url(#disordered-hatch)" x="5344.428969" y="47" width="5.824513" height="14"/></a>
<a xlink:title="disorder"><rect fill="url(#disordered-hatch)" x="5354.136490" y="47" width="151.437326" height="14"/></a>
<a xlink:title="disorder"><rect fill="url(#disordered-hatch)" x="5515.281337" y="47" width="3.883008" height="14"/></a>
<a xlink:title="disorder"><rect fill="url(#disordered-hatch)" x="5633.713092" y="47" width="17.473538" height="14"/></a>
<a xlink:title="disorder"><rect fill="url(#disordered-hatch)" x="5709.431755" y="47" width="1.941504" height="14"/></a>
<a xlink:title="disorder"><rect fill="url(#disordered-hatch)" x="5783.208914" y="47" width="5.824513" height="14"/></a>
<a xlink:title="disorder"><rect fill="url(#disordered-hatch)" x="5860.869081" y="47" width="1.941504" height="14"/></a>
<a xlink:title="disorder"><rect fill="url(#disordered-hatch)" x="5876.401114" y="47" width="3.883008" height="14"/></a>
<a xlink:title="disorder"><rect fill="url(#disordered-hatch)" x="5886.108635" y="47" width="3.883008" height="14"/></a>
<a xlink:title="disorder"><rect fill="url(#disordered-hatch)" x="5893.874652" y="47" width="1.941504" height="14"/></a>
<a xlink:title="disorder"><rect fill="url(#disordered-hatch)" x="5907.465181" y="47" width="1.941504" height="14"/></a>
<a xlink:title="disorder"><rect fill="url(#disordered-hatch)" x="5924.938719" y="47" width="23.298050" height="14"/></a>
<a xlink:title="disorder"><rect fill="url(#disordered-hatch)" x="5952.119777" y="47" width="25.239554" height="14"/></a>
<a xlink:title="disorder"><rect fill="url(#disordered-hatch)" x="6220.047354" y="47" width="7.766017" height="14"/></a>
<a xlink:title="disorder"><rect fill="url(#disordered-hatch)" x="6258.877437" y="47" width="7.766017" height="14"/></a>
<a xlink:title="disorder"><rect fill="url(#disordered-hatch)" x="6272.467967" y="47" width="1.941504" height="14"/></a>
<a xlink:title="disorder"><rect fill="url(#disordered-hatch)" x="6340.420613" y="47" width="1.941504" height="14"/></a>
<a xlink:title="disorder"><rect fill="url(#disordered-hatch)" x="6373.426184" y="47" width="5.824513" height="14"/></a>
<a xlink:title="disorder"><rect fill="url(#disordered-hatch)" x="6456.910864" y="47" width="81.543175" height="14"/></a>
<a xlink:title="disorder"><rect fill="url(#disordered-hatch)" x="6695.715877" y="47" width="3.883008" height="14"/></a>
<a xlink:title="disorder"><rect fill="url(#disordered-hatch)" x="6707.364903" y="47" width="9.707521" height="14"/></a>
<a xlink:title="disorder"><rect fill="url(#disordered-hatch)" x="6722.896936" y="47" width="1.941504" height="14"/></a>
<a xlink:title="disorder"><rect fill="url(#disordered-hatch)" x="6740.370474" y="47" width="9.707521" height="14"/></a>
<a xlink:title="disorder"><rect fill="url(#disordered-hatch)" x="6755.902507" y="47" width="21.356546" height="14"/></a>
<a xlink:title="disorder"><rect fill="url(#disordered-hatch)" x="6825.796657" y="47" width="7.766017" height="14"/></a>
<a xlink:title="disorder"><rect fill="url(#disordered-hatch)" x="6837.445682" y="47" width="23.298050" height="14"/></a>
<a xlink:title="disorder"><rect fill="url(#disordered-hatch)" x="6876.275766" y="47" width="1.941504" height="14"/></a>
<a xlink:title="disorder"><rect fill="url(#disordered-hatch)" x="6920.930362" y="47" width="27.181058" height="14"/></a>
<a xlink:title="coiled_coil"><rect fill="#98E698" x="4398.916435" y="45" width="3.883008" height="18" filter="url(#ds)"/></a>
<a xlink:title="coiled_coil"><rect fill="#98E698" x="6402.548747" y="45" width="52.420613" height="18" filter="url(#ds)"/></a>
<a xlink:title="low_complexity"><rect fill="#C2DDFF" x="834.314763" y="45" width="31.064067" height="18" filter="url(#ds)"/></a>
<a xlink:title="low_complexity"><rect fill="#7FFFFF" x="929.448468" y="45" width="9.707521" height="18" filter="url(#ds)"/></a>
<a xlink:title="low_complexity"><rect fill="#C2DDFF" x="1032.348189" y="45" width="17.473538" height="18" filter="url(#ds)"/></a>
<a xlink:title="low_complexity"><rect fill="#C2DDFF" x="1098.359331" y="45" width="27.181058" height="18" filter="url(#ds)"/></a>
<a xlink:title="low_complexity"><rect fill="#C2DDFF" x="1164.370474" y="45" width="38.830084" height="18" filter="url(#ds)"/></a>
<a xlink:title="low_complexity"><rect fill="#C2DDFF" x="1420.649025" y="45" width="27.181058" height="18" filter="url(#ds)"/></a>
<a xlink:title="low_complexity"><rect fill="#C2DDFF" x="1482.777159" y="45" width="17.473538" height="18" filter="url(#ds)"/></a>
<a xlink:title="low_complexity"><rect fill="#C2DDFF" x="1671.103064" y="45" width="21.356546" height="18" filter="url(#ds)"/></a>
<a xlink:title="low_complexity"><rect fill="#C2DDFF" x="3226.247911" y="45" width="77.660167" height="18" filter="url(#ds)"/></a>
<a xlink:title="low_complexity"><rect fill="#C2DDFF" x="3321.381616" y="45" width="23.298050" height="18" filter="url(#ds)"/></a>
<a xlink:title="low_complexity"><rect fill="#C2DDFF" x="3439.813370" y="45" width="93.192201" height="18" filter="url(#ds)"/></a>
<a xlink:title="low_complexity"><rect fill="#C2DDFF" x="3835.880223" y="45" width="58.245125" height="18" filter="url(#ds)"/></a>
<a xlink:title="low_complexity"><rect fill="#C2DDFF" x="3907.715877" y="45" width="75.718663" height="18" filter="url(#ds)"/></a>
<a xlink:title="low_complexity"><rect fill="#C2DDFF" x="4010.615599" y="45" width="40.771588" height="18" filter="url(#ds)"/></a>
<a xlink:title="low_complexity"><rect fill="#C2DDFF" x="4280.484680" y="45" width="5.824513" height="18" filter="url(#ds)"/></a>
<a xlink:title="low_complexity"><rect fill="#C2DDFF" x="4577.534819" y="45" width="27.181058" height="18" filter="url(#ds)"/></a>
<a xlink:title="low_complexity"><rect fill="#C2DDFF" x="4610.540390" y="45" width="31.064067" height="18" filter="url(#ds)"/></a>
<a xlink:title="low_complexity"><rect fill="#C2DDFF" x="4647.428969" y="45" width="21.356546" height="18" filter="url(#ds)"/></a>
<a xlink:title="low_complexity"><rect fill="#C2DDFF" x="4697.908078" y="45" width="36.888579" height="18" filter="url(#ds)"/></a>
<a xlink:title="low_complexity"><rect fill="#C2DDFF" x="4781.392758" y="45" width="25.239554" height="18" filter="url(#ds)"/></a>
<a xlink:title="low_complexity"><rect fill="#C2DDFF" x="5608.473538" y="45" width="23.298050" height="18" filter="url(#ds)"/></a>
<a xlink:title="low_complexity"><rect fill="#C2DDFF" x="5981.242340" y="45" width="31.064067" height="18" filter="url(#ds)"/></a>
<a xlink:title="low_complexity"><rect fill="#C2DDFF" x="6058.902507" y="45" width="38.830084" height="18" filter="url(#ds)"/></a>
<a xlink:title="low_complexity"><rect fill="#C2DDFF" x="6103.557103" y="45" width="21.356546" height="18" filter="url(#ds)"/></a>
<a xlink:title="low_complexity"><rect fill="#C2DDFF" x="6198.690808" y="45" width="19.415042" height="18" filter="url(#ds)"/></a>
<a xlink:title="low_complexity"><rect fill="#7FFFFF" x="6400.607242" y="45" width="0.000000" height="18" filter="url(#ds)"/></a>
<a xlink:title="low_complexity"><rect fill="#C2DDFF" x="6752.019499" y="45" width="34.947075" height="18" filter="url(#ds)"/></a>
<a xlink:title="low_complexity"><rect fill="#C2DDFF" x="6837.445682" y="45" width="42.713092" height="18" filter="url(#ds)"/></a>
<a xlink:title="low_complexity"><rect fill="#C2DDFF" x="6897.632312" y="45" width="21.356546" height="18" filter="url(#ds)"/></a>
<a xlink:title="disorder"><rect fill="url(#disordered-hatch)" x="1032.348189" y="47" width="-1.941504" height="14"/></a>
<a xlink:title="disorder"><rect fill="url(#disordered-hatch)" x="1086.710306" y="47" width="9.707521" height="14"/></a>
<a xlink:title="disorder"><rect fill="url(#disordered-hatch)" x="1420.649025" y="47" width="-1.941504" height="14"/></a>
<a xlink:title="disorder"><rect fill="url(#disordered-hatch)" x="3826.172702" y="47" width="7.766017" height="14"/></a>
<a xlink:title="disorder"><rect fill="url(#disordered-hatch)" x="3896.066852" y="47" width="9.707521" height="14"/></a>
<a xlink:title="disorder"><rect fill="url(#disordered-hatch)" x="3998.966574" y="47" width="9.707521" height="14"/></a>
<a xlink:title="disorder"><rect fill="url(#disordered-hatch)" x="4517.348189" y="47" width="58.245125" height="14"/></a>
<a xlink:title="disorder"><rect fill="url(#disordered-hatch)" x="4606.657382" y="47" width="1.941504" height="14"/></a>
<a xlink:title="disorder"><rect fill="url(#disordered-hatch)" x="4643.545961" y="47" width="1.941504" height="14"/></a>
<a xlink:title="disorder"><rect fill="url(#disordered-hatch)" x="4670.727019" y="47" width="25.239554" height="14"/></a>
<a xlink:title="disorder"><rect fill="url(#disordered-hatch)" x="5538.579387" y="47" width="67.952646" height="14"/></a>
<a xlink:title="disorder"><rect fill="url(#disordered-hatch)" x="5981.242340" y="47" width="-1.941504" height="14"/></a>
<a xlink:title="disorder"><rect fill="url(#disordered-hatch)" x="6014.247911" y="47" width="42.713092" height="14"/></a>
<a xlink:title="disorder"><rect fill="url(#disordered-hatch)" x="6099.674095" y="47" width="1.941504" height="14"/></a>
<a xlink:title="disorder"><rect fill="url(#disordered-hatch)" x="6126.855153" y="47" width="69.894150" height="14"/></a>
<a xlink:title="disorder"><rect fill="url(#disordered-hatch)" x="6889.866295" y="47" width="5.824513" height="14"/></a>
<g transform="translate(1265.328691,42)"><a xlink:href="http://pfam.xfam.org/family/PF00096" xlink:title="Zinc finger, C2H2 type"><rect fill="#2dcf00" x="0" y="0" width="44.654596" height="24" filter="url(#ds)"/><text style="font-size:12px;font-family:sans-serif;fill:#ffffff;" text-anchor="middle" x="22.327298" y="16">z..</text></a></g>
<g transform="translate(1372.111421,42)"><a xlink:href="http://pfam.xfam.org/family/PF12874" xlink:title="Zinc-finger of C2H2 type"><rect fill="#ff5353" x="0" y="0" width="46.596100" height="24" filter="url(#ds)"/><text style="font-size:12px;font-family:sans-serif;fill:#ffffff;" text-anchor="middle" x="23.298050" y="16">zf..</text></a></g>
<g transform="translate(3057.337047,42)"><a xlink:href="http://pfam.xfam.org/family/PF00096" xlink:title="Zinc finger, C2H2 type"><rect fill="#2dcf00" x="0" y="0" width="46.596100" height="24" filter="url(#ds)"/><text style="font-size:12px;font-family:sans-serif;fill:#ffffff;" text-anchor="middle" x="23.298050" y="16">zf..</text></a></g>
<g transform="translate(4099.924791,42)"><a xlink:href="http://pfam.xfam.org/family/PF00046" xlink:title="Homeobox domain"><rect fill="#5b5bff" x="0" y="0" width="108.724234" height="24" filter="url(#ds)"/><text style="font-size:12px;font-family:sans-serif;fill:#ffffff;" text-anchor="middle" x="54.362117" y="16">Homeobox</text></a></g>
<g transform="translate(4288.250696,42)"><a xlink:href="http://pfam.xfam.org/family/PF00046" xlink:title="Homeobox domain"><rect fill="#5b5bff" x="0" y="0" width="108.724234" height="24" filter="url(#ds)"/><text style="font-size:12px;font-family:sans-serif;fill:#ffffff;" text-anchor="middle" x="54.362117" y="16">Homeobox</text></a></g>
<g transform="translate(5024.080780,42)"><a xlink:href="http://pfam.xfam.org/family/PF00046" xlink:title="Homeobox domain"><rect fill="#5b5bff" x="0" y="0" width="108.724234" height="24" filter="url(#ds)"/><text style="font-size:12px;font-family:sans-serif;fill:#ffffff;" text-anchor="middle" x="54.362117" y="16">Homeobox</text></a></g>
<g transform="translate(5653.128134,42)"><a xlink:href="http://pfam.xfam.org/family/PF00046" xlink:title="Homeobox domain"><rect fill="#5b5bff" x="0" y="0" width="108.724234" height="24" filter="url(#ds)"/><text style="font-size:12px;font-family:sans-serif;fill:#ffffff;" text-anchor="middle" x="54.362117" y="16">Homeobox</text></a></g>
<g class="axis">
<line x1="15" x2="6985" y1="76" y2="76" stroke="#AAAAAA" /><line x1="15" x2="15" y1="76" y2="81" stroke="#AAAAAA" /><line x1="15.000000" x2="15.000000" y1="76" y2="81" stroke="#AAAAAA" /><text style="font-size:10px;font-family:sans-serif;fill:#000000;" text-anchor="middle" x="15.000000" y="91">0</text><line x1="834.314763" x2="834.314763" y1="76" y2="81" stroke="#AAAAAA" /><text style="font-size:10px;font-family:sans-serif;fill:#000000;" text-anchor="middle" x="834.314763" y="91">422</text><line x1="865.378830" x2="865.378830" y1="76" y2="81" stroke="#AAAAAA" /><text style="font-size:10px;font-family:sans-serif;fill:#000000;" text-anchor="middle" x="865.378830" y="91">438</text><line x1="929.448468" x2="929.448468" y1="76" y2="81" stroke="#AAAAAA" /><text style="font-size:10px;font-family:sans-serif;fill:#000000;" text-anchor="middle" x="929.448468" y="91">471</text><line x1="1032.348189" x2="1032.348189" y1="76" y2="81" stroke="#AAAAAA" /><text style="font-size:10px;font-family:sans-serif;fill:#000000;" text-anchor="middle" x="1032.348189" y="91">524</text><line x1="1098.359331" x2="1098.359331" y1="76" y2="81" stroke="#AAAAAA" /><text style="font-size:10px;font-family:sans-serif;fill:#000000;" text-anchor="middle" x="1098.359331" y="91">558</text><line x1="1125.540390" x2="1125.540390" y1="76" y2="81" stroke="#AAAAAA" /><text style="font-size:10px;font-family:sans-serif;fill:#000000;" text-anchor="middle" x="1125.540390" y="91">572</text><line x1="1164.370474" x2="1164.370474" y1="76" y2="81" stroke="#AAAAAA" /><text style="font-size:10px;font-family:sans-serif;fill:#000000;" text-anchor="middle" x="1164.370474" y="91">592</text><line x1="1203.200557" x2="1203.200557" y1="76" y2="81" stroke="#AAAAAA" /><text style="font-size:10px;font-family:sans-serif;fill:#000000;" text-anchor="middle" x="1203.200557" y="91">612</text><line x1="1265.328691" x2="1265.328691" y1="76" y2="81" stroke="#AAAAAA" /><text style="font-size:10px;font-family:sans-serif;fill:#000000;" text-anchor="middle" x="1265.328691" y="91">644</text><line x1="1309.983287" x2="1309.983287" y1="76" y2="81" stroke="#AAAAAA" /><text style="font-size:10px;font-family:sans-serif;fill:#000000;" text-anchor="middle" x="1309.983287" y="91">667</text><line x1="1372.111421" x2="1372.111421" y1="76" y2="81" stroke="#AAAAAA" /><text style="font-size:10px;font-family:sans-serif;fill:#000000;" text-anchor="middle" x="1372.111421" y="91">699</text><line x1="1418.707521" x2="1418.707521" y1="76" y2="81" stroke="#AAAAAA" /><text style="font-size:10px;font-family:sans-serif;fill:#000000;" text-anchor="middle" x="1418.707521" y="91">723</text><line x1="1447.830084" x2="1447.830084" y1="76" y2="81" stroke="#AAAAAA" /><text style="font-size:10px;font-family:sans-serif;fill:#000000;" text-anchor="middle" x="1447.830084" y="91">738</text><line x1="1482.777159" x2="1482.777159" y1="76" y2="81" stroke="#AAAAAA" /><text style="font-size:10px;font-family:sans-serif;fill:#000000;" text-anchor="middle" x="1482.777159" y="91">756</text><line x1="1671.103064" x2="1671.103064" y1="76" y2="81" stroke="#AAAAAA" /><text style="font-size:10px;font-family:sans-serif;fill:#000000;" text-anchor="middle" x="1671.103064" y="91">853</text><line x1="1692.459610" x2="1692.459610" y1="76" y2="81" stroke="#AAAAAA" /><text style="font-size:10px;font-family:sans-serif;fill:#000000;" text-anchor="middle" x="1692.459610" y="91">864</text><line x1="3057.337047" x2="3057.337047" y1="76" y2="81" stroke="#AAAAAA" /><text style="font-size:10px;font-family:sans-serif;fill:#000000;" text-anchor="middle" x="3057.337047" y="91">1567</text><line x1="3103.933148" x2="3103.933148" y1="76" y2="81" stroke="#AAAAAA" /><text style="font-size:10px;font-family:sans-serif;fill:#000000;" text-anchor="middle" x="3103.933148" y="91">1591</text><line x1="3226.247911" x2="3226.247911" y1="76" y2="81" stroke="#AAAAAA" /><text style="font-size:10px;font-family:sans-serif;fill:#000000;" text-anchor="middle" x="3226.247911" y="91">1654</text><line x1="3303.908078" x2="3303.908078" y1="76" y2="81" stroke="#AAAAAA" /><text style="font-size:10px;font-family:sans-serif;fill:#000000;" text-anchor="middle" x="3303.908078" y="91">1694</text><line x1="3344.679666" x2="3344.679666" y1="76" y2="81" stroke="#AAAAAA" /><text style="font-size:10px;font-family:sans-serif;fill:#000000;" text-anchor="middle" x="3344.679666" y="91">1715</text><line x1="3439.813370" x2="3439.813370" y1="76" y2="81" stroke="#AAAAAA" /><text style="font-size:10px;font-family:sans-serif;fill:#000000;" text-anchor="middle" x="3439.813370" y="91">1764</text><line x1="3533.005571" x2="3533.005571" y1="76" y2="81" stroke="#AAAAAA" /><text style="font-size:10px;font-family:sans-serif;fill:#000000;" text-anchor="middle" x="3533.005571" y="91">1812</text><line x1="3835.880223" x2="3835.880223" y1="76" y2="81" stroke="#AAAAAA" /><text style="font-size:10px;font-family:sans-serif;fill:#000000;" text-anchor="middle" x="3835.880223" y="91">1968</text><line x1="3894.125348" x2="3894.125348" y1="76" y2="81" stroke="#AAAAAA" /><text style="font-size:10px;font-family:sans-serif;fill:#000000;" text-anchor="middle" x="3894.125348" y="91">1998</text><line x1="3940.721448" x2="3940.721448" y1="76" y2="81" stroke="#AAAAAA" /><text style="font-size:10px;font-family:sans-serif;fill:#000000;" text-anchor="middle" x="3940.721448" y="91">2022</text><line x1="3983.434540" x2="3983.434540" y1="76" y2="81" stroke="#AAAAAA" /><text style="font-size:10px;font-family:sans-serif;fill:#000000;" text-anchor="middle" x="3983.434540" y="91">2044</text><line x1="4010.615599" x2="4010.615599" y1="76" y2="81" stroke="#AAAAAA" /><text style="font-size:10px;font-family:sans-serif;fill:#000000;" text-anchor="middle" x="4010.615599" y="91">2058</text><line x1="4051.387187" x2="4051.387187" y1="76" y2="81" stroke="#AAAAAA" /><text style="font-size:10px;font-family:sans-serif;fill:#000000;" text-anchor="middle" x="4051.387187" y="91">2079</text><line x1="4099.924791" x2="4099.924791" y1="76" y2="81" stroke="#AAAAAA" /><text style="font-size:10px;font-family:sans-serif;fill:#000000;" text-anchor="middle" x="4099.924791" y="91">2104</text><line x1="4208.649025" x2="4208.649025" y1="76" y2="81" stroke="#AAAAAA" /><text style="font-size:10px;font-family:sans-serif;fill:#000000;" text-anchor="middle" x="4208.649025" y="91">2160</text><line x1="4288.250696" x2="4288.250696" y1="76" y2="81" stroke="#AAAAAA" /><text style="font-size:10px;font-family:sans-serif;fill:#000000;" text-anchor="middle" x="4288.250696" y="91">2201</text><line x1="4396.974930" x2="4396.974930" y1="76" y2="81" stroke="#AAAAAA" /><text style="font-size:10px;font-family:sans-serif;fill:#000000;" text-anchor="middle" x="4396.974930" y="91">2257</text><line x1="4577.534819" x2="4577.534819" y1="76" y2="81" stroke="#AAAAAA" /><text style="font-size:10px;font-family:sans-serif;fill:#000000;" text-anchor="middle" x="4577.534819" y="91">2350</text><line x1="4604.715877" x2="4604.715877" y1="76" y2="81" stroke="#AAAAAA" /><text style="font-size:10px;font-family:sans-serif;fill:#000000;" text-anchor="middle" x="4604.715877" y="91">2364</text><line x1="4641.604457" x2="4641.604457" y1="76" y2="81" stroke="#AAAAAA" /><text style="font-size:10px;font-family:sans-serif;fill:#000000;" text-anchor="middle" x="4641.604457" y="91">2383</text><line x1="4668.785515" x2="4668.785515" y1="76" y2="81" stroke="#AAAAAA" /><text style="font-size:10px;font-family:sans-serif;fill:#000000;" text-anchor="middle" x="4668.785515" y="91">2397</text><line x1="4697.908078" x2="4697.908078" y1="76" y2="81" stroke="#AAAAAA" /><text style="font-size:10px;font-family:sans-serif;fill:#000000;" text-anchor="middle" x="4697.908078" y="91">2412</text><line x1="4734.796657" x2="4734.796657" y1="76" y2="81" stroke="#AAAAAA" /><text style="font-size:10px;font-family:sans-serif;fill:#000000;" text-anchor="middle" x="4734.796657" y="91">2431</text><line x1="4781.392758" x2="4781.392758" y1="76" y2="81" stroke="#AAAAAA" /><text style="font-size:10px;font-family:sans-serif;fill:#000000;" text-anchor="middle" x="4781.392758" y="91">2455</text><line x1="4806.632312" x2="4806.632312" y1="76" y2="81" stroke="#AAAAAA" /><text style="font-size:10px;font-family:sans-serif;fill:#000000;" text-anchor="middle" x="4806.632312" y="91">2468</text><line x1="5024.080780" x2="5024.080780" y1="76" y2="81" stroke="#AAAAAA" /><text style="font-size:10px;font-family:sans-serif;fill:#000000;" text-anchor="middle" x="5024.080780" y="91">2580</text><line x1="5132.805014" x2="5132.805014" y1="76" y2="81" stroke="#AAAAAA" /><text style="font-size:10px;font-family:sans-serif;fill:#000000;" text-anchor="middle" x="5132.805014" y="91">2636</text><line x1="5608.473538" x2="5608.473538" y1="76" y2="81" stroke="#AAAAAA" /><text style="font-size:10px;font-family:sans-serif;fill:#000000;" text-anchor="middle" x="5608.473538" y="91">2881</text><line x1="5631.771588" x2="5631.771588" y1="76" y2="81" stroke="#AAAAAA" /><text style="font-size:10px;font-family:sans-serif;fill:#000000;" text-anchor="middle" x="5631.771588" y="91">2893</text><line x1="5653.128134" x2="5653.128134" y1="76" y2="81" stroke="#AAAAAA" /><text style="font-size:10px;font-family:sans-serif;fill:#000000;" text-anchor="middle" x="5653.128134" y="91">2904</text><line x1="5761.852368" x2="5761.852368" y1="76" y2="81" stroke="#AAAAAA" /><text style="font-size:10px;font-family:sans-serif;fill:#000000;" text-anchor="middle" x="5761.852368" y="91">2960</text><line x1="5981.242340" x2="5981.242340" y1="76" y2="81" stroke="#AAAAAA" /><text style="font-size:10px;font-family:sans-serif;fill:#000000;" text-anchor="middle" x="5981.242340" y="91">3073</text><line x1="6012.306407" x2="6012.306407" y1="76" y2="81" stroke="#AAAAAA" /><text style="font-size:10px;font-family:sans-serif;fill:#000000;" text-anchor="middle" x="6012.306407" y="91">3089</text><line x1="6058.902507" x2="6058.902507" y1="76" y2="81" stroke="#AAAAAA" /><text style="font-size:10px;font-family:sans-serif;fill:#000000;" text-anchor="middle" x="6058.902507" y="91">3113</text><line x1="6097.732591" x2="6097.732591" y1="76" y2="81" stroke="#AAAAAA" /><text style="font-size:10px;font-family:sans-serif;fill:#000000;" text-anchor="middle" x="6097.732591" y="91">3133</text><line x1="6124.913649" x2="6124.913649" y1="76" y2="81" stroke="#AAAAAA" /><text style="font-size:10px;font-family:sans-serif;fill:#000000;" text-anchor="middle" x="6124.913649" y="91">3147</text><line x1="6198.690808" x2="6198.690808" y1="76" y2="81" stroke="#AAAAAA" /><text style="font-size:10px;font-family:sans-serif;fill:#000000;" text-anchor="middle" x="6198.690808" y="91">3185</text><line x1="6218.105850" x2="6218.105850" y1="76" y2="81" stroke="#AAAAAA" /><text style="font-size:10px;font-family:sans-serif;fill:#000000;" text-anchor="middle" x="6218.105850" y="91">3195</text><line x1="6400.607242" x2="6400.607242" y1="76" y2="81" stroke="#AAAAAA" /><text style="font-size:10px;font-family:sans-serif;fill:#000000;" text-anchor="middle" x="6400.607242" y="91">3289</text><line x1="6454.969359" x2="6454.969359" y1="76" y2="81" stroke="#AAAAAA" /><text style="font-size:10px;font-family:sans-serif;fill:#000000;" text-anchor="middle" x="6454.969359" y="91">3317</text><line x1="6752.019499" x2="6752.019499" y1="76" y2="81" stroke="#AAAAAA" /><text style="font-size:10px;font-family:sans-serif;fill:#000000;" text-anchor="middle" x="6752.019499" y="91">3470</text><line x1="6786.966574" x2="6786.966574" y1="76" y2="81" stroke="#AAAAAA" /><text style="font-size:10px;font-family:sans-serif;fill:#000000;" text-anchor="middle" x="6786.966574" y="91">3488</text><line x1="6837.445682" x2="6837.445682" y1="76" y2="81" stroke="#AAAAAA" /><text style="font-size:10px;font-family:sans-serif;fill:#000000;" text-anchor="middle" x="6837.445682" y="91">3514</text><line x1="6880.158774" x2="6880.158774" y1="76" y2="81" stroke="#AAAAAA" /><text style="font-size:10px;font-family:sans-serif;fill:#000000;" text-anchor="middle" x="6880.158774" y="91">3536</text><line x1="6918.988858" x2="6918.988858" y1="76" y2="81" stroke="#AAAAAA" /><text style="font-size:10px;font-family:sans-serif;fill:#000000;" text-anchor="middle" x="6918.988858" y="91">3556</text><line x1="6985.000000" x2="6985.000000" y1="76" y2="81" stroke="#AAAAAA" /><text style="font-size:10px;font-family:sans-serif;fill:#000000;" text-anchor="middle" x="6985.000000" y="91">3590</text></g>
</svg>
