<?xml version='1.0'?>
<svg xmlns="http://www.w3.org/2000/svg" xmlns:xlink="http://www.w3.org/1999/xlink" width="7000" height="123">
<defs>
  <filter id="ds" x="0" y="0">
    <feOffset in="SourceAlpha" dx="2" dy="2" />
    <feComponentTransfer><feFuncA type="linear" slope="0.2"/></feComponentTransfer>
    <feGaussianBlur result="blurOut" stdDeviation="1" />
    <feBlend in="SourceGraphic" in2="blurOut" mode="normal" />
  </filter>
  <pattern id="disordered-hatch" patternUnits="userSpaceOnUse" width="4" height="4">
    <path d="M-1,1 l2,-2 M0,4 l4,-4 M3,5 l2,-2" stroke="#000000" opacity="0.3" />
  </pattern>
</defs>
<line x1="624.543726" x2="624.543726" y1="31" y2="59" stroke="#BABDB6" stroke-width="2"/><a xlink:title="V92A"><circle cx="624.543726" cy="31" r="4.000000" fill="#00ccff" /></a><line x1="929.315589" x2="929.315589" y1="31" y2="59" stroke="#BABDB6" stroke-width="2"/><a xlink:title="N138*fs*1"><circle cx="929.315589" cy="31" r="4.000000" fill="#00ccff" /></a><line x1="1247.338403" x2="1247.338403" y1="31" y2="59" stroke="#BABDB6" stroke-width="2"/><a xlink:title="S186N"><circle cx="1247.338403" cy="31" r="5.354265" fill="#00ccff" /></a><line x1="1253.963878" x2="1253.963878" y1="31" y2="59" stroke="#BABDB6" stroke-width="2"/><a xlink:title="S187P"><circle cx="1253.963878" cy="31" r="4.000000" fill="#00ccff" /></a><line x1="1326.844106" x2="1326.844106" y1="31" y2="59" stroke="#BABDB6" stroke-width="2"/><a xlink:title="V198I"><circle cx="1326.844106" cy="31" r="4.000000" fill="#00ccff" /></a><line x1="1346.720532" x2="1346.720532" y1="31" y2="59" stroke="#BABDB6" stroke-width="2"/><a xlink:title="S201L"><circle cx="1346.720532" cy="31" r="4.000000" fill="#00ccff" /></a><line x1="1393.098859" x2="1393.098859" y1="31" y2="59" stroke="#BABDB6" stroke-width="2"/><a xlink:title="N208H"><circle cx="1393.098859" cy="31" r="4.000000" fill="#00ccff" /></a><line x1="1406.349810" x2="1406.349810" y1="31" y2="59" stroke="#BABDB6" stroke-width="2"/><a xlink:title="R210W"><circle cx="1406.349810" cy="31" r="4.000000" fill="#00ccff" /></a><line x1="1432.851711" x2="1432.851711" y1="31" y2="59" stroke="#BABDB6" stroke-width="2"/><a xlink:title="L214F"><circle cx="1432.851711" cy="31" r="4.000000" fill="#00ccff" /></a><line x1="1479.230038" x2="1479.230038" y1="31" y2="59" stroke="#BABDB6" stroke-width="2"/><a xlink:title="E221K"><circle cx="1479.230038" cy="31" r="4.000000" fill="#00ccff" /></a><line x1="1638.241445" x2="1638.241445" y1="31" y2="59" stroke="#BABDB6" stroke-width="2"/><a xlink:title="E245Q"><circle cx="1638.241445" cy="31" r="4.000000" fill="#00ccff" /></a><line x1="1830.380228" x2="1830.380228" y1="31" y2="59" stroke="#BABDB6" stroke-width="2"/><a xlink:title="V274M"><circle cx="1830.380228" cy="31" r="4.000000" fill="#00ccff" /></a><line x1="1890.009506" x2="1890.009506" y1="31" y2="59" stroke="#BABDB6" stroke-width="2"/><a xlink:title="S283L"><circle cx="1890.009506" cy="31" r="4.000000" fill="#00ccff" /></a><line x1="2068.897338" x2="2068.897338" y1="31" y2="59" stroke="#BABDB6" stroke-width="2"/><a xlink:title="T310A"><circle cx="2068.897338" cy="31" r="4.000000" fill="#00ccff" /></a><line x1="2360.418251" x2="2360.418251" y1="31" y2="59" stroke="#BABDB6" stroke-width="2"/><a xlink:title="S354Y"><circle cx="2360.418251" cy="31" r="4.000000" fill="#00ccff" /></a><line x1="2373.669202" x2="2373.669202" y1="31" y2="59" stroke="#BABDB6" stroke-width="2"/><a xlink:title="E356G"><circle cx="2373.669202" cy="31" r="4.000000" fill="#00ccff" /></a><line x1="2406.796578" x2="2406.796578" y1="31" y2="59" stroke="#BABDB6" stroke-width="2"/><a xlink:title="T361M"><circle cx="2406.796578" cy="31" r="4.000000" fill="#00ccff" /></a><line x1="2579.058935" x2="2579.058935" y1="31" y2="59" stroke="#BABDB6" stroke-width="2"/><a xlink:title="A387T"><circle cx="2579.058935" cy="31" r="4.000000" fill="#00ccff" /></a><line x1="2658.564639" x2="2658.564639" y1="31" y2="59" stroke="#BABDB6" stroke-width="2"/><a xlink:title="T399M"><circle cx="2658.564639" cy="31" r="5.074545" fill="#00ccff" /></a><line x1="2685.066540" x2="2685.066540" y1="19" y2="59" stroke="#BABDB6" stroke-width="2"/><a xlink:title="E403A"><circle cx="2685.066540" cy="19" r="4.000000" fill="#00ccff" /></a><line x1="2685.066540" x2="2685.066540" y1="31" y2="59" stroke="#BABDB6" stroke-width="2"/><a xlink:title="E403D"><circle cx="2685.066540" cy="31" r="4.000000" fill="#00ccff" /></a><line x1="2711.568441" x2="2711.568441" y1="31" y2="59" stroke="#BABDB6" stroke-width="2"/><a xlink:title="R407Q"><circle cx="2711.568441" cy="31" r="4.000000" fill="#00ccff" /></a><line x1="2804.325095" x2="2804.325095" y1="31" y2="59" stroke="#BABDB6" stroke-width="2"/><a xlink:title="S421L"><circle cx="2804.325095" cy="31" r="4.000000" fill="#00ccff" /></a><line x1="2830.826996" x2="2830.826996" y1="31" y2="59" stroke="#BABDB6" stroke-width="2"/><a xlink:title="R425C"><circle cx="2830.826996" cy="31" r="4.000000" fill="#00ccff" /></a><line x1="2863.954373" x2="2863.954373" y1="31" y2="59" stroke="#BABDB6" stroke-width="2"/><a xlink:title="R430Q"><circle cx="2863.954373" cy="31" r="4.000000" fill="#00ccff" /></a><line x1="2996.463878" x2="2996.463878" y1="31" y2="59" stroke="#BABDB6" stroke-width="2"/><a xlink:title="F450L"><circle cx="2996.463878" cy="31" r="4.000000" fill="#00ccff" /></a><line x1="3016.340304" x2="3016.340304" y1="31" y2="59" stroke="#BABDB6" stroke-width="2"/><a xlink:title="T453M"><circle cx="3016.340304" cy="31" r="4.000000" fill="#00ccff" /></a><line x1="3228.355513" x2="3228.355513" y1="31" y2="59" stroke="#BABDB6" stroke-width="2"/><a xlink:title="D485N"><circle cx="3228.355513" cy="31" r="4.000000" fill="#00ccff" /></a><line x1="3493.374525" x2="3493.374525" y1="31" y2="59" stroke="#BABDB6" stroke-width="2"/><a xlink:title="R525Q"><circle cx="3493.374525" cy="31" r="5.579835" fill="#00ccff" /></a><line x1="3500.000000" x2="3500.000000" y1="31" y2="59" stroke="#BABDB6" stroke-width="2"/><a xlink:title="A526Vfs*14"><circle cx="3500.000000" cy="31" r="4.000000" fill="#00ccff" /></a><line x1="3519.876426" x2="3519.876426" y1="31" y2="59" stroke="#BABDB6" stroke-width="2"/><a xlink:title="I529V"><circle cx="3519.876426" cy="31" r="4.000000" fill="#00ccff" /></a><line x1="3526.501901" x2="3526.501901" y1="31" y2="59" stroke="#BABDB6" stroke-width="2"/><a xlink:title="A530T"><circle cx="3526.501901" cy="31" r="6.305435" fill="#00ccff" /></a><line x1="3612.633080" x2="3612.633080" y1="31" y2="59" stroke="#BABDB6" stroke-width="2"/><a xlink:title="C543R"><circle cx="3612.633080" cy="31" r="6.305435" fill="#00ccff" /></a><line x1="3725.266160" x2="3725.266160" y1="31" y2="59" stroke="#BABDB6" stroke-width="2"/><a xlink:title="N560K"><circle cx="3725.266160" cy="31" r="4.000000" fill="#00ccff" /></a><line x1="3798.146388" x2="3798.146388" y1="31" y2="59" stroke="#BABDB6" stroke-width="2"/><a xlink:title="R571Q"><circle cx="3798.146388" cy="31" r="7.951094" fill="#00ccff" /></a><line x1="3831.273764" x2="3831.273764" y1="31" y2="59" stroke="#BABDB6" stroke-width="2"/><a xlink:title="N576S"><circle cx="3831.273764" cy="31" r="4.000000" fill="#00ccff" /></a><line x1="3983.659696" x2="3983.659696" y1="31" y2="59" stroke="#BABDB6" stroke-width="2"/><a xlink:title="V599M"><circle cx="3983.659696" cy="31" r="4.000000" fill="#00ccff" /></a><line x1="4016.787072" x2="4016.787072" y1="31" y2="59" stroke="#BABDB6" stroke-width="2"/><a xlink:title="K604E"><circle cx="4016.787072" cy="31" r="4.000000" fill="#00ccff" /></a><line x1="4136.045627" x2="4136.045627" y1="31" y2="59" stroke="#BABDB6" stroke-width="2"/><a xlink:title="M622I"><circle cx="4136.045627" cy="31" r="4.000000" fill="#00ccff" /></a><line x1="4162.547529" x2="4162.547529" y1="31" y2="59" stroke="#BABDB6" stroke-width="2"/><a xlink:title="R626H"><circle cx="4162.547529" cy="31" r="4.000000" fill="#00ccff" /></a><line x1="4208.925856" x2="4208.925856" y1="31" y2="59" stroke="#BABDB6" stroke-width="2"/><a xlink:title="P633L"><circle cx="4208.925856" cy="31" r="4.000000" fill="#00ccff" /></a><line x1="4301.682510" x2="4301.682510" y1="31" y2="59" stroke="#BABDB6" stroke-width="2"/><a xlink:title="H647R"><circle cx="4301.682510" cy="31" r="4.000000" fill="#00ccff" /></a><line x1="4374.562738" x2="4374.562738" y1="31" y2="59" stroke="#BABDB6" stroke-width="2"/><a xlink:title="F658L"><circle cx="4374.562738" cy="31" r="4.000000" fill="#00ccff" /></a><line x1="4460.693916" x2="4460.693916" y1="31" y2="59" stroke="#BABDB6" stroke-width="2"/><a xlink:title="R671Q"><circle cx="4460.693916" cy="31" r="4.000000" fill="#00ccff" /></a><line x1="4606.454373" x2="4606.454373" y1="31" y2="59" stroke="#BABDB6" stroke-width="2"/><a xlink:title="P693L"><circle cx="4606.454373" cy="31" r="5.768108" fill="#00ccff" /></a><line x1="4666.083650" x2="4666.083650" y1="19" y2="59" stroke="#BABDB6" stroke-width="2"/><a xlink:title="V702I"><circle cx="4666.083650" cy="19" r="4.000000" fill="#00ccff" /></a><line x1="4666.083650" x2="4666.083650" y1="31" y2="59" stroke="#BABDB6" stroke-width="2"/><a xlink:title="R702Q"><circle cx="4666.083650" cy="31" r="4.000000" fill="#ff0000" /></a><line x1="4725.712928" x2="4725.712928" y1="31" y2="59" stroke="#BABDB6" stroke-width="2"/><a xlink:title="N711S"><circle cx="4725.712928" cy="31" r="5.074545" fill="#00ccff" /></a><line x1="4791.967681" x2="4791.967681" y1="31" y2="59" stroke="#BABDB6" stroke-width="2"/><a xlink:title="M721V"><circle cx="4791.967681" cy="31" r="4.000000" fill="#00ccff" /></a><line x1="4891.349810" x2="4891.349810" y1="31" y2="59" stroke="#BABDB6" stroke-width="2"/><a xlink:title="G736D"><circle cx="4891.349810" cy="31" r="5.579835" fill="#00ccff" /></a><line x1="4897.975285" x2="4897.975285" y1="31" y2="59" stroke="#BABDB6" stroke-width="2"/><a xlink:title="R737C"><circle cx="4897.975285" cy="31" r="4.000000" fill="#00ccff" /></a><line x1="5017.233840" x2="5017.233840" y1="31" y2="59" stroke="#BABDB6" stroke-width="2"/><a xlink:title="N755H"><circle cx="5017.233840" cy="31" r="4.000000" fill="#00ccff" /></a><line x1="5109.990494" x2="5109.990494" y1="31" y2="59" stroke="#BABDB6" stroke-width="2"/><a xlink:title="R769W"><circle cx="5109.990494" cy="31" r="4.000000" fill="#00ccff" /></a><line x1="5162.994297" x2="5162.994297" y1="31" y2="59" stroke="#BABDB6" stroke-width="2"/><a xlink:title="V777A"><circle cx="5162.994297" cy="31" r="4.000000" fill="#00ccff" /></a><line x1="5255.750951" x2="5255.750951" y1="31" y2="59" stroke="#BABDB6" stroke-width="2"/><a xlink:title="R791Q"><circle cx="5255.750951" cy="31" r="4.000000" fill="#ff0000" /></a><line x1="5308.754753" x2="5308.754753" y1="31" y2="59" stroke="#BABDB6" stroke-width="2"/><a xlink:title="I799V"><circle cx="5308.754753" cy="31" r="4.000000" fill="#00ccff" /></a><line x1="5322.005703" x2="5322.005703" y1="31" y2="59" stroke="#BABDB6" stroke-width="2"/><a xlink:title="I801T"><circle cx="5322.005703" cy="31" r="8.060216" fill="#00ccff" /></a><line x1="5381.634981" x2="5381.634981" y1="31" y2="59" stroke="#BABDB6" stroke-width="2"/><a xlink:title="R810C"><circle cx="5381.634981" cy="31" r="4.000000" fill="#00ccff" /></a><line x1="5394.885932" x2="5394.885932" y1="31" y2="59" stroke="#BABDB6" stroke-width="2"/><a xlink:title="N812S"><circle cx="5394.885932" cy="31" r="4.000000" fill="#00ccff" /></a><line x1="5421.387833" x2="5421.387833" y1="31" y2="59" stroke="#BABDB6" stroke-width="2"/><a xlink:title="H816L"><circle cx="5421.387833" cy="31" r="4.000000" fill="#00ccff" /></a><line x1="5441.264259" x2="5441.264259" y1="31" y2="59" stroke="#BABDB6" stroke-width="2"/><a xlink:title="Q819*"><circle cx="5441.264259" cy="31" r="4.709640" fill="#00ccff" /></a><line x1="5447.889734" x2="5447.889734" y1="31" y2="59" stroke="#BABDB6" stroke-width="2"/><a xlink:title="V820Wfs*19"><circle cx="5447.889734" cy="31" r="4.000000" fill="#00ccff" /></a><line x1="5567.148289" x2="5567.148289" y1="31" y2="59" stroke="#BABDB6" stroke-width="2"/><a xlink:title="I838L"><circle cx="5567.148289" cy="31" r="4.000000" fill="#00ccff" /></a><line x1="5580.399240" x2="5580.399240" y1="31" y2="59" stroke="#BABDB6" stroke-width="2"/><a xlink:title="L840P"><circle cx="5580.399240" cy="31" r="4.000000" fill="#00ccff" /></a><line x1="5593.650190" x2="5593.650190" y1="31" y2="59" stroke="#BABDB6" stroke-width="2"/><a xlink:title="P842L"><circle cx="5593.650190" cy="31" r="6.660437" fill="#00ccff" /></a><line x1="5852.043726" x2="5852.043726" y1="31" y2="59" stroke="#BABDB6" stroke-width="2"/><a xlink:title="H881R"><circle cx="5852.043726" cy="31" r="4.000000" fill="#00ccff" /></a><line x1="5924.923954" x2="5924.923954" y1="31" y2="59" stroke="#BABDB6" stroke-width="2"/><a xlink:title="N892I"><circle cx="5924.923954" cy="31" r="5.074545" fill="#00ccff" /></a><line x1="5931.549430" x2="5931.549430" y1="31" y2="59" stroke="#BABDB6" stroke-width="2"/><a xlink:title="V893M"><circle cx="5931.549430" cy="31" r="4.000000" fill="#00ccff" /></a><line x1="6004.429658" x2="6004.429658" y1="31" y2="59" stroke="#BABDB6" stroke-width="2"/><a xlink:title="D904N"><circle cx="6004.429658" cy="31" r="5.579835" fill="#00ccff" /></a><line x1="6030.931559" x2="6030.931559" y1="31" y2="59" stroke="#BABDB6" stroke-width="2"/><a xlink:title="R908C"><circle cx="6030.931559" cy="31" r="4.000000" fill="#00ccff" /></a><line x1="6037.557034" x2="6037.557034" y1="31" y2="59" stroke="#BABDB6" stroke-width="2"/><a xlink:title="I909M"><circle cx="6037.557034" cy="31" r="4.000000" fill="#00ccff" /></a><line x1="6249.572243" x2="6249.572243" y1="31" y2="59" stroke="#BABDB6" stroke-width="2"/><a xlink:title="G941E"><circle cx="6249.572243" cy="31" r="4.000000" fill="#00ccff" /></a><line x1="6309.201521" x2="6309.201521" y1="31" y2="59" stroke="#BABDB6" stroke-width="2"/><a xlink:title="N950K"><circle cx="6309.201521" cy="31" r="4.000000" fill="#00ccff" /></a><line x1="6329.077947" x2="6329.077947" y1="31" y2="59" stroke="#BABDB6" stroke-width="2"/><a xlink:title="C953Y"><circle cx="6329.077947" cy="31" r="4.000000" fill="#00ccff" /></a><line x1="6342.328897" x2="6342.328897" y1="31" y2="59" stroke="#BABDB6" stroke-width="2"/><a xlink:title="T955M"><circle cx="6342.328897" cy="31" r="5.768108" fill="#00ccff" /></a><line x1="6454.961977" x2="6454.961977" y1="31" y2="59" stroke="#BABDB6" stroke-width="2"/><a xlink:title="A972T"><circle cx="6454.961977" cy="31" r="7.130839" fill="#00ccff" /></a><line x1="6474.838403" x2="6474.838403" y1="31" y2="59" stroke="#BABDB6" stroke-width="2"/><a xlink:title="R975C"><circle cx="6474.838403" cy="31" r="4.000000" fill="#00ccff" /></a><line x1="6600.722433" x2="6600.722433" y1="31" y2="59" stroke="#BABDB6" stroke-width="2"/><a xlink:title="R994C"><circle cx="6600.722433" cy="31" r="8.311426" fill="#00ccff" /></a><line x1="6673.602662" x2="6673.602662" y1="31" y2="59" stroke="#BABDB6" stroke-width="2"/><a xlink:title="L1005V"><circle cx="6673.602662" cy="31" r="4.709640" fill="#00ccff" /></a><line x1="6772.984791" x2="6772.984791" y1="31" y2="59" stroke="#BABDB6" stroke-width="2"/><a xlink:title="M1020T"><circle cx="6772.984791" cy="31" r="4.000000" fill="#00ccff" /></a><line x1="6792.861217" x2="6792.861217" y1="31" y2="59" stroke="#BABDB6" stroke-width="2"/><a xlink:title="T1023M"><circle cx="6792.861217" cy="31" r="4.000000" fill="#00ccff" /></a><line x1="6812.737643" x2="6812.737643" y1="31" y2="59" stroke="#BABDB6" stroke-width="2"/><a xlink:title="Y1026H"><circle cx="6812.737643" cy="31" r="5.074545" fill="#00ccff" /></a><line x1="6832.614068" x2="6832.614068" y1="31" y2="59" stroke="#BABDB6" stroke-width="2"/><a xlink:title="K1029Q"><circle cx="6832.614068" cy="31" r="5.768108" fill="#00ccff" /></a><line x1="6965.123574" x2="6965.123574" y1="31" y2="59" stroke="#BABDB6" stroke-width="2"/><a xlink:title="Q1049K"><circle cx="6965.123574" cy="31" r="4.000000" fill="#00ccff" /></a><line x1="6978.374525" x2="6978.374525" y1="31" y2="59" stroke="#BABDB6" stroke-width="2"/><a xlink:title="R1051S"><circle cx="6978.374525" cy="31" r="5.929215" fill="#00ccff" /></a><a xlink:title="E7EWW0_HUMAN, UPF0505 protein C16orf62 (1052aa)"><rect fill="#BABDB6" x="15" y="59" width="6970" height="14"/></a><a xlink:title="disorder"><rect fill="url(#disordered-hatch)" x="425.779468" y="59" width="178.887833" height="14"/></a>
<a xlink:title="disorder"><rect fill="url(#disordered-hatch)" x="1002.195817" y="59" width="0.000000" height="14"/></a>
<a xlink:title="disorder"><rect fill="url(#disordered-hatch)" x="1220.836502" y="59" width="132.509506" height="14"/></a>
<a xlink:title="low_complexity"><rect fill="#7FFFFF" x="1002.195817" y="57" width="0.000000" height="18" filter="url(#ds)"/></a>
<a xlink:title="low_complexity"><rect fill="#7FFFFF" x="1154.581749" y="57" width="72.880228" height="18" filter="url(#ds)"/></a>
<a xlink:title="low_complexity"><rect fill="#7FFFFF" x="1240.712928" y="57" width="66.254753" height="18" filter="url(#ds)"/></a>
<g class="axis">
<line x1="15" x2="6985" y1="88" y2="88" stroke="#AAAAAA" /><line x1="15" x2="15" y1="88" y2="93" stroke="#AAAAAA" /><line x1="15.000000" x2="15.000000" y1="88" y2="93" stroke="#AAAAAA" /><text style="font-size:10px;font-family:sans-serif;fill:#000000;" text-anchor="middle" x="15.000000" y="103">0</text><line x1="624.543726" x2="624.543726" y1="88" y2="93" stroke="#AAAAAA" /><text style="font-size:10px;font-family:sans-serif;fill:#000000;" text-anchor="middle" x="624.543726" y="103">92</text><line x1="929.315589" x2="929.315589" y1="88" y2="93" stroke="#AAAAAA" /><text style="font-size:10px;font-family:sans-serif;fill:#000000;" text-anchor="middle" x="929.315589" y="103">138</text><line x1="1002.195817" x2="1002.195817" y1="88" y2="93" stroke="#AAAAAA" /><text style="font-size:10px;font-family:sans-serif;fill:#000000;" text-anchor="middle" x="1002.195817" y="103">149</text><line x1="1154.581749" x2="1154.581749" y1="88" y2="93" stroke="#AAAAAA" /><text style="font-size:10px;font-family:sans-serif;fill:#000000;" text-anchor="middle" x="1154.581749" y="103">172</text><line x1="1247.338403" x2="1247.338403" y1="88" y2="93" stroke="#AAAAAA" /><text style="font-size:10px;font-family:sans-serif;fill:#000000;" text-anchor="middle" x="1247.338403" y="103">186</text><line x1="1326.844106" x2="1326.844106" y1="88" y2="93" stroke="#AAAAAA" /><text style="font-size:10px;font-family:sans-serif;fill:#000000;" text-anchor="middle" x="1326.844106" y="103">198</text><line x1="1346.720532" x2="1346.720532" y1="88" y2="93" stroke="#AAAAAA" /><text style="font-size:10px;font-family:sans-serif;fill:#000000;" text-anchor="middle" x="1346.720532" y="103">201</text><line x1="1393.098859" x2="1393.098859" y1="88" y2="93" stroke="#AAAAAA" /><text style="font-size:10px;font-family:sans-serif;fill:#000000;" text-anchor="middle" x="1393.098859" y="103">208</text><line x1="1432.851711" x2="1432.851711" y1="88" y2="93" stroke="#AAAAAA" /><text style="font-size:10px;font-family:sans-serif;fill:#000000;" text-anchor="middle" x="1432.851711" y="103">214</text><line x1="1479.230038" x2="1479.230038" y1="88" y2="93" stroke="#AAAAAA" /><text style="font-size:10px;font-family:sans-serif;fill:#000000;" text-anchor="middle" x="1479.230038" y="103">221</text><line x1="1638.241445" x2="1638.241445" y1="88" y2="93" stroke="#AAAAAA" /><text style="font-size:10px;font-family:sans-serif;fill:#000000;" text-anchor="middle" x="1638.241445" y="103">245</text><line x1="1830.380228" x2="1830.380228" y1="88" y2="93" stroke="#AAAAAA" /><text style="font-size:10px;font-family:sans-serif;fill:#000000;" text-anchor="middle" x="1830.380228" y="103">274</text><line x1="1890.009506" x2="1890.009506" y1="88" y2="93" stroke="#AAAAAA" /><text style="font-size:10px;font-family:sans-serif;fill:#000000;" text-anchor="middle" x="1890.009506" y="103">283</text><line x1="2068.897338" x2="2068.897338" y1="88" y2="93" stroke="#AAAAAA" /><text style="font-size:10px;font-family:sans-serif;fill:#000000;" text-anchor="middle" x="2068.897338" y="103">310</text><line x1="2360.418251" x2="2360.418251" y1="88" y2="93" stroke="#AAAAAA" /><text style="font-size:10px;font-family:sans-serif;fill:#000000;" text-anchor="middle" x="2360.418251" y="103">354</text><line x1="2406.796578" x2="2406.796578" y1="88" y2="93" stroke="#AAAAAA" /><text style="font-size:10px;font-family:sans-serif;fill:#000000;" text-anchor="middle" x="2406.796578" y="103">361</text><line x1="2579.058935" x2="2579.058935" y1="88" y2="93" stroke="#AAAAAA" /><text style="font-size:10px;font-family:sans-serif;fill:#000000;" text-anchor="middle" x="2579.058935" y="103">387</text><line x1="2658.564639" x2="2658.564639" y1="88" y2="93" stroke="#AAAAAA" /><text style="font-size:10px;font-family:sans-serif;fill:#000000;" text-anchor="middle" x="2658.564639" y="103">399</text><line x1="2685.066540" x2="2685.066540" y1="88" y2="93" stroke="#AAAAAA" /><text style="font-size:10px;font-family:sans-serif;fill:#000000;" text-anchor="middle" x="2685.066540" y="103">403</text><line x1="2711.568441" x2="2711.568441" y1="88" y2="93" stroke="#AAAAAA" /><text style="font-size:10px;font-family:sans-serif;fill:#000000;" text-anchor="middle" x="2711.568441" y="103">407</text><line x1="2804.325095" x2="2804.325095" y1="88" y2="93" stroke="#AAAAAA" /><text style="font-size:10px;font-family:sans-serif;fill:#000000;" text-anchor="middle" x="2804.325095" y="103">421</text><line x1="2830.826996" x2="2830.826996" y1="88" y2="93" stroke="#AAAAAA" /><text style="font-size:10px;font-family:sans-serif;fill:#000000;" text-anchor="middle" x="2830.826996" y="103">425</text><line x1="2863.954373" x2="2863.954373" y1="88" y2="93" stroke="#AAAAAA" /><text style="font-size:10px;font-family:sans-serif;fill:#000000;" text-anchor="middle" x="2863.954373" y="103">430</text><line x1="2996.463878" x2="2996.463878" y1="88" y2="93" stroke="#AAAAAA" /><text style="font-size:10px;font-family:sans-serif;fill:#000000;" text-anchor="middle" x="2996.463878" y="103">450</text><line x1="3016.340304" x2="3016.340304" y1="88" y2="93" stroke="#AAAAAA" /><text style="font-size:10px;font-family:sans-serif;fill:#000000;" text-anchor="middle" x="3016.340304" y="103">453</text><line x1="3228.355513" x2="3228.355513" y1="88" y2="93" stroke="#AAAAAA" /><text style="font-size:10px;font-family:sans-serif;fill:#000000;" text-anchor="middle" x="3228.355513" y="103">485</text><line x1="3493.374525" x2="3493.374525" y1="88" y2="93" stroke="#AAAAAA" /><text style="font-size:10px;font-family:sans-serif;fill:#000000;" text-anchor="middle" x="3493.374525" y="103">525</text><line x1="3519.876426" x2="3519.876426" y1="88" y2="93" stroke="#AAAAAA" /><text style="font-size:10px;font-family:sans-serif;fill:#000000;" text-anchor="middle" x="3519.876426" y="103">529</text><line x1="3612.633080" x2="3612.633080" y1="88" y2="93" stroke="#AAAAAA" /><text style="font-size:10px;font-family:sans-serif;fill:#000000;" text-anchor="middle" x="3612.633080" y="103">543</text><line x1="3725.266160" x2="3725.266160" y1="88" y2="93" stroke="#AAAAAA" /><text style="font-size:10px;font-family:sans-serif;fill:#000000;" text-anchor="middle" x="3725.266160" y="103">560</text><line x1="3798.146388" x2="3798.146388" y1="88" y2="93" stroke="#AAAAAA" /><text style="font-size:10px;font-family:sans-serif;fill:#000000;" text-anchor="middle" x="3798.146388" y="103">571</text><line x1="3831.273764" x2="3831.273764" y1="88" y2="93" stroke="#AAAAAA" /><text style="font-size:10px;font-family:sans-serif;fill:#000000;" text-anchor="middle" x="3831.273764" y="103">576</text><line x1="3983.659696" x2="3983.659696" y1="88" y2="93" stroke="#AAAAAA" /><text style="font-size:10px;font-family:sans-serif;fill:#000000;" text-anchor="middle" x="3983.659696" y="103">599</text><line x1="4016.787072" x2="4016.787072" y1="88" y2="93" stroke="#AAAAAA" /><text style="font-size:10px;font-family:sans-serif;fill:#000000;" text-anchor="middle" x="4016.787072" y="103">604</text><line x1="4136.045627" x2="4136.045627" y1="88" y2="93" stroke="#AAAAAA" /><text style="font-size:10px;font-family:sans-serif;fill:#000000;" text-anchor="middle" x="4136.045627" y="103">622</text><line x1="4162.547529" x2="4162.547529" y1="88" y2="93" stroke="#AAAAAA" /><text style="font-size:10px;font-family:sans-serif;fill:#000000;" text-anchor="middle" x="4162.547529" y="103">626</text><line x1="4208.925856" x2="4208.925856" y1="88" y2="93" stroke="#AAAAAA" /><text style="font-size:10px;font-family:sans-serif;fill:#000000;" text-anchor="middle" x="4208.925856" y="103">633</text><line x1="4301.682510" x2="4301.682510" y1="88" y2="93" stroke="#AAAAAA" /><text style="font-size:10px;font-family:sans-serif;fill:#000000;" text-anchor="middle" x="4301.682510" y="103">647</text><line x1="4374.562738" x2="4374.562738" y1="88" y2="93" stroke="#AAAAAA" /><text style="font-size:10px;font-family:sans-serif;fill:#000000;" text-anchor="middle" x="4374.562738" y="103">658</text><line x1="4460.693916" x2="4460.693916" y1="88" y2="93" stroke="#AAAAAA" /><text style="font-size:10px;font-family:sans-serif;fill:#000000;" text-anchor="middle" x="4460.693916" y="103">671</text><line x1="4606.454373" x2="4606.454373" y1="88" y2="93" stroke="#AAAAAA" /><text style="font-size:10px;font-family:sans-serif;fill:#000000;" text-anchor="middle" x="4606.454373" y="103">693</text><line x1="4666.083650" x2="4666.083650" y1="88" y2="93" stroke="#AAAAAA" /><text style="font-size:10px;font-family:sans-serif;fill:#000000;" text-anchor="middle" x="4666.083650" y="103">702</text><line x1="4725.712928" x2="4725.712928" y1="88" y2="93" stroke="#AAAAAA" /><text style="font-size:10px;font-family:sans-serif;fill:#000000;" text-anchor="middle" x="4725.712928" y="103">711</text><line x1="4791.967681" x2="4791.967681" y1="88" y2="93" stroke="#AAAAAA" /><text style="font-size:10px;font-family:sans-serif;fill:#000000;" text-anchor="middle" x="4791.967681" y="103">721</text><line x1="4891.349810" x2="4891.349810" y1="88" y2="93" stroke="#AAAAAA" /><text style="font-size:10px;font-family:sans-serif;fill:#000000;" text-anchor="middle" x="4891.349810" y="103">736</text><line x1="5017.233840" x2="5017.233840" y1="88" y2="93" stroke="#AAAAAA" /><text style="font-size:10px;font-family:sans-serif;fill:#000000;" text-anchor="middle" x="5017.233840" y="103">755</text><line x1="5109.990494" x2="5109.990494" y1="88" y2="93" stroke="#AAAAAA" /><text style="font-size:10px;font-family:sans-serif;fill:#000000;" text-anchor="middle" x="5109.990494" y="103">769</text><line x1="5162.994297" x2="5162.994297" y1="88" y2="93" stroke="#AAAAAA" /><text style="font-size:10px;font-family:sans-serif;fill:#000000;" text-anchor="middle" x="5162.994297" y="103">777</text><line x1="5255.750951" x2="5255.750951" y1="88" y2="93" stroke="#AAAAAA" /><text style="font-size:10px;font-family:sans-serif;fill:#000000;" text-anchor="middle" x="5255.750951" y="103">791</text><line x1="5308.754753" x2="5308.754753" y1="88" y2="93" stroke="#AAAAAA" /><text style="font-size:10px;font-family:sans-serif;fill:#000000;" text-anchor="middle" x="5308.754753" y="103">799</text><line x1="5381.634981" x2="5381.634981" y1="88" y2="93" stroke="#AAAAAA" /><text style="font-size:10px;font-family:sans-serif;fill:#000000;" text-anchor="middle" x="5381.634981" y="103">810</text><line x1="5421.387833" x2="5421.387833" y1="88" y2="93" stroke="#AAAAAA" /><text style="font-size:10px;font-family:sans-serif;fill:#000000;" text-anchor="middle" x="5421.387833" y="103">816</text><line x1="5441.264259" x2="5441.264259" y1="88" y2="93" stroke="#AAAAAA" /><text style="font-size:10px;font-family:sans-serif;fill:#000000;" text-anchor="middle" x="5441.264259" y="103">819</text><line x1="5567.148289" x2="5567.148289" y1="88" y2="93" stroke="#AAAAAA" /><text style="font-size:10px;font-family:sans-serif;fill:#000000;" text-anchor="middle" x="5567.148289" y="103">838</text><line x1="5593.650190" x2="5593.650190" y1="88" y2="93" stroke="#AAAAAA" /><text style="font-size:10px;font-family:sans-serif;fill:#000000;" text-anchor="middle" x="5593.650190" y="103">842</text><line x1="5852.043726" x2="5852.043726" y1="88" y2="93" stroke="#AAAAAA" /><text style="font-size:10px;font-family:sans-serif;fill:#000000;" text-anchor="middle" x="5852.043726" y="103">881</text><line x1="5924.923954" x2="5924.923954" y1="88" y2="93" stroke="#AAAAAA" /><text style="font-size:10px;font-family:sans-serif;fill:#000000;" text-anchor="middle" x="5924.923954" y="103">892</text><line x1="6004.429658" x2="6004.429658" y1="88" y2="93" stroke="#AAAAAA" /><text style="font-size:10px;font-family:sans-serif;fill:#000000;" text-anchor="middle" x="6004.429658" y="103">904</text><line x1="6030.931559" x2="6030.931559" y1="88" y2="93" stroke="#AAAAAA" /><text style="font-size:10px;font-family:sans-serif;fill:#000000;" text-anchor="middle" x="6030.931559" y="103">908</text><line x1="6249.572243" x2="6249.572243" y1="88" y2="93" stroke="#AAAAAA" /><text style="font-size:10px;font-family:sans-serif;fill:#000000;" text-anchor="middle" x="6249.572243" y="103">941</text><line x1="6309.201521" x2="6309.201521" y1="88" y2="93" stroke="#AAAAAA" /><text style="font-size:10px;font-family:sans-serif;fill:#000000;" text-anchor="middle" x="6309.201521" y="103">950</text><line x1="6329.077947" x2="6329.077947" y1="88" y2="93" stroke="#AAAAAA" /><text style="font-size:10px;font-family:sans-serif;fill:#000000;" text-anchor="middle" x="6329.077947" y="103">953</text><line x1="6454.961977" x2="6454.961977" y1="88" y2="93" stroke="#AAAAAA" /><text style="font-size:10px;font-family:sans-serif;fill:#000000;" text-anchor="middle" x="6454.961977" y="103">972</text><line x1="6474.838403" x2="6474.838403" y1="88" y2="93" stroke="#AAAAAA" /><text style="font-size:10px;font-family:sans-serif;fill:#000000;" text-anchor="middle" x="6474.838403" y="103">975</text><line x1="6600.722433" x2="6600.722433" y1="88" y2="93" stroke="#AAAAAA" /><text style="font-size:10px;font-family:sans-serif;fill:#000000;" text-anchor="middle" x="6600.722433" y="103">994</text><line x1="6673.602662" x2="6673.602662" y1="88" y2="93" stroke="#AAAAAA" /><text style="font-size:10px;font-family:sans-serif;fill:#000000;" text-anchor="middle" x="6673.602662" y="103">1005</text><line x1="6772.984791" x2="6772.984791" y1="88" y2="93" stroke="#AAAAAA" /><text style="font-size:10px;font-family:sans-serif;fill:#000000;" text-anchor="middle" x="6772.984791" y="103">1020</text><line x1="6792.861217" x2="6792.861217" y1="88" y2="93" stroke="#AAAAAA" /><text style="font-size:10px;font-family:sans-serif;fill:#000000;" text-anchor="middle" x="6792.861217" y="103">1023</text><line x1="6812.737643" x2="6812.737643" y1="88" y2="93" stroke="#AAAAAA" /><text style="font-size:10px;font-family:sans-serif;fill:#000000;" text-anchor="middle" x="6812.737643" y="103">1026</text><line x1="6832.614068" x2="6832.614068" y1="88" y2="93" stroke="#AAAAAA" /><text style="font-size:10px;font-family:sans-serif;fill:#000000;" text-anchor="middle" x="6832.614068" y="103">1029</text><line x1="6985.000000" x2="6985.000000" y1="88" y2="93" stroke="#AAAAAA" /><text style="font-size:10px;font-family:sans-serif;fill:#000000;" text-anchor="middle" x="6985.000000" y="103">1052</text></g>
</svg>
