<?xml version='1.0'?>
<svg xmlns="http://www.w3.org/2000/svg" xmlns:xlink="http://www.w3.org/1999/xlink" width="7000" height="111">
<defs>
  <filter id="ds" x="0" y="0">
    <feOffset in="SourceAlpha" dx="2" dy="2" />
    <feComponentTransfer><feFuncA type="linear" slope="0.2"/></feComponentTransfer>
    <feGaussianBlur result="blurOut" stdDeviation="1" />
    <feBlend in="SourceGraphic" in2="blurOut" mode="normal" />
  </filter>
  <pattern id="disordered-hatch" patternUnits="userSpaceOnUse" width="4" height="4">
    <path d="M-1,1 l2,-2 M0,4 l4,-4 M3,5 l2,-2" stroke="#000000" opacity="0.3" />
  </pattern>
</defs>
<line x1="4170.346080" x2="4170.346080" y1="19" y2="47" stroke="#BABDB6" stroke-width="2"/><a xlink:title="Q1559*"><circle cx="4170.346080" cy="19" r="4.000000" fill="#ff0000" /></a><a xlink:title="E9PAL5_HUMAN, Collagen alpha-5(VI) chain (2615aa)"><rect fill="#BABDB6" x="15" y="47" width="6970" height="14"/></a><a xlink:title="disorder"><rect fill="url(#disordered-hatch)" x="923.898662" y="47" width="2.665392" height="14"/></a>
<a xlink:title="disorder"><rect fill="url(#disordered-hatch)" x="2501.810707" y="47" width="7.996176" height="14"/></a>
<a xlink:title="disorder"><rect fill="url(#disordered-hatch)" x="4394.239006" y="47" width="77.296367" height="14"/></a>
<a xlink:title="disorder"><rect fill="url(#disordered-hatch)" x="4562.158700" y="47" width="53.307839" height="14"/></a>
<a xlink:title="disorder"><rect fill="url(#disordered-hatch)" x="5932.170172" y="47" width="2.665392" height="14"/></a>
<a xlink:title="disorder"><rect fill="url(#disordered-hatch)" x="6038.785851" y="47" width="55.973231" height="14"/></a>
<a xlink:title="disorder"><rect fill="url(#disordered-hatch)" x="6689.141491" y="47" width="39.980880" height="14"/></a>
<a xlink:title="disorder"><rect fill="url(#disordered-hatch)" x="6817.080306" y="47" width="2.665392" height="14"/></a>
<a xlink:title="disorder"><rect fill="url(#disordered-hatch)" x="6825.076482" y="47" width="5.330784" height="14"/></a>
<a xlink:title="disorder"><rect fill="url(#disordered-hatch)" x="6977.003824" y="47" width="7.996176" height="14"/></a>
<a xlink:title="sig_p"><rect fill="#FFD27F" x="17.665392" y="45" width="45.311663" height="18" filter="url(#ds)"/></a>
<a xlink:title="coiled_coil"><rect fill="#98E698" x="6921.030593" y="45" width="53.307839" height="18" filter="url(#ds)"/></a>
<a xlink:title="low_complexity"><rect fill="#7FFFFF" x="385.489484" y="45" width="39.980880" height="18" filter="url(#ds)"/></a>
<a xlink:title="low_complexity"><rect fill="#7FFFFF" x="3885.149140" y="45" width="63.969407" height="18" filter="url(#ds)"/></a>
<a xlink:title="low_complexity"><rect fill="#7FFFFF" x="4037.076482" y="45" width="34.650096" height="18" filter="url(#ds)"/></a>
<a xlink:title="low_complexity"><rect fill="#7FFFFF" x="4135.695985" y="45" width="47.977055" height="18" filter="url(#ds)"/></a>
<a xlink:title="low_complexity"><rect fill="#7FFFFF" x="4263.634799" y="45" width="47.977055" height="18" filter="url(#ds)"/></a>
<a xlink:title="low_complexity"><rect fill="#C2DDFF" x="4383.577438" y="45" width="7.996176" height="18" filter="url(#ds)"/></a>
<a xlink:title="low_complexity"><rect fill="#7FFFFF" x="4490.193117" y="45" width="42.646272" height="18" filter="url(#ds)"/></a>
<a xlink:title="low_complexity"><rect fill="#7FFFFF" x="4871.344168" y="45" width="34.650096" height="18" filter="url(#ds)"/></a>
<a xlink:title="low_complexity"><rect fill="#7FFFFF" x="6939.688337" y="45" width="29.319312" height="18" filter="url(#ds)"/></a>
<a xlink:title="disorder"><rect fill="url(#disordered-hatch)" x="4383.577438" y="47" width="-2.665392" height="14"/></a>
<g transform="translate(94.961759,42)"><a xlink:href="http://pfam.xfam.org/family/PF00092" xlink:title="von Willebrand factor type A domain"><rect fill="#2dcf00" x="0" y="0" width="469.108987" height="24" filter="url(#ds)"/><text style="font-size:12px;font-family:sans-serif;fill:#ffffff;" text-anchor="middle" x="234.554493" y="16">von Willebrand factor type A domain</text></a></g>
<g transform="translate(644.032505,42)"><a xlink:href="http://pfam.xfam.org/family/PF00092" xlink:title="von Willebrand factor type A domain"><rect fill="#2dcf00" x="0" y="0" width="474.439771" height="24" filter="url(#ds)"/><text style="font-size:12px;font-family:sans-serif;fill:#ffffff;" text-anchor="middle" x="237.219885" y="16">von Willebrand factor type A domain</text></a></g>
<g transform="translate(1193.103250,42)"><a xlink:href="http://pfam.xfam.org/family/PF00092" xlink:title="von Willebrand factor type A domain"><rect fill="#2dcf00" x="0" y="0" width="461.112811" height="24" filter="url(#ds)"/><text style="font-size:12px;font-family:sans-serif;fill:#ffffff;" text-anchor="middle" x="230.556405" y="16">von Willebrand factor type A domain</text></a></g>
<g transform="translate(1688.866157,42)"><a xlink:href="http://pfam.xfam.org/family/PF00092" xlink:title="von Willebrand factor type A domain"><rect fill="#2dcf00" x="0" y="0" width="453.116635" height="24" filter="url(#ds)"/><text style="font-size:12px;font-family:sans-serif;fill:#ffffff;" text-anchor="middle" x="226.558317" y="16">von Willebrand factor type A domain</text></a></g>
<g transform="translate(2184.629063,42)"><a xlink:href="http://pfam.xfam.org/family/PF00092" xlink:title="von Willebrand factor type A domain"><rect fill="#2dcf00" x="0" y="0" width="466.443595" height="24" filter="url(#ds)"/><text style="font-size:12px;font-family:sans-serif;fill:#ffffff;" text-anchor="middle" x="233.221797" y="16">von Willebrand factor type A domain</text></a></g>
<g transform="translate(2693.718929,42)"><a xlink:href="http://pfam.xfam.org/family/PF00092" xlink:title="von Willebrand factor type A domain"><rect fill="#2dcf00" x="0" y="0" width="469.108987" height="24" filter="url(#ds)"/><text style="font-size:12px;font-family:sans-serif;fill:#ffffff;" text-anchor="middle" x="234.554493" y="16">von Willebrand factor type A domain</text></a></g>
<g transform="translate(3727.891013,42)"><a xlink:href="http://pfam.xfam.org/family/PF01391" xlink:title="Collagen triple helix repeat (20 copies)"><rect fill="#ff5353" x="0" y="0" width="146.596558" height="24" filter="url(#ds)"/><text style="font-size:12px;font-family:sans-serif;fill:#ffffff;" text-anchor="middle" x="73.298279" y="16">Collagen</text></a></g>
<g transform="translate(3871.822180,42)"><a xlink:href="http://pfam.xfam.org/family/PF01391" xlink:title="Collagen triple helix repeat (20 copies)"><rect fill="#ff5353" x="0" y="0" width="125.273423" height="24" filter="url(#ds)"/><text style="font-size:12px;font-family:sans-serif;fill:#ffffff;" text-anchor="middle" x="62.636711" y="16">Collagen</text></a></g>
<g transform="translate(3989.099426,42)"><a xlink:href="http://pfam.xfam.org/family/PF01391" xlink:title="Collagen triple helix repeat (20 copies)"><rect fill="#ff5353" x="0" y="0" width="85.292543" height="24" filter="url(#ds)"/><text style="font-size:12px;font-family:sans-serif;fill:#ffffff;" text-anchor="middle" x="42.646272" y="16">Collagen</text></a></g>
<g transform="translate(4071.726577,42)"><a xlink:href="http://pfam.xfam.org/family/PF01391" xlink:title="Collagen triple helix repeat (20 copies)"><rect fill="#ff5353" x="0" y="0" width="157.258126" height="24" filter="url(#ds)"/><text style="font-size:12px;font-family:sans-serif;fill:#ffffff;" text-anchor="middle" x="78.629063" y="16">Collagen</text></a></g>
<g transform="translate(4228.984704,42)"><a xlink:href="http://pfam.xfam.org/family/PF01391" xlink:title="Collagen triple helix repeat (20 copies)"><rect fill="#ff5353" x="0" y="0" width="151.927342" height="24" filter="url(#ds)"/><text style="font-size:12px;font-family:sans-serif;fill:#ffffff;" text-anchor="middle" x="75.963671" y="16">Collagen</text></a></g>
<g transform="translate(4474.200765,42)"><a xlink:href="http://pfam.xfam.org/family/PF01391" xlink:title="Collagen triple helix repeat (20 copies)"><rect fill="#ff5353" x="0" y="0" width="157.258126" height="24" filter="url(#ds)"/><text style="font-size:12px;font-family:sans-serif;fill:#ffffff;" text-anchor="middle" x="78.629063" y="16">Collagen</text></a></g>
<g transform="translate(4700.759082,42)"><a xlink:href="http://pfam.xfam.org/family/PF00092" xlink:title="von Willebrand factor type A domain"><rect fill="#2dcf00" x="0" y="0" width="423.797323" height="24" filter="url(#ds)"/><text style="font-size:12px;font-family:sans-serif;fill:#ffffff;" text-anchor="middle" x="211.898662" y="16">von Willebrand factor type A domain</text></a></g>
<g transform="translate(5247.164436,42)"><a xlink:href="http://pfam.xfam.org/family/PF00092" xlink:title="von Willebrand factor type A domain"><rect fill="#2dcf00" x="0" y="0" width="474.439771" height="24" filter="url(#ds)"/><text style="font-size:12px;font-family:sans-serif;fill:#ffffff;" text-anchor="middle" x="237.219885" y="16">von Willebrand factor type A domain</text></a></g>
<g transform="translate(6121.413002,42)"><a xlink:href="http://pfam.xfam.org/family/PF00092" xlink:title="von Willebrand factor type A domain"><rect fill="#2dcf00" x="0" y="0" width="487.766730" height="24" filter="url(#ds)"/><text style="font-size:12px;font-family:sans-serif;fill:#ffffff;" text-anchor="middle" x="243.883365" y="16">von Willebrand factor type A domain</text></a></g>
<g class="axis">
<line x1="15" x2="6985" y1="76" y2="76" stroke="#AAAAAA" /><line x1="15" x2="15" y1="76" y2="81" stroke="#AAAAAA" /><line x1="17.665392" x2="17.665392" y1="76" y2="81" stroke="#AAAAAA" /><text style="font-size:10px;font-family:sans-serif;fill:#000000;" text-anchor="middle" x="17.665392" y="91">1</text><line x1="62.977055" x2="62.977055" y1="76" y2="81" stroke="#AAAAAA" /><text style="font-size:10px;font-family:sans-serif;fill:#000000;" text-anchor="middle" x="62.977055" y="91">18</text><line x1="94.961759" x2="94.961759" y1="76" y2="81" stroke="#AAAAAA" /><text style="font-size:10px;font-family:sans-serif;fill:#000000;" text-anchor="middle" x="94.961759" y="91">30</text><line x1="385.489484" x2="385.489484" y1="76" y2="81" stroke="#AAAAAA" /><text style="font-size:10px;font-family:sans-serif;fill:#000000;" text-anchor="middle" x="385.489484" y="91">139</text><line x1="425.470363" x2="425.470363" y1="76" y2="81" stroke="#AAAAAA" /><text style="font-size:10px;font-family:sans-serif;fill:#000000;" text-anchor="middle" x="425.470363" y="91">154</text><line x1="564.070746" x2="564.070746" y1="76" y2="81" stroke="#AAAAAA" /><text style="font-size:10px;font-family:sans-serif;fill:#000000;" text-anchor="middle" x="564.070746" y="91">206</text><line x1="644.032505" x2="644.032505" y1="76" y2="81" stroke="#AAAAAA" /><text style="font-size:10px;font-family:sans-serif;fill:#000000;" text-anchor="middle" x="644.032505" y="91">236</text><line x1="1118.472275" x2="1118.472275" y1="76" y2="81" stroke="#AAAAAA" /><text style="font-size:10px;font-family:sans-serif;fill:#000000;" text-anchor="middle" x="1118.472275" y="91">414</text><line x1="1193.103250" x2="1193.103250" y1="76" y2="81" stroke="#AAAAAA" /><text style="font-size:10px;font-family:sans-serif;fill:#000000;" text-anchor="middle" x="1193.103250" y="91">442</text><line x1="1654.216061" x2="1654.216061" y1="76" y2="81" stroke="#AAAAAA" /><text style="font-size:10px;font-family:sans-serif;fill:#000000;" text-anchor="middle" x="1654.216061" y="91">615</text><line x1="1688.866157" x2="1688.866157" y1="76" y2="81" stroke="#AAAAAA" /><text style="font-size:10px;font-family:sans-serif;fill:#000000;" text-anchor="middle" x="1688.866157" y="91">628</text><line x1="2141.982792" x2="2141.982792" y1="76" y2="81" stroke="#AAAAAA" /><text style="font-size:10px;font-family:sans-serif;fill:#000000;" text-anchor="middle" x="2141.982792" y="91">798</text><line x1="2184.629063" x2="2184.629063" y1="76" y2="81" stroke="#AAAAAA" /><text style="font-size:10px;font-family:sans-serif;fill:#000000;" text-anchor="middle" x="2184.629063" y="91">814</text><line x1="2651.072658" x2="2651.072658" y1="76" y2="81" stroke="#AAAAAA" /><text style="font-size:10px;font-family:sans-serif;fill:#000000;" text-anchor="middle" x="2651.072658" y="91">989</text><line x1="2693.718929" x2="2693.718929" y1="76" y2="81" stroke="#AAAAAA" /><text style="font-size:10px;font-family:sans-serif;fill:#000000;" text-anchor="middle" x="2693.718929" y="91">1005</text><line x1="3162.827916" x2="3162.827916" y1="76" y2="81" stroke="#AAAAAA" /><text style="font-size:10px;font-family:sans-serif;fill:#000000;" text-anchor="middle" x="3162.827916" y="91">1181</text><line x1="3727.891013" x2="3727.891013" y1="76" y2="81" stroke="#AAAAAA" /><text style="font-size:10px;font-family:sans-serif;fill:#000000;" text-anchor="middle" x="3727.891013" y="91">1393</text><line x1="3871.822180" x2="3871.822180" y1="76" y2="81" stroke="#AAAAAA" /><text style="font-size:10px;font-family:sans-serif;fill:#000000;" text-anchor="middle" x="3871.822180" y="91">1447</text><line x1="3949.118547" x2="3949.118547" y1="76" y2="81" stroke="#AAAAAA" /><text style="font-size:10px;font-family:sans-serif;fill:#000000;" text-anchor="middle" x="3949.118547" y="91">1476</text><line x1="3989.099426" x2="3989.099426" y1="76" y2="81" stroke="#AAAAAA" /><text style="font-size:10px;font-family:sans-serif;fill:#000000;" text-anchor="middle" x="3989.099426" y="91">1491</text><line x1="4037.076482" x2="4037.076482" y1="76" y2="81" stroke="#AAAAAA" /><text style="font-size:10px;font-family:sans-serif;fill:#000000;" text-anchor="middle" x="4037.076482" y="91">1509</text><line x1="4071.726577" x2="4071.726577" y1="76" y2="81" stroke="#AAAAAA" /><text style="font-size:10px;font-family:sans-serif;fill:#000000;" text-anchor="middle" x="4071.726577" y="91">1522</text><line x1="4135.695985" x2="4135.695985" y1="76" y2="81" stroke="#AAAAAA" /><text style="font-size:10px;font-family:sans-serif;fill:#000000;" text-anchor="middle" x="4135.695985" y="91">1546</text><line x1="4170.346080" x2="4170.346080" y1="76" y2="81" stroke="#AAAAAA" /><text style="font-size:10px;font-family:sans-serif;fill:#000000;" text-anchor="middle" x="4170.346080" y="91">1559</text><line x1="4228.984704" x2="4228.984704" y1="76" y2="81" stroke="#AAAAAA" /><text style="font-size:10px;font-family:sans-serif;fill:#000000;" text-anchor="middle" x="4228.984704" y="91">1581</text><line x1="4263.634799" x2="4263.634799" y1="76" y2="81" stroke="#AAAAAA" /><text style="font-size:10px;font-family:sans-serif;fill:#000000;" text-anchor="middle" x="4263.634799" y="91">1594</text><line x1="4311.611855" x2="4311.611855" y1="76" y2="81" stroke="#AAAAAA" /><text style="font-size:10px;font-family:sans-serif;fill:#000000;" text-anchor="middle" x="4311.611855" y="91">1612</text><line x1="4380.912046" x2="4380.912046" y1="76" y2="81" stroke="#AAAAAA" /><text style="font-size:10px;font-family:sans-serif;fill:#000000;" text-anchor="middle" x="4380.912046" y="91">1638</text><line x1="4474.200765" x2="4474.200765" y1="76" y2="81" stroke="#AAAAAA" /><text style="font-size:10px;font-family:sans-serif;fill:#000000;" text-anchor="middle" x="4474.200765" y="91">1673</text><line x1="4532.839388" x2="4532.839388" y1="76" y2="81" stroke="#AAAAAA" /><text style="font-size:10px;font-family:sans-serif;fill:#000000;" text-anchor="middle" x="4532.839388" y="91">1695</text><line x1="4631.458891" x2="4631.458891" y1="76" y2="81" stroke="#AAAAAA" /><text style="font-size:10px;font-family:sans-serif;fill:#000000;" text-anchor="middle" x="4631.458891" y="91">1732</text><line x1="4700.759082" x2="4700.759082" y1="76" y2="81" stroke="#AAAAAA" /><text style="font-size:10px;font-family:sans-serif;fill:#000000;" text-anchor="middle" x="4700.759082" y="91">1758</text><line x1="4871.344168" x2="4871.344168" y1="76" y2="81" stroke="#AAAAAA" /><text style="font-size:10px;font-family:sans-serif;fill:#000000;" text-anchor="middle" x="4871.344168" y="91">1822</text><line x1="4905.994264" x2="4905.994264" y1="76" y2="81" stroke="#AAAAAA" /><text style="font-size:10px;font-family:sans-serif;fill:#000000;" text-anchor="middle" x="4905.994264" y="91">1835</text><line x1="5124.556405" x2="5124.556405" y1="76" y2="81" stroke="#AAAAAA" /><text style="font-size:10px;font-family:sans-serif;fill:#000000;" text-anchor="middle" x="5124.556405" y="91">1917</text><line x1="5247.164436" x2="5247.164436" y1="76" y2="81" stroke="#AAAAAA" /><text style="font-size:10px;font-family:sans-serif;fill:#000000;" text-anchor="middle" x="5247.164436" y="91">1963</text><line x1="5721.604207" x2="5721.604207" y1="76" y2="81" stroke="#AAAAAA" /><text style="font-size:10px;font-family:sans-serif;fill:#000000;" text-anchor="middle" x="5721.604207" y="91">2141</text><line x1="6121.413002" x2="6121.413002" y1="76" y2="81" stroke="#AAAAAA" /><text style="font-size:10px;font-family:sans-serif;fill:#000000;" text-anchor="middle" x="6121.413002" y="91">2291</text><line x1="6609.179732" x2="6609.179732" y1="76" y2="81" stroke="#AAAAAA" /><text style="font-size:10px;font-family:sans-serif;fill:#000000;" text-anchor="middle" x="6609.179732" y="91">2474</text><line x1="6921.030593" x2="6921.030593" y1="76" y2="81" stroke="#AAAAAA" /><text style="font-size:10px;font-family:sans-serif;fill:#000000;" text-anchor="middle" x="6921.030593" y="91">2591</text><line x1="6939.688337" x2="6939.688337" y1="76" y2="81" stroke="#AAAAAA" /><text style="font-size:10px;font-family:sans-serif;fill:#000000;" text-anchor="middle" x="6939.688337" y="91">2598</text><line x1="6985.000000" x2="6985.000000" y1="76" y2="81" stroke="#AAAAAA" /><text style="font-size:10px;font-family:sans-serif;fill:#000000;" text-anchor="middle" x="6985.000000" y="91">2615</text></g>
</svg>
