<?xml version='1.0'?>
<svg xmlns="http://www.w3.org/2000/svg" xmlns:xlink="http://www.w3.org/1999/xlink" width="7000" height="111">
<defs>
  <filter id="ds" x="0" y="0">
    <feOffset in="SourceAlpha" dx="2" dy="2" />
    <feComponentTransfer><feFuncA type="linear" slope="0.2"/></feComponentTransfer>
    <feGaussianBlur result="blurOut" stdDeviation="1" />
    <feBlend in="SourceGraphic" in2="blurOut" mode="normal" />
  </filter>
  <pattern id="disordered-hatch" patternUnits="userSpaceOnUse" width="4" height="4">
    <path d="M-1,1 l2,-2 M0,4 l4,-4 M3,5 l2,-2" stroke="#000000" opacity="0.3" />
  </pattern>
</defs>
<line x1="4134.919028" x2="4134.919028" y1="19" y2="47" stroke="#BABDB6" stroke-width="2"/><a xlink:title="E146D"><circle cx="4134.919028" cy="19" r="4.000000" fill="#ff0000" /></a><a xlink:title="E9PB28_HUMAN, Transcription factor HES-4 (247aa)"><rect fill="#BABDB6" x="15" y="47" width="6970" height="14"/></a><a xlink:title="disorder"><rect fill="url(#disordered-hatch)" x="1567.024291" y="47" width="169.311741" height="14"/></a>
<a xlink:title="disorder"><rect fill="url(#disordered-hatch)" x="2780.425101" y="47" width="197.530364" height="14"/></a>
<a xlink:title="disorder"><rect fill="url(#disordered-hatch)" x="5179.008097" y="47" width="253.967611" height="14"/></a>
<a xlink:title="disorder"><rect fill="url(#disordered-hatch)" x="6392.408907" y="47" width="564.372470" height="14"/></a>
<a xlink:title="low_complexity"><rect fill="#C2DDFF" x="184.311741" y="45" width="451.497976" height="18" filter="url(#ds)"/></a>
<a xlink:title="low_complexity"><rect fill="#C2DDFF" x="1200.182186" y="45" width="338.623482" height="18" filter="url(#ds)"/></a>
<a xlink:title="low_complexity"><rect fill="#C2DDFF" x="5037.914980" y="45" width="536.153846" height="18" filter="url(#ds)"/></a>
<a xlink:title="low_complexity"><rect fill="#C2DDFF" x="5658.724696" y="45" width="1326.275304" height="18" filter="url(#ds)"/></a>
<a xlink:title="disorder"><rect fill="url(#disordered-hatch)" x="43.218623" y="47" width="112.874494" height="14"/></a>
<a xlink:title="disorder"><rect fill="url(#disordered-hatch)" x="664.028340" y="47" width="507.935223" height="14"/></a>
<g transform="translate(1764.554656,42)"><a xlink:href="http://pfam.xfam.org/family/PF00010" xlink:title="Helix-loop-helix DNA-binding domain"><rect fill="#2dcf00" x="0" y="0" width="1580.242915" height="24" filter="url(#ds)"/><text style="font-size:12px;font-family:sans-serif;fill:#ffffff;" text-anchor="middle" x="790.121457" y="16">Helix-loop-helix DNA-binding domain</text></a></g>
<g transform="translate(3796.295547,42)"><a xlink:href="http://pfam.xfam.org/family/PF07527" xlink:title="Hairy Orange"><rect fill="#ff5353" x="0" y="0" width="1185.182186" height="24" filter="url(#ds)"/><text style="font-size:12px;font-family:sans-serif;fill:#ffffff;" text-anchor="middle" x="592.591093" y="16">Hairy Orange</text></a></g>
<g class="axis">
<line x1="15" x2="6985" y1="76" y2="76" stroke="#AAAAAA" /><line x1="15" x2="15" y1="76" y2="81" stroke="#AAAAAA" /><line x1="15.000000" x2="15.000000" y1="76" y2="81" stroke="#AAAAAA" /><text style="font-size:10px;font-family:sans-serif;fill:#000000;" text-anchor="middle" x="15.000000" y="91">0</text><line x1="184.311741" x2="184.311741" y1="76" y2="81" stroke="#AAAAAA" /><text style="font-size:10px;font-family:sans-serif;fill:#000000;" text-anchor="middle" x="184.311741" y="91">6</text><line x1="635.809717" x2="635.809717" y1="76" y2="81" stroke="#AAAAAA" /><text style="font-size:10px;font-family:sans-serif;fill:#000000;" text-anchor="middle" x="635.809717" y="91">22</text><line x1="1200.182186" x2="1200.182186" y1="76" y2="81" stroke="#AAAAAA" /><text style="font-size:10px;font-family:sans-serif;fill:#000000;" text-anchor="middle" x="1200.182186" y="91">42</text><line x1="1538.805668" x2="1538.805668" y1="76" y2="81" stroke="#AAAAAA" /><text style="font-size:10px;font-family:sans-serif;fill:#000000;" text-anchor="middle" x="1538.805668" y="91">54</text><line x1="1764.554656" x2="1764.554656" y1="76" y2="81" stroke="#AAAAAA" /><text style="font-size:10px;font-family:sans-serif;fill:#000000;" text-anchor="middle" x="1764.554656" y="91">62</text><line x1="3344.797571" x2="3344.797571" y1="76" y2="81" stroke="#AAAAAA" /><text style="font-size:10px;font-family:sans-serif;fill:#000000;" text-anchor="middle" x="3344.797571" y="91">118</text><line x1="3796.295547" x2="3796.295547" y1="76" y2="81" stroke="#AAAAAA" /><text style="font-size:10px;font-family:sans-serif;fill:#000000;" text-anchor="middle" x="3796.295547" y="91">134</text><line x1="4134.919028" x2="4134.919028" y1="76" y2="81" stroke="#AAAAAA" /><text style="font-size:10px;font-family:sans-serif;fill:#000000;" text-anchor="middle" x="4134.919028" y="91">146</text><line x1="4981.477733" x2="4981.477733" y1="76" y2="81" stroke="#AAAAAA" /><text style="font-size:10px;font-family:sans-serif;fill:#000000;" text-anchor="middle" x="4981.477733" y="91">176</text><line x1="5037.914980" x2="5037.914980" y1="76" y2="81" stroke="#AAAAAA" /><text style="font-size:10px;font-family:sans-serif;fill:#000000;" text-anchor="middle" x="5037.914980" y="91">178</text><line x1="5574.068826" x2="5574.068826" y1="76" y2="81" stroke="#AAAAAA" /><text style="font-size:10px;font-family:sans-serif;fill:#000000;" text-anchor="middle" x="5574.068826" y="91">197</text><line x1="5658.724696" x2="5658.724696" y1="76" y2="81" stroke="#AAAAAA" /><text style="font-size:10px;font-family:sans-serif;fill:#000000;" text-anchor="middle" x="5658.724696" y="91">200</text><line x1="6985.000000" x2="6985.000000" y1="76" y2="81" stroke="#AAAAAA" /><text style="font-size:10px;font-family:sans-serif;fill:#000000;" text-anchor="middle" x="6985.000000" y="91">247</text><line x1="6985.000000" x2="6985.000000" y1="76" y2="81" stroke="#AAAAAA" /><text style="font-size:10px;font-family:sans-serif;fill:#000000;" text-anchor="middle" x="6985.000000" y="91">247</text></g>
</svg>
