<?xml version='1.0'?>
<svg xmlns="http://www.w3.org/2000/svg" xmlns:xlink="http://www.w3.org/1999/xlink" width="7000" height="111">
<defs>
  <filter id="ds" x="0" y="0">
    <feOffset in="SourceAlpha" dx="2" dy="2" />
    <feComponentTransfer><feFuncA type="linear" slope="0.2"/></feComponentTransfer>
    <feGaussianBlur result="blurOut" stdDeviation="1" />
    <feBlend in="SourceGraphic" in2="blurOut" mode="normal" />
  </filter>
  <pattern id="disordered-hatch" patternUnits="userSpaceOnUse" width="4" height="4">
    <path d="M-1,1 l2,-2 M0,4 l4,-4 M3,5 l2,-2" stroke="#000000" opacity="0.3" />
  </pattern>
</defs>
<line x1="2216.851852" x2="2216.851852" y1="19" y2="47" stroke="#BABDB6" stroke-width="2"/><a xlink:title="LPPQPTRPPQPVL580L"><circle cx="2216.851852" cy="19" r="4.000000" fill="#ff0000" /></a><a xlink:title="E9PCD1_HUMAN, Serine/threonine-protein kinase WNK2 (1836aa)"><rect fill="#BABDB6" x="15" y="47" width="6970" height="14"/></a><a xlink:title="disorder"><rect fill="url(#disordered-hatch)" x="425.000000" y="47" width="26.574074" height="14"/></a>
<a xlink:title="disorder"><rect fill="url(#disordered-hatch)" x="485.740741" y="47" width="11.388889" height="14"/></a>
<a xlink:title="disorder"><rect fill="url(#disordered-hatch)" x="1108.333333" y="47" width="117.685185" height="14"/></a>
<a xlink:title="disorder"><rect fill="url(#disordered-hatch)" x="1404.444444" y="47" width="11.388889" height="14"/></a>
<a xlink:title="disorder"><rect fill="url(#disordered-hatch)" x="1450.000000" y="47" width="15.185185" height="14"/></a>
<a xlink:title="disorder"><rect fill="url(#disordered-hatch)" x="1556.296296" y="47" width="7.592593" height="14"/></a>
<a xlink:title="disorder"><rect fill="url(#disordered-hatch)" x="1620.833333" y="47" width="7.592593" height="14"/></a>
<a xlink:title="disorder"><rect fill="url(#disordered-hatch)" x="1795.462963" y="47" width="15.185185" height="14"/></a>
<a xlink:title="disorder"><rect fill="url(#disordered-hatch)" x="1822.037037" y="47" width="3.796296" height="14"/></a>
<a xlink:title="disorder"><rect fill="url(#disordered-hatch)" x="1833.425926" y="47" width="26.574074" height="14"/></a>
<a xlink:title="disorder"><rect fill="url(#disordered-hatch)" x="1954.907407" y="47" width="3.796296" height="14"/></a>
<a xlink:title="disorder"><rect fill="url(#disordered-hatch)" x="2361.111111" y="47" width="91.111111" height="14"/></a>
<a xlink:title="disorder"><rect fill="url(#disordered-hatch)" x="2467.407407" y="47" width="15.185185" height="14"/></a>
<a xlink:title="disorder"><rect fill="url(#disordered-hatch)" x="2497.777778" y="47" width="56.944444" height="14"/></a>
<a xlink:title="disorder"><rect fill="url(#disordered-hatch)" x="2562.314815" y="47" width="26.574074" height="14"/></a>
<a xlink:title="disorder"><rect fill="url(#disordered-hatch)" x="2740.740741" y="47" width="30.370370" height="14"/></a>
<a xlink:title="disorder"><rect fill="url(#disordered-hatch)" x="3154.537037" y="47" width="15.185185" height="14"/></a>
<a xlink:title="disorder"><rect fill="url(#disordered-hatch)" x="3215.277778" y="47" width="11.388889" height="14"/></a>
<a xlink:title="disorder"><rect fill="url(#disordered-hatch)" x="3279.814815" y="47" width="205.000000" height="14"/></a>
<a xlink:title="disorder"><rect fill="url(#disordered-hatch)" x="4133.981481" y="47" width="-3.796296" height="14"/></a>
<a xlink:title="disorder"><rect fill="url(#disordered-hatch)" x="4585.740741" y="47" width="622.592593" height="14"/></a>
<a xlink:title="disorder"><rect fill="url(#disordered-hatch)" x="5219.722222" y="47" width="261.944444" height="14"/></a>
<a xlink:title="disorder"><rect fill="url(#disordered-hatch)" x="5542.407407" y="47" width="3.796296" height="14"/></a>
<a xlink:title="disorder"><rect fill="url(#disordered-hatch)" x="5553.796296" y="47" width="79.722222" height="14"/></a>
<a xlink:title="disorder"><rect fill="url(#disordered-hatch)" x="5660.092593" y="47" width="3.796296" height="14"/></a>
<a xlink:title="disorder"><rect fill="url(#disordered-hatch)" x="5705.648148" y="47" width="3.796296" height="14"/></a>
<a xlink:title="disorder"><rect fill="url(#disordered-hatch)" x="5717.037037" y="47" width="11.388889" height="14"/></a>
<a xlink:title="disorder"><rect fill="url(#disordered-hatch)" x="5823.333333" y="47" width="22.777778" height="14"/></a>
<a xlink:title="disorder"><rect fill="url(#disordered-hatch)" x="5872.685185" y="47" width="94.907407" height="14"/></a>
<a xlink:title="disorder"><rect fill="url(#disordered-hatch)" x="6024.537037" y="47" width="155.648148" height="14"/></a>
<a xlink:title="disorder"><rect fill="url(#disordered-hatch)" x="6237.129630" y="47" width="3.796296" height="14"/></a>
<a xlink:title="disorder"><rect fill="url(#disordered-hatch)" x="6267.500000" y="47" width="60.740741" height="14"/></a>
<a xlink:title="disorder"><rect fill="url(#disordered-hatch)" x="6335.833333" y="47" width="18.981481" height="14"/></a>
<a xlink:title="disorder"><rect fill="url(#disordered-hatch)" x="6453.518519" y="47" width="174.629630" height="14"/></a>
<a xlink:title="disorder"><rect fill="url(#disordered-hatch)" x="6635.740741" y="47" width="7.592593" height="14"/></a>
<a xlink:title="disorder"><rect fill="url(#disordered-hatch)" x="6650.925926" y="47" width="3.796296" height="14"/></a>
<a xlink:title="disorder"><rect fill="url(#disordered-hatch)" x="6730.648148" y="47" width="254.351852" height="14"/></a>
<a xlink:title="coiled_coil"><rect fill="#7FFFFF" x="3276.018519" y="45" width="75.925926" height="18" filter="url(#ds)"/></a>
<a xlink:title="coiled_coil"><rect fill="#98E698" x="5732.222222" y="45" width="117.685185" height="18" filter="url(#ds)"/></a>
<a xlink:title="low_complexity"><rect fill="#C2DDFF" x="155.462963" y="45" width="56.944444" height="18" filter="url(#ds)"/></a>
<a xlink:title="low_complexity"><rect fill="#C2DDFF" x="740.092593" y="45" width="56.944444" height="18" filter="url(#ds)"/></a>
<a xlink:title="low_complexity"><rect fill="#C2DDFF" x="918.518519" y="45" width="30.370370" height="18" filter="url(#ds)"/></a>
<a xlink:title="low_complexity"><rect fill="#C2DDFF" x="1229.814815" y="45" width="216.388889" height="18" filter="url(#ds)"/></a>
<a xlink:title="low_complexity"><rect fill="#C2DDFF" x="1468.981481" y="45" width="140.462963" height="18" filter="url(#ds)"/></a>
<a xlink:title="low_complexity"><rect fill="#C2DDFF" x="1632.222222" y="45" width="64.537037" height="18" filter="url(#ds)"/></a>
<a xlink:title="low_complexity"><rect fill="#C2DDFF" x="1711.944444" y="45" width="79.722222" height="18" filter="url(#ds)"/></a>
<a xlink:title="low_complexity"><rect fill="#C2DDFF" x="1901.759259" y="45" width="45.555556" height="18" filter="url(#ds)"/></a>
<a xlink:title="low_complexity"><rect fill="#C2DDFF" x="2102.962963" y="45" width="254.351852" height="18" filter="url(#ds)"/></a>
<a xlink:title="low_complexity"><rect fill="#C2DDFF" x="2459.814815" y="45" width="132.870370" height="18" filter="url(#ds)"/></a>
<a xlink:title="low_complexity"><rect fill="#C2DDFF" x="2657.222222" y="45" width="79.722222" height="18" filter="url(#ds)"/></a>
<a xlink:title="low_complexity"><rect fill="#7FFFFF" x="2964.722222" y="45" width="87.314815" height="18" filter="url(#ds)"/></a>
<a xlink:title="low_complexity"><rect fill="#7FFFFF" x="3560.740741" y="45" width="79.722222" height="18" filter="url(#ds)"/></a>
<a xlink:title="low_complexity"><rect fill="#7FFFFF" x="3746.759259" y="45" width="91.111111" height="18" filter="url(#ds)"/></a>
<a xlink:title="low_complexity"><rect fill="#C2DDFF" x="4115.000000" y="45" width="15.185185" height="18" filter="url(#ds)"/></a>
<a xlink:title="low_complexity"><rect fill="#7FFFFF" x="4194.722222" y="45" width="68.333333" height="18" filter="url(#ds)"/></a>
<a xlink:title="low_complexity"><rect fill="#7FFFFF" x="4293.425926" y="45" width="49.351852" height="18" filter="url(#ds)"/></a>
<a xlink:title="low_complexity"><rect fill="#C2DDFF" x="5660.092593" y="45" width="41.759259" height="18" filter="url(#ds)"/></a>
<a xlink:title="low_complexity"><rect fill="#C2DDFF" x="6715.462963" y="45" width="11.388889" height="18" filter="url(#ds)"/></a>
<a xlink:title="disorder"><rect fill="url(#disordered-hatch)" x="952.685185" y="47" width="0.000000" height="14"/></a>
<a xlink:title="disorder"><rect fill="url(#disordered-hatch)" x="626.203704" y="47" width="110.092593" height="14"/></a>
<a xlink:title="disorder"><rect fill="url(#disordered-hatch)" x="800.833333" y="47" width="113.888889" height="14"/></a>
<a xlink:title="disorder"><rect fill="url(#disordered-hatch)" x="1996.666667" y="47" width="102.500000" height="14"/></a>
<a xlink:title="disorder"><rect fill="url(#disordered-hatch)" x="2596.481481" y="47" width="56.944444" height="14"/></a>
<a xlink:title="disorder"><rect fill="url(#disordered-hatch)" x="4088.425926" y="47" width="22.777778" height="14"/></a>
<a xlink:title="disorder"><rect fill="url(#disordered-hatch)" x="6715.462963" y="47" width="-3.796296" height="14"/></a>
<g transform="translate(341.481481,42)"><a xlink:href="http://pfam.xfam.org/family/PF12202" xlink:title="Oxidative-stress-responsive kinase 1 C terminal"><rect fill="#2dcf00" x="0" y="0" width="140.462963" height="24" filter="url(#ds)"/><text style="font-size:12px;font-family:sans-serif;fill:#ffffff;" text-anchor="middle" x="70.231481" y="16">OSR1_C</text></a></g>
<g class="axis">
<line x1="15" x2="6985" y1="76" y2="76" stroke="#AAAAAA" /><line x1="15" x2="15" y1="76" y2="81" stroke="#AAAAAA" /><line x1="15.000000" x2="15.000000" y1="76" y2="81" stroke="#AAAAAA" /><text style="font-size:10px;font-family:sans-serif;fill:#000000;" text-anchor="middle" x="15.000000" y="91">0</text><line x1="155.462963" x2="155.462963" y1="76" y2="81" stroke="#AAAAAA" /><text style="font-size:10px;font-family:sans-serif;fill:#000000;" text-anchor="middle" x="155.462963" y="91">37</text><line x1="212.407407" x2="212.407407" y1="76" y2="81" stroke="#AAAAAA" /><text style="font-size:10px;font-family:sans-serif;fill:#000000;" text-anchor="middle" x="212.407407" y="91">52</text><line x1="341.481481" x2="341.481481" y1="76" y2="81" stroke="#AAAAAA" /><text style="font-size:10px;font-family:sans-serif;fill:#000000;" text-anchor="middle" x="341.481481" y="91">86</text><line x1="481.944444" x2="481.944444" y1="76" y2="81" stroke="#AAAAAA" /><text style="font-size:10px;font-family:sans-serif;fill:#000000;" text-anchor="middle" x="481.944444" y="91">123</text><line x1="740.092593" x2="740.092593" y1="76" y2="81" stroke="#AAAAAA" /><text style="font-size:10px;font-family:sans-serif;fill:#000000;" text-anchor="middle" x="740.092593" y="91">191</text><line x1="797.037037" x2="797.037037" y1="76" y2="81" stroke="#AAAAAA" /><text style="font-size:10px;font-family:sans-serif;fill:#000000;" text-anchor="middle" x="797.037037" y="91">206</text><line x1="918.518519" x2="918.518519" y1="76" y2="81" stroke="#AAAAAA" /><text style="font-size:10px;font-family:sans-serif;fill:#000000;" text-anchor="middle" x="918.518519" y="91">238</text><line x1="948.888889" x2="948.888889" y1="76" y2="81" stroke="#AAAAAA" /><text style="font-size:10px;font-family:sans-serif;fill:#000000;" text-anchor="middle" x="948.888889" y="91">246</text><line x1="1229.814815" x2="1229.814815" y1="76" y2="81" stroke="#AAAAAA" /><text style="font-size:10px;font-family:sans-serif;fill:#000000;" text-anchor="middle" x="1229.814815" y="91">320</text><line x1="1446.203704" x2="1446.203704" y1="76" y2="81" stroke="#AAAAAA" /><text style="font-size:10px;font-family:sans-serif;fill:#000000;" text-anchor="middle" x="1446.203704" y="91">377</text><line x1="1468.981481" x2="1468.981481" y1="76" y2="81" stroke="#AAAAAA" /><text style="font-size:10px;font-family:sans-serif;fill:#000000;" text-anchor="middle" x="1468.981481" y="91">383</text><line x1="1609.444444" x2="1609.444444" y1="76" y2="81" stroke="#AAAAAA" /><text style="font-size:10px;font-family:sans-serif;fill:#000000;" text-anchor="middle" x="1609.444444" y="91">420</text><line x1="1632.222222" x2="1632.222222" y1="76" y2="81" stroke="#AAAAAA" /><text style="font-size:10px;font-family:sans-serif;fill:#000000;" text-anchor="middle" x="1632.222222" y="91">426</text><line x1="1696.759259" x2="1696.759259" y1="76" y2="81" stroke="#AAAAAA" /><text style="font-size:10px;font-family:sans-serif;fill:#000000;" text-anchor="middle" x="1696.759259" y="91">443</text><line x1="1791.666667" x2="1791.666667" y1="76" y2="81" stroke="#AAAAAA" /><text style="font-size:10px;font-family:sans-serif;fill:#000000;" text-anchor="middle" x="1791.666667" y="91">468</text><line x1="1901.759259" x2="1901.759259" y1="76" y2="81" stroke="#AAAAAA" /><text style="font-size:10px;font-family:sans-serif;fill:#000000;" text-anchor="middle" x="1901.759259" y="91">497</text><line x1="1947.314815" x2="1947.314815" y1="76" y2="81" stroke="#AAAAAA" /><text style="font-size:10px;font-family:sans-serif;fill:#000000;" text-anchor="middle" x="1947.314815" y="91">509</text><line x1="2102.962963" x2="2102.962963" y1="76" y2="81" stroke="#AAAAAA" /><text style="font-size:10px;font-family:sans-serif;fill:#000000;" text-anchor="middle" x="2102.962963" y="91">550</text><line x1="2216.851852" x2="2216.851852" y1="76" y2="81" stroke="#AAAAAA" /><text style="font-size:10px;font-family:sans-serif;fill:#000000;" text-anchor="middle" x="2216.851852" y="91">580</text><line x1="2357.314815" x2="2357.314815" y1="76" y2="81" stroke="#AAAAAA" /><text style="font-size:10px;font-family:sans-serif;fill:#000000;" text-anchor="middle" x="2357.314815" y="91">617</text><line x1="2459.814815" x2="2459.814815" y1="76" y2="81" stroke="#AAAAAA" /><text style="font-size:10px;font-family:sans-serif;fill:#000000;" text-anchor="middle" x="2459.814815" y="91">644</text><line x1="2592.685185" x2="2592.685185" y1="76" y2="81" stroke="#AAAAAA" /><text style="font-size:10px;font-family:sans-serif;fill:#000000;" text-anchor="middle" x="2592.685185" y="91">679</text><line x1="2657.222222" x2="2657.222222" y1="76" y2="81" stroke="#AAAAAA" /><text style="font-size:10px;font-family:sans-serif;fill:#000000;" text-anchor="middle" x="2657.222222" y="91">696</text><line x1="2736.944444" x2="2736.944444" y1="76" y2="81" stroke="#AAAAAA" /><text style="font-size:10px;font-family:sans-serif;fill:#000000;" text-anchor="middle" x="2736.944444" y="91">717</text><line x1="2964.722222" x2="2964.722222" y1="76" y2="81" stroke="#AAAAAA" /><text style="font-size:10px;font-family:sans-serif;fill:#000000;" text-anchor="middle" x="2964.722222" y="91">777</text><line x1="3052.037037" x2="3052.037037" y1="76" y2="81" stroke="#AAAAAA" /><text style="font-size:10px;font-family:sans-serif;fill:#000000;" text-anchor="middle" x="3052.037037" y="91">800</text><line x1="3276.018519" x2="3276.018519" y1="76" y2="81" stroke="#AAAAAA" /><text style="font-size:10px;font-family:sans-serif;fill:#000000;" text-anchor="middle" x="3276.018519" y="91">859</text><line x1="3351.944444" x2="3351.944444" y1="76" y2="81" stroke="#AAAAAA" /><text style="font-size:10px;font-family:sans-serif;fill:#000000;" text-anchor="middle" x="3351.944444" y="91">879</text><line x1="3560.740741" x2="3560.740741" y1="76" y2="81" stroke="#AAAAAA" /><text style="font-size:10px;font-family:sans-serif;fill:#000000;" text-anchor="middle" x="3560.740741" y="91">934</text><line x1="3640.462963" x2="3640.462963" y1="76" y2="81" stroke="#AAAAAA" /><text style="font-size:10px;font-family:sans-serif;fill:#000000;" text-anchor="middle" x="3640.462963" y="91">955</text><line x1="3746.759259" x2="3746.759259" y1="76" y2="81" stroke="#AAAAAA" /><text style="font-size:10px;font-family:sans-serif;fill:#000000;" text-anchor="middle" x="3746.759259" y="91">983</text><line x1="3837.870370" x2="3837.870370" y1="76" y2="81" stroke="#AAAAAA" /><text style="font-size:10px;font-family:sans-serif;fill:#000000;" text-anchor="middle" x="3837.870370" y="91">1007</text><line x1="4115.000000" x2="4115.000000" y1="76" y2="81" stroke="#AAAAAA" /><text style="font-size:10px;font-family:sans-serif;fill:#000000;" text-anchor="middle" x="4115.000000" y="91">1080</text><line x1="4194.722222" x2="4194.722222" y1="76" y2="81" stroke="#AAAAAA" /><text style="font-size:10px;font-family:sans-serif;fill:#000000;" text-anchor="middle" x="4194.722222" y="91">1101</text><line x1="4263.055556" x2="4263.055556" y1="76" y2="81" stroke="#AAAAAA" /><text style="font-size:10px;font-family:sans-serif;fill:#000000;" text-anchor="middle" x="4263.055556" y="91">1119</text><line x1="4293.425926" x2="4293.425926" y1="76" y2="81" stroke="#AAAAAA" /><text style="font-size:10px;font-family:sans-serif;fill:#000000;" text-anchor="middle" x="4293.425926" y="91">1127</text><line x1="4342.777778" x2="4342.777778" y1="76" y2="81" stroke="#AAAAAA" /><text style="font-size:10px;font-family:sans-serif;fill:#000000;" text-anchor="middle" x="4342.777778" y="91">1140</text><line x1="5660.092593" x2="5660.092593" y1="76" y2="81" stroke="#AAAAAA" /><text style="font-size:10px;font-family:sans-serif;fill:#000000;" text-anchor="middle" x="5660.092593" y="91">1487</text><line x1="5701.851852" x2="5701.851852" y1="76" y2="81" stroke="#AAAAAA" /><text style="font-size:10px;font-family:sans-serif;fill:#000000;" text-anchor="middle" x="5701.851852" y="91">1498</text><line x1="5732.222222" x2="5732.222222" y1="76" y2="81" stroke="#AAAAAA" /><text style="font-size:10px;font-family:sans-serif;fill:#000000;" text-anchor="middle" x="5732.222222" y="91">1506</text><line x1="5849.907407" x2="5849.907407" y1="76" y2="81" stroke="#AAAAAA" /><text style="font-size:10px;font-family:sans-serif;fill:#000000;" text-anchor="middle" x="5849.907407" y="91">1537</text><line x1="6715.462963" x2="6715.462963" y1="76" y2="81" stroke="#AAAAAA" /><text style="font-size:10px;font-family:sans-serif;fill:#000000;" text-anchor="middle" x="6715.462963" y="91">1765</text><line x1="6985.000000" x2="6985.000000" y1="76" y2="81" stroke="#AAAAAA" /><text style="font-size:10px;font-family:sans-serif;fill:#000000;" text-anchor="middle" x="6985.000000" y="91">1836</text></g>
</svg>
