<?xml version='1.0'?>
<svg xmlns="http://www.w3.org/2000/svg" xmlns:xlink="http://www.w3.org/1999/xlink" width="7000" height="111">
<defs>
  <filter id="ds" x="0" y="0">
    <feOffset in="SourceAlpha" dx="2" dy="2" />
    <feComponentTransfer><feFuncA type="linear" slope="0.2"/></feComponentTransfer>
    <feGaussianBlur result="blurOut" stdDeviation="1" />
    <feBlend in="SourceGraphic" in2="blurOut" mode="normal" />
  </filter>
  <pattern id="disordered-hatch" patternUnits="userSpaceOnUse" width="4" height="4">
    <path d="M-1,1 l2,-2 M0,4 l4,-4 M3,5 l2,-2" stroke="#000000" opacity="0.3" />
  </pattern>
</defs>
<line x1="4251.004843" x2="4251.004843" y1="19" y2="47" stroke="#BABDB6" stroke-width="2"/><a xlink:title="M502T"><circle cx="4251.004843" cy="19" r="4.000000" fill="#ff0000" /></a><a xlink:title="E9PEF1_HUMAN, cGMP-dependent 3',5'-cyclic phosphodiesterase (826aa)"><rect fill="#BABDB6" x="15" y="47" width="6970" height="14"/></a><a xlink:title="disorder"><rect fill="url(#disordered-hatch)" x="124.697337" y="47" width="42.191283" height="14"/></a>
<a xlink:title="disorder"><rect fill="url(#disordered-hatch)" x="377.845036" y="47" width="42.191283" height="14"/></a>
<a xlink:title="disorder"><rect fill="url(#disordered-hatch)" x="706.937046" y="47" width="210.956416" height="14"/></a>
<a xlink:title="low_complexity"><rect fill="#C2DDFF" x="352.530266" y="45" width="16.876513" height="18" filter="url(#ds)"/></a>
<a xlink:title="low_complexity"><rect fill="#7FFFFF" x="5778.329298" y="45" width="109.697337" height="18" filter="url(#ds)"/></a>
<a xlink:title="disorder"><rect fill="url(#disordered-hatch)" x="352.530266" y="47" width="-8.438257" height="14"/></a>
<g transform="translate(1078.220339,42)"><a xlink:href="http://pfam.xfam.org/family/PF01590" xlink:title="GAF domain"><rect fill="#2dcf00" x="0" y="0" width="1096.973366" height="24" filter="url(#ds)"/><text style="font-size:12px;font-family:sans-serif;fill:#ffffff;" text-anchor="middle" x="548.486683" y="16">GAF domain</text></a></g>
<g transform="translate(2495.847458,42)"><a xlink:href="http://pfam.xfam.org/family/PF01590" xlink:title="GAF domain"><rect fill="#2dcf00" x="0" y="0" width="1172.917676" height="24" filter="url(#ds)"/><text style="font-size:12px;font-family:sans-serif;fill:#ffffff;" text-anchor="middle" x="586.458838" y="16">GAF domain</text></a></g>
<g transform="translate(4571.658596,42)"><a xlink:href="http://pfam.xfam.org/family/PF00233" xlink:title="3'5'-cyclic nucleotide phosphodiesterase"><rect fill="#ff5353" x="0" y="0" width="1999.866828" height="24" filter="url(#ds)"/><text style="font-size:12px;font-family:sans-serif;fill:#ffffff;" text-anchor="middle" x="999.933414" y="16">3'5'-cyclic nucleotide phosphodiesterase</text></a></g>
<g class="axis">
<line x1="15" x2="6985" y1="76" y2="76" stroke="#AAAAAA" /><line x1="15" x2="15" y1="76" y2="81" stroke="#AAAAAA" /><line x1="15.000000" x2="15.000000" y1="76" y2="81" stroke="#AAAAAA" /><text style="font-size:10px;font-family:sans-serif;fill:#000000;" text-anchor="middle" x="15.000000" y="91">0</text><line x1="352.530266" x2="352.530266" y1="76" y2="81" stroke="#AAAAAA" /><text style="font-size:10px;font-family:sans-serif;fill:#000000;" text-anchor="middle" x="352.530266" y="91">40</text><line x1="369.406780" x2="369.406780" y1="76" y2="81" stroke="#AAAAAA" /><text style="font-size:10px;font-family:sans-serif;fill:#000000;" text-anchor="middle" x="369.406780" y="91">42</text><line x1="1078.220339" x2="1078.220339" y1="76" y2="81" stroke="#AAAAAA" /><text style="font-size:10px;font-family:sans-serif;fill:#000000;" text-anchor="middle" x="1078.220339" y="91">126</text><line x1="2175.193705" x2="2175.193705" y1="76" y2="81" stroke="#AAAAAA" /><text style="font-size:10px;font-family:sans-serif;fill:#000000;" text-anchor="middle" x="2175.193705" y="91">256</text><line x1="2495.847458" x2="2495.847458" y1="76" y2="81" stroke="#AAAAAA" /><text style="font-size:10px;font-family:sans-serif;fill:#000000;" text-anchor="middle" x="2495.847458" y="91">294</text><line x1="3668.765133" x2="3668.765133" y1="76" y2="81" stroke="#AAAAAA" /><text style="font-size:10px;font-family:sans-serif;fill:#000000;" text-anchor="middle" x="3668.765133" y="91">433</text><line x1="4251.004843" x2="4251.004843" y1="76" y2="81" stroke="#AAAAAA" /><text style="font-size:10px;font-family:sans-serif;fill:#000000;" text-anchor="middle" x="4251.004843" y="91">502</text><line x1="4571.658596" x2="4571.658596" y1="76" y2="81" stroke="#AAAAAA" /><text style="font-size:10px;font-family:sans-serif;fill:#000000;" text-anchor="middle" x="4571.658596" y="91">540</text><line x1="5778.329298" x2="5778.329298" y1="76" y2="81" stroke="#AAAAAA" /><text style="font-size:10px;font-family:sans-serif;fill:#000000;" text-anchor="middle" x="5778.329298" y="91">683</text><line x1="5888.026634" x2="5888.026634" y1="76" y2="81" stroke="#AAAAAA" /><text style="font-size:10px;font-family:sans-serif;fill:#000000;" text-anchor="middle" x="5888.026634" y="91">696</text><line x1="6571.525424" x2="6571.525424" y1="76" y2="81" stroke="#AAAAAA" /><text style="font-size:10px;font-family:sans-serif;fill:#000000;" text-anchor="middle" x="6571.525424" y="91">777</text><line x1="6985.000000" x2="6985.000000" y1="76" y2="81" stroke="#AAAAAA" /><text style="font-size:10px;font-family:sans-serif;fill:#000000;" text-anchor="middle" x="6985.000000" y="91">826</text></g>
</svg>
