<?xml version='1.0'?>
<svg xmlns="http://www.w3.org/2000/svg" xmlns:xlink="http://www.w3.org/1999/xlink" width="7000" height="111">
<defs>
  <filter id="ds" x="0" y="0">
    <feOffset in="SourceAlpha" dx="2" dy="2" />
    <feComponentTransfer><feFuncA type="linear" slope="0.2"/></feComponentTransfer>
    <feGaussianBlur result="blurOut" stdDeviation="1" />
    <feBlend in="SourceGraphic" in2="blurOut" mode="normal" />
  </filter>
  <pattern id="disordered-hatch" patternUnits="userSpaceOnUse" width="4" height="4">
    <path d="M-1,1 l2,-2 M0,4 l4,-4 M3,5 l2,-2" stroke="#000000" opacity="0.3" />
  </pattern>
</defs>
<line x1="5858.453488" x2="5858.453488" y1="19" y2="47" stroke="#BABDB6" stroke-width="2"/><a xlink:title="S721W"><circle cx="5858.453488" cy="19" r="4.000000" fill="#ff0000" /></a><a xlink:title="E9PHM2_HUMAN, Probable leucine--tRNA ligase, mitochondrial (860aa)"><rect fill="#BABDB6" x="15" y="47" width="6970" height="14"/></a><a xlink:title="disorder"><rect fill="url(#disordered-hatch)" x="2973.197674" y="47" width="32.418605" height="14"/></a>
<a xlink:title="disorder"><rect fill="url(#disordered-hatch)" x="4845.372093" y="47" width="16.209302" height="14"/></a>
<a xlink:title="disorder"><rect fill="url(#disordered-hatch)" x="5445.116279" y="47" width="32.418605" height="14"/></a>
<g transform="translate(582.325581,42)"><a xlink:href="http://pfam.xfam.org/family/PF00133" xlink:title="tRNA synthetases class I (I, L, M and V)"><rect fill="#2dcf00" x="0" y="0" width="2609.697674" height="24" filter="url(#ds)"/><text style="font-size:12px;font-family:sans-serif;fill:#ffffff;" text-anchor="middle" x="1304.848837" y="16">tRNA synthetases class I (I, L, M and V)</text></a></g>
<g transform="translate(3216.337209,42)"><a xlink:href="http://pfam.xfam.org/family/PF00133" xlink:title="tRNA synthetases class I (I, L, M and V)"><rect fill="#2dcf00" x="0" y="0" width="1361.581395" height="24" filter="url(#ds)"/><text style="font-size:12px;font-family:sans-serif;fill:#ffffff;" text-anchor="middle" x="680.790698" y="16">tRNA synthetases class I (I, L, M and V)</text></a></g>
<g transform="translate(4796.744186,42)"><a xlink:href="http://pfam.xfam.org/family/PF00133" xlink:title="tRNA synthetases class I (I, L, M and V)"><rect fill="#2dcf00" x="0" y="0" width="372.813953" height="24" filter="url(#ds)"/><text style="font-size:12px;font-family:sans-serif;fill:#ffffff;" text-anchor="middle" x="186.406977" y="16">tRNA-synt_1</text></a></g>
<g transform="translate(5542.372093,42)"><a xlink:href="http://pfam.xfam.org/family/PF08264" xlink:title="Anticodon-binding domain of tRNA"><rect fill="#ff5353" x="0" y="0" width="1150.860465" height="24" filter="url(#ds)"/><text style="font-size:12px;font-family:sans-serif;fill:#ffffff;" text-anchor="middle" x="575.430233" y="16">Anticodon-binding domain of tRNA</text></a></g>
<g class="axis">
<line x1="15" x2="6985" y1="76" y2="76" stroke="#AAAAAA" /><line x1="15" x2="15" y1="76" y2="81" stroke="#AAAAAA" /><line x1="15.000000" x2="15.000000" y1="76" y2="81" stroke="#AAAAAA" /><text style="font-size:10px;font-family:sans-serif;fill:#000000;" text-anchor="middle" x="15.000000" y="91">0</text><line x1="582.325581" x2="582.325581" y1="76" y2="81" stroke="#AAAAAA" /><text style="font-size:10px;font-family:sans-serif;fill:#000000;" text-anchor="middle" x="582.325581" y="91">70</text><line x1="3192.023256" x2="3192.023256" y1="76" y2="81" stroke="#AAAAAA" /><text style="font-size:10px;font-family:sans-serif;fill:#000000;" text-anchor="middle" x="3192.023256" y="91">392</text><line x1="3216.337209" x2="3216.337209" y1="76" y2="81" stroke="#AAAAAA" /><text style="font-size:10px;font-family:sans-serif;fill:#000000;" text-anchor="middle" x="3216.337209" y="91">395</text><line x1="4577.918605" x2="4577.918605" y1="76" y2="81" stroke="#AAAAAA" /><text style="font-size:10px;font-family:sans-serif;fill:#000000;" text-anchor="middle" x="4577.918605" y="91">563</text><line x1="4796.744186" x2="4796.744186" y1="76" y2="81" stroke="#AAAAAA" /><text style="font-size:10px;font-family:sans-serif;fill:#000000;" text-anchor="middle" x="4796.744186" y="91">590</text><line x1="5169.558140" x2="5169.558140" y1="76" y2="81" stroke="#AAAAAA" /><text style="font-size:10px;font-family:sans-serif;fill:#000000;" text-anchor="middle" x="5169.558140" y="91">636</text><line x1="5542.372093" x2="5542.372093" y1="76" y2="81" stroke="#AAAAAA" /><text style="font-size:10px;font-family:sans-serif;fill:#000000;" text-anchor="middle" x="5542.372093" y="91">682</text><line x1="5858.453488" x2="5858.453488" y1="76" y2="81" stroke="#AAAAAA" /><text style="font-size:10px;font-family:sans-serif;fill:#000000;" text-anchor="middle" x="5858.453488" y="91">721</text><line x1="6693.232558" x2="6693.232558" y1="76" y2="81" stroke="#AAAAAA" /><text style="font-size:10px;font-family:sans-serif;fill:#000000;" text-anchor="middle" x="6693.232558" y="91">824</text><line x1="6985.000000" x2="6985.000000" y1="76" y2="81" stroke="#AAAAAA" /><text style="font-size:10px;font-family:sans-serif;fill:#000000;" text-anchor="middle" x="6985.000000" y="91">860</text></g>
</svg>
