<?xml version='1.0'?>
<svg xmlns="http://www.w3.org/2000/svg" xmlns:xlink="http://www.w3.org/1999/xlink" width="7000" height="111">
<defs>
  <filter id="ds" x="0" y="0">
    <feOffset in="SourceAlpha" dx="2" dy="2" />
    <feComponentTransfer><feFuncA type="linear" slope="0.2"/></feComponentTransfer>
    <feGaussianBlur result="blurOut" stdDeviation="1" />
    <feBlend in="SourceGraphic" in2="blurOut" mode="normal" />
  </filter>
  <pattern id="disordered-hatch" patternUnits="userSpaceOnUse" width="4" height="4">
    <path d="M-1,1 l2,-2 M0,4 l4,-4 M3,5 l2,-2" stroke="#000000" opacity="0.3" />
  </pattern>
</defs>
<line x1="3341.166220" x2="3341.166220" y1="19" y2="47" stroke="#BABDB6" stroke-width="2"/><a xlink:title="H178P"><circle cx="3341.166220" cy="19" r="4.000000" fill="#ff0000" /></a><a xlink:title="F5GXU7_HUMAN, SH2B adapter protein 1 (373aa)"><rect fill="#BABDB6" x="15" y="47" width="6970" height="14"/></a><a xlink:title="disorder"><rect fill="url(#disordered-hatch)" x="239.235925" y="47" width="18.686327" height="14"/></a>
<a xlink:title="disorder"><rect fill="url(#disordered-hatch)" x="388.726542" y="47" width="242.922252" height="14"/></a>
<a xlink:title="disorder"><rect fill="url(#disordered-hatch)" x="687.707775" y="47" width="56.058981" height="14"/></a>
<a xlink:title="disorder"><rect fill="url(#disordered-hatch)" x="1266.983914" y="47" width="411.099196" height="14"/></a>
<a xlink:title="disorder"><rect fill="url(#disordered-hatch)" x="1752.828418" y="47" width="56.058981" height="14"/></a>
<a xlink:title="disorder"><rect fill="url(#disordered-hatch)" x="1864.946381" y="47" width="74.745308" height="14"/></a>
<a xlink:title="disorder"><rect fill="url(#disordered-hatch)" x="2033.123324" y="47" width="504.530831" height="14"/></a>
<a xlink:title="disorder"><rect fill="url(#disordered-hatch)" x="2612.399464" y="47" width="18.686327" height="14"/></a>
<a xlink:title="disorder"><rect fill="url(#disordered-hatch)" x="2668.458445" y="47" width="56.058981" height="14"/></a>
<a xlink:title="disorder"><rect fill="url(#disordered-hatch)" x="2836.635389" y="47" width="56.058981" height="14"/></a>
<a xlink:title="disorder"><rect fill="url(#disordered-hatch)" x="3266.420912" y="47" width="242.922252" height="14"/></a>
<a xlink:title="disorder"><rect fill="url(#disordered-hatch)" x="3584.088472" y="47" width="168.176944" height="14"/></a>
<a xlink:title="disorder"><rect fill="url(#disordered-hatch)" x="3920.442359" y="47" width="74.745308" height="14"/></a>
<a xlink:title="disorder"><rect fill="url(#disordered-hatch)" x="4537.091153" y="47" width="18.686327" height="14"/></a>
<a xlink:title="disorder"><rect fill="url(#disordered-hatch)" x="6162.801609" y="47" width="822.198391" height="14"/></a>
<a xlink:title="low_complexity"><rect fill="#C2DDFF" x="2556.340483" y="45" width="261.608579" height="18" filter="url(#ds)"/></a>
<a xlink:title="low_complexity"><rect fill="#C2DDFF" x="2930.067024" y="45" width="317.667560" height="18" filter="url(#ds)"/></a>
<a xlink:title="low_complexity"><rect fill="#C2DDFF" x="3770.951743" y="45" width="130.804290" height="18" filter="url(#ds)"/></a>
<a xlink:title="low_complexity"><rect fill="#C2DDFF" x="5938.565684" y="45" width="205.549598" height="18" filter="url(#ds)"/></a>
<g transform="translate(52.372654,42)"><a xlink:href="http://pfam.xfam.org/family/PF00169" xlink:title="PH domain"><rect fill="#2dcf00" x="0" y="0" width="1195.924933" height="24" filter="url(#ds)"/><text style="font-size:12px;font-family:sans-serif;fill:#ffffff;" text-anchor="middle" x="597.962466" y="16">PH domain</text></a></g>
<g transform="translate(4069.932976,42)"><a xlink:href="http://pfam.xfam.org/family/PF00017" xlink:title="SH2 domain"><rect fill="#ff5353" x="0" y="0" width="1438.847185" height="24" filter="url(#ds)"/><text style="font-size:12px;font-family:sans-serif;fill:#ffffff;" text-anchor="middle" x="719.423592" y="16">SH2 domain</text></a></g>
<g class="axis">
<line x1="15" x2="6985" y1="76" y2="76" stroke="#AAAAAA" /><line x1="15" x2="15" y1="76" y2="81" stroke="#AAAAAA" /><line x1="15.000000" x2="15.000000" y1="76" y2="81" stroke="#AAAAAA" /><text style="font-size:10px;font-family:sans-serif;fill:#000000;" text-anchor="middle" x="15.000000" y="91">0</text><line x1="52.372654" x2="52.372654" y1="76" y2="81" stroke="#AAAAAA" /><text style="font-size:10px;font-family:sans-serif;fill:#000000;" text-anchor="middle" x="52.372654" y="91">2</text><line x1="1248.297587" x2="1248.297587" y1="76" y2="81" stroke="#AAAAAA" /><text style="font-size:10px;font-family:sans-serif;fill:#000000;" text-anchor="middle" x="1248.297587" y="91">66</text><line x1="2556.340483" x2="2556.340483" y1="76" y2="81" stroke="#AAAAAA" /><text style="font-size:10px;font-family:sans-serif;fill:#000000;" text-anchor="middle" x="2556.340483" y="91">136</text><line x1="2817.949062" x2="2817.949062" y1="76" y2="81" stroke="#AAAAAA" /><text style="font-size:10px;font-family:sans-serif;fill:#000000;" text-anchor="middle" x="2817.949062" y="91">150</text><line x1="2930.067024" x2="2930.067024" y1="76" y2="81" stroke="#AAAAAA" /><text style="font-size:10px;font-family:sans-serif;fill:#000000;" text-anchor="middle" x="2930.067024" y="91">156</text><line x1="3247.734584" x2="3247.734584" y1="76" y2="81" stroke="#AAAAAA" /><text style="font-size:10px;font-family:sans-serif;fill:#000000;" text-anchor="middle" x="3247.734584" y="91">173</text><line x1="3341.166220" x2="3341.166220" y1="76" y2="81" stroke="#AAAAAA" /><text style="font-size:10px;font-family:sans-serif;fill:#000000;" text-anchor="middle" x="3341.166220" y="91">178</text><line x1="3770.951743" x2="3770.951743" y1="76" y2="81" stroke="#AAAAAA" /><text style="font-size:10px;font-family:sans-serif;fill:#000000;" text-anchor="middle" x="3770.951743" y="91">201</text><line x1="3901.756032" x2="3901.756032" y1="76" y2="81" stroke="#AAAAAA" /><text style="font-size:10px;font-family:sans-serif;fill:#000000;" text-anchor="middle" x="3901.756032" y="91">208</text><line x1="4069.932976" x2="4069.932976" y1="76" y2="81" stroke="#AAAAAA" /><text style="font-size:10px;font-family:sans-serif;fill:#000000;" text-anchor="middle" x="4069.932976" y="91">217</text><line x1="5508.780161" x2="5508.780161" y1="76" y2="81" stroke="#AAAAAA" /><text style="font-size:10px;font-family:sans-serif;fill:#000000;" text-anchor="middle" x="5508.780161" y="91">294</text><line x1="5938.565684" x2="5938.565684" y1="76" y2="81" stroke="#AAAAAA" /><text style="font-size:10px;font-family:sans-serif;fill:#000000;" text-anchor="middle" x="5938.565684" y="91">317</text><line x1="6144.115282" x2="6144.115282" y1="76" y2="81" stroke="#AAAAAA" /><text style="font-size:10px;font-family:sans-serif;fill:#000000;" text-anchor="middle" x="6144.115282" y="91">328</text><line x1="6985.000000" x2="6985.000000" y1="76" y2="81" stroke="#AAAAAA" /><text style="font-size:10px;font-family:sans-serif;fill:#000000;" text-anchor="middle" x="6985.000000" y="91">373</text></g>
</svg>
