<?xml version='1.0'?>
<svg xmlns="http://www.w3.org/2000/svg" xmlns:xlink="http://www.w3.org/1999/xlink" width="7000" height="173">
<defs>
  <filter id="ds" x="0" y="0">
    <feOffset in="SourceAlpha" dx="2" dy="2" />
    <feComponentTransfer><feFuncA type="linear" slope="0.2"/></feComponentTransfer>
    <feGaussianBlur result="blurOut" stdDeviation="1" />
    <feBlend in="SourceGraphic" in2="blurOut" mode="normal" />
  </filter>
  <pattern id="disordered-hatch" patternUnits="userSpaceOnUse" width="4" height="4">
    <path d="M-1,1 l2,-2 M0,4 l4,-4 M3,5 l2,-2" stroke="#000000" opacity="0.3" />
  </pattern>
</defs>
<line x1="121.683673" x2="121.683673" y1="81" y2="109" stroke="#BABDB6" stroke-width="2"/><a xlink:title="P12Rfs*82"><circle cx="121.683673" cy="81" r="9.819056" fill="#00ccff" /></a><line x1="139.464286" x2="139.464286" y1="81" y2="109" stroke="#BABDB6" stroke-width="2"/><a xlink:title="L14Pfs*83"><circle cx="139.464286" cy="81" r="10.923449" fill="#00ccff" /></a><line x1="175.025510" x2="175.025510" y1="81" y2="109" stroke="#BABDB6" stroke-width="2"/><a xlink:title="R18Q"><circle cx="175.025510" cy="81" r="6.194056" fill="#00ccff" /></a><line x1="281.709184" x2="281.709184" y1="52" y2="109" stroke="#BABDB6" stroke-width="2"/><a xlink:title="S30del1"><circle cx="281.709184" cy="52" r="9.617271" fill="#00ccff" /></a><line x1="281.709184" x2="281.709184" y1="81" y2="109" stroke="#BABDB6" stroke-width="2"/><a xlink:title="S30_E31insS"><circle cx="281.709184" cy="81" r="9.617271" fill="#00ccff" /></a><line x1="290.599490" x2="290.599490" y1="81" y2="109" stroke="#BABDB6" stroke-width="2"/><a xlink:title="E31del1"><circle cx="290.599490" cy="81" r="8.453078" fill="#00ccff" /></a><line x1="379.502551" x2="379.502551" y1="19" y2="109" stroke="#BABDB6" stroke-width="2"/><a xlink:title="S41del1"><circle cx="379.502551" cy="19" r="10.290764" fill="#00ccff" /></a><line x1="379.502551" x2="379.502551" y1="50" y2="109" stroke="#BABDB6" stroke-width="2"/><a xlink:title="S41_E42insSSS"><circle cx="379.502551" cy="50" r="10.290764" fill="#00ccff" /></a><line x1="379.502551" x2="379.502551" y1="81" y2="109" stroke="#BABDB6" stroke-width="2"/><a xlink:title="S41_E42insS"><circle cx="379.502551" cy="81" r="10.290764" fill="#00ccff" /></a><line x1="388.392857" x2="388.392857" y1="59" y2="109" stroke="#BABDB6" stroke-width="2"/><a xlink:title="E42_G44del3"><circle cx="388.392857" cy="59" r="8.929597" fill="#00ccff" /></a><line x1="388.392857" x2="388.392857" y1="81" y2="109" stroke="#BABDB6" stroke-width="2"/><a xlink:title="E42del1"><circle cx="388.392857" cy="81" r="7.176490" fill="#00ccff" /></a><line x1="432.844388" x2="432.844388" y1="81" y2="109" stroke="#BABDB6" stroke-width="2"/><a xlink:title="S47_R48delinsR"><circle cx="432.844388" cy="81" r="8.172527" fill="#00ccff" /></a><line x1="1277.423469" x2="1277.423469" y1="81" y2="109" stroke="#BABDB6" stroke-width="2"/><a xlink:title="G142S"><circle cx="1277.423469" cy="81" r="5.929215" fill="#00ccff" /></a><line x1="1588.584184" x2="1588.584184" y1="81" y2="109" stroke="#BABDB6" stroke-width="2"/><a xlink:title="E177K"><circle cx="1588.584184" cy="81" r="4.000000" fill="#00ccff" /></a><line x1="1864.183673" x2="1864.183673" y1="81" y2="109" stroke="#BABDB6" stroke-width="2"/><a xlink:title="K208E"><circle cx="1864.183673" cy="81" r="4.000000" fill="#00ccff" /></a><line x1="2113.112245" x2="2113.112245" y1="81" y2="109" stroke="#BABDB6" stroke-width="2"/><a xlink:title="R236Q"><circle cx="2113.112245" cy="81" r="6.305435" fill="#00ccff" /></a><line x1="2175.344388" x2="2175.344388" y1="81" y2="109" stroke="#BABDB6" stroke-width="2"/><a xlink:title="K243M"><circle cx="2175.344388" cy="81" r="4.000000" fill="#00ccff" /></a><line x1="2290.918367" x2="2290.918367" y1="81" y2="109" stroke="#BABDB6" stroke-width="2"/><a xlink:title="K256N"><circle cx="2290.918367" cy="81" r="5.074545" fill="#00ccff" /></a><line x1="2495.395408" x2="2495.395408" y1="81" y2="109" stroke="#BABDB6" stroke-width="2"/><a xlink:title="R279H"><circle cx="2495.395408" cy="81" r="4.000000" fill="#00ccff" /></a><line x1="2593.188776" x2="2593.188776" y1="81" y2="109" stroke="#BABDB6" stroke-width="2"/><a xlink:title="G290S"><circle cx="2593.188776" cy="81" r="4.709640" fill="#00ccff" /></a><line x1="2877.678571" x2="2877.678571" y1="81" y2="109" stroke="#BABDB6" stroke-width="2"/><a xlink:title="V322I"><circle cx="2877.678571" cy="81" r="4.000000" fill="#00ccff" /></a><line x1="2886.568878" x2="2886.568878" y1="81" y2="109" stroke="#BABDB6" stroke-width="2"/><a xlink:title="R323Q"><circle cx="2886.568878" cy="81" r="8.258503" fill="#00ccff" /></a><line x1="3153.278061" x2="3153.278061" y1="81" y2="109" stroke="#BABDB6" stroke-width="2"/><a xlink:title="V353M"><circle cx="3153.278061" cy="81" r="6.498070" fill="#00ccff" /></a><line x1="3242.181122" x2="3242.181122" y1="81" y2="109" stroke="#BABDB6" stroke-width="2"/><a xlink:title="K363N"><circle cx="3242.181122" cy="81" r="4.000000" fill="#00ccff" /></a><line x1="3357.755102" x2="3357.755102" y1="81" y2="109" stroke="#BABDB6" stroke-width="2"/><a xlink:title="R376W"><circle cx="3357.755102" cy="81" r="4.000000" fill="#00ccff" /></a><line x1="3402.206633" x2="3402.206633" y1="81" y2="109" stroke="#BABDB6" stroke-width="2"/><a xlink:title="P381L"><circle cx="3402.206633" cy="81" r="4.000000" fill="#00ccff" /></a><line x1="3446.658163" x2="3446.658163" y1="81" y2="109" stroke="#BABDB6" stroke-width="2"/><a xlink:title="R386W"><circle cx="3446.658163" cy="81" r="4.000000" fill="#00ccff" /></a><line x1="3677.806122" x2="3677.806122" y1="81" y2="109" stroke="#BABDB6" stroke-width="2"/><a xlink:title="V412M"><circle cx="3677.806122" cy="81" r="4.000000" fill="#00ccff" /></a><line x1="3855.612245" x2="3855.612245" y1="81" y2="109" stroke="#BABDB6" stroke-width="2"/><a xlink:title="S432C"><circle cx="3855.612245" cy="81" r="4.000000" fill="#00ccff" /></a><line x1="3953.405612" x2="3953.405612" y1="81" y2="109" stroke="#BABDB6" stroke-width="2"/><a xlink:title="T443R"><circle cx="3953.405612" cy="81" r="4.000000" fill="#00ccff" /></a><line x1="4024.528061" x2="4024.528061" y1="81" y2="109" stroke="#BABDB6" stroke-width="2"/><a xlink:title="E451K"><circle cx="4024.528061" cy="81" r="4.000000" fill="#00ccff" /></a><line x1="4051.198980" x2="4051.198980" y1="81" y2="109" stroke="#BABDB6" stroke-width="2"/><a xlink:title="T454M"><circle cx="4051.198980" cy="81" r="4.000000" fill="#00ccff" /></a><line x1="4095.650510" x2="4095.650510" y1="81" y2="109" stroke="#BABDB6" stroke-width="2"/><a xlink:title="R459C"><circle cx="4095.650510" cy="81" r="4.000000" fill="#00ccff" /></a><line x1="4122.321429" x2="4122.321429" y1="81" y2="109" stroke="#BABDB6" stroke-width="2"/><a xlink:title="S462N"><circle cx="4122.321429" cy="81" r="4.000000" fill="#00ccff" /></a><line x1="4184.553571" x2="4184.553571" y1="81" y2="109" stroke="#BABDB6" stroke-width="2"/><a xlink:title="S469L"><circle cx="4184.553571" cy="81" r="4.000000" fill="#00ccff" /></a><line x1="4371.250000" x2="4371.250000" y1="81" y2="109" stroke="#BABDB6" stroke-width="2"/><a xlink:title="R490Q"><circle cx="4371.250000" cy="81" r="4.000000" fill="#00ccff" /></a><line x1="4380.140306" x2="4380.140306" y1="81" y2="109" stroke="#BABDB6" stroke-width="2"/><a xlink:title="A491T"><circle cx="4380.140306" cy="81" r="4.000000" fill="#00ccff" /></a><line x1="4397.920918" x2="4397.920918" y1="81" y2="109" stroke="#BABDB6" stroke-width="2"/><a xlink:title="R493W"><circle cx="4397.920918" cy="81" r="4.000000" fill="#00ccff" /></a><line x1="4477.933673" x2="4477.933673" y1="69" y2="109" stroke="#BABDB6" stroke-width="2"/><a xlink:title="R502Q"><circle cx="4477.933673" cy="69" r="4.000000" fill="#00ccff" /></a><line x1="4477.933673" x2="4477.933673" y1="81" y2="109" stroke="#BABDB6" stroke-width="2"/><a xlink:title="R502W"><circle cx="4477.933673" cy="81" r="4.000000" fill="#00ccff" /></a><line x1="4486.823980" x2="4486.823980" y1="81" y2="109" stroke="#BABDB6" stroke-width="2"/><a xlink:title="R503H"><circle cx="4486.823980" cy="81" r="9.649939" fill="#00ccff" /></a><line x1="4522.385204" x2="4522.385204" y1="81" y2="109" stroke="#BABDB6" stroke-width="2"/><a xlink:title="A507V"><circle cx="4522.385204" cy="81" r="4.000000" fill="#00ccff" /></a><line x1="4584.617347" x2="4584.617347" y1="81" y2="109" stroke="#BABDB6" stroke-width="2"/><a xlink:title="V514M"><circle cx="4584.617347" cy="81" r="4.709640" fill="#00ccff" /></a><line x1="4620.178571" x2="4620.178571" y1="66" y2="109" stroke="#BABDB6" stroke-width="2"/><a xlink:title="R518H"><circle cx="4620.178571" cy="66" r="4.000000" fill="#00ccff" /></a><line x1="4620.178571" x2="4620.178571" y1="81" y2="109" stroke="#BABDB6" stroke-width="2"/><a xlink:title="R518C"><circle cx="4620.178571" cy="81" r="5.074545" fill="#00ccff" /></a><line x1="4700.191327" x2="4700.191327" y1="81" y2="109" stroke="#BABDB6" stroke-width="2"/><a xlink:title="V527L"><circle cx="4700.191327" cy="81" r="4.000000" fill="#00ccff" /></a><line x1="4922.448980" x2="4922.448980" y1="81" y2="109" stroke="#BABDB6" stroke-width="2"/><a xlink:title="F552L"><circle cx="4922.448980" cy="81" r="4.000000" fill="#00ccff" /></a><line x1="5286.951531" x2="5286.951531" y1="81" y2="109" stroke="#BABDB6" stroke-width="2"/><a xlink:title="G593_G595delinsG"><circle cx="5286.951531" cy="81" r="11.130069" fill="#00ccff" /></a><line x1="6620.497449" x2="6620.497449" y1="81" y2="109" stroke="#BABDB6" stroke-width="2"/><a xlink:title="S743W"><circle cx="6620.497449" cy="81" r="4.000000" fill="#ff0000" /></a><a xlink:title="F5GZS7_HUMAN, Neuregulin-2 (784aa)"><rect fill="#BABDB6" x="15" y="109" width="6970" height="14"/></a><a xlink:title="disorder"><rect fill="url(#disordered-hatch)" x="23.890306" y="109" width="88.903061" height="14"/></a>
<a xlink:title="disorder"><rect fill="url(#disordered-hatch)" x="148.354592" y="109" width="720.114796" height="14"/></a>
<a xlink:title="disorder"><rect fill="url(#disordered-hatch)" x="1224.081633" y="109" width="168.915816" height="14"/></a>
<a xlink:title="disorder"><rect fill="url(#disordered-hatch)" x="2157.563776" y="109" width="35.561224" height="14"/></a>
<a xlink:title="disorder"><rect fill="url(#disordered-hatch)" x="2273.137755" y="109" width="17.780612" height="14"/></a>
<a xlink:title="disorder"><rect fill="url(#disordered-hatch)" x="2522.066327" y="109" width="17.780612" height="14"/></a>
<a xlink:title="disorder"><rect fill="url(#disordered-hatch)" x="3322.193878" y="109" width="302.270408" height="14"/></a>
<a xlink:title="disorder"><rect fill="url(#disordered-hatch)" x="3686.696429" y="109" width="17.780612" height="14"/></a>
<a xlink:title="disorder"><rect fill="url(#disordered-hatch)" x="3731.147959" y="109" width="26.670918" height="14"/></a>
<a xlink:title="disorder"><rect fill="url(#disordered-hatch)" x="3775.599490" y="109" width="35.561224" height="14"/></a>
<a xlink:title="disorder"><rect fill="url(#disordered-hatch)" x="3837.831633" y="109" width="302.270408" height="14"/></a>
<a xlink:title="disorder"><rect fill="url(#disordered-hatch)" x="4157.882653" y="109" width="71.122449" height="14"/></a>
<a xlink:title="disorder"><rect fill="url(#disordered-hatch)" x="4317.908163" y="109" width="8.890306" height="14"/></a>
<a xlink:title="disorder"><rect fill="url(#disordered-hatch)" x="4389.030612" y="109" width="346.721939" height="14"/></a>
<a xlink:title="disorder"><rect fill="url(#disordered-hatch)" x="4922.448980" y="109" width="80.012755" height="14"/></a>
<a xlink:title="disorder"><rect fill="url(#disordered-hatch)" x="5020.242347" y="109" width="462.295918" height="14"/></a>
<a xlink:title="disorder"><rect fill="url(#disordered-hatch)" x="6878.316327" y="109" width="106.683673" height="14"/></a>
<a xlink:title="transmembrane"><rect fill="#7FFFFF" x="3037.704082" y="107" width="195.586735" height="18" filter="url(#ds)"/></a>
<a xlink:title="low_complexity"><rect fill="#7FFFFF" x="192.806122" y="107" width="711.224490" height="18" filter="url(#ds)"/></a>
<a xlink:title="low_complexity"><rect fill="#7FFFFF" x="3082.155612" y="107" width="133.354592" height="18" filter="url(#ds)"/></a>
<a xlink:title="low_complexity"><rect fill="#7FFFFF" x="3820.051020" y="107" width="106.683673" height="18" filter="url(#ds)"/></a>
<a xlink:title="low_complexity"><rect fill="#7FFFFF" x="4353.469388" y="107" width="151.135204" height="18" filter="url(#ds)"/></a>
<a xlink:title="low_complexity"><rect fill="#7FFFFF" x="5215.829082" y="107" width="151.135204" height="18" filter="url(#ds)"/></a>
<a xlink:title="low_complexity"><rect fill="#7FFFFF" x="5829.260204" y="107" width="195.586735" height="18" filter="url(#ds)"/></a>
<a xlink:title="low_complexity"><rect fill="#7FFFFF" x="6095.969388" y="107" width="355.612245" height="18" filter="url(#ds)"/></a>
<a xlink:title="low_complexity"><rect fill="#C2DDFF" x="6851.645408" y="107" width="17.780612" height="18" filter="url(#ds)"/></a>
<a xlink:title="disorder"><rect fill="url(#disordered-hatch)" x="6851.645408" y="109" width="-8.890306" height="14"/></a>
<g transform="translate(2130.892857,104)"><a xlink:href="http://pfam.xfam.org/family/PF07679" xlink:title="Immunoglobulin I-set domain"><rect fill="#2dcf00" x="0" y="0" width="800.127551" height="24" filter="url(#ds)"/><text style="font-size:12px;font-family:sans-serif;fill:#ffffff;" text-anchor="middle" x="400.063776" y="16">Immunoglobulin I-set domain</text></a></g>
<g transform="translate(2966.581633,104)"><a xlink:href="http://pfam.xfam.org/family/PF02158" xlink:title="Neuregulin family"><rect fill="#ff5353" x="0" y="0" width="3876.173469" height="24" filter="url(#ds)"/><text style="font-size:12px;font-family:sans-serif;fill:#ffffff;" text-anchor="middle" x="1938.086735" y="16">Neuregulin family</text></a></g>
<g class="axis">
<line x1="15" x2="6985" y1="138" y2="138" stroke="#AAAAAA" /><line x1="15" x2="15" y1="138" y2="143" stroke="#AAAAAA" /><line x1="15.000000" x2="15.000000" y1="138" y2="143" stroke="#AAAAAA" /><text style="font-size:10px;font-family:sans-serif;fill:#000000;" text-anchor="middle" x="15.000000" y="153">0</text><line x1="121.683673" x2="121.683673" y1="138" y2="143" stroke="#AAAAAA" /><text style="font-size:10px;font-family:sans-serif;fill:#000000;" text-anchor="middle" x="121.683673" y="153">12</text><line x1="139.464286" x2="139.464286" y1="138" y2="143" stroke="#AAAAAA" /><text style="font-size:10px;font-family:sans-serif;fill:#000000;" text-anchor="middle" x="139.464286" y="153">14</text><line x1="175.025510" x2="175.025510" y1="138" y2="143" stroke="#AAAAAA" /><text style="font-size:10px;font-family:sans-serif;fill:#000000;" text-anchor="middle" x="175.025510" y="153">18</text><line x1="192.806122" x2="192.806122" y1="138" y2="143" stroke="#AAAAAA" /><text style="font-size:10px;font-family:sans-serif;fill:#000000;" text-anchor="middle" x="192.806122" y="153">20</text><line x1="281.709184" x2="281.709184" y1="138" y2="143" stroke="#AAAAAA" /><text style="font-size:10px;font-family:sans-serif;fill:#000000;" text-anchor="middle" x="281.709184" y="153">30</text><line x1="379.502551" x2="379.502551" y1="138" y2="143" stroke="#AAAAAA" /><text style="font-size:10px;font-family:sans-serif;fill:#000000;" text-anchor="middle" x="379.502551" y="153">41</text><line x1="432.844388" x2="432.844388" y1="138" y2="143" stroke="#AAAAAA" /><text style="font-size:10px;font-family:sans-serif;fill:#000000;" text-anchor="middle" x="432.844388" y="153">47</text><line x1="904.030612" x2="904.030612" y1="138" y2="143" stroke="#AAAAAA" /><text style="font-size:10px;font-family:sans-serif;fill:#000000;" text-anchor="middle" x="904.030612" y="153">100</text><line x1="1277.423469" x2="1277.423469" y1="138" y2="143" stroke="#AAAAAA" /><text style="font-size:10px;font-family:sans-serif;fill:#000000;" text-anchor="middle" x="1277.423469" y="153">142</text><line x1="1588.584184" x2="1588.584184" y1="138" y2="143" stroke="#AAAAAA" /><text style="font-size:10px;font-family:sans-serif;fill:#000000;" text-anchor="middle" x="1588.584184" y="153">177</text><line x1="1864.183673" x2="1864.183673" y1="138" y2="143" stroke="#AAAAAA" /><text style="font-size:10px;font-family:sans-serif;fill:#000000;" text-anchor="middle" x="1864.183673" y="153">208</text><line x1="2113.112245" x2="2113.112245" y1="138" y2="143" stroke="#AAAAAA" /><text style="font-size:10px;font-family:sans-serif;fill:#000000;" text-anchor="middle" x="2113.112245" y="153">236</text><line x1="2130.892857" x2="2130.892857" y1="138" y2="143" stroke="#AAAAAA" /><text style="font-size:10px;font-family:sans-serif;fill:#000000;" text-anchor="middle" x="2130.892857" y="153">238</text><line x1="2175.344388" x2="2175.344388" y1="138" y2="143" stroke="#AAAAAA" /><text style="font-size:10px;font-family:sans-serif;fill:#000000;" text-anchor="middle" x="2175.344388" y="153">243</text><line x1="2290.918367" x2="2290.918367" y1="138" y2="143" stroke="#AAAAAA" /><text style="font-size:10px;font-family:sans-serif;fill:#000000;" text-anchor="middle" x="2290.918367" y="153">256</text><line x1="2495.395408" x2="2495.395408" y1="138" y2="143" stroke="#AAAAAA" /><text style="font-size:10px;font-family:sans-serif;fill:#000000;" text-anchor="middle" x="2495.395408" y="153">279</text><line x1="2593.188776" x2="2593.188776" y1="138" y2="143" stroke="#AAAAAA" /><text style="font-size:10px;font-family:sans-serif;fill:#000000;" text-anchor="middle" x="2593.188776" y="153">290</text><line x1="2877.678571" x2="2877.678571" y1="138" y2="143" stroke="#AAAAAA" /><text style="font-size:10px;font-family:sans-serif;fill:#000000;" text-anchor="middle" x="2877.678571" y="153">322</text><line x1="2931.020408" x2="2931.020408" y1="138" y2="143" stroke="#AAAAAA" /><text style="font-size:10px;font-family:sans-serif;fill:#000000;" text-anchor="middle" x="2931.020408" y="153">328</text><line x1="2966.581633" x2="2966.581633" y1="138" y2="143" stroke="#AAAAAA" /><text style="font-size:10px;font-family:sans-serif;fill:#000000;" text-anchor="middle" x="2966.581633" y="153">332</text><line x1="3037.704082" x2="3037.704082" y1="138" y2="143" stroke="#AAAAAA" /><text style="font-size:10px;font-family:sans-serif;fill:#000000;" text-anchor="middle" x="3037.704082" y="153">340</text><line x1="3082.155612" x2="3082.155612" y1="138" y2="143" stroke="#AAAAAA" /><text style="font-size:10px;font-family:sans-serif;fill:#000000;" text-anchor="middle" x="3082.155612" y="153">345</text><line x1="3153.278061" x2="3153.278061" y1="138" y2="143" stroke="#AAAAAA" /><text style="font-size:10px;font-family:sans-serif;fill:#000000;" text-anchor="middle" x="3153.278061" y="153">353</text><line x1="3215.510204" x2="3215.510204" y1="138" y2="143" stroke="#AAAAAA" /><text style="font-size:10px;font-family:sans-serif;fill:#000000;" text-anchor="middle" x="3215.510204" y="153">360</text><line x1="3242.181122" x2="3242.181122" y1="138" y2="143" stroke="#AAAAAA" /><text style="font-size:10px;font-family:sans-serif;fill:#000000;" text-anchor="middle" x="3242.181122" y="153">363</text><line x1="3357.755102" x2="3357.755102" y1="138" y2="143" stroke="#AAAAAA" /><text style="font-size:10px;font-family:sans-serif;fill:#000000;" text-anchor="middle" x="3357.755102" y="153">376</text><line x1="3402.206633" x2="3402.206633" y1="138" y2="143" stroke="#AAAAAA" /><text style="font-size:10px;font-family:sans-serif;fill:#000000;" text-anchor="middle" x="3402.206633" y="153">381</text><line x1="3446.658163" x2="3446.658163" y1="138" y2="143" stroke="#AAAAAA" /><text style="font-size:10px;font-family:sans-serif;fill:#000000;" text-anchor="middle" x="3446.658163" y="153">386</text><line x1="3677.806122" x2="3677.806122" y1="138" y2="143" stroke="#AAAAAA" /><text style="font-size:10px;font-family:sans-serif;fill:#000000;" text-anchor="middle" x="3677.806122" y="153">412</text><line x1="3820.051020" x2="3820.051020" y1="138" y2="143" stroke="#AAAAAA" /><text style="font-size:10px;font-family:sans-serif;fill:#000000;" text-anchor="middle" x="3820.051020" y="153">428</text><line x1="3855.612245" x2="3855.612245" y1="138" y2="143" stroke="#AAAAAA" /><text style="font-size:10px;font-family:sans-serif;fill:#000000;" text-anchor="middle" x="3855.612245" y="153">432</text><line x1="3926.734694" x2="3926.734694" y1="138" y2="143" stroke="#AAAAAA" /><text style="font-size:10px;font-family:sans-serif;fill:#000000;" text-anchor="middle" x="3926.734694" y="153">440</text><line x1="3953.405612" x2="3953.405612" y1="138" y2="143" stroke="#AAAAAA" /><text style="font-size:10px;font-family:sans-serif;fill:#000000;" text-anchor="middle" x="3953.405612" y="153">443</text><line x1="4024.528061" x2="4024.528061" y1="138" y2="143" stroke="#AAAAAA" /><text style="font-size:10px;font-family:sans-serif;fill:#000000;" text-anchor="middle" x="4024.528061" y="153">451</text><line x1="4051.198980" x2="4051.198980" y1="138" y2="143" stroke="#AAAAAA" /><text style="font-size:10px;font-family:sans-serif;fill:#000000;" text-anchor="middle" x="4051.198980" y="153">454</text><line x1="4095.650510" x2="4095.650510" y1="138" y2="143" stroke="#AAAAAA" /><text style="font-size:10px;font-family:sans-serif;fill:#000000;" text-anchor="middle" x="4095.650510" y="153">459</text><line x1="4122.321429" x2="4122.321429" y1="138" y2="143" stroke="#AAAAAA" /><text style="font-size:10px;font-family:sans-serif;fill:#000000;" text-anchor="middle" x="4122.321429" y="153">462</text><line x1="4184.553571" x2="4184.553571" y1="138" y2="143" stroke="#AAAAAA" /><text style="font-size:10px;font-family:sans-serif;fill:#000000;" text-anchor="middle" x="4184.553571" y="153">469</text><line x1="4371.250000" x2="4371.250000" y1="138" y2="143" stroke="#AAAAAA" /><text style="font-size:10px;font-family:sans-serif;fill:#000000;" text-anchor="middle" x="4371.250000" y="153">490</text><line x1="4397.920918" x2="4397.920918" y1="138" y2="143" stroke="#AAAAAA" /><text style="font-size:10px;font-family:sans-serif;fill:#000000;" text-anchor="middle" x="4397.920918" y="153">493</text><line x1="4477.933673" x2="4477.933673" y1="138" y2="143" stroke="#AAAAAA" /><text style="font-size:10px;font-family:sans-serif;fill:#000000;" text-anchor="middle" x="4477.933673" y="153">502</text><line x1="4522.385204" x2="4522.385204" y1="138" y2="143" stroke="#AAAAAA" /><text style="font-size:10px;font-family:sans-serif;fill:#000000;" text-anchor="middle" x="4522.385204" y="153">507</text><line x1="4584.617347" x2="4584.617347" y1="138" y2="143" stroke="#AAAAAA" /><text style="font-size:10px;font-family:sans-serif;fill:#000000;" text-anchor="middle" x="4584.617347" y="153">514</text><line x1="4620.178571" x2="4620.178571" y1="138" y2="143" stroke="#AAAAAA" /><text style="font-size:10px;font-family:sans-serif;fill:#000000;" text-anchor="middle" x="4620.178571" y="153">518</text><line x1="4700.191327" x2="4700.191327" y1="138" y2="143" stroke="#AAAAAA" /><text style="font-size:10px;font-family:sans-serif;fill:#000000;" text-anchor="middle" x="4700.191327" y="153">527</text><line x1="4922.448980" x2="4922.448980" y1="138" y2="143" stroke="#AAAAAA" /><text style="font-size:10px;font-family:sans-serif;fill:#000000;" text-anchor="middle" x="4922.448980" y="153">552</text><line x1="5215.829082" x2="5215.829082" y1="138" y2="143" stroke="#AAAAAA" /><text style="font-size:10px;font-family:sans-serif;fill:#000000;" text-anchor="middle" x="5215.829082" y="153">585</text><line x1="5286.951531" x2="5286.951531" y1="138" y2="143" stroke="#AAAAAA" /><text style="font-size:10px;font-family:sans-serif;fill:#000000;" text-anchor="middle" x="5286.951531" y="153">593</text><line x1="5366.964286" x2="5366.964286" y1="138" y2="143" stroke="#AAAAAA" /><text style="font-size:10px;font-family:sans-serif;fill:#000000;" text-anchor="middle" x="5366.964286" y="153">602</text><line x1="5829.260204" x2="5829.260204" y1="138" y2="143" stroke="#AAAAAA" /><text style="font-size:10px;font-family:sans-serif;fill:#000000;" text-anchor="middle" x="5829.260204" y="153">654</text><line x1="6024.846939" x2="6024.846939" y1="138" y2="143" stroke="#AAAAAA" /><text style="font-size:10px;font-family:sans-serif;fill:#000000;" text-anchor="middle" x="6024.846939" y="153">676</text><line x1="6095.969388" x2="6095.969388" y1="138" y2="143" stroke="#AAAAAA" /><text style="font-size:10px;font-family:sans-serif;fill:#000000;" text-anchor="middle" x="6095.969388" y="153">684</text><line x1="6451.581633" x2="6451.581633" y1="138" y2="143" stroke="#AAAAAA" /><text style="font-size:10px;font-family:sans-serif;fill:#000000;" text-anchor="middle" x="6451.581633" y="153">724</text><line x1="6620.497449" x2="6620.497449" y1="138" y2="143" stroke="#AAAAAA" /><text style="font-size:10px;font-family:sans-serif;fill:#000000;" text-anchor="middle" x="6620.497449" y="153">743</text><line x1="6842.755102" x2="6842.755102" y1="138" y2="143" stroke="#AAAAAA" /><text style="font-size:10px;font-family:sans-serif;fill:#000000;" text-anchor="middle" x="6842.755102" y="153">768</text><line x1="6869.426020" x2="6869.426020" y1="138" y2="143" stroke="#AAAAAA" /><text style="font-size:10px;font-family:sans-serif;fill:#000000;" text-anchor="middle" x="6869.426020" y="153">771</text><line x1="6985.000000" x2="6985.000000" y1="138" y2="143" stroke="#AAAAAA" /><text style="font-size:10px;font-family:sans-serif;fill:#000000;" text-anchor="middle" x="6985.000000" y="153">784</text></g>
</svg>
