<?xml version='1.0'?>
<svg xmlns="http://www.w3.org/2000/svg" xmlns:xlink="http://www.w3.org/1999/xlink" width="7000" height="111">
<defs>
  <filter id="ds" x="0" y="0">
    <feOffset in="SourceAlpha" dx="2" dy="2" />
    <feComponentTransfer><feFuncA type="linear" slope="0.2"/></feComponentTransfer>
    <feGaussianBlur result="blurOut" stdDeviation="1" />
    <feBlend in="SourceGraphic" in2="blurOut" mode="normal" />
  </filter>
  <pattern id="disordered-hatch" patternUnits="userSpaceOnUse" width="4" height="4">
    <path d="M-1,1 l2,-2 M0,4 l4,-4 M3,5 l2,-2" stroke="#000000" opacity="0.3" />
  </pattern>
</defs>
<line x1="6362.678571" x2="6362.678571" y1="19" y2="47" stroke="#BABDB6" stroke-width="2"/><a xlink:title="R153H"><circle cx="6362.678571" cy="19" r="4.000000" fill="#ff0000" /></a><a xlink:title="F5H637_HUMAN, Peroxisomal targeting signal 1 receptor (Fragment) (168aa)"><rect fill="#BABDB6" x="15" y="47" width="6970" height="14"/></a><a xlink:title="disorder"><rect fill="url(#disordered-hatch)" x="720.297619" y="47" width="41.488095" height="14"/></a>
<a xlink:title="disorder"><rect fill="url(#disordered-hatch)" x="927.738095" y="47" width="41.488095" height="14"/></a>
<a xlink:title="disorder"><rect fill="url(#disordered-hatch)" x="1052.202381" y="47" width="41.488095" height="14"/></a>
<a xlink:title="disorder"><rect fill="url(#disordered-hatch)" x="1176.666667" y="47" width="1120.178571" height="14"/></a>
<a xlink:title="disorder"><rect fill="url(#disordered-hatch)" x="2836.190476" y="47" width="82.976190" height="14"/></a>
<a xlink:title="disorder"><rect fill="url(#disordered-hatch)" x="3085.119048" y="47" width="41.488095" height="14"/></a>
<a xlink:title="disorder"><rect fill="url(#disordered-hatch)" x="3251.071429" y="47" width="41.488095" height="14"/></a>
<a xlink:title="disorder"><rect fill="url(#disordered-hatch)" x="3541.488095" y="47" width="82.976190" height="14"/></a>
<a xlink:title="disorder"><rect fill="url(#disordered-hatch)" x="3873.392857" y="47" width="580.833333" height="14"/></a>
<a xlink:title="disorder"><rect fill="url(#disordered-hatch)" x="4578.690476" y="47" width="41.488095" height="14"/></a>
<a xlink:title="disorder"><rect fill="url(#disordered-hatch)" x="5408.452381" y="47" width="124.464286" height="14"/></a>
<a xlink:title="disorder"><rect fill="url(#disordered-hatch)" x="5615.892857" y="47" width="41.488095" height="14"/></a>
<a xlink:title="disorder"><rect fill="url(#disordered-hatch)" x="6487.142857" y="47" width="497.857143" height="14"/></a>
<g class="axis">
<line x1="15" x2="6985" y1="76" y2="76" stroke="#AAAAAA" /><line x1="15" x2="15" y1="76" y2="81" stroke="#AAAAAA" /><line x1="15.000000" x2="15.000000" y1="76" y2="81" stroke="#AAAAAA" /><text style="font-size:10px;font-family:sans-serif;fill:#000000;" text-anchor="middle" x="15.000000" y="91">0</text><line x1="6362.678571" x2="6362.678571" y1="76" y2="81" stroke="#AAAAAA" /><text style="font-size:10px;font-family:sans-serif;fill:#000000;" text-anchor="middle" x="6362.678571" y="91">153</text><line x1="6985.000000" x2="6985.000000" y1="76" y2="81" stroke="#AAAAAA" /><text style="font-size:10px;font-family:sans-serif;fill:#000000;" text-anchor="middle" x="6985.000000" y="91">168</text></g>
</svg>
