<?xml version='1.0'?>
<svg xmlns="http://www.w3.org/2000/svg" xmlns:xlink="http://www.w3.org/1999/xlink" width="7000" height="111">
<defs>
  <filter id="ds" x="0" y="0">
    <feOffset in="SourceAlpha" dx="2" dy="2" />
    <feComponentTransfer><feFuncA type="linear" slope="0.2"/></feComponentTransfer>
    <feGaussianBlur result="blurOut" stdDeviation="1" />
    <feBlend in="SourceGraphic" in2="blurOut" mode="normal" />
  </filter>
  <pattern id="disordered-hatch" patternUnits="userSpaceOnUse" width="4" height="4">
    <path d="M-1,1 l2,-2 M0,4 l4,-4 M3,5 l2,-2" stroke="#000000" opacity="0.3" />
  </pattern>
</defs>
<line x1="6395.359138" x2="6395.359138" y1="19" y2="47" stroke="#BABDB6" stroke-width="2"/><a xlink:title="R1147L"><circle cx="6395.359138" cy="19" r="4.000000" fill="#ff0000" /></a><a xlink:title="F8W6W8_HUMAN, Regulating synaptic membrane exocytosis protein 2 (Fragment) (1253aa)"><rect fill="#BABDB6" x="15" y="47" width="6970" height="14"/></a><a xlink:title="disorder"><rect fill="url(#disordered-hatch)" x="1850.674381" y="47" width="22.250599" height="14"/></a>
<a xlink:title="disorder"><rect fill="url(#disordered-hatch)" x="1956.364725" y="47" width="5.562650" height="14"/></a>
<a xlink:title="disorder"><rect fill="url(#disordered-hatch)" x="1973.052674" y="47" width="16.687949" height="14"/></a>
<a xlink:title="disorder"><rect fill="url(#disordered-hatch)" x="2000.865922" y="47" width="16.687949" height="14"/></a>
<a xlink:title="disorder"><rect fill="url(#disordered-hatch)" x="2056.492418" y="47" width="66.751796" height="14"/></a>
<a xlink:title="disorder"><rect fill="url(#disordered-hatch)" x="2284.561053" y="47" width="22.250599" height="14"/></a>
<a xlink:title="disorder"><rect fill="url(#disordered-hatch)" x="2751.823623" y="47" width="16.687949" height="14"/></a>
<a xlink:title="disorder"><rect fill="url(#disordered-hatch)" x="2779.636872" y="47" width="16.687949" height="14"/></a>
<a xlink:title="disorder"><rect fill="url(#disordered-hatch)" x="2851.951317" y="47" width="72.314445" height="14"/></a>
<a xlink:title="disorder"><rect fill="url(#disordered-hatch)" x="3291.400638" y="47" width="33.375898" height="14"/></a>
<a xlink:title="disorder"><rect fill="url(#disordered-hatch)" x="3697.474062" y="47" width="11.125299" height="14"/></a>
<a xlink:title="disorder"><rect fill="url(#disordered-hatch)" x="3730.849960" y="47" width="150.191540" height="14"/></a>
<a xlink:title="disorder"><rect fill="url(#disordered-hatch)" x="3914.417398" y="47" width="5.562650" height="14"/></a>
<a xlink:title="disorder"><rect fill="url(#disordered-hatch)" x="4988.008779" y="47" width="467.262570" height="14"/></a>
<a xlink:title="disorder"><rect fill="url(#disordered-hatch)" x="5777.905028" y="47" width="300.383081" height="14"/></a>
<a xlink:title="disorder"><rect fill="url(#disordered-hatch)" x="6189.541101" y="47" width="127.940942" height="14"/></a>
<a xlink:title="disorder"><rect fill="url(#disordered-hatch)" x="6334.169992" y="47" width="116.815642" height="14"/></a>
<a xlink:title="disorder"><rect fill="url(#disordered-hatch)" x="6462.110934" y="47" width="5.562650" height="14"/></a>
<a xlink:title="disorder"><rect fill="url(#disordered-hatch)" x="6712.430168" y="47" width="5.562650" height="14"/></a>
<a xlink:title="low_complexity"><rect fill="#7FFFFF" x="287.569832" y="45" width="83.439745" height="18" filter="url(#ds)"/></a>
<a xlink:title="low_complexity"><rect fill="#C2DDFF" x="699.205906" y="45" width="116.815642" height="18" filter="url(#ds)"/></a>
<a xlink:title="low_complexity"><rect fill="#C2DDFF" x="1689.357542" y="45" width="72.314445" height="18" filter="url(#ds)"/></a>
<a xlink:title="low_complexity"><rect fill="#C2DDFF" x="1789.485235" y="45" width="55.626496" height="18" filter="url(#ds)"/></a>
<a xlink:title="low_complexity"><rect fill="#C2DDFF" x="1878.487630" y="45" width="72.314445" height="18" filter="url(#ds)"/></a>
<a xlink:title="low_complexity"><rect fill="#C2DDFF" x="2801.887470" y="45" width="44.501197" height="18" filter="url(#ds)"/></a>
<a xlink:title="low_complexity"><rect fill="#7FFFFF" x="3274.712690" y="45" width="61.189146" height="18" filter="url(#ds)"/></a>
<a xlink:title="low_complexity"><rect fill="#C2DDFF" x="4732.126895" y="45" width="89.002394" height="18" filter="url(#ds)"/></a>
<a xlink:title="low_complexity"><rect fill="#C2DDFF" x="4904.569034" y="45" width="77.877095" height="18" filter="url(#ds)"/></a>
<a xlink:title="low_complexity"><rect fill="#7FFFFF" x="5544.273743" y="45" width="172.442139" height="18" filter="url(#ds)"/></a>
<a xlink:title="disorder"><rect fill="url(#disordered-hatch)" x="170.754190" y="47" width="66.751796" height="14"/></a>
<a xlink:title="disorder"><rect fill="url(#disordered-hatch)" x="537.889066" y="47" width="155.754190" height="14"/></a>
<a xlink:title="disorder"><rect fill="url(#disordered-hatch)" x="821.584198" y="47" width="862.210694" height="14"/></a>
<a xlink:title="disorder"><rect fill="url(#disordered-hatch)" x="1767.234637" y="47" width="16.687949" height="14"/></a>
<a xlink:title="disorder"><rect fill="url(#disordered-hatch)" x="4270.426975" y="47" width="456.137271" height="14"/></a>
<a xlink:title="disorder"><rect fill="url(#disordered-hatch)" x="4826.691939" y="47" width="72.314445" height="14"/></a>
<g transform="translate(2240.059856,42)"><a xlink:href="http://pfam.xfam.org/family/PF00595" xlink:title="PDZ domain (Also known as DHR or GLGF)"><rect fill="#2dcf00" x="0" y="0" width="461.699920" height="24" filter="url(#ds)"/><text style="font-size:12px;font-family:sans-serif;fill:#ffffff;" text-anchor="middle" x="230.849960" y="16">PDZ domain (Also known as DHR or GLGF)</text></a></g>
<g transform="translate(3085.582602,42)"><a xlink:href="http://pfam.xfam.org/family/PF00168" xlink:title="C2 domain"><rect fill="#ff5353" x="0" y="0" width="506.201117" height="24" filter="url(#ds)"/><text style="font-size:12px;font-family:sans-serif;fill:#ffffff;" text-anchor="middle" x="253.100559" y="16">C2 domain</text></a></g>
<g transform="translate(6784.744613,42)"><a xlink:href="http://pfam.xfam.org/family/PF00168" xlink:title="C2 domain"><rect fill="#ff5353" x="0" y="0" width="189.130088" height="24" filter="url(#ds)"/><text style="font-size:12px;font-family:sans-serif;fill:#ffffff;" text-anchor="middle" x="94.565044" y="16">C2 domain</text></a></g>
<g class="axis">
<line x1="15" x2="6985" y1="76" y2="76" stroke="#AAAAAA" /><line x1="15" x2="15" y1="76" y2="81" stroke="#AAAAAA" /><line x1="15.000000" x2="15.000000" y1="76" y2="81" stroke="#AAAAAA" /><text style="font-size:10px;font-family:sans-serif;fill:#000000;" text-anchor="middle" x="15.000000" y="91">0</text><line x1="287.569832" x2="287.569832" y1="76" y2="81" stroke="#AAAAAA" /><text style="font-size:10px;font-family:sans-serif;fill:#000000;" text-anchor="middle" x="287.569832" y="91">49</text><line x1="371.009577" x2="371.009577" y1="76" y2="81" stroke="#AAAAAA" /><text style="font-size:10px;font-family:sans-serif;fill:#000000;" text-anchor="middle" x="371.009577" y="91">64</text><line x1="699.205906" x2="699.205906" y1="76" y2="81" stroke="#AAAAAA" /><text style="font-size:10px;font-family:sans-serif;fill:#000000;" text-anchor="middle" x="699.205906" y="91">123</text><line x1="816.021548" x2="816.021548" y1="76" y2="81" stroke="#AAAAAA" /><text style="font-size:10px;font-family:sans-serif;fill:#000000;" text-anchor="middle" x="816.021548" y="91">144</text><line x1="1689.357542" x2="1689.357542" y1="76" y2="81" stroke="#AAAAAA" /><text style="font-size:10px;font-family:sans-serif;fill:#000000;" text-anchor="middle" x="1689.357542" y="91">301</text><line x1="1761.671987" x2="1761.671987" y1="76" y2="81" stroke="#AAAAAA" /><text style="font-size:10px;font-family:sans-serif;fill:#000000;" text-anchor="middle" x="1761.671987" y="91">314</text><line x1="1789.485235" x2="1789.485235" y1="76" y2="81" stroke="#AAAAAA" /><text style="font-size:10px;font-family:sans-serif;fill:#000000;" text-anchor="middle" x="1789.485235" y="91">319</text><line x1="1845.111732" x2="1845.111732" y1="76" y2="81" stroke="#AAAAAA" /><text style="font-size:10px;font-family:sans-serif;fill:#000000;" text-anchor="middle" x="1845.111732" y="91">329</text><line x1="1878.487630" x2="1878.487630" y1="76" y2="81" stroke="#AAAAAA" /><text style="font-size:10px;font-family:sans-serif;fill:#000000;" text-anchor="middle" x="1878.487630" y="91">335</text><line x1="1950.802075" x2="1950.802075" y1="76" y2="81" stroke="#AAAAAA" /><text style="font-size:10px;font-family:sans-serif;fill:#000000;" text-anchor="middle" x="1950.802075" y="91">348</text><line x1="2240.059856" x2="2240.059856" y1="76" y2="81" stroke="#AAAAAA" /><text style="font-size:10px;font-family:sans-serif;fill:#000000;" text-anchor="middle" x="2240.059856" y="91">400</text><line x1="2701.759777" x2="2701.759777" y1="76" y2="81" stroke="#AAAAAA" /><text style="font-size:10px;font-family:sans-serif;fill:#000000;" text-anchor="middle" x="2701.759777" y="91">483</text><line x1="2801.887470" x2="2801.887470" y1="76" y2="81" stroke="#AAAAAA" /><text style="font-size:10px;font-family:sans-serif;fill:#000000;" text-anchor="middle" x="2801.887470" y="91">501</text><line x1="2846.388667" x2="2846.388667" y1="76" y2="81" stroke="#AAAAAA" /><text style="font-size:10px;font-family:sans-serif;fill:#000000;" text-anchor="middle" x="2846.388667" y="91">509</text><line x1="3085.582602" x2="3085.582602" y1="76" y2="81" stroke="#AAAAAA" /><text style="font-size:10px;font-family:sans-serif;fill:#000000;" text-anchor="middle" x="3085.582602" y="91">552</text><line x1="3274.712690" x2="3274.712690" y1="76" y2="81" stroke="#AAAAAA" /><text style="font-size:10px;font-family:sans-serif;fill:#000000;" text-anchor="middle" x="3274.712690" y="91">586</text><line x1="3335.901836" x2="3335.901836" y1="76" y2="81" stroke="#AAAAAA" /><text style="font-size:10px;font-family:sans-serif;fill:#000000;" text-anchor="middle" x="3335.901836" y="91">597</text><line x1="3591.783719" x2="3591.783719" y1="76" y2="81" stroke="#AAAAAA" /><text style="font-size:10px;font-family:sans-serif;fill:#000000;" text-anchor="middle" x="3591.783719" y="91">643</text><line x1="4732.126895" x2="4732.126895" y1="76" y2="81" stroke="#AAAAAA" /><text style="font-size:10px;font-family:sans-serif;fill:#000000;" text-anchor="middle" x="4732.126895" y="91">848</text><line x1="4821.129290" x2="4821.129290" y1="76" y2="81" stroke="#AAAAAA" /><text style="font-size:10px;font-family:sans-serif;fill:#000000;" text-anchor="middle" x="4821.129290" y="91">864</text><line x1="4904.569034" x2="4904.569034" y1="76" y2="81" stroke="#AAAAAA" /><text style="font-size:10px;font-family:sans-serif;fill:#000000;" text-anchor="middle" x="4904.569034" y="91">879</text><line x1="4982.446129" x2="4982.446129" y1="76" y2="81" stroke="#AAAAAA" /><text style="font-size:10px;font-family:sans-serif;fill:#000000;" text-anchor="middle" x="4982.446129" y="91">893</text><line x1="5544.273743" x2="5544.273743" y1="76" y2="81" stroke="#AAAAAA" /><text style="font-size:10px;font-family:sans-serif;fill:#000000;" text-anchor="middle" x="5544.273743" y="91">994</text><line x1="5716.715882" x2="5716.715882" y1="76" y2="81" stroke="#AAAAAA" /><text style="font-size:10px;font-family:sans-serif;fill:#000000;" text-anchor="middle" x="5716.715882" y="91">1025</text><line x1="6395.359138" x2="6395.359138" y1="76" y2="81" stroke="#AAAAAA" /><text style="font-size:10px;font-family:sans-serif;fill:#000000;" text-anchor="middle" x="6395.359138" y="91">1147</text><line x1="6784.744613" x2="6784.744613" y1="76" y2="81" stroke="#AAAAAA" /><text style="font-size:10px;font-family:sans-serif;fill:#000000;" text-anchor="middle" x="6784.744613" y="91">1217</text><line x1="6985.000000" x2="6985.000000" y1="76" y2="81" stroke="#AAAAAA" /><text style="font-size:10px;font-family:sans-serif;fill:#000000;" text-anchor="middle" x="6985.000000" y="91">1253</text></g>
</svg>
