<?xml version='1.0'?>
<svg xmlns="http://www.w3.org/2000/svg" xmlns:xlink="http://www.w3.org/1999/xlink" width="7000" height="111">
<defs>
  <filter id="ds" x="0" y="0">
    <feOffset in="SourceAlpha" dx="2" dy="2" />
    <feComponentTransfer><feFuncA type="linear" slope="0.2"/></feComponentTransfer>
    <feGaussianBlur result="blurOut" stdDeviation="1" />
    <feBlend in="SourceGraphic" in2="blurOut" mode="normal" />
  </filter>
  <pattern id="disordered-hatch" patternUnits="userSpaceOnUse" width="4" height="4">
    <path d="M-1,1 l2,-2 M0,4 l4,-4 M3,5 l2,-2" stroke="#000000" opacity="0.3" />
  </pattern>
</defs>
<line x1="2063.076246" x2="2063.076246" y1="19" y2="47" stroke="#BABDB6" stroke-width="2"/><a xlink:title="R501H"><circle cx="2063.076246" cy="19" r="4.000000" fill="#ff0000" /></a><a xlink:title="G5E9G7_HUMAN, Neurexin-2-alpha (1705aa)"><rect fill="#BABDB6" x="15" y="47" width="6970" height="14"/></a><a xlink:title="disorder"><rect fill="url(#disordered-hatch)" x="19.087977" y="47" width="8.175953" height="14"/></a>
<a xlink:title="disorder"><rect fill="url(#disordered-hatch)" x="803.979472" y="47" width="4.087977" height="14"/></a>
<a xlink:title="disorder"><rect fill="url(#disordered-hatch)" x="1024.730205" y="47" width="4.087977" height="14"/></a>
<a xlink:title="disorder"><rect fill="url(#disordered-hatch)" x="1041.082111" y="47" width="8.175953" height="14"/></a>
<a xlink:title="disorder"><rect fill="url(#disordered-hatch)" x="1147.369501" y="47" width="20.439883" height="14"/></a>
<a xlink:title="disorder"><rect fill="url(#disordered-hatch)" x="1175.985337" y="47" width="4.087977" height="14"/></a>
<a xlink:title="disorder"><rect fill="url(#disordered-hatch)" x="4029.392962" y="47" width="16.351906" height="14"/></a>
<a xlink:title="disorder"><rect fill="url(#disordered-hatch)" x="4070.272727" y="47" width="8.175953" height="14"/></a>
<a xlink:title="disorder"><rect fill="url(#disordered-hatch)" x="4143.856305" y="47" width="12.263930" height="14"/></a>
<a xlink:title="disorder"><rect fill="url(#disordered-hatch)" x="4695.733138" y="47" width="4.087977" height="14"/></a>
<a xlink:title="disorder"><rect fill="url(#disordered-hatch)" x="4732.524927" y="47" width="16.351906" height="14"/></a>
<a xlink:title="disorder"><rect fill="url(#disordered-hatch)" x="5300.753666" y="47" width="4.087977" height="14"/></a>
<a xlink:title="disorder"><rect fill="url(#disordered-hatch)" x="5431.568915" y="47" width="24.527859" height="14"/></a>
<a xlink:title="disorder"><rect fill="url(#disordered-hatch)" x="5472.448680" y="47" width="8.175953" height="14"/></a>
<a xlink:title="disorder"><rect fill="url(#disordered-hatch)" x="6024.325513" y="47" width="609.108504" height="14"/></a>
<a xlink:title="disorder"><rect fill="url(#disordered-hatch)" x="6805.129032" y="47" width="32.703812" height="14"/></a>
<a xlink:title="disorder"><rect fill="url(#disordered-hatch)" x="6972.736070" y="47" width="0.000000" height="14"/></a>
<a xlink:title="sig_p"><rect fill="#7FFFFF" x="19.087977" y="45" width="102.199413" height="18" filter="url(#ds)"/></a>
<a xlink:title="transmembrane"><rect fill="#7FFFFF" x="6682.489736" y="45" width="81.759531" height="18" filter="url(#ds)"/></a>
<a xlink:title="low_complexity"><rect fill="#7FFFFF" x="59.967742" y="45" width="53.143695" height="18" filter="url(#ds)"/></a>
<a xlink:title="low_complexity"><rect fill="#7FFFFF" x="280.718475" y="45" width="102.199413" height="18" filter="url(#ds)"/></a>
<a xlink:title="low_complexity"><rect fill="#C2DDFF" x="1110.577713" y="45" width="32.703812" height="18" filter="url(#ds)"/></a>
<a xlink:title="low_complexity"><rect fill="#7FFFFF" x="2165.275660" y="45" width="73.583578" height="18" filter="url(#ds)"/></a>
<a xlink:title="low_complexity"><rect fill="#7FFFFF" x="2267.475073" y="45" width="36.791789" height="18" filter="url(#ds)"/></a>
<a xlink:title="low_complexity"><rect fill="#7FFFFF" x="5492.888563" y="45" width="122.639296" height="18" filter="url(#ds)"/></a>
<a xlink:title="low_complexity"><rect fill="#C2DDFF" x="5844.454545" y="45" width="85.847507" height="18" filter="url(#ds)"/></a>
<a xlink:title="low_complexity"><rect fill="#C2DDFF" x="5971.181818" y="45" width="49.055718" height="18" filter="url(#ds)"/></a>
<a xlink:title="low_complexity"><rect fill="#7FFFFF" x="6686.577713" y="45" width="61.319648" height="18" filter="url(#ds)"/></a>
<a xlink:title="low_complexity"><rect fill="#C2DDFF" x="6899.152493" y="45" width="69.495601" height="18" filter="url(#ds)"/></a>
<a xlink:title="disorder"><rect fill="url(#disordered-hatch)" x="5734.079179" y="47" width="106.287390" height="14"/></a>
<a xlink:title="disorder"><rect fill="url(#disordered-hatch)" x="5934.390029" y="47" width="32.703812" height="14"/></a>
<a xlink:title="disorder"><rect fill="url(#disordered-hatch)" x="6899.152493" y="47" width="-4.087977" height="14"/></a>
<g transform="translate(248.014663,42)"><a xlink:href="http://pfam.xfam.org/family/PF02210" xlink:title="Laminin G domain"><rect fill="#2dcf00" x="0" y="0" width="531.436950" height="24" filter="url(#ds)"/><text style="font-size:12px;font-family:sans-serif;fill:#ffffff;" text-anchor="middle" x="265.718475" y="16">Laminin G domain</text></a></g>
<g transform="translate(1314.976540,42)"><a xlink:href="http://pfam.xfam.org/family/PF02210" xlink:title="Laminin G domain"><rect fill="#2dcf00" x="0" y="0" width="547.788856" height="24" filter="url(#ds)"/><text style="font-size:12px;font-family:sans-serif;fill:#ffffff;" text-anchor="middle" x="273.894428" y="16">Laminin G domain</text></a></g>
<g transform="translate(2116.219941,42)"><a xlink:href="http://pfam.xfam.org/family/PF02210" xlink:title="Laminin G domain"><rect fill="#2dcf00" x="0" y="0" width="592.756598" height="24" filter="url(#ds)"/><text style="font-size:12px;font-family:sans-serif;fill:#ffffff;" text-anchor="middle" x="296.378299" y="16">Laminin G domain</text></a></g>
<g transform="translate(3093.246334,42)"><a xlink:href="http://pfam.xfam.org/family/PF02210" xlink:title="Laminin G domain"><rect fill="#2dcf00" x="0" y="0" width="531.436950" height="24" filter="url(#ds)"/><text style="font-size:12px;font-family:sans-serif;fill:#ffffff;" text-anchor="middle" x="265.718475" y="16">Laminin G domain</text></a></g>
<g transform="translate(3853.609971,42)"><a xlink:href="http://pfam.xfam.org/family/PF02210" xlink:title="Laminin G domain"><rect fill="#2dcf00" x="0" y="0" width="523.260997" height="24" filter="url(#ds)"/><text style="font-size:12px;font-family:sans-serif;fill:#ffffff;" text-anchor="middle" x="261.630499" y="16">Laminin G domain</text></a></g>
<g transform="translate(4765.228739,42)"><a xlink:href="http://pfam.xfam.org/family/PF02210" xlink:title="Laminin G domain"><rect fill="#2dcf00" x="0" y="0" width="609.108504" height="24" filter="url(#ds)"/><text style="font-size:12px;font-family:sans-serif;fill:#ffffff;" text-anchor="middle" x="304.554252" y="16">Laminin G domain</text></a></g>
<g transform="translate(6637.521994,42)"><a xlink:href="http://pfam.xfam.org/family/PF01034" xlink:title="Syndecan domain"><rect fill="#ff5353" x="0" y="0" width="257.542522" height="24" filter="url(#ds)"/><text style="font-size:12px;font-family:sans-serif;fill:#ffffff;" text-anchor="middle" x="128.771261" y="16">Syndecan domain</text></a></g>
<g class="axis">
<line x1="15" x2="6985" y1="76" y2="76" stroke="#AAAAAA" /><line x1="15" x2="15" y1="76" y2="81" stroke="#AAAAAA" /><line x1="19.087977" x2="19.087977" y1="76" y2="81" stroke="#AAAAAA" /><text style="font-size:10px;font-family:sans-serif;fill:#000000;" text-anchor="middle" x="19.087977" y="91">1</text><line x1="59.967742" x2="59.967742" y1="76" y2="81" stroke="#AAAAAA" /><text style="font-size:10px;font-family:sans-serif;fill:#000000;" text-anchor="middle" x="59.967742" y="91">11</text><line x1="113.111437" x2="113.111437" y1="76" y2="81" stroke="#AAAAAA" /><text style="font-size:10px;font-family:sans-serif;fill:#000000;" text-anchor="middle" x="113.111437" y="91">24</text><line x1="248.014663" x2="248.014663" y1="76" y2="81" stroke="#AAAAAA" /><text style="font-size:10px;font-family:sans-serif;fill:#000000;" text-anchor="middle" x="248.014663" y="91">57</text><line x1="280.718475" x2="280.718475" y1="76" y2="81" stroke="#AAAAAA" /><text style="font-size:10px;font-family:sans-serif;fill:#000000;" text-anchor="middle" x="280.718475" y="91">65</text><line x1="382.917889" x2="382.917889" y1="76" y2="81" stroke="#AAAAAA" /><text style="font-size:10px;font-family:sans-serif;fill:#000000;" text-anchor="middle" x="382.917889" y="91">90</text><line x1="779.451613" x2="779.451613" y1="76" y2="81" stroke="#AAAAAA" /><text style="font-size:10px;font-family:sans-serif;fill:#000000;" text-anchor="middle" x="779.451613" y="91">187</text><line x1="1110.577713" x2="1110.577713" y1="76" y2="81" stroke="#AAAAAA" /><text style="font-size:10px;font-family:sans-serif;fill:#000000;" text-anchor="middle" x="1110.577713" y="91">268</text><line x1="1143.281525" x2="1143.281525" y1="76" y2="81" stroke="#AAAAAA" /><text style="font-size:10px;font-family:sans-serif;fill:#000000;" text-anchor="middle" x="1143.281525" y="91">276</text><line x1="1314.976540" x2="1314.976540" y1="76" y2="81" stroke="#AAAAAA" /><text style="font-size:10px;font-family:sans-serif;fill:#000000;" text-anchor="middle" x="1314.976540" y="91">318</text><line x1="1862.765396" x2="1862.765396" y1="76" y2="81" stroke="#AAAAAA" /><text style="font-size:10px;font-family:sans-serif;fill:#000000;" text-anchor="middle" x="1862.765396" y="91">452</text><line x1="2063.076246" x2="2063.076246" y1="76" y2="81" stroke="#AAAAAA" /><text style="font-size:10px;font-family:sans-serif;fill:#000000;" text-anchor="middle" x="2063.076246" y="91">501</text><line x1="2116.219941" x2="2116.219941" y1="76" y2="81" stroke="#AAAAAA" /><text style="font-size:10px;font-family:sans-serif;fill:#000000;" text-anchor="middle" x="2116.219941" y="91">514</text><line x1="2165.275660" x2="2165.275660" y1="76" y2="81" stroke="#AAAAAA" /><text style="font-size:10px;font-family:sans-serif;fill:#000000;" text-anchor="middle" x="2165.275660" y="91">526</text><line x1="2238.859238" x2="2238.859238" y1="76" y2="81" stroke="#AAAAAA" /><text style="font-size:10px;font-family:sans-serif;fill:#000000;" text-anchor="middle" x="2238.859238" y="91">544</text><line x1="2267.475073" x2="2267.475073" y1="76" y2="81" stroke="#AAAAAA" /><text style="font-size:10px;font-family:sans-serif;fill:#000000;" text-anchor="middle" x="2267.475073" y="91">551</text><line x1="2304.266862" x2="2304.266862" y1="76" y2="81" stroke="#AAAAAA" /><text style="font-size:10px;font-family:sans-serif;fill:#000000;" text-anchor="middle" x="2304.266862" y="91">560</text><line x1="2708.976540" x2="2708.976540" y1="76" y2="81" stroke="#AAAAAA" /><text style="font-size:10px;font-family:sans-serif;fill:#000000;" text-anchor="middle" x="2708.976540" y="91">659</text><line x1="3093.246334" x2="3093.246334" y1="76" y2="81" stroke="#AAAAAA" /><text style="font-size:10px;font-family:sans-serif;fill:#000000;" text-anchor="middle" x="3093.246334" y="91">753</text><line x1="3624.683284" x2="3624.683284" y1="76" y2="81" stroke="#AAAAAA" /><text style="font-size:10px;font-family:sans-serif;fill:#000000;" text-anchor="middle" x="3624.683284" y="91">883</text><line x1="3853.609971" x2="3853.609971" y1="76" y2="81" stroke="#AAAAAA" /><text style="font-size:10px;font-family:sans-serif;fill:#000000;" text-anchor="middle" x="3853.609971" y="91">939</text><line x1="4376.870968" x2="4376.870968" y1="76" y2="81" stroke="#AAAAAA" /><text style="font-size:10px;font-family:sans-serif;fill:#000000;" text-anchor="middle" x="4376.870968" y="91">1067</text><line x1="4765.228739" x2="4765.228739" y1="76" y2="81" stroke="#AAAAAA" /><text style="font-size:10px;font-family:sans-serif;fill:#000000;" text-anchor="middle" x="4765.228739" y="91">1162</text><line x1="5374.337243" x2="5374.337243" y1="76" y2="81" stroke="#AAAAAA" /><text style="font-size:10px;font-family:sans-serif;fill:#000000;" text-anchor="middle" x="5374.337243" y="91">1311</text><line x1="5492.888563" x2="5492.888563" y1="76" y2="81" stroke="#AAAAAA" /><text style="font-size:10px;font-family:sans-serif;fill:#000000;" text-anchor="middle" x="5492.888563" y="91">1340</text><line x1="5615.527859" x2="5615.527859" y1="76" y2="81" stroke="#AAAAAA" /><text style="font-size:10px;font-family:sans-serif;fill:#000000;" text-anchor="middle" x="5615.527859" y="91">1370</text><line x1="5844.454545" x2="5844.454545" y1="76" y2="81" stroke="#AAAAAA" /><text style="font-size:10px;font-family:sans-serif;fill:#000000;" text-anchor="middle" x="5844.454545" y="91">1426</text><line x1="5930.302053" x2="5930.302053" y1="76" y2="81" stroke="#AAAAAA" /><text style="font-size:10px;font-family:sans-serif;fill:#000000;" text-anchor="middle" x="5930.302053" y="91">1447</text><line x1="5971.181818" x2="5971.181818" y1="76" y2="81" stroke="#AAAAAA" /><text style="font-size:10px;font-family:sans-serif;fill:#000000;" text-anchor="middle" x="5971.181818" y="91">1457</text><line x1="6020.237537" x2="6020.237537" y1="76" y2="81" stroke="#AAAAAA" /><text style="font-size:10px;font-family:sans-serif;fill:#000000;" text-anchor="middle" x="6020.237537" y="91">1469</text><line x1="6637.521994" x2="6637.521994" y1="76" y2="81" stroke="#AAAAAA" /><text style="font-size:10px;font-family:sans-serif;fill:#000000;" text-anchor="middle" x="6637.521994" y="91">1620</text><line x1="6682.489736" x2="6682.489736" y1="76" y2="81" stroke="#AAAAAA" /><text style="font-size:10px;font-family:sans-serif;fill:#000000;" text-anchor="middle" x="6682.489736" y="91">1631</text><line x1="6747.897361" x2="6747.897361" y1="76" y2="81" stroke="#AAAAAA" /><text style="font-size:10px;font-family:sans-serif;fill:#000000;" text-anchor="middle" x="6747.897361" y="91">1647</text><line x1="6764.249267" x2="6764.249267" y1="76" y2="81" stroke="#AAAAAA" /><text style="font-size:10px;font-family:sans-serif;fill:#000000;" text-anchor="middle" x="6764.249267" y="91">1651</text><line x1="6895.064516" x2="6895.064516" y1="76" y2="81" stroke="#AAAAAA" /><text style="font-size:10px;font-family:sans-serif;fill:#000000;" text-anchor="middle" x="6895.064516" y="91">1683</text><line x1="6985.000000" x2="6985.000000" y1="76" y2="81" stroke="#AAAAAA" /><text style="font-size:10px;font-family:sans-serif;fill:#000000;" text-anchor="middle" x="6985.000000" y="91">1705</text></g>
</svg>
