<?xml version='1.0'?>
<svg xmlns="http://www.w3.org/2000/svg" xmlns:xlink="http://www.w3.org/1999/xlink" width="7000" height="111">
<defs>
  <filter id="ds" x="0" y="0">
    <feOffset in="SourceAlpha" dx="2" dy="2" />
    <feComponentTransfer><feFuncA type="linear" slope="0.2"/></feComponentTransfer>
    <feGaussianBlur result="blurOut" stdDeviation="1" />
    <feBlend in="SourceGraphic" in2="blurOut" mode="normal" />
  </filter>
  <pattern id="disordered-hatch" patternUnits="userSpaceOnUse" width="4" height="4">
    <path d="M-1,1 l2,-2 M0,4 l4,-4 M3,5 l2,-2" stroke="#000000" opacity="0.3" />
  </pattern>
</defs>
<line x1="2387.765957" x2="2387.765957" y1="19" y2="47" stroke="#BABDB6" stroke-width="2"/><a xlink:title="G80E"><circle cx="2387.765957" cy="19" r="4.000000" fill="#ff0000" /></a><line x1="2417.425532" x2="2417.425532" y1="19" y2="47" stroke="#BABDB6" stroke-width="2"/><a xlink:title="P81A"><circle cx="2417.425532" cy="19" r="4.000000" fill="#ff0000" /></a><line x1="2447.085106" x2="2447.085106" y1="19" y2="47" stroke="#BABDB6" stroke-width="2"/><a xlink:title="M82V"><circle cx="2447.085106" cy="19" r="4.000000" fill="#ff0000" /></a><a xlink:title="H0Y5P2_HUMAN, HLA class II histocompatibility antigen, DP beta 1 chain (Fragment) (235aa)"><rect fill="#BABDB6" x="15" y="47" width="6970" height="14"/></a><a xlink:title="disorder"><rect fill="url(#disordered-hatch)" x="2684.361702" y="47" width="148.297872" height="14"/></a>
<a xlink:title="disorder"><rect fill="url(#disordered-hatch)" x="6658.744681" y="47" width="29.659574" height="14"/></a>
<a xlink:title="transmembrane"><rect fill="#FFA3A3" x="5768.957447" y="45" width="563.531915" height="18" filter="url(#ds)"/></a>
<g transform="translate(281.936170,42)"><a xlink:href="http://pfam.xfam.org/family/PF00969" xlink:title="Class II histocompatibility antigen, beta domain"><rect fill="#2dcf00" x="0" y="0" width="2135.489362" height="24" filter="url(#ds)"/><text style="font-size:12px;font-family:sans-serif;fill:#ffffff;" text-anchor="middle" x="1067.744681" y="16">Class II histocompatibility antigen, beta domain</text></a></g>
<g transform="translate(2862.319149,42)"><a xlink:href="http://pfam.xfam.org/family/PF07654" xlink:title="Immunoglobulin C1-set domain"><rect fill="#ff5353" x="0" y="0" width="2461.744681" height="24" filter="url(#ds)"/><text style="font-size:12px;font-family:sans-serif;fill:#ffffff;" text-anchor="middle" x="1230.872340" y="16">Immunoglobulin C1-set domain</text></a></g>
<g class="axis">
<line x1="15" x2="6985" y1="76" y2="76" stroke="#AAAAAA" /><line x1="15" x2="15" y1="76" y2="81" stroke="#AAAAAA" /><line x1="15.000000" x2="15.000000" y1="76" y2="81" stroke="#AAAAAA" /><text style="font-size:10px;font-family:sans-serif;fill:#000000;" text-anchor="middle" x="15.000000" y="91">0</text><line x1="281.936170" x2="281.936170" y1="76" y2="81" stroke="#AAAAAA" /><text style="font-size:10px;font-family:sans-serif;fill:#000000;" text-anchor="middle" x="281.936170" y="91">9</text><line x1="2387.765957" x2="2387.765957" y1="76" y2="81" stroke="#AAAAAA" /><text style="font-size:10px;font-family:sans-serif;fill:#000000;" text-anchor="middle" x="2387.765957" y="91">80</text><line x1="2417.425532" x2="2417.425532" y1="76" y2="81" stroke="#AAAAAA" /><text style="font-size:10px;font-family:sans-serif;fill:#000000;" text-anchor="middle" x="2417.425532" y="91">81</text><line x1="2417.425532" x2="2417.425532" y1="76" y2="81" stroke="#AAAAAA" /><text style="font-size:10px;font-family:sans-serif;fill:#000000;" text-anchor="middle" x="2417.425532" y="91">81</text><line x1="2447.085106" x2="2447.085106" y1="76" y2="81" stroke="#AAAAAA" /><text style="font-size:10px;font-family:sans-serif;fill:#000000;" text-anchor="middle" x="2447.085106" y="91">82</text><line x1="2862.319149" x2="2862.319149" y1="76" y2="81" stroke="#AAAAAA" /><text style="font-size:10px;font-family:sans-serif;fill:#000000;" text-anchor="middle" x="2862.319149" y="91">96</text><line x1="5324.063830" x2="5324.063830" y1="76" y2="81" stroke="#AAAAAA" /><text style="font-size:10px;font-family:sans-serif;fill:#000000;" text-anchor="middle" x="5324.063830" y="91">179</text><line x1="5768.957447" x2="5768.957447" y1="76" y2="81" stroke="#AAAAAA" /><text style="font-size:10px;font-family:sans-serif;fill:#000000;" text-anchor="middle" x="5768.957447" y="91">194</text><line x1="6332.489362" x2="6332.489362" y1="76" y2="81" stroke="#AAAAAA" /><text style="font-size:10px;font-family:sans-serif;fill:#000000;" text-anchor="middle" x="6332.489362" y="91">213</text><line x1="6985.000000" x2="6985.000000" y1="76" y2="81" stroke="#AAAAAA" /><text style="font-size:10px;font-family:sans-serif;fill:#000000;" text-anchor="middle" x="6985.000000" y="91">235</text></g>
</svg>
