<?xml version='1.0'?>
<svg xmlns="http://www.w3.org/2000/svg" xmlns:xlink="http://www.w3.org/1999/xlink" width="7000" height="111">
<defs>
  <filter id="ds" x="0" y="0">
    <feOffset in="SourceAlpha" dx="2" dy="2" />
    <feComponentTransfer><feFuncA type="linear" slope="0.2"/></feComponentTransfer>
    <feGaussianBlur result="blurOut" stdDeviation="1" />
    <feBlend in="SourceGraphic" in2="blurOut" mode="normal" />
  </filter>
  <pattern id="disordered-hatch" patternUnits="userSpaceOnUse" width="4" height="4">
    <path d="M-1,1 l2,-2 M0,4 l4,-4 M3,5 l2,-2" stroke="#000000" opacity="0.3" />
  </pattern>
</defs>
<line x1="2784.737991" x2="2784.737991" y1="19" y2="47" stroke="#BABDB6" stroke-width="2"/><a xlink:title="G91E"><circle cx="2784.737991" cy="19" r="4.000000" fill="#ff0000" /></a><line x1="2815.174672" x2="2815.174672" y1="19" y2="47" stroke="#BABDB6" stroke-width="2"/><a xlink:title="P92A"><circle cx="2815.174672" cy="19" r="4.000000" fill="#ff0000" /></a><line x1="2845.611354" x2="2845.611354" y1="19" y2="47" stroke="#BABDB6" stroke-width="2"/><a xlink:title="M93V"><circle cx="2845.611354" cy="19" r="4.000000" fill="#ff0000" /></a><a xlink:title="H0Y7G7_HUMAN, HLA class II histocompatibility antigen, DP beta 1 chain (Fragment) (229aa)"><rect fill="#BABDB6" x="15" y="47" width="6970" height="14"/></a><a xlink:title="disorder"><rect fill="url(#disordered-hatch)" x="106.310044" y="47" width="243.493450" height="14"/></a>
<a xlink:title="disorder"><rect fill="url(#disordered-hatch)" x="471.550218" y="47" width="91.310044" height="14"/></a>
<a xlink:title="disorder"><rect fill="url(#disordered-hatch)" x="2997.794760" y="47" width="213.056769" height="14"/></a>
<a xlink:title="transmembrane"><rect fill="#FFA3A3" x="6224.082969" y="45" width="578.296943" height="18" filter="url(#ds)"/></a>
<g transform="translate(593.296943,42)"><a xlink:href="http://pfam.xfam.org/family/PF00969" xlink:title="Class II histocompatibility antigen, beta domain"><rect fill="#2dcf00" x="0" y="0" width="2191.441048" height="24" filter="url(#ds)"/><text style="font-size:12px;font-family:sans-serif;fill:#ffffff;" text-anchor="middle" x="1095.720524" y="16">Class II histocompatibility antigen, beta domain</text></a></g>
<g transform="translate(3241.288210,42)"><a xlink:href="http://pfam.xfam.org/family/PF07654" xlink:title="Immunoglobulin C1-set domain"><rect fill="#ff5353" x="0" y="0" width="2526.244541" height="24" filter="url(#ds)"/><text style="font-size:12px;font-family:sans-serif;fill:#ffffff;" text-anchor="middle" x="1263.122271" y="16">Immunoglobulin C1-set domain</text></a></g>
<g class="axis">
<line x1="15" x2="6985" y1="76" y2="76" stroke="#AAAAAA" /><line x1="15" x2="15" y1="76" y2="81" stroke="#AAAAAA" /><line x1="15.000000" x2="15.000000" y1="76" y2="81" stroke="#AAAAAA" /><text style="font-size:10px;font-family:sans-serif;fill:#000000;" text-anchor="middle" x="15.000000" y="91">0</text><line x1="593.296943" x2="593.296943" y1="76" y2="81" stroke="#AAAAAA" /><text style="font-size:10px;font-family:sans-serif;fill:#000000;" text-anchor="middle" x="593.296943" y="91">19</text><line x1="2784.737991" x2="2784.737991" y1="76" y2="81" stroke="#AAAAAA" /><text style="font-size:10px;font-family:sans-serif;fill:#000000;" text-anchor="middle" x="2784.737991" y="91">91</text><line x1="2784.737991" x2="2784.737991" y1="76" y2="81" stroke="#AAAAAA" /><text style="font-size:10px;font-family:sans-serif;fill:#000000;" text-anchor="middle" x="2784.737991" y="91">91</text><line x1="2815.174672" x2="2815.174672" y1="76" y2="81" stroke="#AAAAAA" /><text style="font-size:10px;font-family:sans-serif;fill:#000000;" text-anchor="middle" x="2815.174672" y="91">92</text><line x1="2845.611354" x2="2845.611354" y1="76" y2="81" stroke="#AAAAAA" /><text style="font-size:10px;font-family:sans-serif;fill:#000000;" text-anchor="middle" x="2845.611354" y="91">93</text><line x1="3241.288210" x2="3241.288210" y1="76" y2="81" stroke="#AAAAAA" /><text style="font-size:10px;font-family:sans-serif;fill:#000000;" text-anchor="middle" x="3241.288210" y="91">106</text><line x1="5767.532751" x2="5767.532751" y1="76" y2="81" stroke="#AAAAAA" /><text style="font-size:10px;font-family:sans-serif;fill:#000000;" text-anchor="middle" x="5767.532751" y="91">189</text><line x1="6224.082969" x2="6224.082969" y1="76" y2="81" stroke="#AAAAAA" /><text style="font-size:10px;font-family:sans-serif;fill:#000000;" text-anchor="middle" x="6224.082969" y="91">204</text><line x1="6802.379913" x2="6802.379913" y1="76" y2="81" stroke="#AAAAAA" /><text style="font-size:10px;font-family:sans-serif;fill:#000000;" text-anchor="middle" x="6802.379913" y="91">223</text><line x1="6985.000000" x2="6985.000000" y1="76" y2="81" stroke="#AAAAAA" /><text style="font-size:10px;font-family:sans-serif;fill:#000000;" text-anchor="middle" x="6985.000000" y="91">229</text></g>
</svg>
