<?xml version='1.0'?>
<svg xmlns="http://www.w3.org/2000/svg" xmlns:xlink="http://www.w3.org/1999/xlink" width="7000" height="111">
<defs>
  <filter id="ds" x="0" y="0">
    <feOffset in="SourceAlpha" dx="2" dy="2" />
    <feComponentTransfer><feFuncA type="linear" slope="0.2"/></feComponentTransfer>
    <feGaussianBlur result="blurOut" stdDeviation="1" />
    <feBlend in="SourceGraphic" in2="blurOut" mode="normal" />
  </filter>
  <pattern id="disordered-hatch" patternUnits="userSpaceOnUse" width="4" height="4">
    <path d="M-1,1 l2,-2 M0,4 l4,-4 M3,5 l2,-2" stroke="#000000" opacity="0.3" />
  </pattern>
</defs>
<line x1="3038.472973" x2="3038.472973" y1="19" y2="47" stroke="#BABDB6" stroke-width="2"/><a xlink:title="LPPQPTRPPQPVL963L"><circle cx="3038.472973" cy="19" r="4.000000" fill="#ff0000" /></a><a xlink:title="H0Y7T5_HUMAN, Serine/threonine-protein kinase WNK2 (Fragment) (2220aa)"><rect fill="#BABDB6" x="15" y="47" width="6970" height="14"/></a><a xlink:title="disorder"><rect fill="url(#disordered-hatch)" x="231.635135" y="47" width="21.977477" height="14"/></a>
<a xlink:title="disorder"><rect fill="url(#disordered-hatch)" x="576.995495" y="47" width="6.279279" height="14"/></a>
<a xlink:title="disorder"><rect fill="url(#disordered-hatch)" x="1559.702703" y="47" width="21.977477" height="14"/></a>
<a xlink:title="disorder"><rect fill="url(#disordered-hatch)" x="1609.936937" y="47" width="9.418919" height="14"/></a>
<a xlink:title="disorder"><rect fill="url(#disordered-hatch)" x="1870.527027" y="47" width="47.094595" height="14"/></a>
<a xlink:title="disorder"><rect fill="url(#disordered-hatch)" x="2369.729730" y="47" width="9.418919" height="14"/></a>
<a xlink:title="disorder"><rect fill="url(#disordered-hatch)" x="2407.405405" y="47" width="12.558559" height="14"/></a>
<a xlink:title="disorder"><rect fill="url(#disordered-hatch)" x="2495.315315" y="47" width="6.279279" height="14"/></a>
<a xlink:title="disorder"><rect fill="url(#disordered-hatch)" x="2548.689189" y="47" width="6.279279" height="14"/></a>
<a xlink:title="disorder"><rect fill="url(#disordered-hatch)" x="2693.112613" y="47" width="12.558559" height="14"/></a>
<a xlink:title="disorder"><rect fill="url(#disordered-hatch)" x="2715.090090" y="47" width="3.139640" height="14"/></a>
<a xlink:title="disorder"><rect fill="url(#disordered-hatch)" x="2724.509009" y="47" width="21.977477" height="14"/></a>
<a xlink:title="disorder"><rect fill="url(#disordered-hatch)" x="2824.977477" y="47" width="3.139640" height="14"/></a>
<a xlink:title="disorder"><rect fill="url(#disordered-hatch)" x="3160.918919" y="47" width="75.351351" height="14"/></a>
<a xlink:title="disorder"><rect fill="url(#disordered-hatch)" x="3248.828829" y="47" width="12.558559" height="14"/></a>
<a xlink:title="disorder"><rect fill="url(#disordered-hatch)" x="3273.945946" y="47" width="47.094595" height="14"/></a>
<a xlink:title="disorder"><rect fill="url(#disordered-hatch)" x="3327.319820" y="47" width="21.977477" height="14"/></a>
<a xlink:title="disorder"><rect fill="url(#disordered-hatch)" x="3474.882883" y="47" width="25.117117" height="14"/></a>
<a xlink:title="disorder"><rect fill="url(#disordered-hatch)" x="3817.103604" y="47" width="12.558559" height="14"/></a>
<a xlink:title="disorder"><rect fill="url(#disordered-hatch)" x="3867.337838" y="47" width="9.418919" height="14"/></a>
<a xlink:title="disorder"><rect fill="url(#disordered-hatch)" x="3920.711712" y="47" width="169.540541" height="14"/></a>
<a xlink:title="disorder"><rect fill="url(#disordered-hatch)" x="4627.130631" y="47" width="-3.139640" height="14"/></a>
<a xlink:title="disorder"><rect fill="url(#disordered-hatch)" x="5000.747748" y="47" width="514.900901" height="14"/></a>
<a xlink:title="disorder"><rect fill="url(#disordered-hatch)" x="5525.067568" y="47" width="216.635135" height="14"/></a>
<a xlink:title="disorder"><rect fill="url(#disordered-hatch)" x="5791.936937" y="47" width="3.139640" height="14"/></a>
<a xlink:title="disorder"><rect fill="url(#disordered-hatch)" x="5801.355856" y="47" width="65.932432" height="14"/></a>
<a xlink:title="disorder"><rect fill="url(#disordered-hatch)" x="5889.265766" y="47" width="3.139640" height="14"/></a>
<a xlink:title="disorder"><rect fill="url(#disordered-hatch)" x="5926.941441" y="47" width="3.139640" height="14"/></a>
<a xlink:title="disorder"><rect fill="url(#disordered-hatch)" x="5936.360360" y="47" width="9.418919" height="14"/></a>
<a xlink:title="disorder"><rect fill="url(#disordered-hatch)" x="6024.270270" y="47" width="18.837838" height="14"/></a>
<a xlink:title="disorder"><rect fill="url(#disordered-hatch)" x="6065.085586" y="47" width="78.490991" height="14"/></a>
<a xlink:title="disorder"><rect fill="url(#disordered-hatch)" x="6190.671171" y="47" width="128.725225" height="14"/></a>
<a xlink:title="disorder"><rect fill="url(#disordered-hatch)" x="6366.490991" y="47" width="3.139640" height="14"/></a>
<a xlink:title="disorder"><rect fill="url(#disordered-hatch)" x="6391.608108" y="47" width="50.234234" height="14"/></a>
<a xlink:title="disorder"><rect fill="url(#disordered-hatch)" x="6448.121622" y="47" width="15.698198" height="14"/></a>
<a xlink:title="disorder"><rect fill="url(#disordered-hatch)" x="6545.450450" y="47" width="144.423423" height="14"/></a>
<a xlink:title="disorder"><rect fill="url(#disordered-hatch)" x="6696.153153" y="47" width="6.279279" height="14"/></a>
<a xlink:title="disorder"><rect fill="url(#disordered-hatch)" x="6708.711712" y="47" width="3.139640" height="14"/></a>
<a xlink:title="disorder"><rect fill="url(#disordered-hatch)" x="6774.644144" y="47" width="210.355856" height="14"/></a>
<a xlink:title="coiled_coil"><rect fill="#7FFFFF" x="3917.572072" y="45" width="62.792793" height="18" filter="url(#ds)"/></a>
<a xlink:title="coiled_coil"><rect fill="#98E698" x="5948.918919" y="45" width="97.328829" height="18" filter="url(#ds)"/></a>
<a xlink:title="low_complexity"><rect fill="#C2DDFF" x="162.563063" y="45" width="65.932432" height="18" filter="url(#ds)"/></a>
<a xlink:title="low_complexity"><rect fill="#C2DDFF" x="272.450450" y="45" width="106.747748" height="18" filter="url(#ds)"/></a>
<a xlink:title="low_complexity"><rect fill="#C2DDFF" x="514.202703" y="45" width="59.653153" height="18" filter="url(#ds)"/></a>
<a xlink:title="low_complexity"><rect fill="#7FFFFF" x="1336.788288" y="45" width="47.094595" height="18" filter="url(#ds)"/></a>
<a xlink:title="low_complexity"><rect fill="#C2DDFF" x="1820.292793" y="45" width="47.094595" height="18" filter="url(#ds)"/></a>
<a xlink:title="low_complexity"><rect fill="#7FFFFF" x="1967.855856" y="45" width="25.117117" height="18" filter="url(#ds)"/></a>
<a xlink:title="low_complexity"><rect fill="#C2DDFF" x="2388.567568" y="45" width="15.698198" height="18" filter="url(#ds)"/></a>
<a xlink:title="low_complexity"><rect fill="#C2DDFF" x="2423.103604" y="45" width="116.166667" height="18" filter="url(#ds)"/></a>
<a xlink:title="low_complexity"><rect fill="#C2DDFF" x="2558.108108" y="45" width="53.373874" height="18" filter="url(#ds)"/></a>
<a xlink:title="low_complexity"><rect fill="#C2DDFF" x="2624.040541" y="45" width="65.932432" height="18" filter="url(#ds)"/></a>
<a xlink:title="low_complexity"><rect fill="#C2DDFF" x="2781.022523" y="45" width="37.675676" height="18" filter="url(#ds)"/></a>
<a xlink:title="low_complexity"><rect fill="#C2DDFF" x="2947.423423" y="45" width="210.355856" height="18" filter="url(#ds)"/></a>
<a xlink:title="low_complexity"><rect fill="#C2DDFF" x="3242.549550" y="45" width="109.887387" height="18" filter="url(#ds)"/></a>
<a xlink:title="low_complexity"><rect fill="#C2DDFF" x="3405.810811" y="45" width="65.932432" height="18" filter="url(#ds)"/></a>
<a xlink:title="low_complexity"><rect fill="#7FFFFF" x="3660.121622" y="45" width="72.211712" height="18" filter="url(#ds)"/></a>
<a xlink:title="low_complexity"><rect fill="#7FFFFF" x="4153.045045" y="45" width="65.932432" height="18" filter="url(#ds)"/></a>
<a xlink:title="low_complexity"><rect fill="#7FFFFF" x="4306.887387" y="45" width="75.351351" height="18" filter="url(#ds)"/></a>
<a xlink:title="low_complexity"><rect fill="#C2DDFF" x="4611.432432" y="45" width="12.558559" height="18" filter="url(#ds)"/></a>
<a xlink:title="low_complexity"><rect fill="#7FFFFF" x="4677.364865" y="45" width="56.513514" height="18" filter="url(#ds)"/></a>
<a xlink:title="low_complexity"><rect fill="#7FFFFF" x="4758.995495" y="45" width="40.815315" height="18" filter="url(#ds)"/></a>
<a xlink:title="low_complexity"><rect fill="#C2DDFF" x="5889.265766" y="45" width="34.536036" height="18" filter="url(#ds)"/></a>
<a xlink:title="low_complexity"><rect fill="#C2DDFF" x="6762.085586" y="45" width="9.418919" height="18" filter="url(#ds)"/></a>
<a xlink:title="disorder"><rect fill="url(#disordered-hatch)" x="18.139640" y="47" width="141.283784" height="14"/></a>
<a xlink:title="disorder"><rect fill="url(#disordered-hatch)" x="259.891892" y="47" width="9.418919" height="14"/></a>
<a xlink:title="disorder"><rect fill="url(#disordered-hatch)" x="382.337838" y="47" width="128.725225" height="14"/></a>
<a xlink:title="disorder"><rect fill="url(#disordered-hatch)" x="1726.103604" y="47" width="91.049550" height="14"/></a>
<a xlink:title="disorder"><rect fill="url(#disordered-hatch)" x="2388.567568" y="47" width="-3.139640" height="14"/></a>
<a xlink:title="disorder"><rect fill="url(#disordered-hatch)" x="2859.513514" y="47" width="84.770270" height="14"/></a>
<a xlink:title="disorder"><rect fill="url(#disordered-hatch)" x="3355.576577" y="47" width="47.094595" height="14"/></a>
<a xlink:title="disorder"><rect fill="url(#disordered-hatch)" x="4589.454955" y="47" width="18.837838" height="14"/></a>
<a xlink:title="disorder"><rect fill="url(#disordered-hatch)" x="6762.085586" y="47" width="-3.139640" height="14"/></a>
<g transform="translate(614.671171,42)"><a xlink:href="http://pfam.xfam.org/family/PF00069" xlink:title="Protein kinase domain"><rect fill="#2dcf00" x="0" y="0" width="810.027027" height="24" filter="url(#ds)"/><text style="font-size:12px;font-family:sans-serif;fill:#ffffff;" text-anchor="middle" x="405.013514" y="16">Protein kinase domain</text></a></g>
<g transform="translate(1490.630631,42)"><a xlink:href="http://pfam.xfam.org/family/PF12202" xlink:title="Oxidative-stress-responsive kinase 1 C terminal"><rect fill="#ff5353" x="0" y="0" width="116.166667" height="24" filter="url(#ds)"/><text style="font-size:12px;font-family:sans-serif;fill:#ffffff;" text-anchor="middle" x="58.083333" y="16">OSR1_C</text></a></g>
<g class="axis">
<line x1="15" x2="6985" y1="76" y2="76" stroke="#AAAAAA" /><line x1="15" x2="15" y1="76" y2="81" stroke="#AAAAAA" /><line x1="15.000000" x2="15.000000" y1="76" y2="81" stroke="#AAAAAA" /><text style="font-size:10px;font-family:sans-serif;fill:#000000;" text-anchor="middle" x="15.000000" y="91">0</text><line x1="162.563063" x2="162.563063" y1="76" y2="81" stroke="#AAAAAA" /><text style="font-size:10px;font-family:sans-serif;fill:#000000;" text-anchor="middle" x="162.563063" y="91">47</text><line x1="228.495495" x2="228.495495" y1="76" y2="81" stroke="#AAAAAA" /><text style="font-size:10px;font-family:sans-serif;fill:#000000;" text-anchor="middle" x="228.495495" y="91">68</text><line x1="272.450450" x2="272.450450" y1="76" y2="81" stroke="#AAAAAA" /><text style="font-size:10px;font-family:sans-serif;fill:#000000;" text-anchor="middle" x="272.450450" y="91">82</text><line x1="379.198198" x2="379.198198" y1="76" y2="81" stroke="#AAAAAA" /><text style="font-size:10px;font-family:sans-serif;fill:#000000;" text-anchor="middle" x="379.198198" y="91">116</text><line x1="514.202703" x2="514.202703" y1="76" y2="81" stroke="#AAAAAA" /><text style="font-size:10px;font-family:sans-serif;fill:#000000;" text-anchor="middle" x="514.202703" y="91">159</text><line x1="573.855856" x2="573.855856" y1="76" y2="81" stroke="#AAAAAA" /><text style="font-size:10px;font-family:sans-serif;fill:#000000;" text-anchor="middle" x="573.855856" y="91">178</text><line x1="614.671171" x2="614.671171" y1="76" y2="81" stroke="#AAAAAA" /><text style="font-size:10px;font-family:sans-serif;fill:#000000;" text-anchor="middle" x="614.671171" y="91">191</text><line x1="1336.788288" x2="1336.788288" y1="76" y2="81" stroke="#AAAAAA" /><text style="font-size:10px;font-family:sans-serif;fill:#000000;" text-anchor="middle" x="1336.788288" y="91">421</text><line x1="1383.882883" x2="1383.882883" y1="76" y2="81" stroke="#AAAAAA" /><text style="font-size:10px;font-family:sans-serif;fill:#000000;" text-anchor="middle" x="1383.882883" y="91">436</text><line x1="1424.698198" x2="1424.698198" y1="76" y2="81" stroke="#AAAAAA" /><text style="font-size:10px;font-family:sans-serif;fill:#000000;" text-anchor="middle" x="1424.698198" y="91">449</text><line x1="1490.630631" x2="1490.630631" y1="76" y2="81" stroke="#AAAAAA" /><text style="font-size:10px;font-family:sans-serif;fill:#000000;" text-anchor="middle" x="1490.630631" y="91">470</text><line x1="1606.797297" x2="1606.797297" y1="76" y2="81" stroke="#AAAAAA" /><text style="font-size:10px;font-family:sans-serif;fill:#000000;" text-anchor="middle" x="1606.797297" y="91">507</text><line x1="1820.292793" x2="1820.292793" y1="76" y2="81" stroke="#AAAAAA" /><text style="font-size:10px;font-family:sans-serif;fill:#000000;" text-anchor="middle" x="1820.292793" y="91">575</text><line x1="1867.387387" x2="1867.387387" y1="76" y2="81" stroke="#AAAAAA" /><text style="font-size:10px;font-family:sans-serif;fill:#000000;" text-anchor="middle" x="1867.387387" y="91">590</text><line x1="1967.855856" x2="1967.855856" y1="76" y2="81" stroke="#AAAAAA" /><text style="font-size:10px;font-family:sans-serif;fill:#000000;" text-anchor="middle" x="1967.855856" y="91">622</text><line x1="1992.972973" x2="1992.972973" y1="76" y2="81" stroke="#AAAAAA" /><text style="font-size:10px;font-family:sans-serif;fill:#000000;" text-anchor="middle" x="1992.972973" y="91">630</text><line x1="2388.567568" x2="2388.567568" y1="76" y2="81" stroke="#AAAAAA" /><text style="font-size:10px;font-family:sans-serif;fill:#000000;" text-anchor="middle" x="2388.567568" y="91">756</text><line x1="2423.103604" x2="2423.103604" y1="76" y2="81" stroke="#AAAAAA" /><text style="font-size:10px;font-family:sans-serif;fill:#000000;" text-anchor="middle" x="2423.103604" y="91">767</text><line x1="2539.270270" x2="2539.270270" y1="76" y2="81" stroke="#AAAAAA" /><text style="font-size:10px;font-family:sans-serif;fill:#000000;" text-anchor="middle" x="2539.270270" y="91">804</text><line x1="2558.108108" x2="2558.108108" y1="76" y2="81" stroke="#AAAAAA" /><text style="font-size:10px;font-family:sans-serif;fill:#000000;" text-anchor="middle" x="2558.108108" y="91">810</text><line x1="2611.481982" x2="2611.481982" y1="76" y2="81" stroke="#AAAAAA" /><text style="font-size:10px;font-family:sans-serif;fill:#000000;" text-anchor="middle" x="2611.481982" y="91">827</text><line x1="2689.972973" x2="2689.972973" y1="76" y2="81" stroke="#AAAAAA" /><text style="font-size:10px;font-family:sans-serif;fill:#000000;" text-anchor="middle" x="2689.972973" y="91">852</text><line x1="2781.022523" x2="2781.022523" y1="76" y2="81" stroke="#AAAAAA" /><text style="font-size:10px;font-family:sans-serif;fill:#000000;" text-anchor="middle" x="2781.022523" y="91">881</text><line x1="2818.698198" x2="2818.698198" y1="76" y2="81" stroke="#AAAAAA" /><text style="font-size:10px;font-family:sans-serif;fill:#000000;" text-anchor="middle" x="2818.698198" y="91">893</text><line x1="2947.423423" x2="2947.423423" y1="76" y2="81" stroke="#AAAAAA" /><text style="font-size:10px;font-family:sans-serif;fill:#000000;" text-anchor="middle" x="2947.423423" y="91">934</text><line x1="3038.472973" x2="3038.472973" y1="76" y2="81" stroke="#AAAAAA" /><text style="font-size:10px;font-family:sans-serif;fill:#000000;" text-anchor="middle" x="3038.472973" y="91">963</text><line x1="3157.779279" x2="3157.779279" y1="76" y2="81" stroke="#AAAAAA" /><text style="font-size:10px;font-family:sans-serif;fill:#000000;" text-anchor="middle" x="3157.779279" y="91">1001</text><line x1="3242.549550" x2="3242.549550" y1="76" y2="81" stroke="#AAAAAA" /><text style="font-size:10px;font-family:sans-serif;fill:#000000;" text-anchor="middle" x="3242.549550" y="91">1028</text><line x1="3352.436937" x2="3352.436937" y1="76" y2="81" stroke="#AAAAAA" /><text style="font-size:10px;font-family:sans-serif;fill:#000000;" text-anchor="middle" x="3352.436937" y="91">1063</text><line x1="3405.810811" x2="3405.810811" y1="76" y2="81" stroke="#AAAAAA" /><text style="font-size:10px;font-family:sans-serif;fill:#000000;" text-anchor="middle" x="3405.810811" y="91">1080</text><line x1="3471.743243" x2="3471.743243" y1="76" y2="81" stroke="#AAAAAA" /><text style="font-size:10px;font-family:sans-serif;fill:#000000;" text-anchor="middle" x="3471.743243" y="91">1101</text><line x1="3660.121622" x2="3660.121622" y1="76" y2="81" stroke="#AAAAAA" /><text style="font-size:10px;font-family:sans-serif;fill:#000000;" text-anchor="middle" x="3660.121622" y="91">1161</text><line x1="3732.333333" x2="3732.333333" y1="76" y2="81" stroke="#AAAAAA" /><text style="font-size:10px;font-family:sans-serif;fill:#000000;" text-anchor="middle" x="3732.333333" y="91">1184</text><line x1="3917.572072" x2="3917.572072" y1="76" y2="81" stroke="#AAAAAA" /><text style="font-size:10px;font-family:sans-serif;fill:#000000;" text-anchor="middle" x="3917.572072" y="91">1243</text><line x1="3980.364865" x2="3980.364865" y1="76" y2="81" stroke="#AAAAAA" /><text style="font-size:10px;font-family:sans-serif;fill:#000000;" text-anchor="middle" x="3980.364865" y="91">1263</text><line x1="4153.045045" x2="4153.045045" y1="76" y2="81" stroke="#AAAAAA" /><text style="font-size:10px;font-family:sans-serif;fill:#000000;" text-anchor="middle" x="4153.045045" y="91">1318</text><line x1="4218.977477" x2="4218.977477" y1="76" y2="81" stroke="#AAAAAA" /><text style="font-size:10px;font-family:sans-serif;fill:#000000;" text-anchor="middle" x="4218.977477" y="91">1339</text><line x1="4306.887387" x2="4306.887387" y1="76" y2="81" stroke="#AAAAAA" /><text style="font-size:10px;font-family:sans-serif;fill:#000000;" text-anchor="middle" x="4306.887387" y="91">1367</text><line x1="4382.238739" x2="4382.238739" y1="76" y2="81" stroke="#AAAAAA" /><text style="font-size:10px;font-family:sans-serif;fill:#000000;" text-anchor="middle" x="4382.238739" y="91">1391</text><line x1="4611.432432" x2="4611.432432" y1="76" y2="81" stroke="#AAAAAA" /><text style="font-size:10px;font-family:sans-serif;fill:#000000;" text-anchor="middle" x="4611.432432" y="91">1464</text><line x1="4677.364865" x2="4677.364865" y1="76" y2="81" stroke="#AAAAAA" /><text style="font-size:10px;font-family:sans-serif;fill:#000000;" text-anchor="middle" x="4677.364865" y="91">1485</text><line x1="4733.878378" x2="4733.878378" y1="76" y2="81" stroke="#AAAAAA" /><text style="font-size:10px;font-family:sans-serif;fill:#000000;" text-anchor="middle" x="4733.878378" y="91">1503</text><line x1="4758.995495" x2="4758.995495" y1="76" y2="81" stroke="#AAAAAA" /><text style="font-size:10px;font-family:sans-serif;fill:#000000;" text-anchor="middle" x="4758.995495" y="91">1511</text><line x1="4799.810811" x2="4799.810811" y1="76" y2="81" stroke="#AAAAAA" /><text style="font-size:10px;font-family:sans-serif;fill:#000000;" text-anchor="middle" x="4799.810811" y="91">1524</text><line x1="5889.265766" x2="5889.265766" y1="76" y2="81" stroke="#AAAAAA" /><text style="font-size:10px;font-family:sans-serif;fill:#000000;" text-anchor="middle" x="5889.265766" y="91">1871</text><line x1="5923.801802" x2="5923.801802" y1="76" y2="81" stroke="#AAAAAA" /><text style="font-size:10px;font-family:sans-serif;fill:#000000;" text-anchor="middle" x="5923.801802" y="91">1882</text><line x1="5948.918919" x2="5948.918919" y1="76" y2="81" stroke="#AAAAAA" /><text style="font-size:10px;font-family:sans-serif;fill:#000000;" text-anchor="middle" x="5948.918919" y="91">1890</text><line x1="6046.247748" x2="6046.247748" y1="76" y2="81" stroke="#AAAAAA" /><text style="font-size:10px;font-family:sans-serif;fill:#000000;" text-anchor="middle" x="6046.247748" y="91">1921</text><line x1="6762.085586" x2="6762.085586" y1="76" y2="81" stroke="#AAAAAA" /><text style="font-size:10px;font-family:sans-serif;fill:#000000;" text-anchor="middle" x="6762.085586" y="91">2149</text><line x1="6985.000000" x2="6985.000000" y1="76" y2="81" stroke="#AAAAAA" /><text style="font-size:10px;font-family:sans-serif;fill:#000000;" text-anchor="middle" x="6985.000000" y="91">2220</text></g>
</svg>
