<?xml version='1.0'?>
<svg xmlns="http://www.w3.org/2000/svg" xmlns:xlink="http://www.w3.org/1999/xlink" width="7000" height="111">
<defs>
  <filter id="ds" x="0" y="0">
    <feOffset in="SourceAlpha" dx="2" dy="2" />
    <feComponentTransfer><feFuncA type="linear" slope="0.2"/></feComponentTransfer>
    <feGaussianBlur result="blurOut" stdDeviation="1" />
    <feBlend in="SourceGraphic" in2="blurOut" mode="normal" />
  </filter>
  <pattern id="disordered-hatch" patternUnits="userSpaceOnUse" width="4" height="4">
    <path d="M-1,1 l2,-2 M0,4 l4,-4 M3,5 l2,-2" stroke="#000000" opacity="0.3" />
  </pattern>
</defs>
<line x1="340.588235" x2="340.588235" y1="19" y2="47" stroke="#BABDB6" stroke-width="2"/><a xlink:title="P27S"><circle cx="340.588235" cy="19" r="4.000000" fill="#ff0000" /></a><a xlink:title="H0Y7T8_HUMAN, Amphiphysin (Fragment) (578aa)"><rect fill="#BABDB6" x="15" y="47" width="6970" height="14"/></a><a xlink:title="disorder"><rect fill="url(#disordered-hatch)" x="822.941176" y="47" width="72.352941" height="14"/></a>
<a xlink:title="disorder"><rect fill="url(#disordered-hatch)" x="2402.647059" y="47" width="542.647059" height="14"/></a>
<a xlink:title="disorder"><rect fill="url(#disordered-hatch)" x="3282.941176" y="47" width="518.529412" height="14"/></a>
<a xlink:title="disorder"><rect fill="url(#disordered-hatch)" x="3885.882353" y="47" width="217.058824" height="14"/></a>
<a xlink:title="disorder"><rect fill="url(#disordered-hatch)" x="4235.588235" y="47" width="12.058824" height="14"/></a>
<a xlink:title="disorder"><rect fill="url(#disordered-hatch)" x="4585.294118" y="47" width="1471.176471" height="14"/></a>
<a xlink:title="disorder"><rect fill="url(#disordered-hatch)" x="6080.588235" y="47" width="12.058824" height="14"/></a>
<a xlink:title="disorder"><rect fill="url(#disordered-hatch)" x="6116.764706" y="47" width="12.058824" height="14"/></a>
<a xlink:title="disorder"><rect fill="url(#disordered-hatch)" x="6152.941176" y="47" width="24.117647" height="14"/></a>
<a xlink:title="disorder"><rect fill="url(#disordered-hatch)" x="6261.470588" y="47" width="48.235294" height="14"/></a>
<a xlink:title="disorder"><rect fill="url(#disordered-hatch)" x="6370.000000" y="47" width="120.588235" height="14"/></a>
<a xlink:title="disorder"><rect fill="url(#disordered-hatch)" x="6562.941176" y="47" width="48.235294" height="14"/></a>
<a xlink:title="low_complexity"><rect fill="#C2DDFF" x="147.647059" y="45" width="205.000000" height="18" filter="url(#ds)"/></a>
<a xlink:title="low_complexity"><rect fill="#C2DDFF" x="412.941176" y="45" width="156.764706" height="18" filter="url(#ds)"/></a>
<a xlink:title="low_complexity"><rect fill="#C2DDFF" x="642.058824" y="45" width="168.823529" height="18" filter="url(#ds)"/></a>
<a xlink:title="low_complexity"><rect fill="#7FFFFF" x="3487.941176" y="45" width="253.235294" height="18" filter="url(#ds)"/></a>
<a xlink:title="low_complexity"><rect fill="#C2DDFF" x="4428.529412" y="45" width="144.705882" height="18" filter="url(#ds)"/></a>
<a xlink:title="disorder"><rect fill="url(#disordered-hatch)" x="943.529412" y="47" width="976.764706" height="14"/></a>
<a xlink:title="disorder"><rect fill="url(#disordered-hatch)" x="27.058824" y="47" width="108.529412" height="14"/></a>
<a xlink:title="disorder"><rect fill="url(#disordered-hatch)" x="364.705882" y="47" width="36.176471" height="14"/></a>
<a xlink:title="disorder"><rect fill="url(#disordered-hatch)" x="581.764706" y="47" width="48.235294" height="14"/></a>
<a xlink:title="disorder"><rect fill="url(#disordered-hatch)" x="4332.058824" y="47" width="84.411765" height="14"/></a>
<g transform="translate(6189.117647,42)"><a xlink:href="http://pfam.xfam.org/family/PF14604" xlink:title="Variant SH3 domain"><rect fill="#2dcf00" x="0" y="0" width="759.705882" height="24" filter="url(#ds)"/><text style="font-size:12px;font-family:sans-serif;fill:#ffffff;" text-anchor="middle" x="379.852941" y="16">Variant SH3 domain</text></a></g>
<g class="axis">
<line x1="15" x2="6985" y1="76" y2="76" stroke="#AAAAAA" /><line x1="15" x2="15" y1="76" y2="81" stroke="#AAAAAA" /><line x1="15.000000" x2="15.000000" y1="76" y2="81" stroke="#AAAAAA" /><text style="font-size:10px;font-family:sans-serif;fill:#000000;" text-anchor="middle" x="15.000000" y="91">0</text><line x1="147.647059" x2="147.647059" y1="76" y2="81" stroke="#AAAAAA" /><text style="font-size:10px;font-family:sans-serif;fill:#000000;" text-anchor="middle" x="147.647059" y="91">11</text><line x1="340.588235" x2="340.588235" y1="76" y2="81" stroke="#AAAAAA" /><text style="font-size:10px;font-family:sans-serif;fill:#000000;" text-anchor="middle" x="340.588235" y="91">27</text><line x1="352.647059" x2="352.647059" y1="76" y2="81" stroke="#AAAAAA" /><text style="font-size:10px;font-family:sans-serif;fill:#000000;" text-anchor="middle" x="352.647059" y="91">28</text><line x1="412.941176" x2="412.941176" y1="76" y2="81" stroke="#AAAAAA" /><text style="font-size:10px;font-family:sans-serif;fill:#000000;" text-anchor="middle" x="412.941176" y="91">33</text><line x1="569.705882" x2="569.705882" y1="76" y2="81" stroke="#AAAAAA" /><text style="font-size:10px;font-family:sans-serif;fill:#000000;" text-anchor="middle" x="569.705882" y="91">46</text><line x1="642.058824" x2="642.058824" y1="76" y2="81" stroke="#AAAAAA" /><text style="font-size:10px;font-family:sans-serif;fill:#000000;" text-anchor="middle" x="642.058824" y="91">52</text><line x1="810.882353" x2="810.882353" y1="76" y2="81" stroke="#AAAAAA" /><text style="font-size:10px;font-family:sans-serif;fill:#000000;" text-anchor="middle" x="810.882353" y="91">66</text><line x1="3487.941176" x2="3487.941176" y1="76" y2="81" stroke="#AAAAAA" /><text style="font-size:10px;font-family:sans-serif;fill:#000000;" text-anchor="middle" x="3487.941176" y="91">288</text><line x1="3741.176471" x2="3741.176471" y1="76" y2="81" stroke="#AAAAAA" /><text style="font-size:10px;font-family:sans-serif;fill:#000000;" text-anchor="middle" x="3741.176471" y="91">309</text><line x1="4428.529412" x2="4428.529412" y1="76" y2="81" stroke="#AAAAAA" /><text style="font-size:10px;font-family:sans-serif;fill:#000000;" text-anchor="middle" x="4428.529412" y="91">366</text><line x1="4573.235294" x2="4573.235294" y1="76" y2="81" stroke="#AAAAAA" /><text style="font-size:10px;font-family:sans-serif;fill:#000000;" text-anchor="middle" x="4573.235294" y="91">378</text><line x1="6189.117647" x2="6189.117647" y1="76" y2="81" stroke="#AAAAAA" /><text style="font-size:10px;font-family:sans-serif;fill:#000000;" text-anchor="middle" x="6189.117647" y="91">512</text><line x1="6948.823529" x2="6948.823529" y1="76" y2="81" stroke="#AAAAAA" /><text style="font-size:10px;font-family:sans-serif;fill:#000000;" text-anchor="middle" x="6948.823529" y="91">575</text><line x1="6985.000000" x2="6985.000000" y1="76" y2="81" stroke="#AAAAAA" /><text style="font-size:10px;font-family:sans-serif;fill:#000000;" text-anchor="middle" x="6985.000000" y="91">578</text></g>
</svg>
