<?xml version='1.0'?>
<svg xmlns="http://www.w3.org/2000/svg" xmlns:xlink="http://www.w3.org/1999/xlink" width="7000" height="111">
<defs>
  <filter id="ds" x="0" y="0">
    <feOffset in="SourceAlpha" dx="2" dy="2" />
    <feComponentTransfer><feFuncA type="linear" slope="0.2"/></feComponentTransfer>
    <feGaussianBlur result="blurOut" stdDeviation="1" />
    <feBlend in="SourceGraphic" in2="blurOut" mode="normal" />
  </filter>
  <pattern id="disordered-hatch" patternUnits="userSpaceOnUse" width="4" height="4">
    <path d="M-1,1 l2,-2 M0,4 l4,-4 M3,5 l2,-2" stroke="#000000" opacity="0.3" />
  </pattern>
</defs>
<line x1="2259.709532" x2="2259.709532" y1="19" y2="47" stroke="#BABDB6" stroke-width="2"/><a xlink:title="LPPQPTRPPQPVL571L"><circle cx="2259.709532" cy="19" r="4.000000" fill="#ff0000" /></a><a xlink:title="H0Y7R3_HUMAN, Serine/threonine-protein kinase WNK2 (Fragment) (1773aa)"><rect fill="#BABDB6" x="15" y="47" width="6970" height="14"/></a><a xlink:title="disorder"><rect fill="url(#disordered-hatch)" x="408.119007" y="47" width="27.518331" height="14"/></a>
<a xlink:title="disorder"><rect fill="url(#disordered-hatch)" x="471.018049" y="47" width="11.793570" height="14"/></a>
<a xlink:title="disorder"><rect fill="url(#disordered-hatch)" x="1115.733221" y="47" width="121.866892" height="14"/></a>
<a xlink:title="disorder"><rect fill="url(#disordered-hatch)" x="1422.366046" y="47" width="11.793570" height="14"/></a>
<a xlink:title="disorder"><rect fill="url(#disordered-hatch)" x="1469.540327" y="47" width="15.724760" height="14"/></a>
<a xlink:title="disorder"><rect fill="url(#disordered-hatch)" x="1579.613649" y="47" width="7.862380" height="14"/></a>
<a xlink:title="disorder"><rect fill="url(#disordered-hatch)" x="1646.443880" y="47" width="7.862380" height="14"/></a>
<a xlink:title="disorder"><rect fill="url(#disordered-hatch)" x="1827.278624" y="47" width="15.724760" height="14"/></a>
<a xlink:title="disorder"><rect fill="url(#disordered-hatch)" x="1854.796954" y="47" width="3.931190" height="14"/></a>
<a xlink:title="disorder"><rect fill="url(#disordered-hatch)" x="1866.590525" y="47" width="27.518331" height="14"/></a>
<a xlink:title="disorder"><rect fill="url(#disordered-hatch)" x="1992.388607" y="47" width="3.931190" height="14"/></a>
<a xlink:title="disorder"><rect fill="url(#disordered-hatch)" x="2413.025945" y="47" width="94.348562" height="14"/></a>
<a xlink:title="disorder"><rect fill="url(#disordered-hatch)" x="2523.099267" y="47" width="15.724760" height="14"/></a>
<a xlink:title="disorder"><rect fill="url(#disordered-hatch)" x="2554.548787" y="47" width="58.967851" height="14"/></a>
<a xlink:title="disorder"><rect fill="url(#disordered-hatch)" x="2621.379019" y="47" width="27.518331" height="14"/></a>
<a xlink:title="disorder"><rect fill="url(#disordered-hatch)" x="2806.144952" y="47" width="31.449521" height="14"/></a>
<a xlink:title="disorder"><rect fill="url(#disordered-hatch)" x="3234.644670" y="47" width="15.724760" height="14"/></a>
<a xlink:title="disorder"><rect fill="url(#disordered-hatch)" x="3297.543711" y="47" width="11.793570" height="14"/></a>
<a xlink:title="disorder"><rect fill="url(#disordered-hatch)" x="3364.373942" y="47" width="212.284264" height="14"/></a>
<a xlink:title="disorder"><rect fill="url(#disordered-hatch)" x="4248.891709" y="47" width="-3.931190" height="14"/></a>
<a xlink:title="disorder"><rect fill="url(#disordered-hatch)" x="4716.703328" y="47" width="581.816131" height="14"/></a>
<a xlink:title="disorder"><rect fill="url(#disordered-hatch)" x="5373.212070" y="47" width="271.252115" height="14"/></a>
<a xlink:title="disorder"><rect fill="url(#disordered-hatch)" x="5707.363226" y="47" width="3.931190" height="14"/></a>
<a xlink:title="disorder"><rect fill="url(#disordered-hatch)" x="5719.156796" y="47" width="82.554992" height="14"/></a>
<a xlink:title="disorder"><rect fill="url(#disordered-hatch)" x="5825.298928" y="47" width="7.862380" height="14"/></a>
<a xlink:title="disorder"><rect fill="url(#disordered-hatch)" x="5844.954879" y="47" width="137.591653" height="14"/></a>
<a xlink:title="disorder"><rect fill="url(#disordered-hatch)" x="6002.202482" y="47" width="23.587140" height="14"/></a>
<a xlink:title="disorder"><rect fill="url(#disordered-hatch)" x="6049.376763" y="47" width="102.210942" height="14"/></a>
<a xlink:title="disorder"><rect fill="url(#disordered-hatch)" x="6245.936266" y="47" width="82.554992" height="14"/></a>
<a xlink:title="disorder"><rect fill="url(#disordered-hatch)" x="6399.252679" y="47" width="7.862380" height="14"/></a>
<a xlink:title="disorder"><rect fill="url(#disordered-hatch)" x="6414.977439" y="47" width="3.931190" height="14"/></a>
<a xlink:title="disorder"><rect fill="url(#disordered-hatch)" x="6497.532431" y="47" width="243.733785" height="14"/></a>
<a xlink:title="disorder"><rect fill="url(#disordered-hatch)" x="6851.339538" y="47" width="11.793570" height="14"/></a>
<a xlink:title="disorder"><rect fill="url(#disordered-hatch)" x="6870.995488" y="47" width="3.931190" height="14"/></a>
<a xlink:title="disorder"><rect fill="url(#disordered-hatch)" x="6965.344050" y="47" width="7.862380" height="14"/></a>
<a xlink:title="coiled_coil"><rect fill="#7FFFFF" x="3360.442752" y="45" width="78.623801" height="18" filter="url(#ds)"/></a>
<a xlink:title="coiled_coil"><rect fill="#98E698" x="6002.202482" y="45" width="23.587140" height="18" filter="url(#ds)"/></a>
<a xlink:title="low_complexity"><rect fill="#C2DDFF" x="129.004512" y="45" width="58.967851" height="18" filter="url(#ds)"/></a>
<a xlink:title="low_complexity"><rect fill="#C2DDFF" x="734.407783" y="45" width="58.967851" height="18" filter="url(#ds)"/></a>
<a xlink:title="low_complexity"><rect fill="#C2DDFF" x="919.173717" y="45" width="31.449521" height="18" filter="url(#ds)"/></a>
<a xlink:title="low_complexity"><rect fill="#C2DDFF" x="1241.531303" y="45" width="224.077834" height="18" filter="url(#ds)"/></a>
<a xlink:title="low_complexity"><rect fill="#C2DDFF" x="1489.196277" y="45" width="145.454033" height="18" filter="url(#ds)"/></a>
<a xlink:title="low_complexity"><rect fill="#C2DDFF" x="1658.237451" y="45" width="66.830231" height="18" filter="url(#ds)"/></a>
<a xlink:title="low_complexity"><rect fill="#C2DDFF" x="1740.792442" y="45" width="82.554992" height="18" filter="url(#ds)"/></a>
<a xlink:title="low_complexity"><rect fill="#C2DDFF" x="1937.351946" y="45" width="47.174281" height="18" filter="url(#ds)"/></a>
<a xlink:title="low_complexity"><rect fill="#C2DDFF" x="2145.705020" y="45" width="263.389735" height="18" filter="url(#ds)"/></a>
<a xlink:title="low_complexity"><rect fill="#C2DDFF" x="2515.236887" y="45" width="137.591653" height="18" filter="url(#ds)"/></a>
<a xlink:title="low_complexity"><rect fill="#C2DDFF" x="2719.658770" y="45" width="82.554992" height="18" filter="url(#ds)"/></a>
<a xlink:title="low_complexity"><rect fill="#7FFFFF" x="3038.085166" y="45" width="90.417372" height="18" filter="url(#ds)"/></a>
<a xlink:title="low_complexity"><rect fill="#7FFFFF" x="3655.282008" y="45" width="82.554992" height="18" filter="url(#ds)"/></a>
<a xlink:title="low_complexity"><rect fill="#7FFFFF" x="3847.910321" y="45" width="94.348562" height="18" filter="url(#ds)"/></a>
<a xlink:title="low_complexity"><rect fill="#C2DDFF" x="4229.235759" y="45" width="15.724760" height="18" filter="url(#ds)"/></a>
<a xlink:title="low_complexity"><rect fill="#7FFFFF" x="4311.790750" y="45" width="70.761421" height="18" filter="url(#ds)"/></a>
<a xlink:title="low_complexity"><rect fill="#7FFFFF" x="4414.001692" y="45" width="51.105471" height="18" filter="url(#ds)"/></a>
<a xlink:title="low_complexity"><rect fill="#7FFFFF" x="5829.230118" y="45" width="43.243091" height="18" filter="url(#ds)"/></a>
<a xlink:title="low_complexity"><rect fill="#C2DDFF" x="6210.555556" y="45" width="31.449521" height="18" filter="url(#ds)"/></a>
<a xlink:title="low_complexity"><rect fill="#C2DDFF" x="6481.807671" y="45" width="11.793570" height="18" filter="url(#ds)"/></a>
<a xlink:title="low_complexity"><rect fill="#C2DDFF" x="6890.651438" y="45" width="55.036661" height="18" filter="url(#ds)"/></a>
<a xlink:title="disorder"><rect fill="url(#disordered-hatch)" x="954.554428" y="47" width="0.000000" height="14"/></a>
<a xlink:title="disorder"><rect fill="url(#disordered-hatch)" x="616.472081" y="47" width="114.004512" height="14"/></a>
<a xlink:title="disorder"><rect fill="url(#disordered-hatch)" x="797.306825" y="47" width="117.935702" height="14"/></a>
<a xlink:title="disorder"><rect fill="url(#disordered-hatch)" x="2035.631698" y="47" width="106.142132" height="14"/></a>
<a xlink:title="disorder"><rect fill="url(#disordered-hatch)" x="2656.759729" y="47" width="58.967851" height="14"/></a>
<a xlink:title="disorder"><rect fill="url(#disordered-hatch)" x="4201.717428" y="47" width="23.587140" height="14"/></a>
<a xlink:title="disorder"><rect fill="url(#disordered-hatch)" x="6206.624365" y="47" width="0.000000" height="14"/></a>
<a xlink:title="disorder"><rect fill="url(#disordered-hatch)" x="6481.807671" y="47" width="-3.931190" height="14"/></a>
<g transform="translate(321.632826,42)"><a xlink:href="http://pfam.xfam.org/family/PF12202" xlink:title="Oxidative-stress-responsive kinase 1 C terminal"><rect fill="#2dcf00" x="0" y="0" width="145.454033" height="24" filter="url(#ds)"/><text style="font-size:12px;font-family:sans-serif;fill:#ffffff;" text-anchor="middle" x="72.727016" y="16">OSR1_C</text></a></g>
<g class="axis">
<line x1="15" x2="6985" y1="76" y2="76" stroke="#AAAAAA" /><line x1="15" x2="15" y1="76" y2="81" stroke="#AAAAAA" /><line x1="15.000000" x2="15.000000" y1="76" y2="81" stroke="#AAAAAA" /><text style="font-size:10px;font-family:sans-serif;fill:#000000;" text-anchor="middle" x="15.000000" y="91">0</text><line x1="129.004512" x2="129.004512" y1="76" y2="81" stroke="#AAAAAA" /><text style="font-size:10px;font-family:sans-serif;fill:#000000;" text-anchor="middle" x="129.004512" y="91">29</text><line x1="187.972363" x2="187.972363" y1="76" y2="81" stroke="#AAAAAA" /><text style="font-size:10px;font-family:sans-serif;fill:#000000;" text-anchor="middle" x="187.972363" y="91">44</text><line x1="321.632826" x2="321.632826" y1="76" y2="81" stroke="#AAAAAA" /><text style="font-size:10px;font-family:sans-serif;fill:#000000;" text-anchor="middle" x="321.632826" y="91">78</text><line x1="467.086858" x2="467.086858" y1="76" y2="81" stroke="#AAAAAA" /><text style="font-size:10px;font-family:sans-serif;fill:#000000;" text-anchor="middle" x="467.086858" y="91">115</text><line x1="734.407783" x2="734.407783" y1="76" y2="81" stroke="#AAAAAA" /><text style="font-size:10px;font-family:sans-serif;fill:#000000;" text-anchor="middle" x="734.407783" y="91">183</text><line x1="793.375635" x2="793.375635" y1="76" y2="81" stroke="#AAAAAA" /><text style="font-size:10px;font-family:sans-serif;fill:#000000;" text-anchor="middle" x="793.375635" y="91">198</text><line x1="919.173717" x2="919.173717" y1="76" y2="81" stroke="#AAAAAA" /><text style="font-size:10px;font-family:sans-serif;fill:#000000;" text-anchor="middle" x="919.173717" y="91">230</text><line x1="950.623237" x2="950.623237" y1="76" y2="81" stroke="#AAAAAA" /><text style="font-size:10px;font-family:sans-serif;fill:#000000;" text-anchor="middle" x="950.623237" y="91">238</text><line x1="1241.531303" x2="1241.531303" y1="76" y2="81" stroke="#AAAAAA" /><text style="font-size:10px;font-family:sans-serif;fill:#000000;" text-anchor="middle" x="1241.531303" y="91">312</text><line x1="1465.609137" x2="1465.609137" y1="76" y2="81" stroke="#AAAAAA" /><text style="font-size:10px;font-family:sans-serif;fill:#000000;" text-anchor="middle" x="1465.609137" y="91">369</text><line x1="1489.196277" x2="1489.196277" y1="76" y2="81" stroke="#AAAAAA" /><text style="font-size:10px;font-family:sans-serif;fill:#000000;" text-anchor="middle" x="1489.196277" y="91">375</text><line x1="1634.650310" x2="1634.650310" y1="76" y2="81" stroke="#AAAAAA" /><text style="font-size:10px;font-family:sans-serif;fill:#000000;" text-anchor="middle" x="1634.650310" y="91">412</text><line x1="1658.237451" x2="1658.237451" y1="76" y2="81" stroke="#AAAAAA" /><text style="font-size:10px;font-family:sans-serif;fill:#000000;" text-anchor="middle" x="1658.237451" y="91">418</text><line x1="1725.067682" x2="1725.067682" y1="76" y2="81" stroke="#AAAAAA" /><text style="font-size:10px;font-family:sans-serif;fill:#000000;" text-anchor="middle" x="1725.067682" y="91">435</text><line x1="1823.347434" x2="1823.347434" y1="76" y2="81" stroke="#AAAAAA" /><text style="font-size:10px;font-family:sans-serif;fill:#000000;" text-anchor="middle" x="1823.347434" y="91">460</text><line x1="1937.351946" x2="1937.351946" y1="76" y2="81" stroke="#AAAAAA" /><text style="font-size:10px;font-family:sans-serif;fill:#000000;" text-anchor="middle" x="1937.351946" y="91">489</text><line x1="1984.526227" x2="1984.526227" y1="76" y2="81" stroke="#AAAAAA" /><text style="font-size:10px;font-family:sans-serif;fill:#000000;" text-anchor="middle" x="1984.526227" y="91">501</text><line x1="2145.705020" x2="2145.705020" y1="76" y2="81" stroke="#AAAAAA" /><text style="font-size:10px;font-family:sans-serif;fill:#000000;" text-anchor="middle" x="2145.705020" y="91">542</text><line x1="2259.709532" x2="2259.709532" y1="76" y2="81" stroke="#AAAAAA" /><text style="font-size:10px;font-family:sans-serif;fill:#000000;" text-anchor="middle" x="2259.709532" y="91">571</text><line x1="2409.094755" x2="2409.094755" y1="76" y2="81" stroke="#AAAAAA" /><text style="font-size:10px;font-family:sans-serif;fill:#000000;" text-anchor="middle" x="2409.094755" y="91">609</text><line x1="2515.236887" x2="2515.236887" y1="76" y2="81" stroke="#AAAAAA" /><text style="font-size:10px;font-family:sans-serif;fill:#000000;" text-anchor="middle" x="2515.236887" y="91">636</text><line x1="2652.828539" x2="2652.828539" y1="76" y2="81" stroke="#AAAAAA" /><text style="font-size:10px;font-family:sans-serif;fill:#000000;" text-anchor="middle" x="2652.828539" y="91">671</text><line x1="2719.658770" x2="2719.658770" y1="76" y2="81" stroke="#AAAAAA" /><text style="font-size:10px;font-family:sans-serif;fill:#000000;" text-anchor="middle" x="2719.658770" y="91">688</text><line x1="2802.213762" x2="2802.213762" y1="76" y2="81" stroke="#AAAAAA" /><text style="font-size:10px;font-family:sans-serif;fill:#000000;" text-anchor="middle" x="2802.213762" y="91">709</text><line x1="3038.085166" x2="3038.085166" y1="76" y2="81" stroke="#AAAAAA" /><text style="font-size:10px;font-family:sans-serif;fill:#000000;" text-anchor="middle" x="3038.085166" y="91">769</text><line x1="3128.502538" x2="3128.502538" y1="76" y2="81" stroke="#AAAAAA" /><text style="font-size:10px;font-family:sans-serif;fill:#000000;" text-anchor="middle" x="3128.502538" y="91">792</text><line x1="3360.442752" x2="3360.442752" y1="76" y2="81" stroke="#AAAAAA" /><text style="font-size:10px;font-family:sans-serif;fill:#000000;" text-anchor="middle" x="3360.442752" y="91">851</text><line x1="3439.066554" x2="3439.066554" y1="76" y2="81" stroke="#AAAAAA" /><text style="font-size:10px;font-family:sans-serif;fill:#000000;" text-anchor="middle" x="3439.066554" y="91">871</text><line x1="3655.282008" x2="3655.282008" y1="76" y2="81" stroke="#AAAAAA" /><text style="font-size:10px;font-family:sans-serif;fill:#000000;" text-anchor="middle" x="3655.282008" y="91">926</text><line x1="3737.836999" x2="3737.836999" y1="76" y2="81" stroke="#AAAAAA" /><text style="font-size:10px;font-family:sans-serif;fill:#000000;" text-anchor="middle" x="3737.836999" y="91">947</text><line x1="3847.910321" x2="3847.910321" y1="76" y2="81" stroke="#AAAAAA" /><text style="font-size:10px;font-family:sans-serif;fill:#000000;" text-anchor="middle" x="3847.910321" y="91">975</text><line x1="3942.258883" x2="3942.258883" y1="76" y2="81" stroke="#AAAAAA" /><text style="font-size:10px;font-family:sans-serif;fill:#000000;" text-anchor="middle" x="3942.258883" y="91">999</text><line x1="4229.235759" x2="4229.235759" y1="76" y2="81" stroke="#AAAAAA" /><text style="font-size:10px;font-family:sans-serif;fill:#000000;" text-anchor="middle" x="4229.235759" y="91">1072</text><line x1="4311.790750" x2="4311.790750" y1="76" y2="81" stroke="#AAAAAA" /><text style="font-size:10px;font-family:sans-serif;fill:#000000;" text-anchor="middle" x="4311.790750" y="91">1093</text><line x1="4382.552171" x2="4382.552171" y1="76" y2="81" stroke="#AAAAAA" /><text style="font-size:10px;font-family:sans-serif;fill:#000000;" text-anchor="middle" x="4382.552171" y="91">1111</text><line x1="4414.001692" x2="4414.001692" y1="76" y2="81" stroke="#AAAAAA" /><text style="font-size:10px;font-family:sans-serif;fill:#000000;" text-anchor="middle" x="4414.001692" y="91">1119</text><line x1="4465.107163" x2="4465.107163" y1="76" y2="81" stroke="#AAAAAA" /><text style="font-size:10px;font-family:sans-serif;fill:#000000;" text-anchor="middle" x="4465.107163" y="91">1132</text><line x1="5829.230118" x2="5829.230118" y1="76" y2="81" stroke="#AAAAAA" /><text style="font-size:10px;font-family:sans-serif;fill:#000000;" text-anchor="middle" x="5829.230118" y="91">1479</text><line x1="5872.473209" x2="5872.473209" y1="76" y2="81" stroke="#AAAAAA" /><text style="font-size:10px;font-family:sans-serif;fill:#000000;" text-anchor="middle" x="5872.473209" y="91">1490</text><line x1="6002.202482" x2="6002.202482" y1="76" y2="81" stroke="#AAAAAA" /><text style="font-size:10px;font-family:sans-serif;fill:#000000;" text-anchor="middle" x="6002.202482" y="91">1523</text><line x1="6025.789622" x2="6025.789622" y1="76" y2="81" stroke="#AAAAAA" /><text style="font-size:10px;font-family:sans-serif;fill:#000000;" text-anchor="middle" x="6025.789622" y="91">1529</text><line x1="6210.555556" x2="6210.555556" y1="76" y2="81" stroke="#AAAAAA" /><text style="font-size:10px;font-family:sans-serif;fill:#000000;" text-anchor="middle" x="6210.555556" y="91">1576</text><line x1="6242.005076" x2="6242.005076" y1="76" y2="81" stroke="#AAAAAA" /><text style="font-size:10px;font-family:sans-serif;fill:#000000;" text-anchor="middle" x="6242.005076" y="91">1584</text><line x1="6481.807671" x2="6481.807671" y1="76" y2="81" stroke="#AAAAAA" /><text style="font-size:10px;font-family:sans-serif;fill:#000000;" text-anchor="middle" x="6481.807671" y="91">1645</text><line x1="6890.651438" x2="6890.651438" y1="76" y2="81" stroke="#AAAAAA" /><text style="font-size:10px;font-family:sans-serif;fill:#000000;" text-anchor="middle" x="6890.651438" y="91">1749</text><line x1="6945.688099" x2="6945.688099" y1="76" y2="81" stroke="#AAAAAA" /><text style="font-size:10px;font-family:sans-serif;fill:#000000;" text-anchor="middle" x="6945.688099" y="91">1763</text><line x1="6985.000000" x2="6985.000000" y1="76" y2="81" stroke="#AAAAAA" /><text style="font-size:10px;font-family:sans-serif;fill:#000000;" text-anchor="middle" x="6985.000000" y="91">1773</text></g>
</svg>
