<?xml version='1.0'?>
<svg xmlns="http://www.w3.org/2000/svg" xmlns:xlink="http://www.w3.org/1999/xlink" width="7000" height="111">
<defs>
  <filter id="ds" x="0" y="0">
    <feOffset in="SourceAlpha" dx="2" dy="2" />
    <feComponentTransfer><feFuncA type="linear" slope="0.2"/></feComponentTransfer>
    <feGaussianBlur result="blurOut" stdDeviation="1" />
    <feBlend in="SourceGraphic" in2="blurOut" mode="normal" />
  </filter>
  <pattern id="disordered-hatch" patternUnits="userSpaceOnUse" width="4" height="4">
    <path d="M-1,1 l2,-2 M0,4 l4,-4 M3,5 l2,-2" stroke="#000000" opacity="0.3" />
  </pattern>
</defs>
<line x1="4407.054795" x2="4407.054795" y1="19" y2="47" stroke="#BABDB6" stroke-width="2"/><a xlink:title="S138A"><circle cx="4407.054795" cy="19" r="4.000000" fill="#ff0000" /></a><a xlink:title="H0YEG4_HUMAN, Monocarboxylate transporter 5 (Fragment) (219aa)"><rect fill="#BABDB6" x="15" y="47" width="6970" height="14"/></a><a xlink:title="disorder"><rect fill="url(#disordered-hatch)" x="46.826484" y="47" width="31.826484" height="14"/></a>
<a xlink:title="disorder"><rect fill="url(#disordered-hatch)" x="524.223744" y="47" width="31.826484" height="14"/></a>
<a xlink:title="transmembrane"><rect fill="#FFA3A3" x="2147.374429" y="45" width="572.876712" height="18" filter="url(#ds)"/></a>
<a xlink:title="transmembrane"><rect fill="#FFA3A3" x="3356.780822" y="45" width="636.529680" height="18" filter="url(#ds)"/></a>
<a xlink:title="transmembrane"><rect fill="#FFA3A3" x="4375.228311" y="45" width="509.223744" height="18" filter="url(#ds)"/></a>
<a xlink:title="transmembrane"><rect fill="#FFA3A3" x="5075.410959" y="45" width="700.182648" height="18" filter="url(#ds)"/></a>
<a xlink:title="transmembrane"><rect fill="#FFA3A3" x="6157.511416" y="45" width="604.703196" height="18" filter="url(#ds)"/></a>
<a xlink:title="low_complexity"><rect fill="#C2DDFF" x="4916.278539" y="45" width="127.305936" height="18" filter="url(#ds)"/></a>
<g class="axis">
<line x1="15" x2="6985" y1="76" y2="76" stroke="#AAAAAA" /><line x1="15" x2="15" y1="76" y2="81" stroke="#AAAAAA" /><line x1="15.000000" x2="15.000000" y1="76" y2="81" stroke="#AAAAAA" /><text style="font-size:10px;font-family:sans-serif;fill:#000000;" text-anchor="middle" x="15.000000" y="91">0</text><line x1="2147.374429" x2="2147.374429" y1="76" y2="81" stroke="#AAAAAA" /><text style="font-size:10px;font-family:sans-serif;fill:#000000;" text-anchor="middle" x="2147.374429" y="91">67</text><line x1="2720.251142" x2="2720.251142" y1="76" y2="81" stroke="#AAAAAA" /><text style="font-size:10px;font-family:sans-serif;fill:#000000;" text-anchor="middle" x="2720.251142" y="91">85</text><line x1="3356.780822" x2="3356.780822" y1="76" y2="81" stroke="#AAAAAA" /><text style="font-size:10px;font-family:sans-serif;fill:#000000;" text-anchor="middle" x="3356.780822" y="91">105</text><line x1="3993.310502" x2="3993.310502" y1="76" y2="81" stroke="#AAAAAA" /><text style="font-size:10px;font-family:sans-serif;fill:#000000;" text-anchor="middle" x="3993.310502" y="91">125</text><line x1="4375.228311" x2="4375.228311" y1="76" y2="81" stroke="#AAAAAA" /><text style="font-size:10px;font-family:sans-serif;fill:#000000;" text-anchor="middle" x="4375.228311" y="91">137</text><line x1="4407.054795" x2="4407.054795" y1="76" y2="81" stroke="#AAAAAA" /><text style="font-size:10px;font-family:sans-serif;fill:#000000;" text-anchor="middle" x="4407.054795" y="91">138</text><line x1="4884.452055" x2="4884.452055" y1="76" y2="81" stroke="#AAAAAA" /><text style="font-size:10px;font-family:sans-serif;fill:#000000;" text-anchor="middle" x="4884.452055" y="91">153</text><line x1="4916.278539" x2="4916.278539" y1="76" y2="81" stroke="#AAAAAA" /><text style="font-size:10px;font-family:sans-serif;fill:#000000;" text-anchor="middle" x="4916.278539" y="91">154</text><line x1="5043.584475" x2="5043.584475" y1="76" y2="81" stroke="#AAAAAA" /><text style="font-size:10px;font-family:sans-serif;fill:#000000;" text-anchor="middle" x="5043.584475" y="91">158</text><line x1="5075.410959" x2="5075.410959" y1="76" y2="81" stroke="#AAAAAA" /><text style="font-size:10px;font-family:sans-serif;fill:#000000;" text-anchor="middle" x="5075.410959" y="91">159</text><line x1="5775.593607" x2="5775.593607" y1="76" y2="81" stroke="#AAAAAA" /><text style="font-size:10px;font-family:sans-serif;fill:#000000;" text-anchor="middle" x="5775.593607" y="91">181</text><line x1="6157.511416" x2="6157.511416" y1="76" y2="81" stroke="#AAAAAA" /><text style="font-size:10px;font-family:sans-serif;fill:#000000;" text-anchor="middle" x="6157.511416" y="91">193</text><line x1="6762.214612" x2="6762.214612" y1="76" y2="81" stroke="#AAAAAA" /><text style="font-size:10px;font-family:sans-serif;fill:#000000;" text-anchor="middle" x="6762.214612" y="91">212</text><line x1="6985.000000" x2="6985.000000" y1="76" y2="81" stroke="#AAAAAA" /><text style="font-size:10px;font-family:sans-serif;fill:#000000;" text-anchor="middle" x="6985.000000" y="91">219</text></g>
</svg>
