<?xml version='1.0'?>
<svg xmlns="http://www.w3.org/2000/svg" xmlns:xlink="http://www.w3.org/1999/xlink" width="7000" height="111">
<defs>
  <filter id="ds" x="0" y="0">
    <feOffset in="SourceAlpha" dx="2" dy="2" />
    <feComponentTransfer><feFuncA type="linear" slope="0.2"/></feComponentTransfer>
    <feGaussianBlur result="blurOut" stdDeviation="1" />
    <feBlend in="SourceGraphic" in2="blurOut" mode="normal" />
  </filter>
  <pattern id="disordered-hatch" patternUnits="userSpaceOnUse" width="4" height="4">
    <path d="M-1,1 l2,-2 M0,4 l4,-4 M3,5 l2,-2" stroke="#000000" opacity="0.3" />
  </pattern>
</defs>
<line x1="4387.484472" x2="4387.484472" y1="19" y2="47" stroke="#BABDB6" stroke-width="2"/><a xlink:title="E101G"><circle cx="4387.484472" cy="19" r="4.000000" fill="#ff0000" /></a><a xlink:title="H0YLC7_HUMAN, Fumarylacetoacetase (Fragment) (161aa)"><rect fill="#BABDB6" x="15" y="47" width="6970" height="14"/></a><g transform="translate(664.378882,42)"><a xlink:href="http://pfam.xfam.org/family/PF09298" xlink:title="Fumarylacetoacetase N-terminal"><rect fill="#2dcf00" x="0" y="0" width="4459.068323" height="24" filter="url(#ds)"/><text style="font-size:12px;font-family:sans-serif;fill:#ffffff;" text-anchor="middle" x="2229.534161" y="16">Fumarylacetoacetase N-terminal</text></a></g>
<g class="axis">
<line x1="15" x2="6985" y1="76" y2="76" stroke="#AAAAAA" /><line x1="15" x2="15" y1="76" y2="81" stroke="#AAAAAA" /><line x1="15.000000" x2="15.000000" y1="76" y2="81" stroke="#AAAAAA" /><text style="font-size:10px;font-family:sans-serif;fill:#000000;" text-anchor="middle" x="15.000000" y="91">0</text><line x1="664.378882" x2="664.378882" y1="76" y2="81" stroke="#AAAAAA" /><text style="font-size:10px;font-family:sans-serif;fill:#000000;" text-anchor="middle" x="664.378882" y="91">15</text><line x1="4387.484472" x2="4387.484472" y1="76" y2="81" stroke="#AAAAAA" /><text style="font-size:10px;font-family:sans-serif;fill:#000000;" text-anchor="middle" x="4387.484472" y="91">101</text><line x1="5123.447205" x2="5123.447205" y1="76" y2="81" stroke="#AAAAAA" /><text style="font-size:10px;font-family:sans-serif;fill:#000000;" text-anchor="middle" x="5123.447205" y="91">118</text><line x1="6985.000000" x2="6985.000000" y1="76" y2="81" stroke="#AAAAAA" /><text style="font-size:10px;font-family:sans-serif;fill:#000000;" text-anchor="middle" x="6985.000000" y="91">161</text></g>
</svg>
