<?xml version='1.0'?>
<svg xmlns="http://www.w3.org/2000/svg" xmlns:xlink="http://www.w3.org/1999/xlink" width="7000" height="111">
<defs>
  <filter id="ds" x="0" y="0">
    <feOffset in="SourceAlpha" dx="2" dy="2" />
    <feComponentTransfer><feFuncA type="linear" slope="0.2"/></feComponentTransfer>
    <feGaussianBlur result="blurOut" stdDeviation="1" />
    <feBlend in="SourceGraphic" in2="blurOut" mode="normal" />
  </filter>
  <pattern id="disordered-hatch" patternUnits="userSpaceOnUse" width="4" height="4">
    <path d="M-1,1 l2,-2 M0,4 l4,-4 M3,5 l2,-2" stroke="#000000" opacity="0.3" />
  </pattern>
</defs>
<line x1="6242.415612" x2="6242.415612" y1="19" y2="47" stroke="#BABDB6" stroke-width="2"/><a xlink:title="P847"><circle cx="6242.415612" cy="19" r="4.000000" fill="#ff0000" /></a><a xlink:title="H0YMD1_HUMAN, Low-density lipoprotein receptor (948aa)"><rect fill="#BABDB6" x="15" y="47" width="6970" height="14"/></a><a xlink:title="disorder"><rect fill="url(#disordered-hatch)" x="5382.194093" y="47" width="0.000000" height="14"/></a>
<a xlink:title="disorder"><rect fill="url(#disordered-hatch)" x="5676.286920" y="47" width="73.523207" height="14"/></a>
<a xlink:title="disorder"><rect fill="url(#disordered-hatch)" x="6190.949367" y="47" width="95.580169" height="14"/></a>
<a xlink:title="sig_p"><rect fill="#FFD27F" x="22.352321" y="45" width="169.103376" height="18" filter="url(#ds)"/></a>
<a xlink:title="low_complexity"><rect fill="#7FFFFF" x="95.875527" y="45" width="95.580169" height="18" filter="url(#ds)"/></a>
<a xlink:title="low_complexity"><rect fill="#C2DDFF" x="5257.204641" y="45" width="95.580169" height="18" filter="url(#ds)"/></a>
<a xlink:title="low_complexity"><rect fill="#C2DDFF" x="6036.550633" y="45" width="66.170886" height="18" filter="url(#ds)"/></a>
<a xlink:title="low_complexity"><rect fill="#C2DDFF" x="6293.881857" y="45" width="132.341772" height="18" filter="url(#ds)"/></a>
<g transform="translate(198.808017,42)"><a xlink:href="http://pfam.xfam.org/family/PF00057" xlink:title="Low-density lipoprotein receptor domain class A"><rect fill="#2dcf00" x="0" y="0" width="279.388186" height="24" filter="url(#ds)"/><text style="font-size:12px;font-family:sans-serif;fill:#ffffff;" text-anchor="middle" x="139.694093" y="16">Ldl_recept_a</text></a></g>
<g transform="translate(500.253165,42)"><a xlink:href="http://pfam.xfam.org/family/PF00057" xlink:title="Low-density lipoprotein receptor domain class A"><rect fill="#2dcf00" x="0" y="0" width="279.388186" height="24" filter="url(#ds)"/><text style="font-size:12px;font-family:sans-serif;fill:#ffffff;" text-anchor="middle" x="139.694093" y="16">Ldl_recept_a</text></a></g>
<g transform="translate(801.698312,42)"><a xlink:href="http://pfam.xfam.org/family/PF00057" xlink:title="Low-density lipoprotein receptor domain class A"><rect fill="#2dcf00" x="0" y="0" width="264.683544" height="24" filter="url(#ds)"/><text style="font-size:12px;font-family:sans-serif;fill:#ffffff;" text-anchor="middle" x="132.341772" y="16">Ldl_recept_a</text></a></g>
<g transform="translate(1088.438819,42)"><a xlink:href="http://pfam.xfam.org/family/PF00057" xlink:title="Low-density lipoprotein receptor domain class A"><rect fill="#2dcf00" x="0" y="0" width="279.388186" height="24" filter="url(#ds)"/><text style="font-size:12px;font-family:sans-serif;fill:#ffffff;" text-anchor="middle" x="139.694093" y="16">Ldl_recept_a</text></a></g>
<g transform="translate(1448.702532,42)"><a xlink:href="http://pfam.xfam.org/family/PF00057" xlink:title="Low-density lipoprotein receptor domain class A"><rect fill="#2dcf00" x="0" y="0" width="264.683544" height="24" filter="url(#ds)"/><text style="font-size:12px;font-family:sans-serif;fill:#ffffff;" text-anchor="middle" x="132.341772" y="16">Ldl_recept_a</text></a></g>
<g transform="translate(1735.443038,42)"><a xlink:href="http://pfam.xfam.org/family/PF00057" xlink:title="Low-density lipoprotein receptor domain class A"><rect fill="#2dcf00" x="0" y="0" width="264.683544" height="24" filter="url(#ds)"/><text style="font-size:12px;font-family:sans-serif;fill:#ffffff;" text-anchor="middle" x="132.341772" y="16">Ldl_recept_a</text></a></g>
<g transform="translate(2029.535865,42)"><a xlink:href="http://pfam.xfam.org/family/PF00057" xlink:title="Low-density lipoprotein receptor domain class A"><rect fill="#2dcf00" x="0" y="0" width="286.740506" height="24" filter="url(#ds)"/><text style="font-size:12px;font-family:sans-serif;fill:#ffffff;" text-anchor="middle" x="143.370253" y="16">Ldl_recept_a</text></a></g>
<g transform="translate(2617.721519,42)"><a xlink:href="http://pfam.xfam.org/family/PF07645" xlink:title="Calcium-binding EGF domain"><rect fill="#ff5353" x="0" y="0" width="279.388186" height="24" filter="url(#ds)"/><text style="font-size:12px;font-family:sans-serif;fill:#ffffff;" text-anchor="middle" x="139.694093" y="16">Calcium-binding EGF domain</text></a></g>
<g transform="translate(3242.668776,42)"><a xlink:href="http://pfam.xfam.org/family/PF00058" xlink:title="Low-density lipoprotein receptor repeat class B"><rect fill="#5b5bff" x="0" y="0" width="323.502110" height="24" filter="url(#ds)"/><text style="font-size:12px;font-family:sans-serif;fill:#ffffff;" text-anchor="middle" x="161.751055" y="16">Ldl_recept_b</text></a></g>
<g transform="translate(3588.227848,42)"><a xlink:href="http://pfam.xfam.org/family/PF00058" xlink:title="Low-density lipoprotein receptor repeat class B"><rect fill="#5b5bff" x="0" y="0" width="294.092827" height="24" filter="url(#ds)"/><text style="font-size:12px;font-family:sans-serif;fill:#ffffff;" text-anchor="middle" x="147.046414" y="16">Ldl_recept_b</text></a></g>
<g transform="translate(3904.377637,42)"><a xlink:href="http://pfam.xfam.org/family/PF00058" xlink:title="Low-density lipoprotein receptor repeat class B"><rect fill="#5b5bff" x="0" y="0" width="301.445148" height="24" filter="url(#ds)"/><text style="font-size:12px;font-family:sans-serif;fill:#ffffff;" text-anchor="middle" x="150.722574" y="16">Ldl_recept_b</text></a></g>
<g transform="translate(4227.879747,42)"><a xlink:href="http://pfam.xfam.org/family/PF00058" xlink:title="Low-density lipoprotein receptor repeat class B"><rect fill="#5b5bff" x="0" y="0" width="308.797468" height="24" filter="url(#ds)"/><text style="font-size:12px;font-family:sans-serif;fill:#ffffff;" text-anchor="middle" x="154.398734" y="16">Ldl_recept_b</text></a></g>
<g transform="translate(4544.029536,42)"><a xlink:href="http://pfam.xfam.org/family/PF00058" xlink:title="Low-density lipoprotein receptor repeat class B"><rect fill="#5b5bff" x="0" y="0" width="294.092827" height="24" filter="url(#ds)"/><text style="font-size:12px;font-family:sans-serif;fill:#ffffff;" text-anchor="middle" x="147.046414" y="16">Ldl_recept_b</text></a></g>
<g transform="translate(4948.407173,42)"><a xlink:href="http://pfam.xfam.org/family/PF14670" xlink:title="Coagulation Factor Xa inhibitory site"><rect fill="#ebd61d" x="0" y="0" width="294.092827" height="24" filter="url(#ds)"/><text style="font-size:12px;font-family:sans-serif;fill:#ffffff;" text-anchor="middle" x="147.046414" y="16">FXa_inhibition</text></a></g>
<g class="axis">
<line x1="15" x2="6985" y1="76" y2="76" stroke="#AAAAAA" /><line x1="15" x2="15" y1="76" y2="81" stroke="#AAAAAA" /><line x1="22.352321" x2="22.352321" y1="76" y2="81" stroke="#AAAAAA" /><text style="font-size:10px;font-family:sans-serif;fill:#000000;" text-anchor="middle" x="22.352321" y="91">1</text><line x1="95.875527" x2="95.875527" y1="76" y2="81" stroke="#AAAAAA" /><text style="font-size:10px;font-family:sans-serif;fill:#000000;" text-anchor="middle" x="95.875527" y="91">11</text><line x1="198.808017" x2="198.808017" y1="76" y2="81" stroke="#AAAAAA" /><text style="font-size:10px;font-family:sans-serif;fill:#000000;" text-anchor="middle" x="198.808017" y="91">25</text><line x1="478.196203" x2="478.196203" y1="76" y2="81" stroke="#AAAAAA" /><text style="font-size:10px;font-family:sans-serif;fill:#000000;" text-anchor="middle" x="478.196203" y="91">63</text><line x1="500.253165" x2="500.253165" y1="76" y2="81" stroke="#AAAAAA" /><text style="font-size:10px;font-family:sans-serif;fill:#000000;" text-anchor="middle" x="500.253165" y="91">66</text><line x1="779.641350" x2="779.641350" y1="76" y2="81" stroke="#AAAAAA" /><text style="font-size:10px;font-family:sans-serif;fill:#000000;" text-anchor="middle" x="779.641350" y="91">104</text><line x1="801.698312" x2="801.698312" y1="76" y2="81" stroke="#AAAAAA" /><text style="font-size:10px;font-family:sans-serif;fill:#000000;" text-anchor="middle" x="801.698312" y="91">107</text><line x1="1066.381857" x2="1066.381857" y1="76" y2="81" stroke="#AAAAAA" /><text style="font-size:10px;font-family:sans-serif;fill:#000000;" text-anchor="middle" x="1066.381857" y="91">143</text><line x1="1088.438819" x2="1088.438819" y1="76" y2="81" stroke="#AAAAAA" /><text style="font-size:10px;font-family:sans-serif;fill:#000000;" text-anchor="middle" x="1088.438819" y="91">146</text><line x1="1367.827004" x2="1367.827004" y1="76" y2="81" stroke="#AAAAAA" /><text style="font-size:10px;font-family:sans-serif;fill:#000000;" text-anchor="middle" x="1367.827004" y="91">184</text><line x1="1448.702532" x2="1448.702532" y1="76" y2="81" stroke="#AAAAAA" /><text style="font-size:10px;font-family:sans-serif;fill:#000000;" text-anchor="middle" x="1448.702532" y="91">195</text><line x1="1713.386076" x2="1713.386076" y1="76" y2="81" stroke="#AAAAAA" /><text style="font-size:10px;font-family:sans-serif;fill:#000000;" text-anchor="middle" x="1713.386076" y="91">231</text><line x1="1735.443038" x2="1735.443038" y1="76" y2="81" stroke="#AAAAAA" /><text style="font-size:10px;font-family:sans-serif;fill:#000000;" text-anchor="middle" x="1735.443038" y="91">234</text><line x1="2000.126582" x2="2000.126582" y1="76" y2="81" stroke="#AAAAAA" /><text style="font-size:10px;font-family:sans-serif;fill:#000000;" text-anchor="middle" x="2000.126582" y="91">270</text><line x1="2029.535865" x2="2029.535865" y1="76" y2="81" stroke="#AAAAAA" /><text style="font-size:10px;font-family:sans-serif;fill:#000000;" text-anchor="middle" x="2029.535865" y="91">274</text><line x1="2316.276371" x2="2316.276371" y1="76" y2="81" stroke="#AAAAAA" /><text style="font-size:10px;font-family:sans-serif;fill:#000000;" text-anchor="middle" x="2316.276371" y="91">313</text><line x1="2617.721519" x2="2617.721519" y1="76" y2="81" stroke="#AAAAAA" /><text style="font-size:10px;font-family:sans-serif;fill:#000000;" text-anchor="middle" x="2617.721519" y="91">354</text><line x1="2897.109705" x2="2897.109705" y1="76" y2="81" stroke="#AAAAAA" /><text style="font-size:10px;font-family:sans-serif;fill:#000000;" text-anchor="middle" x="2897.109705" y="91">392</text><line x1="3242.668776" x2="3242.668776" y1="76" y2="81" stroke="#AAAAAA" /><text style="font-size:10px;font-family:sans-serif;fill:#000000;" text-anchor="middle" x="3242.668776" y="91">439</text><line x1="3566.170886" x2="3566.170886" y1="76" y2="81" stroke="#AAAAAA" /><text style="font-size:10px;font-family:sans-serif;fill:#000000;" text-anchor="middle" x="3566.170886" y="91">483</text><line x1="3588.227848" x2="3588.227848" y1="76" y2="81" stroke="#AAAAAA" /><text style="font-size:10px;font-family:sans-serif;fill:#000000;" text-anchor="middle" x="3588.227848" y="91">486</text><line x1="3882.320675" x2="3882.320675" y1="76" y2="81" stroke="#AAAAAA" /><text style="font-size:10px;font-family:sans-serif;fill:#000000;" text-anchor="middle" x="3882.320675" y="91">526</text><line x1="3904.377637" x2="3904.377637" y1="76" y2="81" stroke="#AAAAAA" /><text style="font-size:10px;font-family:sans-serif;fill:#000000;" text-anchor="middle" x="3904.377637" y="91">529</text><line x1="4205.822785" x2="4205.822785" y1="76" y2="81" stroke="#AAAAAA" /><text style="font-size:10px;font-family:sans-serif;fill:#000000;" text-anchor="middle" x="4205.822785" y="91">570</text><line x1="4227.879747" x2="4227.879747" y1="76" y2="81" stroke="#AAAAAA" /><text style="font-size:10px;font-family:sans-serif;fill:#000000;" text-anchor="middle" x="4227.879747" y="91">573</text><line x1="4536.677215" x2="4536.677215" y1="76" y2="81" stroke="#AAAAAA" /><text style="font-size:10px;font-family:sans-serif;fill:#000000;" text-anchor="middle" x="4536.677215" y="91">615</text><line x1="4838.122363" x2="4838.122363" y1="76" y2="81" stroke="#AAAAAA" /><text style="font-size:10px;font-family:sans-serif;fill:#000000;" text-anchor="middle" x="4838.122363" y="91">656</text><line x1="4948.407173" x2="4948.407173" y1="76" y2="81" stroke="#AAAAAA" /><text style="font-size:10px;font-family:sans-serif;fill:#000000;" text-anchor="middle" x="4948.407173" y="91">671</text><line x1="5242.500000" x2="5242.500000" y1="76" y2="81" stroke="#AAAAAA" /><text style="font-size:10px;font-family:sans-serif;fill:#000000;" text-anchor="middle" x="5242.500000" y="91">711</text><line x1="5257.204641" x2="5257.204641" y1="76" y2="81" stroke="#AAAAAA" /><text style="font-size:10px;font-family:sans-serif;fill:#000000;" text-anchor="middle" x="5257.204641" y="91">713</text><line x1="5352.784810" x2="5352.784810" y1="76" y2="81" stroke="#AAAAAA" /><text style="font-size:10px;font-family:sans-serif;fill:#000000;" text-anchor="middle" x="5352.784810" y="91">726</text><line x1="6036.550633" x2="6036.550633" y1="76" y2="81" stroke="#AAAAAA" /><text style="font-size:10px;font-family:sans-serif;fill:#000000;" text-anchor="middle" x="6036.550633" y="91">819</text><line x1="6102.721519" x2="6102.721519" y1="76" y2="81" stroke="#AAAAAA" /><text style="font-size:10px;font-family:sans-serif;fill:#000000;" text-anchor="middle" x="6102.721519" y="91">828</text><line x1="6242.415612" x2="6242.415612" y1="76" y2="81" stroke="#AAAAAA" /><text style="font-size:10px;font-family:sans-serif;fill:#000000;" text-anchor="middle" x="6242.415612" y="91">847</text><line x1="6293.881857" x2="6293.881857" y1="76" y2="81" stroke="#AAAAAA" /><text style="font-size:10px;font-family:sans-serif;fill:#000000;" text-anchor="middle" x="6293.881857" y="91">854</text><line x1="6426.223629" x2="6426.223629" y1="76" y2="81" stroke="#AAAAAA" /><text style="font-size:10px;font-family:sans-serif;fill:#000000;" text-anchor="middle" x="6426.223629" y="91">872</text><line x1="6985.000000" x2="6985.000000" y1="76" y2="81" stroke="#AAAAAA" /><text style="font-size:10px;font-family:sans-serif;fill:#000000;" text-anchor="middle" x="6985.000000" y="91">948</text></g>
</svg>
