<?xml version='1.0'?>
<svg xmlns="http://www.w3.org/2000/svg" xmlns:xlink="http://www.w3.org/1999/xlink" width="7000" height="111">
<defs>
  <filter id="ds" x="0" y="0">
    <feOffset in="SourceAlpha" dx="2" dy="2" />
    <feComponentTransfer><feFuncA type="linear" slope="0.2"/></feComponentTransfer>
    <feGaussianBlur result="blurOut" stdDeviation="1" />
    <feBlend in="SourceGraphic" in2="blurOut" mode="normal" />
  </filter>
  <pattern id="disordered-hatch" patternUnits="userSpaceOnUse" width="4" height="4">
    <path d="M-1,1 l2,-2 M0,4 l4,-4 M3,5 l2,-2" stroke="#000000" opacity="0.3" />
  </pattern>
</defs>
<line x1="36.679627" x2="36.679627" y1="19" y2="47" stroke="#BABDB6" stroke-width="2"/><a xlink:title="V4A"><circle cx="36.679627" cy="19" r="4.000000" fill="#ff0000" /></a><a xlink:title="H0YNU5_HUMAN, Bloom syndrome protein (1286aa)"><rect fill="#BABDB6" x="15" y="47" width="6970" height="14"/></a><a xlink:title="disorder"><rect fill="url(#disordered-hatch)" x="20.419907" y="47" width="130.077760" height="14"/></a>
<a xlink:title="disorder"><rect fill="url(#disordered-hatch)" x="264.315708" y="47" width="48.779160" height="14"/></a>
<a xlink:title="disorder"><rect fill="url(#disordered-hatch)" x="329.354588" y="47" width="5.419907" height="14"/></a>
<a xlink:title="disorder"><rect fill="url(#disordered-hatch)" x="378.133748" y="47" width="59.618974" height="14"/></a>
<a xlink:title="disorder"><rect fill="url(#disordered-hatch)" x="459.432348" y="47" width="140.917574" height="14"/></a>
<a xlink:title="disorder"><rect fill="url(#disordered-hatch)" x="638.289269" y="47" width="5.419907" height="14"/></a>
<a xlink:title="disorder"><rect fill="url(#disordered-hatch)" x="654.548989" y="47" width="48.779160" height="14"/></a>
<a xlink:title="disorder"><rect fill="url(#disordered-hatch)" x="725.007776" y="47" width="27.099533" height="14"/></a>
<a xlink:title="disorder"><rect fill="url(#disordered-hatch)" x="779.206843" y="47" width="5.419907" height="14"/></a>
<a xlink:title="disorder"><rect fill="url(#disordered-hatch)" x="811.726283" y="47" width="5.419907" height="14"/></a>
<a xlink:title="disorder"><rect fill="url(#disordered-hatch)" x="827.986003" y="47" width="37.939347" height="14"/></a>
<a xlink:title="disorder"><rect fill="url(#disordered-hatch)" x="887.604977" y="47" width="113.818040" height="14"/></a>
<a xlink:title="disorder"><rect fill="url(#disordered-hatch)" x="1098.981337" y="47" width="135.497667" height="14"/></a>
<a xlink:title="disorder"><rect fill="url(#disordered-hatch)" x="1266.998445" y="47" width="5.419907" height="14"/></a>
<a xlink:title="disorder"><rect fill="url(#disordered-hatch)" x="1326.617418" y="47" width="200.536547" height="14"/></a>
<a xlink:title="disorder"><rect fill="url(#disordered-hatch)" x="1543.413686" y="47" width="10.839813" height="14"/></a>
<a xlink:title="disorder"><rect fill="url(#disordered-hatch)" x="1565.093313" y="47" width="10.839813" height="14"/></a>
<a xlink:title="disorder"><rect fill="url(#disordered-hatch)" x="1640.972006" y="47" width="5.419907" height="14"/></a>
<a xlink:title="disorder"><rect fill="url(#disordered-hatch)" x="1798.149300" y="47" width="5.419907" height="14"/></a>
<a xlink:title="disorder"><rect fill="url(#disordered-hatch)" x="1825.248834" y="47" width="151.757387" height="14"/></a>
<a xlink:title="disorder"><rect fill="url(#disordered-hatch)" x="2383.499222" y="47" width="75.878694" height="14"/></a>
<a xlink:title="disorder"><rect fill="url(#disordered-hatch)" x="2475.637636" y="47" width="16.259720" height="14"/></a>
<a xlink:title="disorder"><rect fill="url(#disordered-hatch)" x="2789.992224" y="47" width="5.419907" height="14"/></a>
<a xlink:title="disorder"><rect fill="url(#disordered-hatch)" x="2811.671851" y="47" width="10.839813" height="14"/></a>
<a xlink:title="disorder"><rect fill="url(#disordered-hatch)" x="2844.191291" y="47" width="16.259720" height="14"/></a>
<a xlink:title="disorder"><rect fill="url(#disordered-hatch)" x="2887.550544" y="47" width="86.718507" height="14"/></a>
<a xlink:title="disorder"><rect fill="url(#disordered-hatch)" x="3017.628305" y="47" width="5.419907" height="14"/></a>
<a xlink:title="disorder"><rect fill="url(#disordered-hatch)" x="3163.965785" y="47" width="10.839813" height="14"/></a>
<a xlink:title="disorder"><rect fill="url(#disordered-hatch)" x="3185.645412" y="47" width="32.519440" height="14"/></a>
<a xlink:title="disorder"><rect fill="url(#disordered-hatch)" x="3234.424572" y="47" width="5.419907" height="14"/></a>
<a xlink:title="disorder"><rect fill="url(#disordered-hatch)" x="5955.217729" y="47" width="32.519440" height="14"/></a>
<a xlink:title="disorder"><rect fill="url(#disordered-hatch)" x="6410.489891" y="47" width="32.519440" height="14"/></a>
<a xlink:title="disorder"><rect fill="url(#disordered-hatch)" x="6854.922240" y="47" width="65.038880" height="14"/></a>
<a xlink:title="disorder"><rect fill="url(#disordered-hatch)" x="6930.800933" y="47" width="27.099533" height="14"/></a>
<a xlink:title="coiled_coil"><rect fill="#7FFFFF" x="1418.755832" y="45" width="108.398134" height="18" filter="url(#ds)"/></a>
<a xlink:title="low_complexity"><rect fill="#7FFFFF" x="166.757387" y="45" width="140.917574" height="18" filter="url(#ds)"/></a>
<a xlink:title="low_complexity"><rect fill="#7FFFFF" x="1597.612753" y="45" width="37.939347" height="18" filter="url(#ds)"/></a>
<a xlink:title="low_complexity"><rect fill="#C2DDFF" x="1651.811820" y="45" width="75.878694" height="18" filter="url(#ds)"/></a>
<a xlink:title="low_complexity"><rect fill="#7FFFFF" x="3006.788491" y="45" width="75.878694" height="18" filter="url(#ds)"/></a>
<a xlink:title="low_complexity"><rect fill="#C2DDFF" x="4686.959565" y="45" width="65.038880" height="18" filter="url(#ds)"/></a>
<a xlink:title="low_complexity"><rect fill="#C2DDFF" x="6323.771384" y="45" width="81.298600" height="18" filter="url(#ds)"/></a>
<a xlink:title="low_complexity"><rect fill="#C2DDFF" x="6589.346812" y="45" width="102.978227" height="18" filter="url(#ds)"/></a>
<a xlink:title="low_complexity"><rect fill="#C2DDFF" x="6708.584759" y="45" width="140.917574" height="18" filter="url(#ds)"/></a>
<a xlink:title="disorder"><rect fill="url(#disordered-hatch)" x="6307.511664" y="47" width="10.839813" height="14"/></a>
<a xlink:title="disorder"><rect fill="url(#disordered-hatch)" x="6464.688958" y="47" width="119.237947" height="14"/></a>
<a xlink:title="disorder"><rect fill="url(#disordered-hatch)" x="6697.744946" y="47" width="5.419907" height="14"/></a>
<g transform="translate(2025.785381,42)"><a xlink:href="http://pfam.xfam.org/family/PF08072" xlink:title="BDHCT (NUC031) domain"><rect fill="#2dcf00" x="0" y="0" width="216.796267" height="24" filter="url(#ds)"/><text style="font-size:12px;font-family:sans-serif;fill:#ffffff;" text-anchor="middle" x="108.398134" y="16">BDHCT (NUC031) domain</text></a></g>
<g transform="translate(3640.917574,42)"><a xlink:href="http://pfam.xfam.org/family/PF00270" xlink:title="DEAD/DEAH box helicase"><rect fill="#ff5353" x="0" y="0" width="932.223950" height="24" filter="url(#ds)"/><text style="font-size:12px;font-family:sans-serif;fill:#ffffff;" text-anchor="middle" x="466.111975" y="16">DEAD/DEAH box helicase</text></a></g>
<g transform="translate(4925.435459,42)"><a xlink:href="http://pfam.xfam.org/family/PF00271" xlink:title="Helicase conserved C-terminal domain"><rect fill="#5b5bff" x="0" y="0" width="422.752722" height="24" filter="url(#ds)"/><text style="font-size:12px;font-family:sans-serif;fill:#ffffff;" text-anchor="middle" x="211.376361" y="16">Helicase conserved C-terminal domain</text></a></g>
<g transform="translate(5846.819596,42)"><a xlink:href="http://pfam.xfam.org/family/PF09382" xlink:title="RQC domain"><rect fill="#ebd61d" x="0" y="0" width="433.592535" height="24" filter="url(#ds)"/><text style="font-size:12px;font-family:sans-serif;fill:#ffffff;" text-anchor="middle" x="216.796267" y="16">RQC domain</text></a></g>
<g class="axis">
<line x1="15" x2="6985" y1="76" y2="76" stroke="#AAAAAA" /><line x1="15" x2="15" y1="76" y2="81" stroke="#AAAAAA" /><line x1="15.000000" x2="15.000000" y1="76" y2="81" stroke="#AAAAAA" /><text style="font-size:10px;font-family:sans-serif;fill:#000000;" text-anchor="middle" x="15.000000" y="91">0</text><line x1="36.679627" x2="36.679627" y1="76" y2="81" stroke="#AAAAAA" /><text style="font-size:10px;font-family:sans-serif;fill:#000000;" text-anchor="middle" x="36.679627" y="91">4</text><line x1="166.757387" x2="166.757387" y1="76" y2="81" stroke="#AAAAAA" /><text style="font-size:10px;font-family:sans-serif;fill:#000000;" text-anchor="middle" x="166.757387" y="91">28</text><line x1="307.674961" x2="307.674961" y1="76" y2="81" stroke="#AAAAAA" /><text style="font-size:10px;font-family:sans-serif;fill:#000000;" text-anchor="middle" x="307.674961" y="91">54</text><line x1="1418.755832" x2="1418.755832" y1="76" y2="81" stroke="#AAAAAA" /><text style="font-size:10px;font-family:sans-serif;fill:#000000;" text-anchor="middle" x="1418.755832" y="91">259</text><line x1="1527.153966" x2="1527.153966" y1="76" y2="81" stroke="#AAAAAA" /><text style="font-size:10px;font-family:sans-serif;fill:#000000;" text-anchor="middle" x="1527.153966" y="91">279</text><line x1="1597.612753" x2="1597.612753" y1="76" y2="81" stroke="#AAAAAA" /><text style="font-size:10px;font-family:sans-serif;fill:#000000;" text-anchor="middle" x="1597.612753" y="91">292</text><line x1="1635.552100" x2="1635.552100" y1="76" y2="81" stroke="#AAAAAA" /><text style="font-size:10px;font-family:sans-serif;fill:#000000;" text-anchor="middle" x="1635.552100" y="91">299</text><line x1="1651.811820" x2="1651.811820" y1="76" y2="81" stroke="#AAAAAA" /><text style="font-size:10px;font-family:sans-serif;fill:#000000;" text-anchor="middle" x="1651.811820" y="91">302</text><line x1="1727.690513" x2="1727.690513" y1="76" y2="81" stroke="#AAAAAA" /><text style="font-size:10px;font-family:sans-serif;fill:#000000;" text-anchor="middle" x="1727.690513" y="91">316</text><line x1="2025.785381" x2="2025.785381" y1="76" y2="81" stroke="#AAAAAA" /><text style="font-size:10px;font-family:sans-serif;fill:#000000;" text-anchor="middle" x="2025.785381" y="91">371</text><line x1="2242.581649" x2="2242.581649" y1="76" y2="81" stroke="#AAAAAA" /><text style="font-size:10px;font-family:sans-serif;fill:#000000;" text-anchor="middle" x="2242.581649" y="91">411</text><line x1="3006.788491" x2="3006.788491" y1="76" y2="81" stroke="#AAAAAA" /><text style="font-size:10px;font-family:sans-serif;fill:#000000;" text-anchor="middle" x="3006.788491" y="91">552</text><line x1="3082.667185" x2="3082.667185" y1="76" y2="81" stroke="#AAAAAA" /><text style="font-size:10px;font-family:sans-serif;fill:#000000;" text-anchor="middle" x="3082.667185" y="91">566</text><line x1="3640.917574" x2="3640.917574" y1="76" y2="81" stroke="#AAAAAA" /><text style="font-size:10px;font-family:sans-serif;fill:#000000;" text-anchor="middle" x="3640.917574" y="91">669</text><line x1="4573.141524" x2="4573.141524" y1="76" y2="81" stroke="#AAAAAA" /><text style="font-size:10px;font-family:sans-serif;fill:#000000;" text-anchor="middle" x="4573.141524" y="91">841</text><line x1="4686.959565" x2="4686.959565" y1="76" y2="81" stroke="#AAAAAA" /><text style="font-size:10px;font-family:sans-serif;fill:#000000;" text-anchor="middle" x="4686.959565" y="91">862</text><line x1="4751.998445" x2="4751.998445" y1="76" y2="81" stroke="#AAAAAA" /><text style="font-size:10px;font-family:sans-serif;fill:#000000;" text-anchor="middle" x="4751.998445" y="91">874</text><line x1="4925.435459" x2="4925.435459" y1="76" y2="81" stroke="#AAAAAA" /><text style="font-size:10px;font-family:sans-serif;fill:#000000;" text-anchor="middle" x="4925.435459" y="91">906</text><line x1="5348.188180" x2="5348.188180" y1="76" y2="81" stroke="#AAAAAA" /><text style="font-size:10px;font-family:sans-serif;fill:#000000;" text-anchor="middle" x="5348.188180" y="91">984</text><line x1="5846.819596" x2="5846.819596" y1="76" y2="81" stroke="#AAAAAA" /><text style="font-size:10px;font-family:sans-serif;fill:#000000;" text-anchor="middle" x="5846.819596" y="91">1076</text><line x1="6280.412131" x2="6280.412131" y1="76" y2="81" stroke="#AAAAAA" /><text style="font-size:10px;font-family:sans-serif;fill:#000000;" text-anchor="middle" x="6280.412131" y="91">1156</text><line x1="6323.771384" x2="6323.771384" y1="76" y2="81" stroke="#AAAAAA" /><text style="font-size:10px;font-family:sans-serif;fill:#000000;" text-anchor="middle" x="6323.771384" y="91">1164</text><line x1="6405.069984" x2="6405.069984" y1="76" y2="81" stroke="#AAAAAA" /><text style="font-size:10px;font-family:sans-serif;fill:#000000;" text-anchor="middle" x="6405.069984" y="91">1179</text><line x1="6589.346812" x2="6589.346812" y1="76" y2="81" stroke="#AAAAAA" /><text style="font-size:10px;font-family:sans-serif;fill:#000000;" text-anchor="middle" x="6589.346812" y="91">1213</text><line x1="6692.325039" x2="6692.325039" y1="76" y2="81" stroke="#AAAAAA" /><text style="font-size:10px;font-family:sans-serif;fill:#000000;" text-anchor="middle" x="6692.325039" y="91">1232</text><line x1="6708.584759" x2="6708.584759" y1="76" y2="81" stroke="#AAAAAA" /><text style="font-size:10px;font-family:sans-serif;fill:#000000;" text-anchor="middle" x="6708.584759" y="91">1235</text><line x1="6849.502333" x2="6849.502333" y1="76" y2="81" stroke="#AAAAAA" /><text style="font-size:10px;font-family:sans-serif;fill:#000000;" text-anchor="middle" x="6849.502333" y="91">1261</text><line x1="6985.000000" x2="6985.000000" y1="76" y2="81" stroke="#AAAAAA" /><text style="font-size:10px;font-family:sans-serif;fill:#000000;" text-anchor="middle" x="6985.000000" y="91">1286</text></g>
</svg>
