<?xml version='1.0'?>
<svg xmlns="http://www.w3.org/2000/svg" xmlns:xlink="http://www.w3.org/1999/xlink" width="7000" height="111">
<defs>
  <filter id="ds" x="0" y="0">
    <feOffset in="SourceAlpha" dx="2" dy="2" />
    <feComponentTransfer><feFuncA type="linear" slope="0.2"/></feComponentTransfer>
    <feGaussianBlur result="blurOut" stdDeviation="1" />
    <feBlend in="SourceGraphic" in2="blurOut" mode="normal" />
  </filter>
  <pattern id="disordered-hatch" patternUnits="userSpaceOnUse" width="4" height="4">
    <path d="M-1,1 l2,-2 M0,4 l4,-4 M3,5 l2,-2" stroke="#000000" opacity="0.3" />
  </pattern>
</defs>
<line x1="5203.777778" x2="5203.777778" y1="19" y2="47" stroke="#BABDB6" stroke-width="2"/><a xlink:title="V134M"><circle cx="5203.777778" cy="19" r="4.000000" fill="#ff0000" /></a><a xlink:title="H3BLX3_HUMAN, Synaptotagmin-15 (Fragment) (180aa)"><rect fill="#BABDB6" x="15" y="47" width="6970" height="14"/></a><g transform="translate(53.722222,42)"><a xlink:href="http://pfam.xfam.org/family/PF00168" xlink:title="C2 domain"><rect fill="#2dcf00" x="0" y="0" width="1432.722222" height="24" filter="url(#ds)"/><text style="font-size:12px;font-family:sans-serif;fill:#ffffff;" text-anchor="middle" x="716.361111" y="16">C2 domain</text></a></g>
<g transform="translate(3306.388889,42)"><a xlink:href="http://pfam.xfam.org/family/PF00168" xlink:title="C2 domain"><rect fill="#2dcf00" x="0" y="0" width="3291.388889" height="24" filter="url(#ds)"/><text style="font-size:12px;font-family:sans-serif;fill:#ffffff;" text-anchor="middle" x="1645.694444" y="16">C2 domain</text></a></g>
<g class="axis">
<line x1="15" x2="6985" y1="76" y2="76" stroke="#AAAAAA" /><line x1="15" x2="15" y1="76" y2="81" stroke="#AAAAAA" /><line x1="15.000000" x2="15.000000" y1="76" y2="81" stroke="#AAAAAA" /><text style="font-size:10px;font-family:sans-serif;fill:#000000;" text-anchor="middle" x="15.000000" y="91">0</text><line x1="53.722222" x2="53.722222" y1="76" y2="81" stroke="#AAAAAA" /><text style="font-size:10px;font-family:sans-serif;fill:#000000;" text-anchor="middle" x="53.722222" y="91">1</text><line x1="1486.444444" x2="1486.444444" y1="76" y2="81" stroke="#AAAAAA" /><text style="font-size:10px;font-family:sans-serif;fill:#000000;" text-anchor="middle" x="1486.444444" y="91">38</text><line x1="3306.388889" x2="3306.388889" y1="76" y2="81" stroke="#AAAAAA" /><text style="font-size:10px;font-family:sans-serif;fill:#000000;" text-anchor="middle" x="3306.388889" y="91">85</text><line x1="5203.777778" x2="5203.777778" y1="76" y2="81" stroke="#AAAAAA" /><text style="font-size:10px;font-family:sans-serif;fill:#000000;" text-anchor="middle" x="5203.777778" y="91">134</text><line x1="6597.777778" x2="6597.777778" y1="76" y2="81" stroke="#AAAAAA" /><text style="font-size:10px;font-family:sans-serif;fill:#000000;" text-anchor="middle" x="6597.777778" y="91">170</text><line x1="6985.000000" x2="6985.000000" y1="76" y2="81" stroke="#AAAAAA" /><text style="font-size:10px;font-family:sans-serif;fill:#000000;" text-anchor="middle" x="6985.000000" y="91">180</text></g>
</svg>
