<?xml version='1.0'?>
<svg xmlns="http://www.w3.org/2000/svg" xmlns:xlink="http://www.w3.org/1999/xlink" width="7000" height="111">
<defs>
  <filter id="ds" x="0" y="0">
    <feOffset in="SourceAlpha" dx="2" dy="2" />
    <feComponentTransfer><feFuncA type="linear" slope="0.2"/></feComponentTransfer>
    <feGaussianBlur result="blurOut" stdDeviation="1" />
    <feBlend in="SourceGraphic" in2="blurOut" mode="normal" />
  </filter>
  <pattern id="disordered-hatch" patternUnits="userSpaceOnUse" width="4" height="4">
    <path d="M-1,1 l2,-2 M0,4 l4,-4 M3,5 l2,-2" stroke="#000000" opacity="0.3" />
  </pattern>
</defs>
<line x1="3262.068273" x2="3262.068273" y1="19" y2="47" stroke="#BABDB6" stroke-width="2"/><a xlink:title="I116T"><circle cx="3262.068273" cy="19" r="4.000000" fill="#ff0000" /></a><a xlink:title="H3BVE0_HUMAN, Uncharacterized protein (Fragment) (249aa)"><rect fill="#BABDB6" x="15" y="47" width="6970" height="14"/></a><a xlink:title="coiled_coil"><rect fill="#7FFFFF" x="1162.670683" y="45" width="0.000000" height="18" filter="url(#ds)"/></a>
<a xlink:title="low_complexity"><rect fill="#7FFFFF" x="4381.746988" y="45" width="335.903614" height="18" filter="url(#ds)"/></a>
<g transform="translate(1190.662651,42)"><a xlink:href="http://pfam.xfam.org/family/PF01722" xlink:title="BolA-like protein"><rect fill="#2dcf00" x="0" y="0" width="1259.638554" height="24" filter="url(#ds)"/><text style="font-size:12px;font-family:sans-serif;fill:#ffffff;" text-anchor="middle" x="629.819277" y="16">BolA-like protein</text></a></g>
<g class="axis">
<line x1="15" x2="6985" y1="76" y2="76" stroke="#AAAAAA" /><line x1="15" x2="15" y1="76" y2="81" stroke="#AAAAAA" /><line x1="15.000000" x2="15.000000" y1="76" y2="81" stroke="#AAAAAA" /><text style="font-size:10px;font-family:sans-serif;fill:#000000;" text-anchor="middle" x="15.000000" y="91">0</text><line x1="1162.670683" x2="1162.670683" y1="76" y2="81" stroke="#AAAAAA" /><text style="font-size:10px;font-family:sans-serif;fill:#000000;" text-anchor="middle" x="1162.670683" y="91">41</text><line x1="1162.670683" x2="1162.670683" y1="76" y2="81" stroke="#AAAAAA" /><text style="font-size:10px;font-family:sans-serif;fill:#000000;" text-anchor="middle" x="1162.670683" y="91">41</text><line x1="1190.662651" x2="1190.662651" y1="76" y2="81" stroke="#AAAAAA" /><text style="font-size:10px;font-family:sans-serif;fill:#000000;" text-anchor="middle" x="1190.662651" y="91">42</text><line x1="2450.301205" x2="2450.301205" y1="76" y2="81" stroke="#AAAAAA" /><text style="font-size:10px;font-family:sans-serif;fill:#000000;" text-anchor="middle" x="2450.301205" y="91">87</text><line x1="3262.068273" x2="3262.068273" y1="76" y2="81" stroke="#AAAAAA" /><text style="font-size:10px;font-family:sans-serif;fill:#000000;" text-anchor="middle" x="3262.068273" y="91">116</text><line x1="4381.746988" x2="4381.746988" y1="76" y2="81" stroke="#AAAAAA" /><text style="font-size:10px;font-family:sans-serif;fill:#000000;" text-anchor="middle" x="4381.746988" y="91">156</text><line x1="4717.650602" x2="4717.650602" y1="76" y2="81" stroke="#AAAAAA" /><text style="font-size:10px;font-family:sans-serif;fill:#000000;" text-anchor="middle" x="4717.650602" y="91">168</text><line x1="6985.000000" x2="6985.000000" y1="76" y2="81" stroke="#AAAAAA" /><text style="font-size:10px;font-family:sans-serif;fill:#000000;" text-anchor="middle" x="6985.000000" y="91">249</text></g>
</svg>
