<?xml version='1.0'?>
<svg xmlns="http://www.w3.org/2000/svg" xmlns:xlink="http://www.w3.org/1999/xlink" width="7000" height="111">
<defs>
  <filter id="ds" x="0" y="0">
    <feOffset in="SourceAlpha" dx="2" dy="2" />
    <feComponentTransfer><feFuncA type="linear" slope="0.2"/></feComponentTransfer>
    <feGaussianBlur result="blurOut" stdDeviation="1" />
    <feBlend in="SourceGraphic" in2="blurOut" mode="normal" />
  </filter>
  <pattern id="disordered-hatch" patternUnits="userSpaceOnUse" width="4" height="4">
    <path d="M-1,1 l2,-2 M0,4 l4,-4 M3,5 l2,-2" stroke="#000000" opacity="0.3" />
  </pattern>
</defs>
<line x1="3730.525292" x2="3730.525292" y1="19" y2="47" stroke="#BABDB6" stroke-width="2"/><a xlink:title="E137Q"><circle cx="3730.525292" cy="19" r="4.000000" fill="#ff0000" /></a><a xlink:title="H7BY04_HUMAN, Laminin subunit gamma-3 (Fragment) (257aa)"><rect fill="#BABDB6" x="15" y="47" width="6970" height="14"/></a><a xlink:title="disorder"><rect fill="url(#disordered-hatch)" x="42.120623" y="47" width="867.859922" height="14"/></a>
<a xlink:title="disorder"><rect fill="url(#disordered-hatch)" x="1804.961089" y="47" width="515.291829" height="14"/></a>
<a xlink:title="disorder"><rect fill="url(#disordered-hatch)" x="2618.579767" y="47" width="81.361868" height="14"/></a>
<a xlink:title="disorder"><rect fill="url(#disordered-hatch)" x="3133.871595" y="47" width="81.361868" height="14"/></a>
<a xlink:title="disorder"><rect fill="url(#disordered-hatch)" x="3866.128405" y="47" width="0.000000" height="14"/></a>
<a xlink:title="disorder"><rect fill="url(#disordered-hatch)" x="4842.470817" y="47" width="27.120623" height="14"/></a>
<a xlink:title="disorder"><rect fill="url(#disordered-hatch)" x="5710.330739" y="47" width="81.361868" height="14"/></a>
<a xlink:title="coiled_coil"><rect fill="#98E698" x="1235.428016" y="45" width="542.412451" height="18" filter="url(#ds)"/></a>
<a xlink:title="coiled_coil"><rect fill="#98E698" x="2564.338521" y="45" width="542.412451" height="18" filter="url(#ds)"/></a>
<a xlink:title="coiled_coil"><rect fill="#98E698" x="3242.354086" y="45" width="542.412451" height="18" filter="url(#ds)"/></a>
<a xlink:title="coiled_coil"><rect fill="#98E698" x="6578.190661" y="45" width="81.361868" height="18" filter="url(#ds)"/></a>
<a xlink:title="low_complexity"><rect fill="#C2DDFF" x="2347.373541" y="45" width="189.844358" height="18" filter="url(#ds)"/></a>
<a xlink:title="low_complexity"><rect fill="#C2DDFF" x="3811.887160" y="45" width="27.120623" height="18" filter="url(#ds)"/></a>
<a xlink:title="low_complexity"><rect fill="#7FFFFF" x="5601.848249" y="45" width="650.894942" height="18" filter="url(#ds)"/></a>
<a xlink:title="low_complexity"><rect fill="#C2DDFF" x="3133.871595" y="45" width="81.361868" height="18" filter="url(#ds)"/></a>
<a xlink:title="disorder"><rect fill="url(#disordered-hatch)" x="3811.887160" y="47" width="-27.120623" height="14"/></a>
<g class="axis">
<line x1="15" x2="6985" y1="76" y2="76" stroke="#AAAAAA" /><line x1="15" x2="15" y1="76" y2="81" stroke="#AAAAAA" /><line x1="15.000000" x2="15.000000" y1="76" y2="81" stroke="#AAAAAA" /><text style="font-size:10px;font-family:sans-serif;fill:#000000;" text-anchor="middle" x="15.000000" y="91">0</text><line x1="1235.428016" x2="1235.428016" y1="76" y2="81" stroke="#AAAAAA" /><text style="font-size:10px;font-family:sans-serif;fill:#000000;" text-anchor="middle" x="1235.428016" y="91">45</text><line x1="1777.840467" x2="1777.840467" y1="76" y2="81" stroke="#AAAAAA" /><text style="font-size:10px;font-family:sans-serif;fill:#000000;" text-anchor="middle" x="1777.840467" y="91">65</text><line x1="2347.373541" x2="2347.373541" y1="76" y2="81" stroke="#AAAAAA" /><text style="font-size:10px;font-family:sans-serif;fill:#000000;" text-anchor="middle" x="2347.373541" y="91">86</text><line x1="2537.217899" x2="2537.217899" y1="76" y2="81" stroke="#AAAAAA" /><text style="font-size:10px;font-family:sans-serif;fill:#000000;" text-anchor="middle" x="2537.217899" y="91">93</text><line x1="2564.338521" x2="2564.338521" y1="76" y2="81" stroke="#AAAAAA" /><text style="font-size:10px;font-family:sans-serif;fill:#000000;" text-anchor="middle" x="2564.338521" y="91">94</text><line x1="3106.750973" x2="3106.750973" y1="76" y2="81" stroke="#AAAAAA" /><text style="font-size:10px;font-family:sans-serif;fill:#000000;" text-anchor="middle" x="3106.750973" y="91">114</text><line x1="3133.871595" x2="3133.871595" y1="76" y2="81" stroke="#AAAAAA" /><text style="font-size:10px;font-family:sans-serif;fill:#000000;" text-anchor="middle" x="3133.871595" y="91">115</text><line x1="3215.233463" x2="3215.233463" y1="76" y2="81" stroke="#AAAAAA" /><text style="font-size:10px;font-family:sans-serif;fill:#000000;" text-anchor="middle" x="3215.233463" y="91">118</text><line x1="3242.354086" x2="3242.354086" y1="76" y2="81" stroke="#AAAAAA" /><text style="font-size:10px;font-family:sans-serif;fill:#000000;" text-anchor="middle" x="3242.354086" y="91">119</text><line x1="3730.525292" x2="3730.525292" y1="76" y2="81" stroke="#AAAAAA" /><text style="font-size:10px;font-family:sans-serif;fill:#000000;" text-anchor="middle" x="3730.525292" y="91">137</text><line x1="3784.766537" x2="3784.766537" y1="76" y2="81" stroke="#AAAAAA" /><text style="font-size:10px;font-family:sans-serif;fill:#000000;" text-anchor="middle" x="3784.766537" y="91">139</text><line x1="3811.887160" x2="3811.887160" y1="76" y2="81" stroke="#AAAAAA" /><text style="font-size:10px;font-family:sans-serif;fill:#000000;" text-anchor="middle" x="3811.887160" y="91">140</text><line x1="3839.007782" x2="3839.007782" y1="76" y2="81" stroke="#AAAAAA" /><text style="font-size:10px;font-family:sans-serif;fill:#000000;" text-anchor="middle" x="3839.007782" y="91">141</text><line x1="5601.848249" x2="5601.848249" y1="76" y2="81" stroke="#AAAAAA" /><text style="font-size:10px;font-family:sans-serif;fill:#000000;" text-anchor="middle" x="5601.848249" y="91">206</text><line x1="6252.743191" x2="6252.743191" y1="76" y2="81" stroke="#AAAAAA" /><text style="font-size:10px;font-family:sans-serif;fill:#000000;" text-anchor="middle" x="6252.743191" y="91">230</text><line x1="6578.190661" x2="6578.190661" y1="76" y2="81" stroke="#AAAAAA" /><text style="font-size:10px;font-family:sans-serif;fill:#000000;" text-anchor="middle" x="6578.190661" y="91">242</text><line x1="6659.552529" x2="6659.552529" y1="76" y2="81" stroke="#AAAAAA" /><text style="font-size:10px;font-family:sans-serif;fill:#000000;" text-anchor="middle" x="6659.552529" y="91">245</text><line x1="6985.000000" x2="6985.000000" y1="76" y2="81" stroke="#AAAAAA" /><text style="font-size:10px;font-family:sans-serif;fill:#000000;" text-anchor="middle" x="6985.000000" y="91">257</text></g>
</svg>
