<?xml version='1.0'?>
<svg xmlns="http://www.w3.org/2000/svg" xmlns:xlink="http://www.w3.org/1999/xlink" width="7000" height="111">
<defs>
  <filter id="ds" x="0" y="0">
    <feOffset in="SourceAlpha" dx="2" dy="2" />
    <feComponentTransfer><feFuncA type="linear" slope="0.2"/></feComponentTransfer>
    <feGaussianBlur result="blurOut" stdDeviation="1" />
    <feBlend in="SourceGraphic" in2="blurOut" mode="normal" />
  </filter>
  <pattern id="disordered-hatch" patternUnits="userSpaceOnUse" width="4" height="4">
    <path d="M-1,1 l2,-2 M0,4 l4,-4 M3,5 l2,-2" stroke="#000000" opacity="0.3" />
  </pattern>
</defs>
<line x1="6285.848765" x2="6285.848765" y1="19" y2="47" stroke="#BABDB6" stroke-width="2"/><a xlink:title="R1166W"><circle cx="6285.848765" cy="19" r="4.000000" fill="#ff0000" /></a><a xlink:title="Q5VWV2_HUMAN, Partitioning defective 3 homolog (1296aa)"><rect fill="#BABDB6" x="15" y="47" width="6970" height="14"/></a><a xlink:title="disorder"><rect fill="url(#disordered-hatch)" x="429.112654" y="47" width="172.098765" height="14"/></a>
<a xlink:title="disorder"><rect fill="url(#disordered-hatch)" x="633.479938" y="47" width="26.890432" height="14"/></a>
<a xlink:title="disorder"><rect fill="url(#disordered-hatch)" x="692.638889" y="47" width="10.756173" height="14"/></a>
<a xlink:title="disorder"><rect fill="url(#disordered-hatch)" x="714.151235" y="47" width="48.402778" height="14"/></a>
<a xlink:title="disorder"><rect fill="url(#disordered-hatch)" x="805.578704" y="47" width="5.378086" height="14"/></a>
<a xlink:title="disorder"><rect fill="url(#disordered-hatch)" x="827.091049" y="47" width="360.331790" height="14"/></a>
<a xlink:title="disorder"><rect fill="url(#disordered-hatch)" x="1311.118827" y="47" width="21.512346" height="14"/></a>
<a xlink:title="disorder"><rect fill="url(#disordered-hatch)" x="1407.924383" y="47" width="10.756173" height="14"/></a>
<a xlink:title="disorder"><rect fill="url(#disordered-hatch)" x="1553.132716" y="47" width="5.378086" height="14"/></a>
<a xlink:title="disorder"><rect fill="url(#disordered-hatch)" x="1580.023148" y="47" width="32.268519" height="14"/></a>
<a xlink:title="disorder"><rect fill="url(#disordered-hatch)" x="1741.365741" y="47" width="64.537037" height="14"/></a>
<a xlink:title="disorder"><rect fill="url(#disordered-hatch)" x="1822.037037" y="47" width="10.756173" height="14"/></a>
<a xlink:title="disorder"><rect fill="url(#disordered-hatch)" x="1870.439815" y="47" width="5.378086" height="14"/></a>
<a xlink:title="disorder"><rect fill="url(#disordered-hatch)" x="2144.722222" y="47" width="26.890432" height="14"/></a>
<a xlink:title="disorder"><rect fill="url(#disordered-hatch)" x="2182.368827" y="47" width="5.378086" height="14"/></a>
<a xlink:title="disorder"><rect fill="url(#disordered-hatch)" x="2241.527778" y="47" width="5.378086" height="14"/></a>
<a xlink:title="disorder"><rect fill="url(#disordered-hatch)" x="2768.580247" y="47" width="32.268519" height="14"/></a>
<a xlink:title="disorder"><rect fill="url(#disordered-hatch)" x="2935.300926" y="47" width="37.646605" height="14"/></a>
<a xlink:title="disorder"><rect fill="url(#disordered-hatch)" x="3198.827160" y="47" width="5.378086" height="14"/></a>
<a xlink:title="disorder"><rect fill="url(#disordered-hatch)" x="3225.717593" y="47" width="75.293210" height="14"/></a>
<a xlink:title="disorder"><rect fill="url(#disordered-hatch)" x="3403.194444" y="47" width="118.317901" height="14"/></a>
<a xlink:title="disorder"><rect fill="url(#disordered-hatch)" x="3569.915123" y="47" width="26.890432" height="14"/></a>
<a xlink:title="disorder"><rect fill="url(#disordered-hatch)" x="3607.561728" y="47" width="5.378086" height="14"/></a>
<a xlink:title="disorder"><rect fill="url(#disordered-hatch)" x="3645.208333" y="47" width="5.378086" height="14"/></a>
<a xlink:title="disorder"><rect fill="url(#disordered-hatch)" x="3661.342593" y="47" width="59.158951" height="14"/></a>
<a xlink:title="disorder"><rect fill="url(#disordered-hatch)" x="3914.112654" y="47" width="10.756173" height="14"/></a>
<a xlink:title="disorder"><rect fill="url(#disordered-hatch)" x="4096.967593" y="47" width="26.890432" height="14"/></a>
<a xlink:title="disorder"><rect fill="url(#disordered-hatch)" x="4139.992284" y="47" width="26.890432" height="14"/></a>
<a xlink:title="disorder"><rect fill="url(#disordered-hatch)" x="4177.638889" y="47" width="37.646605" height="14"/></a>
<a xlink:title="disorder"><rect fill="url(#disordered-hatch)" x="4290.578704" y="47" width="134.452160" height="14"/></a>
<a xlink:title="disorder"><rect fill="url(#disordered-hatch)" x="4645.532407" y="47" width="10.756173" height="14"/></a>
<a xlink:title="disorder"><rect fill="url(#disordered-hatch)" x="5484.513889" y="47" width="37.646605" height="14"/></a>
<a xlink:title="disorder"><rect fill="url(#disordered-hatch)" x="6979.621914" y="47" width="5.378086" height="14"/></a>
<a xlink:title="coiled_coil"><rect fill="#98E698" x="5333.927469" y="45" width="145.208333" height="18" filter="url(#ds)"/></a>
<a xlink:title="coiled_coil"><rect fill="#7FFFFF" x="5898.626543" y="45" width="107.561728" height="18" filter="url(#ds)"/></a>
<a xlink:title="coiled_coil"><rect fill="#7FFFFF" x="6146.018519" y="45" width="107.561728" height="18" filter="url(#ds)"/></a>
<a xlink:title="coiled_coil"><rect fill="#7FFFFF" x="6576.265432" y="45" width="112.939815" height="18" filter="url(#ds)"/></a>
<a xlink:title="low_complexity"><rect fill="#7FFFFF" x="305.416667" y="45" width="102.183642" height="18" filter="url(#ds)"/></a>
<a xlink:title="low_complexity"><rect fill="#7FFFFF" x="482.893519" y="45" width="69.915123" height="18" filter="url(#ds)"/></a>
<a xlink:title="low_complexity"><rect fill="#C2DDFF" x="2047.916667" y="45" width="91.427469" height="18" filter="url(#ds)"/></a>
<a xlink:title="low_complexity"><rect fill="#C2DDFF" x="3854.953704" y="45" width="53.780864" height="18" filter="url(#ds)"/></a>
<a xlink:title="low_complexity"><rect fill="#C2DDFF" x="4430.408951" y="45" width="64.537037" height="18" filter="url(#ds)"/></a>
<a xlink:title="low_complexity"><rect fill="#C2DDFF" x="4586.373457" y="45" width="53.780864" height="18" filter="url(#ds)"/></a>
<a xlink:title="low_complexity"><rect fill="#C2DDFF" x="4742.337963" y="45" width="150.586420" height="18" filter="url(#ds)"/></a>
<a xlink:title="low_complexity"><rect fill="#C2DDFF" x="4984.351852" y="45" width="204.367284" height="18" filter="url(#ds)"/></a>
<a xlink:title="low_complexity"><rect fill="#7FFFFF" x="6124.506173" y="45" width="129.074074" height="18" filter="url(#ds)"/></a>
<a xlink:title="low_complexity"><rect fill="#7FFFFF" x="6581.643519" y="45" width="107.561728" height="18" filter="url(#ds)"/></a>
<a xlink:title="disorder"><rect fill="url(#disordered-hatch)" x="5624.344136" y="47" width="209.745370" height="14"/></a>
<a xlink:title="disorder"><rect fill="url(#disordered-hatch)" x="6318.117284" y="47" width="0.000000" height="14"/></a>
<a xlink:title="disorder"><rect fill="url(#disordered-hatch)" x="5194.097222" y="47" width="134.452160" height="14"/></a>
<a xlink:title="disorder"><rect fill="url(#disordered-hatch)" x="1891.952160" y="47" width="150.586420" height="14"/></a>
<a xlink:title="disorder"><rect fill="url(#disordered-hatch)" x="3736.635802" y="47" width="112.939815" height="14"/></a>
<a xlink:title="disorder"><rect fill="url(#disordered-hatch)" x="4500.324074" y="47" width="80.671296" height="14"/></a>
<a xlink:title="disorder"><rect fill="url(#disordered-hatch)" x="4667.044753" y="47" width="69.915123" height="14"/></a>
<a xlink:title="disorder"><rect fill="url(#disordered-hatch)" x="4898.302469" y="47" width="80.671296" height="14"/></a>
<g transform="translate(20.378086,42)"><a xlink:href="http://pfam.xfam.org/family/PF12053" xlink:title="Domain of unknown function (DUF3534)"><rect fill="#2dcf00" x="0" y="0" width="779.822531" height="24" filter="url(#ds)"/><text style="font-size:12px;font-family:sans-serif;fill:#ffffff;" text-anchor="middle" x="389.911265" y="16">Domain of unknown function (DUF3534)</text></a></g>
<g transform="translate(1246.581790,42)"><a xlink:href="http://pfam.xfam.org/family/PF00595" xlink:title="PDZ domain (Also known as DHR or GLGF)"><rect fill="#ff5353" x="0" y="0" width="424.868827" height="24" filter="url(#ds)"/><text style="font-size:12px;font-family:sans-serif;fill:#ffffff;" text-anchor="middle" x="212.434414" y="16">PDZ domain (Also known as DHR or GLGF)</text></a></g>
<g transform="translate(2257.662037,42)"><a xlink:href="http://pfam.xfam.org/family/PF00595" xlink:title="PDZ domain (Also known as DHR or GLGF)"><rect fill="#ff5353" x="0" y="0" width="451.759259" height="24" filter="url(#ds)"/><text style="font-size:12px;font-family:sans-serif;fill:#ffffff;" text-anchor="middle" x="225.879630" y="16">PDZ domain (Also known as DHR or GLGF)</text></a></g>
<g transform="translate(2881.520062,42)"><a xlink:href="http://pfam.xfam.org/family/PF00595" xlink:title="PDZ domain (Also known as DHR or GLGF)"><rect fill="#ff5353" x="0" y="0" width="484.027778" height="24" filter="url(#ds)"/><text style="font-size:12px;font-family:sans-serif;fill:#ffffff;" text-anchor="middle" x="242.013889" y="16">PDZ domain (Also known as DHR or GLGF)</text></a></g>
<g class="axis">
<line x1="15" x2="6985" y1="76" y2="76" stroke="#AAAAAA" /><line x1="15" x2="15" y1="76" y2="81" stroke="#AAAAAA" /><line x1="20.378086" x2="20.378086" y1="76" y2="81" stroke="#AAAAAA" /><text style="font-size:10px;font-family:sans-serif;fill:#000000;" text-anchor="middle" x="20.378086" y="91">1</text><line x1="305.416667" x2="305.416667" y1="76" y2="81" stroke="#AAAAAA" /><text style="font-size:10px;font-family:sans-serif;fill:#000000;" text-anchor="middle" x="305.416667" y="91">54</text><line x1="407.600309" x2="407.600309" y1="76" y2="81" stroke="#AAAAAA" /><text style="font-size:10px;font-family:sans-serif;fill:#000000;" text-anchor="middle" x="407.600309" y="91">73</text><line x1="482.893519" x2="482.893519" y1="76" y2="81" stroke="#AAAAAA" /><text style="font-size:10px;font-family:sans-serif;fill:#000000;" text-anchor="middle" x="482.893519" y="91">87</text><line x1="552.808642" x2="552.808642" y1="76" y2="81" stroke="#AAAAAA" /><text style="font-size:10px;font-family:sans-serif;fill:#000000;" text-anchor="middle" x="552.808642" y="91">100</text><line x1="800.200617" x2="800.200617" y1="76" y2="81" stroke="#AAAAAA" /><text style="font-size:10px;font-family:sans-serif;fill:#000000;" text-anchor="middle" x="800.200617" y="91">146</text><line x1="1246.581790" x2="1246.581790" y1="76" y2="81" stroke="#AAAAAA" /><text style="font-size:10px;font-family:sans-serif;fill:#000000;" text-anchor="middle" x="1246.581790" y="91">229</text><line x1="1671.450617" x2="1671.450617" y1="76" y2="81" stroke="#AAAAAA" /><text style="font-size:10px;font-family:sans-serif;fill:#000000;" text-anchor="middle" x="1671.450617" y="91">308</text><line x1="2047.916667" x2="2047.916667" y1="76" y2="81" stroke="#AAAAAA" /><text style="font-size:10px;font-family:sans-serif;fill:#000000;" text-anchor="middle" x="2047.916667" y="91">378</text><line x1="2139.344136" x2="2139.344136" y1="76" y2="81" stroke="#AAAAAA" /><text style="font-size:10px;font-family:sans-serif;fill:#000000;" text-anchor="middle" x="2139.344136" y="91">395</text><line x1="2257.662037" x2="2257.662037" y1="76" y2="81" stroke="#AAAAAA" /><text style="font-size:10px;font-family:sans-serif;fill:#000000;" text-anchor="middle" x="2257.662037" y="91">417</text><line x1="2709.421296" x2="2709.421296" y1="76" y2="81" stroke="#AAAAAA" /><text style="font-size:10px;font-family:sans-serif;fill:#000000;" text-anchor="middle" x="2709.421296" y="91">501</text><line x1="2881.520062" x2="2881.520062" y1="76" y2="81" stroke="#AAAAAA" /><text style="font-size:10px;font-family:sans-serif;fill:#000000;" text-anchor="middle" x="2881.520062" y="91">533</text><line x1="3365.547840" x2="3365.547840" y1="76" y2="81" stroke="#AAAAAA" /><text style="font-size:10px;font-family:sans-serif;fill:#000000;" text-anchor="middle" x="3365.547840" y="91">623</text><line x1="3854.953704" x2="3854.953704" y1="76" y2="81" stroke="#AAAAAA" /><text style="font-size:10px;font-family:sans-serif;fill:#000000;" text-anchor="middle" x="3854.953704" y="91">714</text><line x1="3908.734568" x2="3908.734568" y1="76" y2="81" stroke="#AAAAAA" /><text style="font-size:10px;font-family:sans-serif;fill:#000000;" text-anchor="middle" x="3908.734568" y="91">724</text><line x1="4430.408951" x2="4430.408951" y1="76" y2="81" stroke="#AAAAAA" /><text style="font-size:10px;font-family:sans-serif;fill:#000000;" text-anchor="middle" x="4430.408951" y="91">821</text><line x1="4494.945988" x2="4494.945988" y1="76" y2="81" stroke="#AAAAAA" /><text style="font-size:10px;font-family:sans-serif;fill:#000000;" text-anchor="middle" x="4494.945988" y="91">833</text><line x1="4586.373457" x2="4586.373457" y1="76" y2="81" stroke="#AAAAAA" /><text style="font-size:10px;font-family:sans-serif;fill:#000000;" text-anchor="middle" x="4586.373457" y="91">850</text><line x1="4640.154321" x2="4640.154321" y1="76" y2="81" stroke="#AAAAAA" /><text style="font-size:10px;font-family:sans-serif;fill:#000000;" text-anchor="middle" x="4640.154321" y="91">860</text><line x1="4742.337963" x2="4742.337963" y1="76" y2="81" stroke="#AAAAAA" /><text style="font-size:10px;font-family:sans-serif;fill:#000000;" text-anchor="middle" x="4742.337963" y="91">879</text><line x1="4892.924383" x2="4892.924383" y1="76" y2="81" stroke="#AAAAAA" /><text style="font-size:10px;font-family:sans-serif;fill:#000000;" text-anchor="middle" x="4892.924383" y="91">907</text><line x1="4984.351852" x2="4984.351852" y1="76" y2="81" stroke="#AAAAAA" /><text style="font-size:10px;font-family:sans-serif;fill:#000000;" text-anchor="middle" x="4984.351852" y="91">924</text><line x1="5188.719136" x2="5188.719136" y1="76" y2="81" stroke="#AAAAAA" /><text style="font-size:10px;font-family:sans-serif;fill:#000000;" text-anchor="middle" x="5188.719136" y="91">962</text><line x1="5333.927469" x2="5333.927469" y1="76" y2="81" stroke="#AAAAAA" /><text style="font-size:10px;font-family:sans-serif;fill:#000000;" text-anchor="middle" x="5333.927469" y="91">989</text><line x1="5479.135802" x2="5479.135802" y1="76" y2="81" stroke="#AAAAAA" /><text style="font-size:10px;font-family:sans-serif;fill:#000000;" text-anchor="middle" x="5479.135802" y="91">1016</text><line x1="5898.626543" x2="5898.626543" y1="76" y2="81" stroke="#AAAAAA" /><text style="font-size:10px;font-family:sans-serif;fill:#000000;" text-anchor="middle" x="5898.626543" y="91">1094</text><line x1="6006.188272" x2="6006.188272" y1="76" y2="81" stroke="#AAAAAA" /><text style="font-size:10px;font-family:sans-serif;fill:#000000;" text-anchor="middle" x="6006.188272" y="91">1114</text><line x1="6124.506173" x2="6124.506173" y1="76" y2="81" stroke="#AAAAAA" /><text style="font-size:10px;font-family:sans-serif;fill:#000000;" text-anchor="middle" x="6124.506173" y="91">1136</text><line x1="6146.018519" x2="6146.018519" y1="76" y2="81" stroke="#AAAAAA" /><text style="font-size:10px;font-family:sans-serif;fill:#000000;" text-anchor="middle" x="6146.018519" y="91">1140</text><line x1="6253.580247" x2="6253.580247" y1="76" y2="81" stroke="#AAAAAA" /><text style="font-size:10px;font-family:sans-serif;fill:#000000;" text-anchor="middle" x="6253.580247" y="91">1160</text><line x1="6285.848765" x2="6285.848765" y1="76" y2="81" stroke="#AAAAAA" /><text style="font-size:10px;font-family:sans-serif;fill:#000000;" text-anchor="middle" x="6285.848765" y="91">1166</text><line x1="6576.265432" x2="6576.265432" y1="76" y2="81" stroke="#AAAAAA" /><text style="font-size:10px;font-family:sans-serif;fill:#000000;" text-anchor="middle" x="6576.265432" y="91">1220</text><line x1="6689.205247" x2="6689.205247" y1="76" y2="81" stroke="#AAAAAA" /><text style="font-size:10px;font-family:sans-serif;fill:#000000;" text-anchor="middle" x="6689.205247" y="91">1241</text><line x1="6985.000000" x2="6985.000000" y1="76" y2="81" stroke="#AAAAAA" /><text style="font-size:10px;font-family:sans-serif;fill:#000000;" text-anchor="middle" x="6985.000000" y="91">1296</text></g>
</svg>
