<?xml version='1.0'?>
<svg xmlns="http://www.w3.org/2000/svg" xmlns:xlink="http://www.w3.org/1999/xlink" width="7000" height="111">
<defs>
  <filter id="ds" x="0" y="0">
    <feOffset in="SourceAlpha" dx="2" dy="2" />
    <feComponentTransfer><feFuncA type="linear" slope="0.2"/></feComponentTransfer>
    <feGaussianBlur result="blurOut" stdDeviation="1" />
    <feBlend in="SourceGraphic" in2="blurOut" mode="normal" />
  </filter>
  <pattern id="disordered-hatch" patternUnits="userSpaceOnUse" width="4" height="4">
    <path d="M-1,1 l2,-2 M0,4 l4,-4 M3,5 l2,-2" stroke="#000000" opacity="0.3" />
  </pattern>
</defs>
<line x1="1323.361775" x2="1323.361775" y1="19" y2="47" stroke="#BABDB6" stroke-width="2"/><a xlink:title="A55T"><circle cx="1323.361775" cy="19" r="4.000000" fill="#ff0000" /></a><a xlink:title="Q8N799_HUMAN, cDNA FLJ25874 fis, clone CBR02446 (Fragment) (293aa)"><rect fill="#BABDB6" x="15" y="47" width="6970" height="14"/></a><a xlink:title="disorder"><rect fill="url(#disordered-hatch)" x="4844.044369" y="47" width="118.941980" height="14"/></a>
<a xlink:title="coiled_coil"><rect fill="#98E698" x="466.979522" y="45" width="475.767918" height="18" filter="url(#ds)"/></a>
<a xlink:title="coiled_coil"><rect fill="#7FFFFF" x="1775.341297" y="45" width="475.767918" height="18" filter="url(#ds)"/></a>
<a xlink:title="coiled_coil"><rect fill="#7FFFFF" x="3202.645051" y="45" width="642.286689" height="18" filter="url(#ds)"/></a>
<a xlink:title="low_complexity"><rect fill="#C2DDFF" x="6247.559727" y="45" width="214.095563" height="18" filter="url(#ds)"/></a>
<g transform="translate(1180.631399,42)"><a xlink:href="http://pfam.xfam.org/family/PF15175" xlink:title="Spermatogenesis-associated protein 24"><rect fill="#2dcf00" x="0" y="0" width="4186.757679" height="24" filter="url(#ds)"/><text style="font-size:12px;font-family:sans-serif;fill:#ffffff;" text-anchor="middle" x="2093.378840" y="16">Spermatogenesis-associated protein 24</text></a></g>
<g class="axis">
<line x1="15" x2="6985" y1="76" y2="76" stroke="#AAAAAA" /><line x1="15" x2="15" y1="76" y2="81" stroke="#AAAAAA" /><line x1="15.000000" x2="15.000000" y1="76" y2="81" stroke="#AAAAAA" /><text style="font-size:10px;font-family:sans-serif;fill:#000000;" text-anchor="middle" x="15.000000" y="91">0</text><line x1="466.979522" x2="466.979522" y1="76" y2="81" stroke="#AAAAAA" /><text style="font-size:10px;font-family:sans-serif;fill:#000000;" text-anchor="middle" x="466.979522" y="91">19</text><line x1="942.747440" x2="942.747440" y1="76" y2="81" stroke="#AAAAAA" /><text style="font-size:10px;font-family:sans-serif;fill:#000000;" text-anchor="middle" x="942.747440" y="91">39</text><line x1="1180.631399" x2="1180.631399" y1="76" y2="81" stroke="#AAAAAA" /><text style="font-size:10px;font-family:sans-serif;fill:#000000;" text-anchor="middle" x="1180.631399" y="91">49</text><line x1="1323.361775" x2="1323.361775" y1="76" y2="81" stroke="#AAAAAA" /><text style="font-size:10px;font-family:sans-serif;fill:#000000;" text-anchor="middle" x="1323.361775" y="91">55</text><line x1="1775.341297" x2="1775.341297" y1="76" y2="81" stroke="#AAAAAA" /><text style="font-size:10px;font-family:sans-serif;fill:#000000;" text-anchor="middle" x="1775.341297" y="91">74</text><line x1="2251.109215" x2="2251.109215" y1="76" y2="81" stroke="#AAAAAA" /><text style="font-size:10px;font-family:sans-serif;fill:#000000;" text-anchor="middle" x="2251.109215" y="91">94</text><line x1="3202.645051" x2="3202.645051" y1="76" y2="81" stroke="#AAAAAA" /><text style="font-size:10px;font-family:sans-serif;fill:#000000;" text-anchor="middle" x="3202.645051" y="91">134</text><line x1="3844.931741" x2="3844.931741" y1="76" y2="81" stroke="#AAAAAA" /><text style="font-size:10px;font-family:sans-serif;fill:#000000;" text-anchor="middle" x="3844.931741" y="91">161</text><line x1="5367.389078" x2="5367.389078" y1="76" y2="81" stroke="#AAAAAA" /><text style="font-size:10px;font-family:sans-serif;fill:#000000;" text-anchor="middle" x="5367.389078" y="91">225</text><line x1="6247.559727" x2="6247.559727" y1="76" y2="81" stroke="#AAAAAA" /><text style="font-size:10px;font-family:sans-serif;fill:#000000;" text-anchor="middle" x="6247.559727" y="91">262</text><line x1="6461.655290" x2="6461.655290" y1="76" y2="81" stroke="#AAAAAA" /><text style="font-size:10px;font-family:sans-serif;fill:#000000;" text-anchor="middle" x="6461.655290" y="91">271</text><line x1="6985.000000" x2="6985.000000" y1="76" y2="81" stroke="#AAAAAA" /><text style="font-size:10px;font-family:sans-serif;fill:#000000;" text-anchor="middle" x="6985.000000" y="91">293</text></g>
</svg>
