<?xml version='1.0'?>
<svg xmlns="http://www.w3.org/2000/svg" xmlns:xlink="http://www.w3.org/1999/xlink" width="7000" height="125">
<defs>
  <filter id="ds" x="0" y="0">
    <feOffset in="SourceAlpha" dx="2" dy="2" />
    <feComponentTransfer><feFuncA type="linear" slope="0.2"/></feComponentTransfer>
    <feGaussianBlur result="blurOut" stdDeviation="1" />
    <feBlend in="SourceGraphic" in2="blurOut" mode="normal" />
  </filter>
  <pattern id="disordered-hatch" patternUnits="userSpaceOnUse" width="4" height="4">
    <path d="M-1,1 l2,-2 M0,4 l4,-4 M3,5 l2,-2" stroke="#000000" opacity="0.3" />
  </pattern>
</defs>
<line x1="52.272727" x2="52.272727" y1="33" y2="61" stroke="#BABDB6" stroke-width="2"/><a xlink:title="V5M"><circle cx="52.272727" cy="33" r="5.354265" fill="#00ccff" /></a><line x1="67.181818" x2="67.181818" y1="33" y2="61" stroke="#BABDB6" stroke-width="2"/><a xlink:title="L7delinsLL"><circle cx="67.181818" cy="33" r="4.000000" fill="#00ccff" /></a><line x1="89.545455" x2="89.545455" y1="33" y2="61" stroke="#BABDB6" stroke-width="2"/><a xlink:title="A10S"><circle cx="89.545455" cy="33" r="4.000000" fill="#00ccff" /></a><line x1="119.363636" x2="119.363636" y1="33" y2="61" stroke="#BABDB6" stroke-width="2"/><a xlink:title="A14T"><circle cx="119.363636" cy="33" r="5.074545" fill="#00ccff" /></a><line x1="350.454545" x2="350.454545" y1="33" y2="61" stroke="#BABDB6" stroke-width="2"/><a xlink:title="L45V"><circle cx="350.454545" cy="33" r="4.000000" fill="#00ccff" /></a><line x1="499.545455" x2="499.545455" y1="33" y2="61" stroke="#BABDB6" stroke-width="2"/><a xlink:title="R65C"><circle cx="499.545455" cy="33" r="4.000000" fill="#00ccff" /></a><line x1="633.727273" x2="633.727273" y1="33" y2="61" stroke="#BABDB6" stroke-width="2"/><a xlink:title="A83T"><circle cx="633.727273" cy="33" r="4.709640" fill="#00ccff" /></a><line x1="693.363636" x2="693.363636" y1="33" y2="61" stroke="#BABDB6" stroke-width="2"/><a xlink:title="R91C"><circle cx="693.363636" cy="33" r="4.000000" fill="#00ccff" /></a><line x1="775.363636" x2="775.363636" y1="33" y2="61" stroke="#BABDB6" stroke-width="2"/><a xlink:title="R102W"><circle cx="775.363636" cy="33" r="4.000000" fill="#00ccff" /></a><line x1="857.363636" x2="857.363636" y1="33" y2="61" stroke="#BABDB6" stroke-width="2"/><a xlink:title="V113I"><circle cx="857.363636" cy="33" r="4.000000" fill="#00ccff" /></a><line x1="961.727273" x2="961.727273" y1="33" y2="61" stroke="#BABDB6" stroke-width="2"/><a xlink:title="T127M"><circle cx="961.727273" cy="33" r="4.000000" fill="#00ccff" /></a><line x1="1431.363636" x2="1431.363636" y1="33" y2="61" stroke="#BABDB6" stroke-width="2"/><a xlink:title="L190V"><circle cx="1431.363636" cy="33" r="4.000000" fill="#00ccff" /></a><line x1="1491.000000" x2="1491.000000" y1="33" y2="61" stroke="#BABDB6" stroke-width="2"/><a xlink:title="A198T"><circle cx="1491.000000" cy="33" r="4.709640" fill="#00ccff" /></a><line x1="1565.545455" x2="1565.545455" y1="33" y2="61" stroke="#BABDB6" stroke-width="2"/><a xlink:title="P208L"><circle cx="1565.545455" cy="33" r="5.768108" fill="#00ccff" /></a><line x1="1602.818182" x2="1602.818182" y1="33" y2="61" stroke="#BABDB6" stroke-width="2"/><a xlink:title="R213Q"><circle cx="1602.818182" cy="33" r="4.000000" fill="#00ccff" /></a><line x1="1714.636364" x2="1714.636364" y1="33" y2="61" stroke="#BABDB6" stroke-width="2"/><a xlink:title="V228I"><circle cx="1714.636364" cy="33" r="5.354265" fill="#00ccff" /></a><line x1="1729.545455" x2="1729.545455" y1="33" y2="61" stroke="#BABDB6" stroke-width="2"/><a xlink:title="A230T"><circle cx="1729.545455" cy="33" r="4.000000" fill="#00ccff" /></a><line x1="1737.000000" x2="1737.000000" y1="33" y2="61" stroke="#BABDB6" stroke-width="2"/><a xlink:title="P231S"><circle cx="1737.000000" cy="33" r="5.354265" fill="#00ccff" /></a><line x1="1766.818182" x2="1766.818182" y1="33" y2="61" stroke="#BABDB6" stroke-width="2"/><a xlink:title="P235S"><circle cx="1766.818182" cy="33" r="5.074545" fill="#00ccff" /></a><line x1="2102.272727" x2="2102.272727" y1="33" y2="61" stroke="#BABDB6" stroke-width="2"/><a xlink:title="S280P"><circle cx="2102.272727" cy="33" r="4.000000" fill="#00ccff" /></a><line x1="2258.818182" x2="2258.818182" y1="33" y2="61" stroke="#BABDB6" stroke-width="2"/><a xlink:title="V301del1"><circle cx="2258.818182" cy="33" r="8.324166" fill="#00ccff" /></a><line x1="2668.818182" x2="2668.818182" y1="33" y2="61" stroke="#BABDB6" stroke-width="2"/><a xlink:title="T356S"><circle cx="2668.818182" cy="33" r="4.000000" fill="#00ccff" /></a><line x1="2698.636364" x2="2698.636364" y1="33" y2="61" stroke="#BABDB6" stroke-width="2"/><a xlink:title="R360H"><circle cx="2698.636364" cy="33" r="4.000000" fill="#00ccff" /></a><line x1="2743.363636" x2="2743.363636" y1="33" y2="61" stroke="#BABDB6" stroke-width="2"/><a xlink:title="P366A"><circle cx="2743.363636" cy="33" r="4.000000" fill="#00ccff" /></a><line x1="2780.636364" x2="2780.636364" y1="33" y2="61" stroke="#BABDB6" stroke-width="2"/><a xlink:title="A371V"><circle cx="2780.636364" cy="33" r="4.000000" fill="#00ccff" /></a><line x1="2803.000000" x2="2803.000000" y1="33" y2="61" stroke="#BABDB6" stroke-width="2"/><a xlink:title="G374E"><circle cx="2803.000000" cy="33" r="4.000000" fill="#00ccff" /></a><line x1="2862.636364" x2="2862.636364" y1="33" y2="61" stroke="#BABDB6" stroke-width="2"/><a xlink:title="G382S"><circle cx="2862.636364" cy="33" r="7.412408" fill="#00ccff" /></a><line x1="2952.090909" x2="2952.090909" y1="33" y2="61" stroke="#BABDB6" stroke-width="2"/><a xlink:title="R394Q"><circle cx="2952.090909" cy="33" r="4.000000" fill="#00ccff" /></a><line x1="3078.818182" x2="3078.818182" y1="33" y2="61" stroke="#BABDB6" stroke-width="2"/><a xlink:title="G411R"><circle cx="3078.818182" cy="33" r="4.000000" fill="#00ccff" /></a><line x1="3131.000000" x2="3131.000000" y1="33" y2="61" stroke="#BABDB6" stroke-width="2"/><a xlink:title="G418R"><circle cx="3131.000000" cy="33" r="4.000000" fill="#00ccff" /></a><line x1="3145.909091" x2="3145.909091" y1="33" y2="61" stroke="#BABDB6" stroke-width="2"/><a xlink:title="V420I"><circle cx="3145.909091" cy="33" r="5.074545" fill="#00ccff" /></a><line x1="3190.636364" x2="3190.636364" y1="33" y2="61" stroke="#BABDB6" stroke-width="2"/><a xlink:title="N426S"><circle cx="3190.636364" cy="33" r="4.000000" fill="#00ccff" /></a><line x1="3324.818182" x2="3324.818182" y1="21" y2="61" stroke="#BABDB6" stroke-width="2"/><a xlink:title="R444L"><circle cx="3324.818182" cy="21" r="4.000000" fill="#00ccff" /></a><line x1="3324.818182" x2="3324.818182" y1="33" y2="61" stroke="#BABDB6" stroke-width="2"/><a xlink:title="R444W"><circle cx="3324.818182" cy="33" r="4.000000" fill="#00ccff" /></a><line x1="3391.909091" x2="3391.909091" y1="19" y2="61" stroke="#BABDB6" stroke-width="2"/><a xlink:title="A453V"><circle cx="3391.909091" cy="19" r="4.709640" fill="#00ccff" /></a><line x1="3391.909091" x2="3391.909091" y1="33" y2="61" stroke="#BABDB6" stroke-width="2"/><a xlink:title="A453T"><circle cx="3391.909091" cy="33" r="4.709640" fill="#00ccff" /></a><line x1="3429.181818" x2="3429.181818" y1="33" y2="61" stroke="#BABDB6" stroke-width="2"/><a xlink:title="R458W"><circle cx="3429.181818" cy="33" r="4.000000" fill="#00ccff" /></a><line x1="3459.000000" x2="3459.000000" y1="33" y2="61" stroke="#BABDB6" stroke-width="2"/><a xlink:title="G462R"><circle cx="3459.000000" cy="33" r="5.579835" fill="#00ccff" /></a><line x1="3682.636364" x2="3682.636364" y1="33" y2="61" stroke="#BABDB6" stroke-width="2"/><a xlink:title="A492T"><circle cx="3682.636364" cy="33" r="4.709640" fill="#00ccff" /></a><line x1="3988.272727" x2="3988.272727" y1="33" y2="61" stroke="#BABDB6" stroke-width="2"/><a xlink:title="G533V"><circle cx="3988.272727" cy="33" r="4.000000" fill="#00ccff" /></a><line x1="4003.181818" x2="4003.181818" y1="33" y2="61" stroke="#BABDB6" stroke-width="2"/><a xlink:title="R535Q"><circle cx="4003.181818" cy="33" r="5.074545" fill="#00ccff" /></a><line x1="4487.727273" x2="4487.727273" y1="33" y2="61" stroke="#BABDB6" stroke-width="2"/><a xlink:title="N600S"><circle cx="4487.727273" cy="33" r="4.000000" fill="#00ccff" /></a><line x1="4748.636364" x2="4748.636364" y1="33" y2="61" stroke="#BABDB6" stroke-width="2"/><a xlink:title="K635N"><circle cx="4748.636364" cy="33" r="4.000000" fill="#00ccff" /></a><line x1="4920.090909" x2="4920.090909" y1="33" y2="61" stroke="#BABDB6" stroke-width="2"/><a xlink:title="R658W"><circle cx="4920.090909" cy="33" r="4.000000" fill="#00ccff" /></a><line x1="5046.818182" x2="5046.818182" y1="33" y2="61" stroke="#BABDB6" stroke-width="2"/><a xlink:title="N675S"><circle cx="5046.818182" cy="33" r="4.000000" fill="#00ccff" /></a><line x1="5069.181818" x2="5069.181818" y1="33" y2="61" stroke="#BABDB6" stroke-width="2"/><a xlink:title="R678H"><circle cx="5069.181818" cy="33" r="4.000000" fill="#00ccff" /></a><line x1="5203.363636" x2="5203.363636" y1="33" y2="61" stroke="#BABDB6" stroke-width="2"/><a xlink:title="M696I"><circle cx="5203.363636" cy="33" r="4.000000" fill="#00ccff" /></a><line x1="5218.272727" x2="5218.272727" y1="33" y2="61" stroke="#BABDB6" stroke-width="2"/><a xlink:title="N698I"><circle cx="5218.272727" cy="33" r="4.000000" fill="#00ccff" /></a><line x1="5285.363636" x2="5285.363636" y1="33" y2="61" stroke="#BABDB6" stroke-width="2"/><a xlink:title="L707Q"><circle cx="5285.363636" cy="33" r="4.000000" fill="#00ccff" /></a><line x1="5307.727273" x2="5307.727273" y1="33" y2="61" stroke="#BABDB6" stroke-width="2"/><a xlink:title="G710R"><circle cx="5307.727273" cy="33" r="4.000000" fill="#00ccff" /></a><line x1="5389.727273" x2="5389.727273" y1="33" y2="61" stroke="#BABDB6" stroke-width="2"/><a xlink:title="L721V"><circle cx="5389.727273" cy="33" r="4.000000" fill="#00ccff" /></a><line x1="5628.272727" x2="5628.272727" y1="33" y2="61" stroke="#BABDB6" stroke-width="2"/><a xlink:title="V753I"><circle cx="5628.272727" cy="33" r="4.000000" fill="#00ccff" /></a><line x1="5710.272727" x2="5710.272727" y1="33" y2="61" stroke="#BABDB6" stroke-width="2"/><a xlink:title="F764L"><circle cx="5710.272727" cy="33" r="4.000000" fill="#00ccff" /></a><line x1="5762.454545" x2="5762.454545" y1="33" y2="61" stroke="#BABDB6" stroke-width="2"/><a xlink:title="D771N"><circle cx="5762.454545" cy="33" r="4.000000" fill="#ff0000" /></a><line x1="5792.272727" x2="5792.272727" y1="33" y2="61" stroke="#BABDB6" stroke-width="2"/><a xlink:title="T775M"><circle cx="5792.272727" cy="33" r="4.000000" fill="#00ccff" /></a><line x1="5941.363636" x2="5941.363636" y1="33" y2="61" stroke="#BABDB6" stroke-width="2"/><a xlink:title="R795W"><circle cx="5941.363636" cy="33" r="4.000000" fill="#00ccff" /></a><line x1="6165.000000" x2="6165.000000" y1="33" y2="61" stroke="#BABDB6" stroke-width="2"/><a xlink:title="S825N"><circle cx="6165.000000" cy="33" r="4.000000" fill="#00ccff" /></a><line x1="6448.272727" x2="6448.272727" y1="33" y2="61" stroke="#BABDB6" stroke-width="2"/><a xlink:title="A863V"><circle cx="6448.272727" cy="33" r="4.000000" fill="#00ccff" /></a><line x1="6589.909091" x2="6589.909091" y1="33" y2="61" stroke="#BABDB6" stroke-width="2"/><a xlink:title="A882T"><circle cx="6589.909091" cy="33" r="7.870147" fill="#00ccff" /></a><line x1="6642.090909" x2="6642.090909" y1="33" y2="61" stroke="#BABDB6" stroke-width="2"/><a xlink:title="R889Q"><circle cx="6642.090909" cy="33" r="4.000000" fill="#00ccff" /></a><line x1="6649.545455" x2="6649.545455" y1="33" y2="61" stroke="#BABDB6" stroke-width="2"/><a xlink:title="E890D"><circle cx="6649.545455" cy="33" r="8.216576" fill="#00ccff" /></a><line x1="6671.909091" x2="6671.909091" y1="19" y2="61" stroke="#BABDB6" stroke-width="2"/><a xlink:title="G893V"><circle cx="6671.909091" cy="19" r="4.000000" fill="#00ccff" /></a><line x1="6671.909091" x2="6671.909091" y1="33" y2="61" stroke="#BABDB6" stroke-width="2"/><a xlink:title="G893R"><circle cx="6671.909091" cy="33" r="4.709640" fill="#00ccff" /></a><line x1="6724.090909" x2="6724.090909" y1="33" y2="61" stroke="#BABDB6" stroke-width="2"/><a xlink:title="D900H"><circle cx="6724.090909" cy="33" r="4.000000" fill="#00ccff" /></a><line x1="6753.909091" x2="6753.909091" y1="33" y2="61" stroke="#BABDB6" stroke-width="2"/><a xlink:title="P904R"><circle cx="6753.909091" cy="33" r="4.000000" fill="#00ccff" /></a><line x1="6768.818182" x2="6768.818182" y1="33" y2="61" stroke="#BABDB6" stroke-width="2"/><a xlink:title="Y906*"><circle cx="6768.818182" cy="33" r="4.000000" fill="#00ccff" /></a><line x1="6925.363636" x2="6925.363636" y1="33" y2="61" stroke="#BABDB6" stroke-width="2"/><a xlink:title="S927N"><circle cx="6925.363636" cy="33" r="4.000000" fill="#00ccff" /></a><line x1="7089.363636" x2="7089.363636" y1="33" y2="61" stroke="#BABDB6" stroke-width="2"/><a xlink:title="R949Q"><circle cx="7089.363636" cy="33" r="4.000000" fill="#00ccff" /></a><line x1="7134.090909" x2="7134.090909" y1="33" y2="61" stroke="#BABDB6" stroke-width="2"/><a xlink:title="A955V"><circle cx="7134.090909" cy="33" r="6.498070" fill="#00ccff" /></a><line x1="7357.727273" x2="7357.727273" y1="33" y2="61" stroke="#BABDB6" stroke-width="2"/><a xlink:title="P985L"><circle cx="7357.727273" cy="33" r="4.000000" fill="#00ccff" /></a><a xlink:title="Q96L35_HUMAN, Receptor protein tyrosine kinase variant EphB4v1 (935aa)"><rect fill="#BABDB6" x="15" y="61" width="6970" height="14"/></a><a xlink:title="disorder"><rect fill="url(#disordered-hatch)" x="2378.090909" y="61" width="52.181818" height="14"/></a>
<a xlink:title="disorder"><rect fill="url(#disordered-hatch)" x="3145.909091" y="61" width="7.454545" height="14"/></a>
<a xlink:title="disorder"><rect fill="url(#disordered-hatch)" x="3168.272727" y="61" width="59.636364" height="14"/></a>
<a xlink:title="disorder"><rect fill="url(#disordered-hatch)" x="3242.818182" y="61" width="7.454545" height="14"/></a>
<a xlink:title="disorder"><rect fill="url(#disordered-hatch)" x="3854.090909" y="61" width="7.454545" height="14"/></a>
<a xlink:title="disorder"><rect fill="url(#disordered-hatch)" x="3891.363636" y="61" width="52.181818" height="14"/></a>
<a xlink:title="disorder"><rect fill="url(#disordered-hatch)" x="6239.545455" y="61" width="14.909091" height="14"/></a>
<a xlink:title="disorder"><rect fill="url(#disordered-hatch)" x="6962.636364" y="61" width="22.363636" height="14"/></a>
<a xlink:title="sig_p"><rect fill="#FFD27F" x="22.454545" y="59" width="111.818182" height="18" filter="url(#ds)"/></a>
<a xlink:title="transmembrane"><rect fill="#FFA3A3" x="4025.545455" y="59" width="7.454545" height="18" filter="url(#ds)"/></a>
<a xlink:title="low_complexity"><rect fill="#7FFFFF" x="89.545455" y="59" width="44.727273" height="18" filter="url(#ds)"/></a>
<a xlink:title="low_complexity"><rect fill="#7FFFFF" x="4025.545455" y="59" width="7.454545" height="18" filter="url(#ds)"/></a>
<a xlink:title="low_complexity"><rect fill="#C2DDFF" x="6888.090909" y="59" width="67.090909" height="18" filter="url(#ds)"/></a>
<a xlink:title="disorder"><rect fill="url(#disordered-hatch)" x="6858.272727" y="61" width="22.363636" height="14"/></a>
<g transform="translate(141.727273,56)"><a xlink:href="http://pfam.xfam.org/family/PF01404" xlink:title="Ephrin receptor ligand binding domain"><rect fill="#2dcf00" x="0" y="0" width="1341.818182" height="24" filter="url(#ds)"/><text style="font-size:12px;font-family:sans-serif;fill:#ffffff;" text-anchor="middle" x="670.909091" y="16">Ephrin receptor ligand binding domain</text></a></g>
<g transform="translate(1938.272727,56)"><a xlink:href="http://pfam.xfam.org/family/PF07699" xlink:title="GCC2 and GCC3"><rect fill="#ff5353" x="0" y="0" width="342.909091" height="24" filter="url(#ds)"/><text style="font-size:12px;font-family:sans-serif;fill:#ffffff;" text-anchor="middle" x="171.454545" y="16">GCC2 and GCC3</text></a></g>
<g transform="translate(2437.727273,56)"><a xlink:href="http://pfam.xfam.org/family/PF00041" xlink:title="Fibronectin type III domain"><rect fill="#5b5bff" x="0" y="0" width="685.818182" height="24" filter="url(#ds)"/><text style="font-size:12px;font-family:sans-serif;fill:#ffffff;" text-anchor="middle" x="342.909091" y="16">Fibronectin type III domain</text></a></g>
<g transform="translate(3257.727273,56)"><a xlink:href="http://pfam.xfam.org/family/PF00041" xlink:title="Fibronectin type III domain"><rect fill="#5b5bff" x="0" y="0" width="626.181818" height="24" filter="url(#ds)"/><text style="font-size:12px;font-family:sans-serif;fill:#ffffff;" text-anchor="middle" x="313.090909" y="16">Fibronectin type III domain</text></a></g>
<g transform="translate(4040.454545,56)"><a xlink:href="http://pfam.xfam.org/family/PF14575" xlink:title="Ephrin type-A receptor 2 transmembrane domain"><rect fill="#ebd61d" x="0" y="0" width="536.727273" height="24" filter="url(#ds)"/><text style="font-size:12px;font-family:sans-serif;fill:#ffffff;" text-anchor="middle" x="268.363636" y="16">Ephrin type-A receptor 2 transmembrane domain</text></a></g>
<g transform="translate(4599.545455,56)"><a xlink:href="http://pfam.xfam.org/family/PF07714" xlink:title="Protein tyrosine kinase"><rect fill="#ba21e0" x="0" y="0" width="1930.727273" height="24" filter="url(#ds)"/><text style="font-size:12px;font-family:sans-serif;fill:#ffffff;" text-anchor="middle" x="965.363636" y="16">Protein tyrosine kinase</text></a></g>
<g transform="translate(6589.909091,56)"><a xlink:href="http://pfam.xfam.org/family/PF00536" xlink:title="SAM domain (Sterile alpha motif)"><rect fill="#ff9c42" x="0" y="0" width="260.909091" height="24" filter="url(#ds)"/><text style="font-size:12px;font-family:sans-serif;fill:#ffffff;" text-anchor="middle" x="130.454545" y="16">SAM_1</text></a></g>
<g class="axis">
<line x1="15" x2="6985" y1="90" y2="90" stroke="#AAAAAA" /><line x1="15" x2="15" y1="90" y2="95" stroke="#AAAAAA" /><line x1="22.454545" x2="22.454545" y1="90" y2="95" stroke="#AAAAAA" /><text style="font-size:10px;font-family:sans-serif;fill:#000000;" text-anchor="middle" x="22.454545" y="105">1</text><line x1="52.272727" x2="52.272727" y1="90" y2="95" stroke="#AAAAAA" /><text style="font-size:10px;font-family:sans-serif;fill:#000000;" text-anchor="middle" x="52.272727" y="105">5</text><line x1="67.181818" x2="67.181818" y1="90" y2="95" stroke="#AAAAAA" /><text style="font-size:10px;font-family:sans-serif;fill:#000000;" text-anchor="middle" x="67.181818" y="105">7</text><line x1="89.545455" x2="89.545455" y1="90" y2="95" stroke="#AAAAAA" /><text style="font-size:10px;font-family:sans-serif;fill:#000000;" text-anchor="middle" x="89.545455" y="105">10</text><line x1="119.363636" x2="119.363636" y1="90" y2="95" stroke="#AAAAAA" /><text style="font-size:10px;font-family:sans-serif;fill:#000000;" text-anchor="middle" x="119.363636" y="105">14</text><line x1="141.727273" x2="141.727273" y1="90" y2="95" stroke="#AAAAAA" /><text style="font-size:10px;font-family:sans-serif;fill:#000000;" text-anchor="middle" x="141.727273" y="105">17</text><line x1="350.454545" x2="350.454545" y1="90" y2="95" stroke="#AAAAAA" /><text style="font-size:10px;font-family:sans-serif;fill:#000000;" text-anchor="middle" x="350.454545" y="105">45</text><line x1="499.545455" x2="499.545455" y1="90" y2="95" stroke="#AAAAAA" /><text style="font-size:10px;font-family:sans-serif;fill:#000000;" text-anchor="middle" x="499.545455" y="105">65</text><line x1="633.727273" x2="633.727273" y1="90" y2="95" stroke="#AAAAAA" /><text style="font-size:10px;font-family:sans-serif;fill:#000000;" text-anchor="middle" x="633.727273" y="105">83</text><line x1="693.363636" x2="693.363636" y1="90" y2="95" stroke="#AAAAAA" /><text style="font-size:10px;font-family:sans-serif;fill:#000000;" text-anchor="middle" x="693.363636" y="105">91</text><line x1="775.363636" x2="775.363636" y1="90" y2="95" stroke="#AAAAAA" /><text style="font-size:10px;font-family:sans-serif;fill:#000000;" text-anchor="middle" x="775.363636" y="105">102</text><line x1="857.363636" x2="857.363636" y1="90" y2="95" stroke="#AAAAAA" /><text style="font-size:10px;font-family:sans-serif;fill:#000000;" text-anchor="middle" x="857.363636" y="105">113</text><line x1="961.727273" x2="961.727273" y1="90" y2="95" stroke="#AAAAAA" /><text style="font-size:10px;font-family:sans-serif;fill:#000000;" text-anchor="middle" x="961.727273" y="105">127</text><line x1="1431.363636" x2="1431.363636" y1="90" y2="95" stroke="#AAAAAA" /><text style="font-size:10px;font-family:sans-serif;fill:#000000;" text-anchor="middle" x="1431.363636" y="105">190</text><line x1="1491.000000" x2="1491.000000" y1="90" y2="95" stroke="#AAAAAA" /><text style="font-size:10px;font-family:sans-serif;fill:#000000;" text-anchor="middle" x="1491.000000" y="105">198</text><line x1="1565.545455" x2="1565.545455" y1="90" y2="95" stroke="#AAAAAA" /><text style="font-size:10px;font-family:sans-serif;fill:#000000;" text-anchor="middle" x="1565.545455" y="105">208</text><line x1="1602.818182" x2="1602.818182" y1="90" y2="95" stroke="#AAAAAA" /><text style="font-size:10px;font-family:sans-serif;fill:#000000;" text-anchor="middle" x="1602.818182" y="105">213</text><line x1="1714.636364" x2="1714.636364" y1="90" y2="95" stroke="#AAAAAA" /><text style="font-size:10px;font-family:sans-serif;fill:#000000;" text-anchor="middle" x="1714.636364" y="105">228</text><line x1="1729.545455" x2="1729.545455" y1="90" y2="95" stroke="#AAAAAA" /><text style="font-size:10px;font-family:sans-serif;fill:#000000;" text-anchor="middle" x="1729.545455" y="105">230</text><line x1="1766.818182" x2="1766.818182" y1="90" y2="95" stroke="#AAAAAA" /><text style="font-size:10px;font-family:sans-serif;fill:#000000;" text-anchor="middle" x="1766.818182" y="105">235</text><line x1="1938.272727" x2="1938.272727" y1="90" y2="95" stroke="#AAAAAA" /><text style="font-size:10px;font-family:sans-serif;fill:#000000;" text-anchor="middle" x="1938.272727" y="105">258</text><line x1="2102.272727" x2="2102.272727" y1="90" y2="95" stroke="#AAAAAA" /><text style="font-size:10px;font-family:sans-serif;fill:#000000;" text-anchor="middle" x="2102.272727" y="105">280</text><line x1="2258.818182" x2="2258.818182" y1="90" y2="95" stroke="#AAAAAA" /><text style="font-size:10px;font-family:sans-serif;fill:#000000;" text-anchor="middle" x="2258.818182" y="105">301</text><line x1="2281.181818" x2="2281.181818" y1="90" y2="95" stroke="#AAAAAA" /><text style="font-size:10px;font-family:sans-serif;fill:#000000;" text-anchor="middle" x="2281.181818" y="105">304</text><line x1="2437.727273" x2="2437.727273" y1="90" y2="95" stroke="#AAAAAA" /><text style="font-size:10px;font-family:sans-serif;fill:#000000;" text-anchor="middle" x="2437.727273" y="105">325</text><line x1="2668.818182" x2="2668.818182" y1="90" y2="95" stroke="#AAAAAA" /><text style="font-size:10px;font-family:sans-serif;fill:#000000;" text-anchor="middle" x="2668.818182" y="105">356</text><line x1="2698.636364" x2="2698.636364" y1="90" y2="95" stroke="#AAAAAA" /><text style="font-size:10px;font-family:sans-serif;fill:#000000;" text-anchor="middle" x="2698.636364" y="105">360</text><line x1="2743.363636" x2="2743.363636" y1="90" y2="95" stroke="#AAAAAA" /><text style="font-size:10px;font-family:sans-serif;fill:#000000;" text-anchor="middle" x="2743.363636" y="105">366</text><line x1="2780.636364" x2="2780.636364" y1="90" y2="95" stroke="#AAAAAA" /><text style="font-size:10px;font-family:sans-serif;fill:#000000;" text-anchor="middle" x="2780.636364" y="105">371</text><line x1="2803.000000" x2="2803.000000" y1="90" y2="95" stroke="#AAAAAA" /><text style="font-size:10px;font-family:sans-serif;fill:#000000;" text-anchor="middle" x="2803.000000" y="105">374</text><line x1="2862.636364" x2="2862.636364" y1="90" y2="95" stroke="#AAAAAA" /><text style="font-size:10px;font-family:sans-serif;fill:#000000;" text-anchor="middle" x="2862.636364" y="105">382</text><line x1="2952.090909" x2="2952.090909" y1="90" y2="95" stroke="#AAAAAA" /><text style="font-size:10px;font-family:sans-serif;fill:#000000;" text-anchor="middle" x="2952.090909" y="105">394</text><line x1="3078.818182" x2="3078.818182" y1="90" y2="95" stroke="#AAAAAA" /><text style="font-size:10px;font-family:sans-serif;fill:#000000;" text-anchor="middle" x="3078.818182" y="105">411</text><line x1="3131.000000" x2="3131.000000" y1="90" y2="95" stroke="#AAAAAA" /><text style="font-size:10px;font-family:sans-serif;fill:#000000;" text-anchor="middle" x="3131.000000" y="105">418</text><line x1="3145.909091" x2="3145.909091" y1="90" y2="95" stroke="#AAAAAA" /><text style="font-size:10px;font-family:sans-serif;fill:#000000;" text-anchor="middle" x="3145.909091" y="105">420</text><line x1="3190.636364" x2="3190.636364" y1="90" y2="95" stroke="#AAAAAA" /><text style="font-size:10px;font-family:sans-serif;fill:#000000;" text-anchor="middle" x="3190.636364" y="105">426</text><line x1="3257.727273" x2="3257.727273" y1="90" y2="95" stroke="#AAAAAA" /><text style="font-size:10px;font-family:sans-serif;fill:#000000;" text-anchor="middle" x="3257.727273" y="105">435</text><line x1="3324.818182" x2="3324.818182" y1="90" y2="95" stroke="#AAAAAA" /><text style="font-size:10px;font-family:sans-serif;fill:#000000;" text-anchor="middle" x="3324.818182" y="105">444</text><line x1="3391.909091" x2="3391.909091" y1="90" y2="95" stroke="#AAAAAA" /><text style="font-size:10px;font-family:sans-serif;fill:#000000;" text-anchor="middle" x="3391.909091" y="105">453</text><line x1="3429.181818" x2="3429.181818" y1="90" y2="95" stroke="#AAAAAA" /><text style="font-size:10px;font-family:sans-serif;fill:#000000;" text-anchor="middle" x="3429.181818" y="105">458</text><line x1="3459.000000" x2="3459.000000" y1="90" y2="95" stroke="#AAAAAA" /><text style="font-size:10px;font-family:sans-serif;fill:#000000;" text-anchor="middle" x="3459.000000" y="105">462</text><line x1="3682.636364" x2="3682.636364" y1="90" y2="95" stroke="#AAAAAA" /><text style="font-size:10px;font-family:sans-serif;fill:#000000;" text-anchor="middle" x="3682.636364" y="105">492</text><line x1="3883.909091" x2="3883.909091" y1="90" y2="95" stroke="#AAAAAA" /><text style="font-size:10px;font-family:sans-serif;fill:#000000;" text-anchor="middle" x="3883.909091" y="105">519</text><line x1="3988.272727" x2="3988.272727" y1="90" y2="95" stroke="#AAAAAA" /><text style="font-size:10px;font-family:sans-serif;fill:#000000;" text-anchor="middle" x="3988.272727" y="105">533</text><line x1="4003.181818" x2="4003.181818" y1="90" y2="95" stroke="#AAAAAA" /><text style="font-size:10px;font-family:sans-serif;fill:#000000;" text-anchor="middle" x="4003.181818" y="105">535</text><line x1="4040.454545" x2="4040.454545" y1="90" y2="95" stroke="#AAAAAA" /><text style="font-size:10px;font-family:sans-serif;fill:#000000;" text-anchor="middle" x="4040.454545" y="105">540</text><line x1="4487.727273" x2="4487.727273" y1="90" y2="95" stroke="#AAAAAA" /><text style="font-size:10px;font-family:sans-serif;fill:#000000;" text-anchor="middle" x="4487.727273" y="105">600</text><line x1="4577.181818" x2="4577.181818" y1="90" y2="95" stroke="#AAAAAA" /><text style="font-size:10px;font-family:sans-serif;fill:#000000;" text-anchor="middle" x="4577.181818" y="105">612</text><line x1="4599.545455" x2="4599.545455" y1="90" y2="95" stroke="#AAAAAA" /><text style="font-size:10px;font-family:sans-serif;fill:#000000;" text-anchor="middle" x="4599.545455" y="105">615</text><line x1="4748.636364" x2="4748.636364" y1="90" y2="95" stroke="#AAAAAA" /><text style="font-size:10px;font-family:sans-serif;fill:#000000;" text-anchor="middle" x="4748.636364" y="105">635</text><line x1="4920.090909" x2="4920.090909" y1="90" y2="95" stroke="#AAAAAA" /><text style="font-size:10px;font-family:sans-serif;fill:#000000;" text-anchor="middle" x="4920.090909" y="105">658</text><line x1="5046.818182" x2="5046.818182" y1="90" y2="95" stroke="#AAAAAA" /><text style="font-size:10px;font-family:sans-serif;fill:#000000;" text-anchor="middle" x="5046.818182" y="105">675</text><line x1="5069.181818" x2="5069.181818" y1="90" y2="95" stroke="#AAAAAA" /><text style="font-size:10px;font-family:sans-serif;fill:#000000;" text-anchor="middle" x="5069.181818" y="105">678</text><line x1="5203.363636" x2="5203.363636" y1="90" y2="95" stroke="#AAAAAA" /><text style="font-size:10px;font-family:sans-serif;fill:#000000;" text-anchor="middle" x="5203.363636" y="105">696</text><line x1="5218.272727" x2="5218.272727" y1="90" y2="95" stroke="#AAAAAA" /><text style="font-size:10px;font-family:sans-serif;fill:#000000;" text-anchor="middle" x="5218.272727" y="105">698</text><line x1="5285.363636" x2="5285.363636" y1="90" y2="95" stroke="#AAAAAA" /><text style="font-size:10px;font-family:sans-serif;fill:#000000;" text-anchor="middle" x="5285.363636" y="105">707</text><line x1="5307.727273" x2="5307.727273" y1="90" y2="95" stroke="#AAAAAA" /><text style="font-size:10px;font-family:sans-serif;fill:#000000;" text-anchor="middle" x="5307.727273" y="105">710</text><line x1="5389.727273" x2="5389.727273" y1="90" y2="95" stroke="#AAAAAA" /><text style="font-size:10px;font-family:sans-serif;fill:#000000;" text-anchor="middle" x="5389.727273" y="105">721</text><line x1="5628.272727" x2="5628.272727" y1="90" y2="95" stroke="#AAAAAA" /><text style="font-size:10px;font-family:sans-serif;fill:#000000;" text-anchor="middle" x="5628.272727" y="105">753</text><line x1="5710.272727" x2="5710.272727" y1="90" y2="95" stroke="#AAAAAA" /><text style="font-size:10px;font-family:sans-serif;fill:#000000;" text-anchor="middle" x="5710.272727" y="105">764</text><line x1="5762.454545" x2="5762.454545" y1="90" y2="95" stroke="#AAAAAA" /><text style="font-size:10px;font-family:sans-serif;fill:#000000;" text-anchor="middle" x="5762.454545" y="105">771</text><line x1="5792.272727" x2="5792.272727" y1="90" y2="95" stroke="#AAAAAA" /><text style="font-size:10px;font-family:sans-serif;fill:#000000;" text-anchor="middle" x="5792.272727" y="105">775</text><line x1="5941.363636" x2="5941.363636" y1="90" y2="95" stroke="#AAAAAA" /><text style="font-size:10px;font-family:sans-serif;fill:#000000;" text-anchor="middle" x="5941.363636" y="105">795</text><line x1="6165.000000" x2="6165.000000" y1="90" y2="95" stroke="#AAAAAA" /><text style="font-size:10px;font-family:sans-serif;fill:#000000;" text-anchor="middle" x="6165.000000" y="105">825</text><line x1="6448.272727" x2="6448.272727" y1="90" y2="95" stroke="#AAAAAA" /><text style="font-size:10px;font-family:sans-serif;fill:#000000;" text-anchor="middle" x="6448.272727" y="105">863</text><line x1="6530.272727" x2="6530.272727" y1="90" y2="95" stroke="#AAAAAA" /><text style="font-size:10px;font-family:sans-serif;fill:#000000;" text-anchor="middle" x="6530.272727" y="105">874</text><line x1="6589.909091" x2="6589.909091" y1="90" y2="95" stroke="#AAAAAA" /><text style="font-size:10px;font-family:sans-serif;fill:#000000;" text-anchor="middle" x="6589.909091" y="105">882</text><line x1="6642.090909" x2="6642.090909" y1="90" y2="95" stroke="#AAAAAA" /><text style="font-size:10px;font-family:sans-serif;fill:#000000;" text-anchor="middle" x="6642.090909" y="105">889</text><line x1="6671.909091" x2="6671.909091" y1="90" y2="95" stroke="#AAAAAA" /><text style="font-size:10px;font-family:sans-serif;fill:#000000;" text-anchor="middle" x="6671.909091" y="105">893</text><line x1="6724.090909" x2="6724.090909" y1="90" y2="95" stroke="#AAAAAA" /><text style="font-size:10px;font-family:sans-serif;fill:#000000;" text-anchor="middle" x="6724.090909" y="105">900</text><line x1="6753.909091" x2="6753.909091" y1="90" y2="95" stroke="#AAAAAA" /><text style="font-size:10px;font-family:sans-serif;fill:#000000;" text-anchor="middle" x="6753.909091" y="105">904</text><line x1="6768.818182" x2="6768.818182" y1="90" y2="95" stroke="#AAAAAA" /><text style="font-size:10px;font-family:sans-serif;fill:#000000;" text-anchor="middle" x="6768.818182" y="105">906</text><line x1="6850.818182" x2="6850.818182" y1="90" y2="95" stroke="#AAAAAA" /><text style="font-size:10px;font-family:sans-serif;fill:#000000;" text-anchor="middle" x="6850.818182" y="105">917</text><line x1="6888.090909" x2="6888.090909" y1="90" y2="95" stroke="#AAAAAA" /><text style="font-size:10px;font-family:sans-serif;fill:#000000;" text-anchor="middle" x="6888.090909" y="105">922</text><line x1="6925.363636" x2="6925.363636" y1="90" y2="95" stroke="#AAAAAA" /><text style="font-size:10px;font-family:sans-serif;fill:#000000;" text-anchor="middle" x="6925.363636" y="105">927</text><line x1="6955.181818" x2="6955.181818" y1="90" y2="95" stroke="#AAAAAA" /><text style="font-size:10px;font-family:sans-serif;fill:#000000;" text-anchor="middle" x="6955.181818" y="105">931</text><line x1="6985.000000" x2="6985.000000" y1="90" y2="95" stroke="#AAAAAA" /><text style="font-size:10px;font-family:sans-serif;fill:#000000;" text-anchor="middle" x="6985.000000" y="105">935</text><line x1="7089.363636" x2="7089.363636" y1="90" y2="95" stroke="#AAAAAA" /><text style="font-size:10px;font-family:sans-serif;fill:#000000;" text-anchor="middle" x="7089.363636" y="105">949</text><line x1="7134.090909" x2="7134.090909" y1="90" y2="95" stroke="#AAAAAA" /><text style="font-size:10px;font-family:sans-serif;fill:#000000;" text-anchor="middle" x="7134.090909" y="105">955</text><line x1="7357.727273" x2="7357.727273" y1="90" y2="95" stroke="#AAAAAA" /><text style="font-size:10px;font-family:sans-serif;fill:#000000;" text-anchor="middle" x="7357.727273" y="105">985</text></g>
</svg>
